<svg xmlns="http://www.w3.org/2000/svg" xmlns:xlink="http://www.w3.org/1999/xlink" width="929" zoomAndPan="magnify" viewBox="0 0 696.75 247.499998" height="330" preserveAspectRatio="xMidYMid meet" version="1.0"><defs><g/><clipPath id="79ec1ff442"><path d="M 496 17.054688 L 695 17.054688 L 695 246.84375 L 496 246.84375 Z M 496 17.054688 " clip-rule="nonzero"/></clipPath><clipPath id="ffcd890617"><rect x="0" width="98" y="0" height="49"/></clipPath></defs><g clip-path="url(#79ec1ff442)"><path fill="#ffbd59" d="M 563.660156 155.542969 L 497.898438 129.078125 C 495.566406 128.140625 495.910156 124.734375 498.382812 124.28125 L 562.6875 109.460938 C 563.886719 109.242188 564.753906 108.195312 564.746094 106.980469 L 556.375 20.460938 C 556.363281 18.089844 559.34375 17.023438 560.839844 18.867188 L 610.269531 79.917969 C 611.058594 80.890625 612.445312 81.132812 613.519531 80.488281 L 659.191406 52.933594 C 661.3125 51.65625 663.808594 53.894531 662.765625 56.144531 L 630.261719 126.082031 C 629.59375 127.523438 630.414062 129.214844 631.960938 129.582031 L 692.683594 175.585938 C 695.488281 176.253906 695.140625 180.351562 692.261719 180.535156 L 613.703125 157.921875 C 612.398438 158.007812 611.378906 159.078125 611.355469 160.382812 L 584.316406 243.535156 C 584.265625 246.269531 580.5 246.96875 579.476562 244.429688 L 565.050781 156.929688 C 564.796875 156.296875 564.292969 155.796875 563.660156 155.542969 Z M 563.660156 155.542969 " fill-opacity="1" fill-rule="nonzero"/></g><g fill="#ffbd59" fill-opacity="1"><g transform="translate(29.620512, 94.832689)"><g><path d="M 48.703125 -1.09375 C 49.023438 -1.039062 49.1875 -0.890625 49.1875 -0.640625 C 49.1875 -0.390625 49.003906 -0.265625 48.640625 -0.265625 C 47.773438 -0.265625 47 -0.265625 46.3125 -0.265625 C 45.632812 -0.265625 44.910156 -0.265625 44.140625 -0.265625 L 44.140625 -0.34375 L 38.828125 -0.34375 L 38.828125 -0.265625 C 38.097656 -0.265625 37.335938 -0.265625 36.546875 -0.265625 C 35.753906 -0.265625 34.90625 -0.265625 34 -0.265625 C 33.632812 -0.265625 33.453125 -0.390625 33.453125 -0.640625 C 33.453125 -0.890625 33.609375 -1.039062 33.921875 -1.09375 C 34.691406 -1.226562 35.40625 -1.316406 36.0625 -1.359375 C 36.726562 -1.410156 37.195312 -1.601562 37.46875 -1.9375 C 37.738281 -2.28125 37.671875 -2.953125 37.265625 -3.953125 C 36.859375 -4.992188 36.4375 -6.035156 36 -7.078125 C 35.570312 -8.128906 35.128906 -9.175781 34.671875 -10.21875 L 12.125 -10.21875 L 9.53125 -3.953125 C 9.125 -2.953125 9.160156 -2.28125 9.640625 -1.9375 C 10.117188 -1.601562 10.785156 -1.410156 11.640625 -1.359375 C 12.503906 -1.316406 13.300781 -1.226562 14.03125 -1.09375 C 14.394531 -1.039062 14.566406 -0.890625 14.546875 -0.640625 C 14.523438 -0.390625 14.332031 -0.265625 13.96875 -0.265625 C 13.101562 -0.265625 12.078125 -0.265625 10.890625 -0.265625 C 9.710938 -0.265625 8.738281 -0.265625 7.96875 -0.265625 L 7.96875 -0.34375 L 6.40625 -0.34375 L 6.40625 -0.265625 C 5.675781 -0.265625 4.984375 -0.265625 4.328125 -0.265625 C 3.671875 -0.265625 2.882812 -0.265625 1.96875 -0.265625 C 1.65625 -0.265625 1.488281 -0.390625 1.46875 -0.640625 C 1.445312 -0.890625 1.59375 -1.039062 1.90625 -1.09375 C 2.675781 -1.226562 3.410156 -1.316406 4.109375 -1.359375 C 4.816406 -1.410156 5.488281 -1.640625 6.125 -2.046875 C 6.757812 -2.453125 7.304688 -3.222656 7.765625 -4.359375 C 10.304688 -10.398438 12.835938 -16.425781 15.359375 -22.4375 C 17.878906 -28.457031 20.390625 -34.488281 22.890625 -40.53125 C 23.347656 -41.570312 23.78125 -42.304688 24.1875 -42.734375 C 24.59375 -43.171875 25.382812 -43.28125 26.5625 -43.0625 L 42.984375 -3.953125 C 43.484375 -2.953125 44.023438 -2.28125 44.609375 -1.9375 C 45.203125 -1.601562 45.851562 -1.410156 46.5625 -1.359375 C 47.269531 -1.316406 47.984375 -1.226562 48.703125 -1.09375 Z M 12.8125 -11.71875 L 34 -11.71875 C 32.3125 -15.625 30.640625 -19.539062 28.984375 -23.46875 C 27.328125 -27.394531 25.679688 -31.3125 24.046875 -35.21875 C 23.546875 -36.257812 23.09375 -36.257812 22.6875 -35.21875 Z M 12.8125 -11.71875 "/></g></g></g><g fill="#ffbd59" fill-opacity="1"><g transform="translate(95.760224, 94.832689)"><g><path d="M 45.78125 -42.78125 C 46.144531 -42.78125 46.335938 -42.609375 46.359375 -42.265625 C 46.378906 -41.929688 46.207031 -41.71875 45.84375 -41.625 C 45.070312 -41.53125 44.300781 -41.445312 43.53125 -41.375 C 42.757812 -41.3125 42.113281 -41.078125 41.59375 -40.671875 C 41.070312 -40.265625 40.8125 -39.445312 40.8125 -38.21875 L 40.734375 -0.953125 C 40.734375 -0.273438 40.414062 0.0625 39.78125 0.0625 C 39.414062 0.0625 39.03125 0.0625 38.625 0.0625 C 38.21875 0.0625 37.8125 0.0625 37.40625 0.0625 C 36.8125 0.0625 36.34375 -0.0351562 36 -0.234375 C 35.664062 -0.441406 35.335938 -0.75 35.015625 -1.15625 L 8.78125 -37.609375 L 9.125 -4.5 C 9.125 -3.3125 9.347656 -2.503906 9.796875 -2.078125 C 10.253906 -1.648438 10.847656 -1.410156 11.578125 -1.359375 C 12.304688 -1.316406 13.054688 -1.226562 13.828125 -1.09375 C 14.191406 -1.039062 14.363281 -0.832031 14.34375 -0.46875 C 14.320312 -0.113281 14.128906 0.0625 13.765625 0.0625 L 1.96875 0.0625 C 1.613281 0.0625 1.4375 -0.113281 1.4375 -0.46875 C 1.4375 -0.832031 1.59375 -1.039062 1.90625 -1.09375 C 2.675781 -1.226562 3.425781 -1.328125 4.15625 -1.390625 C 4.882812 -1.460938 5.472656 -1.722656 5.921875 -2.171875 C 6.378906 -2.628906 6.609375 -3.472656 6.609375 -4.703125 L 6.953125 -38.5625 C 6.898438 -39.644531 6.671875 -40.367188 6.265625 -40.734375 C 5.859375 -41.097656 5.347656 -41.3125 4.734375 -41.375 C 4.117188 -41.445312 3.425781 -41.53125 2.65625 -41.625 C 2.34375 -41.71875 2.195312 -41.929688 2.21875 -42.265625 C 2.238281 -42.609375 2.40625 -42.78125 2.71875 -42.78125 L 9.734375 -42.78125 C 10.785156 -42.78125 11.535156 -42.628906 11.984375 -42.328125 C 12.441406 -42.035156 12.898438 -41.570312 13.359375 -40.9375 C 17.398438 -35.3125 21.460938 -29.644531 25.546875 -23.9375 C 29.628906 -18.238281 33.71875 -12.550781 37.8125 -6.875 C 38.082031 -6.46875 38.34375 -6.3125 38.59375 -6.40625 C 38.84375 -6.5 38.96875 -6.769531 38.96875 -7.21875 C 38.96875 -12.488281 38.96875 -17.722656 38.96875 -22.921875 C 38.96875 -28.117188 38.96875 -33.332031 38.96875 -38.5625 C 38.925781 -39.644531 38.640625 -40.367188 38.109375 -40.734375 C 37.585938 -41.097656 36.953125 -41.3125 36.203125 -41.375 C 35.453125 -41.445312 34.691406 -41.53125 33.921875 -41.625 C 33.609375 -41.71875 33.460938 -41.929688 33.484375 -42.265625 C 33.503906 -42.609375 33.675781 -42.78125 34 -42.78125 Z M 45.78125 -42.78125 "/></g></g></g><g fill="#ffbd59" fill-opacity="1"><g transform="translate(159.107325, 94.832689)"><g><path d="M 36.3125 -9 C 36.40625 -9.3125 36.617188 -9.457031 36.953125 -9.4375 C 37.296875 -9.414062 37.46875 -9.242188 37.46875 -8.921875 L 37.125 -0.6875 C 37.125 -0.457031 36.96875 -0.34375 36.65625 -0.34375 L 1.96875 -0.34375 C 1.613281 -0.34375 1.4375 -0.507812 1.4375 -0.84375 C 1.4375 -1.1875 1.59375 -1.382812 1.90625 -1.4375 C 2.675781 -1.570312 3.378906 -1.671875 4.015625 -1.734375 C 4.648438 -1.804688 5.160156 -2.046875 5.546875 -2.453125 C 5.929688 -2.859375 6.125 -3.65625 6.125 -4.84375 L 6.125 -38.484375 C 6.125 -39.710938 5.929688 -40.53125 5.546875 -40.9375 C 5.160156 -41.351562 4.648438 -41.582031 4.015625 -41.625 C 3.378906 -41.664062 2.675781 -41.753906 1.90625 -41.890625 C 1.59375 -41.984375 1.4375 -42.203125 1.4375 -42.546875 C 1.4375 -42.890625 1.613281 -43.0625 1.96875 -43.0625 L 15.390625 -43.0625 C 15.753906 -43.0625 15.945312 -42.890625 15.96875 -42.546875 C 16 -42.203125 15.832031 -41.984375 15.46875 -41.890625 C 14.695312 -41.753906 13.976562 -41.664062 13.3125 -41.625 C 12.65625 -41.582031 12.132812 -41.351562 11.75 -40.9375 C 11.363281 -40.53125 11.171875 -39.710938 11.171875 -38.484375 L 11.171875 -4.703125 C 11.171875 -3.703125 11.410156 -2.992188 11.890625 -2.578125 C 12.367188 -2.171875 12.96875 -1.925781 13.6875 -1.84375 L 26.5 -1.84375 C 28.863281 -1.84375 30.691406 -2.125 31.984375 -2.6875 C 33.273438 -3.257812 34.238281 -4.085938 34.875 -5.171875 C 35.507812 -6.265625 35.988281 -7.539062 36.3125 -9 Z M 36.3125 -9 "/></g></g></g><g fill="#ffbd59" fill-opacity="1"><g transform="translate(214.893941, 94.832689)"><g><path d="M 36.3125 -7.828125 C 36.40625 -8.148438 36.617188 -8.300781 36.953125 -8.28125 C 37.296875 -8.257812 37.46875 -8.085938 37.46875 -7.765625 L 37.125 -0.6875 C 37.125 -0.457031 36.96875 -0.34375 36.65625 -0.34375 L 1.96875 -0.34375 C 1.613281 -0.34375 1.4375 -0.507812 1.4375 -0.84375 C 1.4375 -1.1875 1.59375 -1.382812 1.90625 -1.4375 C 2.675781 -1.570312 3.378906 -1.671875 4.015625 -1.734375 C 4.648438 -1.804688 5.160156 -2.046875 5.546875 -2.453125 C 5.929688 -2.859375 6.125 -3.65625 6.125 -4.84375 L 6.125 -38.484375 C 6.125 -39.710938 5.929688 -40.53125 5.546875 -40.9375 C 5.160156 -41.351562 4.648438 -41.582031 4.015625 -41.625 C 3.378906 -41.664062 2.675781 -41.753906 1.90625 -41.890625 C 1.59375 -41.984375 1.4375 -42.203125 1.4375 -42.546875 C 1.4375 -42.890625 1.613281 -43.0625 1.96875 -43.0625 L 35.078125 -43.0625 C 35.398438 -43.0625 35.5625 -42.945312 35.5625 -42.71875 L 35.96875 -35.5625 C 35.96875 -35.289062 35.785156 -35.128906 35.421875 -35.078125 C 35.054688 -35.035156 34.832031 -35.175781 34.75 -35.5 C 34.425781 -36.988281 33.945312 -38.164062 33.3125 -39.03125 C 32.675781 -39.894531 31.707031 -40.519531 30.40625 -40.90625 C 29.113281 -41.289062 27.289062 -41.484375 24.9375 -41.484375 L 14.234375 -41.484375 C 13.367188 -41.484375 12.640625 -41.300781 12.046875 -40.9375 C 11.460938 -40.570312 11.171875 -39.800781 11.171875 -38.625 L 11.171875 -21.453125 L 24.734375 -21.453125 C 26.867188 -21.453125 28.273438 -21.914062 28.953125 -22.84375 C 29.628906 -23.78125 29.992188 -24.75 30.046875 -25.75 C 30.085938 -26.113281 30.289062 -26.285156 30.65625 -26.265625 C 31.019531 -26.242188 31.203125 -26.050781 31.203125 -25.6875 L 31.203125 -15.734375 C 31.203125 -15.421875 31.019531 -15.25 30.65625 -15.21875 C 30.289062 -15.195312 30.085938 -15.347656 30.046875 -15.671875 C 29.992188 -16.710938 29.628906 -17.6875 28.953125 -18.59375 C 28.273438 -19.5 26.867188 -19.953125 24.734375 -19.953125 L 11.171875 -19.953125 L 11.171875 -4.703125 C 11.171875 -3.703125 11.410156 -2.992188 11.890625 -2.578125 C 12.367188 -2.171875 12.96875 -1.925781 13.6875 -1.84375 L 27.25 -1.84375 C 29.613281 -1.84375 31.382812 -2.035156 32.5625 -2.421875 C 33.738281 -2.804688 34.578125 -3.441406 35.078125 -4.328125 C 35.578125 -5.210938 35.988281 -6.378906 36.3125 -7.828125 Z M 36.3125 -7.828125 "/></g></g></g><g fill="#ffbd59" fill-opacity="1"><g transform="translate(269.318315, 94.832689)"><g><path d="M 15.46875 -1.4375 C 15.832031 -1.382812 16 -1.1875 15.96875 -0.84375 C 15.945312 -0.507812 15.753906 -0.34375 15.390625 -0.34375 L 1.96875 -0.34375 C 1.613281 -0.34375 1.4375 -0.507812 1.4375 -0.84375 C 1.4375 -1.1875 1.59375 -1.382812 1.90625 -1.4375 C 2.675781 -1.570312 3.378906 -1.671875 4.015625 -1.734375 C 4.648438 -1.804688 5.160156 -2.046875 5.546875 -2.453125 C 5.929688 -2.859375 6.125 -3.65625 6.125 -4.84375 L 6.125 -38.484375 C 6.125 -39.710938 5.929688 -40.53125 5.546875 -40.9375 C 5.160156 -41.351562 4.648438 -41.582031 4.015625 -41.625 C 3.378906 -41.664062 2.675781 -41.753906 1.90625 -41.890625 C 1.59375 -41.984375 1.4375 -42.203125 1.4375 -42.546875 C 1.4375 -42.890625 1.613281 -43.0625 1.96875 -43.0625 L 15.390625 -43.0625 C 15.753906 -43.0625 15.945312 -42.890625 15.96875 -42.546875 C 16 -42.203125 15.832031 -41.984375 15.46875 -41.890625 C 14.695312 -41.753906 13.976562 -41.664062 13.3125 -41.625 C 12.65625 -41.582031 12.132812 -41.351562 11.75 -40.9375 C 11.363281 -40.53125 11.171875 -39.710938 11.171875 -38.484375 L 11.171875 -4.84375 C 11.171875 -3.65625 11.363281 -2.859375 11.75 -2.453125 C 12.132812 -2.046875 12.65625 -1.804688 13.3125 -1.734375 C 13.976562 -1.671875 14.695312 -1.570312 15.46875 -1.4375 Z M 15.46875 -1.4375 "/></g></g></g><g fill="#ffbd59" fill-opacity="1"><g transform="translate(302.287231, 94.832689)"><g><path d="M 40.125 -42.4375 L 40.46875 -34.546875 C 40.507812 -34.222656 40.347656 -34.050781 39.984375 -34.03125 C 39.617188 -34.007812 39.394531 -34.15625 39.3125 -34.46875 C 39.039062 -35.875 38.800781 -37.019531 38.59375 -37.90625 C 38.382812 -38.789062 38.019531 -39.472656 37.5 -39.953125 C 36.976562 -40.429688 36.179688 -40.757812 35.109375 -40.9375 C 34.046875 -41.125 32.539062 -41.21875 30.59375 -41.21875 L 26.5 -41.21875 C 25.632812 -41.21875 24.90625 -41.035156 24.3125 -40.671875 C 23.726562 -40.304688 23.4375 -39.535156 23.4375 -38.359375 L 23.4375 -4.5 C 23.4375 -3.3125 23.640625 -2.503906 24.046875 -2.078125 C 24.453125 -1.648438 24.984375 -1.410156 25.640625 -1.359375 C 26.304688 -1.316406 27.003906 -1.226562 27.734375 -1.09375 C 28.085938 -1.039062 28.253906 -0.832031 28.234375 -0.46875 C 28.210938 -0.113281 28.019531 0.0625 27.65625 0.0625 L 14.234375 0.0625 C 13.867188 0.0625 13.675781 -0.113281 13.65625 -0.46875 C 13.632812 -0.832031 13.785156 -1.039062 14.109375 -1.09375 C 14.878906 -1.226562 15.59375 -1.316406 16.25 -1.359375 C 16.90625 -1.410156 17.425781 -1.648438 17.8125 -2.078125 C 18.195312 -2.503906 18.390625 -3.3125 18.390625 -4.5 L 18.390625 -38.359375 C 18.390625 -39.535156 18.09375 -40.304688 17.5 -40.671875 C 16.914062 -41.035156 16.210938 -41.21875 15.390625 -41.21875 L 11.3125 -41.21875 C 9.351562 -41.21875 7.835938 -41.125 6.765625 -40.9375 C 5.703125 -40.757812 4.910156 -40.429688 4.390625 -39.953125 C 3.867188 -39.472656 3.503906 -38.789062 3.296875 -37.90625 C 3.097656 -37.019531 2.863281 -35.875 2.59375 -34.46875 C 2.539062 -34.15625 2.320312 -34.007812 1.9375 -34.03125 C 1.550781 -34.050781 1.382812 -34.222656 1.4375 -34.546875 L 1.765625 -42.4375 C 1.765625 -42.664062 1.925781 -42.78125 2.25 -42.78125 L 39.65625 -42.78125 C 39.96875 -42.78125 40.125 -42.664062 40.125 -42.4375 Z M 40.125 -42.4375 "/></g></g></g><g fill="#ffbd59" fill-opacity="1"><g transform="translate(359.776664, 94.832689)"><g><path d="M 46.328125 -42.78125 C 46.691406 -42.78125 46.882812 -42.609375 46.90625 -42.265625 C 46.925781 -41.929688 46.753906 -41.71875 46.390625 -41.625 C 45.660156 -41.53125 44.898438 -41.445312 44.109375 -41.375 C 43.316406 -41.3125 42.660156 -41.078125 42.140625 -40.671875 C 41.617188 -40.265625 41.359375 -39.445312 41.359375 -38.21875 L 41.359375 -15.734375 C 41.359375 -12.960938 40.867188 -10.539062 39.890625 -8.46875 C 38.910156 -6.40625 37.578125 -4.679688 35.890625 -3.296875 C 34.210938 -1.910156 32.316406 -0.863281 30.203125 -0.15625 C 28.097656 0.539062 25.957031 0.890625 23.78125 0.890625 C 21.550781 0.890625 19.390625 0.539062 17.296875 -0.15625 C 15.210938 -0.863281 13.328125 -1.910156 11.640625 -3.296875 C 9.960938 -4.679688 8.632812 -6.40625 7.65625 -8.46875 C 6.6875 -10.539062 6.203125 -12.960938 6.203125 -15.734375 L 6.203125 -38.21875 C 6.203125 -39.445312 5.992188 -40.265625 5.578125 -40.671875 C 5.171875 -41.078125 4.648438 -41.3125 4.015625 -41.375 C 3.378906 -41.445312 2.675781 -41.53125 1.90625 -41.625 C 1.59375 -41.71875 1.4375 -41.929688 1.4375 -42.265625 C 1.4375 -42.609375 1.613281 -42.78125 1.96875 -42.78125 L 15.46875 -42.78125 C 15.832031 -42.78125 16.015625 -42.609375 16.015625 -42.265625 C 16.015625 -41.929688 15.851562 -41.71875 15.53125 -41.625 C 14.757812 -41.53125 14.046875 -41.445312 13.390625 -41.375 C 12.734375 -41.3125 12.207031 -41.078125 11.8125 -40.671875 C 11.425781 -40.265625 11.234375 -39.445312 11.234375 -38.21875 L 11.234375 -15.734375 C 11.285156 -12.554688 11.988281 -9.921875 13.34375 -7.828125 C 14.707031 -5.742188 16.457031 -4.175781 18.59375 -3.125 C 20.726562 -2.082031 22.957031 -1.5625 25.28125 -1.5625 C 27.632812 -1.5625 29.898438 -2.09375 32.078125 -3.15625 C 34.265625 -4.226562 36.050781 -5.820312 37.4375 -7.9375 C 38.820312 -10.050781 39.515625 -12.648438 39.515625 -15.734375 L 39.515625 -38.421875 C 39.515625 -39.554688 39.238281 -40.316406 38.6875 -40.703125 C 38.144531 -41.085938 37.5 -41.3125 36.75 -41.375 C 36 -41.445312 35.238281 -41.53125 34.46875 -41.625 C 34.15625 -41.71875 34.007812 -41.929688 34.03125 -42.265625 C 34.050781 -42.609375 34.222656 -42.78125 34.546875 -42.78125 Z M 46.328125 -42.78125 "/></g></g></g><g fill="#ffbd59" fill-opacity="1"><g transform="translate(423.668673, 94.832689)"><g><path d="M 45.78125 -42.78125 C 46.144531 -42.78125 46.335938 -42.609375 46.359375 -42.265625 C 46.378906 -41.929688 46.207031 -41.71875 45.84375 -41.625 C 45.070312 -41.53125 44.300781 -41.445312 43.53125 -41.375 C 42.757812 -41.3125 42.113281 -41.078125 41.59375 -40.671875 C 41.070312 -40.265625 40.8125 -39.445312 40.8125 -38.21875 L 40.734375 -0.953125 C 40.734375 -0.273438 40.414062 0.0625 39.78125 0.0625 C 39.414062 0.0625 39.03125 0.0625 38.625 0.0625 C 38.21875 0.0625 37.8125 0.0625 37.40625 0.0625 C 36.8125 0.0625 36.34375 -0.0351562 36 -0.234375 C 35.664062 -0.441406 35.335938 -0.75 35.015625 -1.15625 L 8.78125 -37.609375 L 9.125 -4.5 C 9.125 -3.3125 9.347656 -2.503906 9.796875 -2.078125 C 10.253906 -1.648438 10.847656 -1.410156 11.578125 -1.359375 C 12.304688 -1.316406 13.054688 -1.226562 13.828125 -1.09375 C 14.191406 -1.039062 14.363281 -0.832031 14.34375 -0.46875 C 14.320312 -0.113281 14.128906 0.0625 13.765625 0.0625 L 1.96875 0.0625 C 1.613281 0.0625 1.4375 -0.113281 1.4375 -0.46875 C 1.4375 -0.832031 1.59375 -1.039062 1.90625 -1.09375 C 2.675781 -1.226562 3.425781 -1.328125 4.15625 -1.390625 C 4.882812 -1.460938 5.472656 -1.722656 5.921875 -2.171875 C 6.378906 -2.628906 6.609375 -3.472656 6.609375 -4.703125 L 6.953125 -38.5625 C 6.898438 -39.644531 6.671875 -40.367188 6.265625 -40.734375 C 5.859375 -41.097656 5.347656 -41.3125 4.734375 -41.375 C 4.117188 -41.445312 3.425781 -41.53125 2.65625 -41.625 C 2.34375 -41.71875 2.195312 -41.929688 2.21875 -42.265625 C 2.238281 -42.609375 2.40625 -42.78125 2.71875 -42.78125 L 9.734375 -42.78125 C 10.785156 -42.78125 11.535156 -42.628906 11.984375 -42.328125 C 12.441406 -42.035156 12.898438 -41.570312 13.359375 -40.9375 C 17.398438 -35.3125 21.460938 -29.644531 25.546875 -23.9375 C 29.628906 -18.238281 33.71875 -12.550781 37.8125 -6.875 C 38.082031 -6.46875 38.34375 -6.3125 38.59375 -6.40625 C 38.84375 -6.5 38.96875 -6.769531 38.96875 -7.21875 C 38.96875 -12.488281 38.96875 -17.722656 38.96875 -22.921875 C 38.96875 -28.117188 38.96875 -33.332031 38.96875 -38.5625 C 38.925781 -39.644531 38.640625 -40.367188 38.109375 -40.734375 C 37.585938 -41.097656 36.953125 -41.3125 36.203125 -41.375 C 35.453125 -41.445312 34.691406 -41.53125 33.921875 -41.625 C 33.609375 -41.71875 33.460938 -41.929688 33.484375 -42.265625 C 33.503906 -42.609375 33.675781 -42.78125 34 -42.78125 Z M 45.78125 -42.78125 "/></g></g></g><g fill="#ffbd59" fill-opacity="1"><g transform="translate(485.653372, 94.832689)"><g><path d="M 45.921875 -17.984375 C 46.285156 -17.984375 46.476562 -17.8125 46.5 -17.46875 C 46.519531 -17.132812 46.347656 -16.921875 45.984375 -16.828125 C 45.253906 -16.734375 44.59375 -16.582031 44 -16.375 C 43.414062 -16.175781 42.953125 -15.816406 42.609375 -15.296875 C 42.265625 -14.773438 42.09375 -13.898438 42.09375 -12.671875 L 42.09375 -2.65625 C 42.09375 -2.425781 41.984375 -2.3125 41.765625 -2.3125 C 40.535156 -2.3125 39.382812 -2.164062 38.3125 -1.875 C 37.25 -1.582031 36.125 -1.238281 34.9375 -0.84375 C 33.757812 -0.457031 32.363281 -0.117188 30.75 0.171875 C 29.144531 0.460938 27.160156 0.609375 24.796875 0.609375 C 20.347656 0.609375 16.53125 -0.191406 13.34375 -1.796875 C 10.164062 -3.410156 7.625 -5.546875 5.71875 -8.203125 C 3.8125 -10.859375 2.53125 -13.773438 1.875 -16.953125 C 1.21875 -20.140625 1.21875 -23.3125 1.875 -26.46875 C 2.53125 -29.625 3.8125 -32.53125 5.71875 -35.1875 C 7.625 -37.84375 10.164062 -39.976562 13.34375 -41.59375 C 16.53125 -43.207031 20.347656 -44.015625 24.796875 -44.015625 C 26.523438 -44.015625 28.160156 -43.875 29.703125 -43.59375 C 31.242188 -43.320312 32.675781 -42.9375 34 -42.4375 L 34.0625 -42.4375 C 34.332031 -42.394531 34.671875 -42.257812 35.078125 -42.03125 C 36.128906 -41.582031 37.222656 -41.023438 38.359375 -40.359375 C 39.492188 -39.703125 40.351562 -39.007812 40.9375 -38.28125 C 41.664062 -37.414062 42.003906 -36.597656 41.953125 -35.828125 C 41.910156 -35.054688 41.648438 -34.429688 41.171875 -33.953125 C 40.703125 -33.484375 40.125 -33.25 39.4375 -33.25 C 38.988281 -33.25 38.515625 -33.394531 38.015625 -33.6875 C 37.515625 -33.976562 37.082031 -34.488281 36.71875 -35.21875 C 36.40625 -35.8125 36.175781 -36.425781 36.03125 -37.0625 C 35.894531 -37.695312 35.597656 -38.363281 35.140625 -39.0625 C 34.691406 -39.769531 33.785156 -40.460938 32.421875 -41.140625 C 31.566406 -41.597656 30.476562 -41.894531 29.15625 -42.03125 C 27.84375 -42.164062 26.390625 -42.234375 24.796875 -42.234375 C 21.347656 -42.234375 18.394531 -41.492188 15.9375 -40.015625 C 13.488281 -38.546875 11.535156 -36.582031 10.078125 -34.125 C 8.628906 -31.675781 7.65625 -28.984375 7.15625 -26.046875 C 6.65625 -23.117188 6.65625 -20.191406 7.15625 -17.265625 C 7.65625 -14.335938 8.640625 -11.644531 10.109375 -9.1875 C 11.585938 -6.738281 13.550781 -4.773438 16 -3.296875 C 18.457031 -1.828125 21.390625 -1.09375 24.796875 -1.09375 C 27.296875 -1.09375 29.40625 -1.328125 31.125 -1.796875 C 32.851562 -2.273438 34.285156 -2.878906 35.421875 -3.609375 C 36.691406 -4.515625 37.328125 -5.5625 37.328125 -6.75 C 37.328125 -8.25 37.328125 -9.460938 37.328125 -10.390625 C 37.328125 -11.316406 37.328125 -12.210938 37.328125 -13.078125 C 37.328125 -14.304688 37.066406 -15.144531 36.546875 -15.59375 C 36.023438 -16.050781 35.378906 -16.347656 34.609375 -16.484375 C 33.835938 -16.617188 33.066406 -16.734375 32.296875 -16.828125 C 31.972656 -16.921875 31.8125 -17.132812 31.8125 -17.46875 C 31.8125 -17.8125 31.992188 -17.984375 32.359375 -17.984375 Z M 45.921875 -17.984375 "/></g></g></g><g transform="matrix(1, 0, 0, 1, 436, 10)"><g clip-path="url(#ffcd890617)"><g fill="#ffbd59" fill-opacity="1"><g transform="translate(0.861423, 32.381998)"><g><path d="M 12.796875 -27.234375 C 15.816406 -27.234375 18.398438 -26.742188 20.546875 -25.765625 C 22.703125 -24.796875 24.425781 -23.503906 25.71875 -21.890625 C 27.019531 -20.285156 27.882812 -18.523438 28.3125 -16.609375 C 28.738281 -14.703125 28.738281 -12.785156 28.3125 -10.859375 C 27.882812 -8.929688 27.019531 -7.160156 25.71875 -5.546875 C 24.425781 -3.941406 22.703125 -2.648438 20.546875 -1.671875 C 18.398438 -0.703125 15.816406 -0.21875 12.796875 -0.21875 L 1.25 -0.21875 C 1.019531 -0.21875 0.90625 -0.320312 0.90625 -0.53125 C 0.90625 -0.75 1.003906 -0.875 1.203125 -0.90625 C 1.691406 -0.988281 2.132812 -1.050781 2.53125 -1.09375 C 2.9375 -1.132812 3.257812 -1.285156 3.5 -1.546875 C 3.75 -1.804688 3.875 -2.3125 3.875 -3.0625 C 3.875 -4.5 3.875 -6.132812 3.875 -7.96875 C 3.875 -9.8125 3.875 -11.722656 3.875 -13.703125 C 3.875 -15.679688 3.875 -17.597656 3.875 -19.453125 C 3.875 -21.304688 3.875 -22.9375 3.875 -24.34375 C 3.875 -25.125 3.75 -25.640625 3.5 -25.890625 C 3.257812 -26.148438 2.9375 -26.296875 2.53125 -26.328125 C 2.132812 -26.359375 1.691406 -26.414062 1.203125 -26.5 C 1.003906 -26.5625 0.90625 -26.695312 0.90625 -26.90625 C 0.90625 -27.125 1.019531 -27.234375 1.25 -27.234375 Z M 12.0625 -1.125 C 14.625 -1.125 16.816406 -1.570312 18.640625 -2.46875 C 20.460938 -3.375 21.910156 -4.570312 22.984375 -6.0625 C 24.066406 -7.5625 24.785156 -9.207031 25.140625 -11 C 25.503906 -12.800781 25.5 -14.59375 25.125 -16.375 C 24.75 -18.15625 24.015625 -19.789062 22.921875 -21.28125 C 21.828125 -22.78125 20.375 -23.984375 18.5625 -24.890625 C 16.757812 -25.796875 14.59375 -26.25 12.0625 -26.25 L 9 -26.25 C 8.457031 -26.25 8 -26.128906 7.625 -25.890625 C 7.25 -25.660156 7.0625 -25.175781 7.0625 -24.4375 L 7.0625 -2.96875 C 7.0625 -2.226562 7.253906 -1.734375 7.640625 -1.484375 C 8.035156 -1.242188 8.503906 -1.125 9.046875 -1.125 Z M 12.0625 -1.125 "/></g></g></g><g fill="#ffbd59" fill-opacity="1"><g transform="translate(40.248478, 32.381998)"><g><path d="M 9.78125 -0.90625 C 10.007812 -0.875 10.113281 -0.75 10.09375 -0.53125 C 10.082031 -0.320312 9.960938 -0.21875 9.734375 -0.21875 L 1.25 -0.21875 C 1.019531 -0.21875 0.90625 -0.320312 0.90625 -0.53125 C 0.90625 -0.75 1.003906 -0.875 1.203125 -0.90625 C 1.691406 -0.988281 2.132812 -1.050781 2.53125 -1.09375 C 2.9375 -1.132812 3.257812 -1.285156 3.5 -1.546875 C 3.75 -1.804688 3.875 -2.3125 3.875 -3.0625 L 3.875 -24.34375 C 3.875 -25.125 3.75 -25.640625 3.5 -25.890625 C 3.257812 -26.148438 2.9375 -26.296875 2.53125 -26.328125 C 2.132812 -26.359375 1.691406 -26.414062 1.203125 -26.5 C 1.003906 -26.5625 0.90625 -26.695312 0.90625 -26.90625 C 0.90625 -27.125 1.019531 -27.234375 1.25 -27.234375 L 9.734375 -27.234375 C 9.960938 -27.234375 10.082031 -27.125 10.09375 -26.90625 C 10.113281 -26.695312 10.007812 -26.5625 9.78125 -26.5 C 9.289062 -26.414062 8.835938 -26.359375 8.421875 -26.328125 C 8.003906 -26.296875 7.671875 -26.148438 7.421875 -25.890625 C 7.179688 -25.640625 7.0625 -25.125 7.0625 -24.34375 L 7.0625 -3.0625 C 7.0625 -2.3125 7.179688 -1.804688 7.421875 -1.546875 C 7.671875 -1.285156 8.003906 -1.132812 8.421875 -1.09375 C 8.835938 -1.050781 9.289062 -0.988281 9.78125 -0.90625 Z M 9.78125 -0.90625 "/></g></g></g><g fill="#ffbd59" fill-opacity="1"><g transform="translate(61.105474, 32.381998)"><g><path d="M 22.96875 -4.953125 C 23.03125 -5.148438 23.164062 -5.242188 23.375 -5.234375 C 23.59375 -5.222656 23.703125 -5.113281 23.703125 -4.90625 L 23.484375 -0.4375 C 23.484375 -0.289062 23.382812 -0.21875 23.1875 -0.21875 L 1.25 -0.21875 C 1.019531 -0.21875 0.90625 -0.320312 0.90625 -0.53125 C 0.90625 -0.75 1.003906 -0.875 1.203125 -0.90625 C 1.691406 -0.988281 2.132812 -1.050781 2.53125 -1.09375 C 2.9375 -1.132812 3.257812 -1.285156 3.5 -1.546875 C 3.75 -1.804688 3.875 -2.3125 3.875 -3.0625 L 3.875 -24.34375 C 3.875 -25.125 3.75 -25.640625 3.5 -25.890625 C 3.257812 -26.148438 2.9375 -26.296875 2.53125 -26.328125 C 2.132812 -26.359375 1.691406 -26.414062 1.203125 -26.5 C 1.003906 -26.5625 0.90625 -26.695312 0.90625 -26.90625 C 0.90625 -27.125 1.019531 -27.234375 1.25 -27.234375 L 22.1875 -27.234375 C 22.394531 -27.234375 22.5 -27.160156 22.5 -27.015625 L 22.75 -22.5 C 22.75 -22.320312 22.632812 -22.21875 22.40625 -22.1875 C 22.175781 -22.164062 22.035156 -22.253906 21.984375 -22.453125 C 21.773438 -23.398438 21.46875 -24.144531 21.0625 -24.6875 C 20.664062 -25.238281 20.054688 -25.632812 19.234375 -25.875 C 18.421875 -26.125 17.265625 -26.25 15.765625 -26.25 L 9 -26.25 C 8.457031 -26.25 8 -26.128906 7.625 -25.890625 C 7.25 -25.660156 7.0625 -25.175781 7.0625 -24.4375 L 7.0625 -13.578125 L 15.640625 -13.578125 C 16.992188 -13.578125 17.882812 -13.867188 18.3125 -14.453125 C 18.75 -15.046875 18.976562 -15.660156 19 -16.296875 C 19.03125 -16.523438 19.160156 -16.628906 19.390625 -16.609375 C 19.617188 -16.597656 19.734375 -16.476562 19.734375 -16.25 L 19.734375 -9.953125 C 19.734375 -9.753906 19.617188 -9.644531 19.390625 -9.625 C 19.160156 -9.613281 19.03125 -9.707031 19 -9.90625 C 18.976562 -10.570312 18.75 -11.191406 18.3125 -11.765625 C 17.882812 -12.335938 16.992188 -12.625 15.640625 -12.625 L 7.0625 -12.625 L 7.0625 -2.96875 C 7.0625 -2.34375 7.210938 -1.898438 7.515625 -1.640625 C 7.816406 -1.378906 8.195312 -1.21875 8.65625 -1.15625 L 17.234375 -1.15625 C 18.734375 -1.15625 19.851562 -1.273438 20.59375 -1.515625 C 21.34375 -1.765625 21.875 -2.171875 22.1875 -2.734375 C 22.507812 -3.296875 22.769531 -4.035156 22.96875 -4.953125 Z M 22.96875 -4.953125 "/></g></g></g></g></g></svg>