<svg xmlns="http://www.w3.org/2000/svg" xmlns:xlink="http://www.w3.org/1999/xlink" width="847" zoomAndPan="magnify" viewBox="0 0 635.25 305.999988" height="408" preserveAspectRatio="xMidYMid meet" version="1.0"><defs><g/><clipPath id="4f570da175"><path d="M 4 83 L 271 83 L 271 248 L 4 248 Z M 4 83 " clip-rule="nonzero"/></clipPath><clipPath id="ed34c335af"><path d="M 49.882812 0.179688 L 342.828125 59.523438 L 293.003906 305.484375 L 0.0546875 246.136719 Z M 49.882812 0.179688 " clip-rule="nonzero"/></clipPath><clipPath id="f31924db0a"><path d="M 49.882812 0.179688 L 342.828125 59.523438 L 293.003906 305.484375 L 0.0546875 246.136719 Z M 49.882812 0.179688 " clip-rule="nonzero"/></clipPath><clipPath id="9af7b756d3"><path d="M 112 106 L 290 106 L 290 141 L 112 141 Z M 112 106 " clip-rule="nonzero"/></clipPath><clipPath id="b21001257b"><path d="M 49.882812 0.179688 L 342.828125 59.523438 L 293.003906 305.484375 L 0.0546875 246.136719 Z M 49.882812 0.179688 " clip-rule="nonzero"/></clipPath><clipPath id="ae163e7e23"><path d="M 49.882812 0.179688 L 342.828125 59.523438 L 293.003906 305.484375 L 0.0546875 246.136719 Z M 49.882812 0.179688 " clip-rule="nonzero"/></clipPath><clipPath id="93a608d83e"><path d="M 101 126 L 194 126 L 194 161 L 101 161 Z M 101 126 " clip-rule="nonzero"/></clipPath><clipPath id="f505bbe2da"><path d="M 49.882812 0.179688 L 342.828125 59.523438 L 293.003906 305.484375 L 0.0546875 246.136719 Z M 49.882812 0.179688 " clip-rule="nonzero"/></clipPath><clipPath id="7f04462059"><path d="M 49.882812 0.179688 L 342.828125 59.523438 L 293.003906 305.484375 L 0.0546875 246.136719 Z M 49.882812 0.179688 " clip-rule="nonzero"/></clipPath><clipPath id="af605345ca"><path d="M 129 68 L 244 68 L 244 96 L 129 96 Z M 129 68 " clip-rule="nonzero"/></clipPath><clipPath id="e546d21fb1"><path d="M 49.882812 0.179688 L 342.828125 59.523438 L 293.003906 305.484375 L 0.0546875 246.136719 Z M 49.882812 0.179688 " clip-rule="nonzero"/></clipPath><clipPath id="08272c4070"><path d="M 49.882812 0.179688 L 342.828125 59.523438 L 293.003906 305.484375 L 0.0546875 246.136719 Z M 49.882812 0.179688 " clip-rule="nonzero"/></clipPath><clipPath id="0118dcb0ab"><path d="M 42 59 L 191 59 L 191 133 L 42 133 Z M 42 59 " clip-rule="nonzero"/></clipPath><clipPath id="df32321b7d"><path d="M 49.882812 0.179688 L 342.828125 59.523438 L 293.003906 305.484375 L 0.0546875 246.136719 Z M 49.882812 0.179688 " clip-rule="nonzero"/></clipPath><clipPath id="9470bf97f0"><path d="M 49.882812 0.179688 L 342.828125 59.523438 L 293.003906 305.484375 L 0.0546875 246.136719 Z M 49.882812 0.179688 " clip-rule="nonzero"/></clipPath><clipPath id="aeb9472564"><path d="M 246 61 L 327 61 L 327 142 L 246 142 Z M 246 61 " clip-rule="nonzero"/></clipPath><clipPath id="e025b87782"><path d="M 49.882812 0.179688 L 342.828125 59.523438 L 293.003906 305.484375 L 0.0546875 246.136719 Z M 49.882812 0.179688 " clip-rule="nonzero"/></clipPath><clipPath id="968489d689"><path d="M 49.882812 0.179688 L 342.828125 59.523438 L 293.003906 305.484375 L 0.0546875 246.136719 Z M 49.882812 0.179688 " clip-rule="nonzero"/></clipPath><clipPath id="e2a0e4044c"><path d="M 177 40 L 216 40 L 216 77 L 177 77 Z M 177 40 " clip-rule="nonzero"/></clipPath><clipPath id="62f265db15"><path d="M 49.882812 0.179688 L 342.828125 59.523438 L 293.003906 305.484375 L 0.0546875 246.136719 Z M 49.882812 0.179688 " clip-rule="nonzero"/></clipPath><clipPath id="2d3e4ff140"><path d="M 49.882812 0.179688 L 342.828125 59.523438 L 293.003906 305.484375 L 0.0546875 246.136719 Z M 49.882812 0.179688 " clip-rule="nonzero"/></clipPath><clipPath id="fd0930e7cc"><path d="M 216 126 L 231 126 L 231 142 L 216 142 Z M 216 126 " clip-rule="nonzero"/></clipPath><clipPath id="14b8f97557"><path d="M 49.882812 0.179688 L 342.828125 59.523438 L 293.003906 305.484375 L 0.0546875 246.136719 Z M 49.882812 0.179688 " clip-rule="nonzero"/></clipPath><clipPath id="0182bc3c4d"><path d="M 49.882812 0.179688 L 342.828125 59.523438 L 293.003906 305.484375 L 0.0546875 246.136719 Z M 49.882812 0.179688 " clip-rule="nonzero"/></clipPath><clipPath id="1c4bc8b5b0"><path d="M 105 98 L 118 98 L 118 111 L 105 111 Z M 105 98 " clip-rule="nonzero"/></clipPath><clipPath id="24e2831f67"><path d="M 49.882812 0.179688 L 342.828125 59.523438 L 293.003906 305.484375 L 0.0546875 246.136719 Z M 49.882812 0.179688 " clip-rule="nonzero"/></clipPath><clipPath id="c3cf24b683"><path d="M 49.882812 0.179688 L 342.828125 59.523438 L 293.003906 305.484375 L 0.0546875 246.136719 Z M 49.882812 0.179688 " clip-rule="nonzero"/></clipPath><clipPath id="1ebaa7bdb5"><path d="M 233 42 L 249 42 L 249 57 L 233 57 Z M 233 42 " clip-rule="nonzero"/></clipPath><clipPath id="52674ffae6"><path d="M 49.882812 0.179688 L 342.828125 59.523438 L 293.003906 305.484375 L 0.0546875 246.136719 Z M 49.882812 0.179688 " clip-rule="nonzero"/></clipPath><clipPath id="67e15f64e4"><path d="M 49.882812 0.179688 L 342.828125 59.523438 L 293.003906 305.484375 L 0.0546875 246.136719 Z M 49.882812 0.179688 " clip-rule="nonzero"/></clipPath><clipPath id="4f3bc59391"><path d="M 130 48 L 145 48 L 145 63 L 130 63 Z M 130 48 " clip-rule="nonzero"/></clipPath><clipPath id="dfdd9ea121"><path d="M 49.882812 0.179688 L 342.828125 59.523438 L 293.003906 305.484375 L 0.0546875 246.136719 Z M 49.882812 0.179688 " clip-rule="nonzero"/></clipPath><clipPath id="404f4e567c"><path d="M 49.882812 0.179688 L 342.828125 59.523438 L 293.003906 305.484375 L 0.0546875 246.136719 Z M 49.882812 0.179688 " clip-rule="nonzero"/></clipPath><clipPath id="f9ba15f7a3"><rect x="0" width="123" y="0" height="49"/></clipPath></defs><g clip-path="url(#4f570da175)"><g clip-path="url(#ed34c335af)"><g clip-path="url(#f31924db0a)"><path fill="#ffbd59" d="M 4.480469 247.347656 C 6.917969 213.996094 21.390625 186.578125 42.640625 164.398438 C 74.339844 131.3125 120.921875 109.996094 163.78125 96.703125 C 171.65625 94.277344 179.621094 92.179688 187.65625 90.398438 C 195.691406 88.613281 203.804688 87.15625 211.964844 85.992188 C 220.886719 84.730469 229.855469 83.910156 238.839844 83.492188 C 247.824219 83.078125 256.828125 83.074219 265.824219 83.441406 C 268.746094 83.589844 270.996094 86.089844 270.84375 89.011719 C 270.691406 91.933594 268.195312 94.1875 265.273438 94.03125 C 256.585938 93.484375 247.882812 93.292969 239.191406 93.5 C 230.5 93.703125 221.824219 94.296875 213.179688 95.324219 C 205.226562 96.273438 197.324219 97.511719 189.472656 99.066406 C 181.625 100.621094 173.839844 102.476562 166.128906 104.65625 C 123.863281 116.519531 78.074219 136.4375 45.855469 167.597656 C 24.128906 188.609375 8.484375 214.6875 4.480469 247.347656 Z M 4.480469 247.347656 " fill-opacity="1" fill-rule="evenodd"/></g></g></g><g clip-path="url(#9af7b756d3)"><g clip-path="url(#b21001257b)"><g clip-path="url(#ae163e7e23)"><path fill="#ffbd59" d="M 112.566406 140.902344 C 123.816406 133.8125 137.578125 127.296875 153.15625 121.960938 C 166.546875 117.375 181.257812 113.679688 196.738281 110.984375 C 225.136719 106.046875 256.136719 104.664062 286.605469 108.105469 C 288.265625 108.3125 289.441406 109.832031 289.234375 111.488281 C 289.027344 113.152344 287.507812 114.328125 285.851562 114.121094 C 255.953125 109.992188 225.425781 110.730469 197.347656 114.785156 C 181.953125 117.011719 167.316406 120.273438 153.878906 124.238281 C 138.171875 128.871094 124.117188 134.457031 112.566406 140.902344 Z M 112.566406 140.902344 " fill-opacity="1" fill-rule="evenodd"/></g></g></g><g clip-path="url(#93a608d83e)"><g clip-path="url(#f505bbe2da)"><g clip-path="url(#7f04462059)"><path fill="#ffbd59" d="M 101.242188 160.082031 C 108.265625 156.007812 115.328125 152.089844 122.546875 148.527344 C 129.828125 144.933594 137.246094 141.6875 144.792969 138.796875 C 159.875 133.023438 175.507812 128.785156 191.890625 126.632812 C 192.851562 126.519531 193.71875 127.207031 193.832031 128.167969 C 193.945312 129.128906 193.257812 130 192.300781 130.113281 C 176.09375 131.808594 160.597656 135.648438 145.554688 140.882812 C 137.972656 143.523438 130.523438 146.542969 123.128906 149.78125 C 115.769531 153.003906 108.46875 156.417969 101.242188 160.082031 Z M 101.242188 160.082031 " fill-opacity="1" fill-rule="evenodd"/></g></g></g><g clip-path="url(#af605345ca)"><g clip-path="url(#e546d21fb1)"><g clip-path="url(#08272c4070)"><path fill="#ffbd59" d="M 129.9375 95.761719 C 138.757812 91.988281 147.707031 88.332031 156.828125 85.054688 C 165.921875 81.785156 175.164062 78.886719 184.507812 76.425781 C 203.320312 71.460938 222.558594 68.378906 241.992188 68.242188 C 242.957031 68.25 243.738281 69.035156 243.734375 70.003906 C 243.730469 70.964844 242.941406 71.75 241.976562 71.746094 C 226.625 71.511719 211.367188 73.191406 196.304688 76.132812 C 185.007812 78.34375 173.828125 81.292969 162.789062 84.648438 C 157.253906 86.335938 151.75 88.105469 146.289062 89.960938 C 140.792969 91.832031 135.335938 93.757812 129.9375 95.761719 Z M 129.9375 95.761719 " fill-opacity="1" fill-rule="evenodd"/></g></g></g><g clip-path="url(#0118dcb0ab)"><g clip-path="url(#df32321b7d)"><g clip-path="url(#9470bf97f0)"><path fill="#ffbd59" d="M 42.035156 132.617188 C 52.453125 123.8125 63.207031 115.417969 74.453125 107.753906 C 85.765625 100.039062 97.539062 93.0625 109.671875 86.835938 C 134.011719 74.34375 159.90625 65.074219 187.214844 60.011719 C 188.902344 59.722656 190.503906 60.859375 190.792969 62.546875 C 191.082031 64.234375 189.949219 65.84375 188.257812 66.132812 C 161.3125 70.355469 135.699219 78.875 111.414062 90.367188 C 99.199219 96.148438 87.347656 102.714844 75.78125 109.804688 C 64.214844 116.898438 52.929688 124.476562 42.035156 132.617188 Z M 42.035156 132.617188 " fill-opacity="1" fill-rule="evenodd"/></g></g></g><g clip-path="url(#aeb9472564)"><g clip-path="url(#e025b87782)"><g clip-path="url(#968489d689)"><path fill="#ffbd59" d="M 302.542969 61.527344 L 300.902344 90.695312 L 326.113281 105.449219 L 297.867188 112.898438 L 291.625 141.433594 L 275.8125 116.875 L 246.742188 119.757812 L 265.214844 97.128906 L 253.492188 70.371094 L 280.722656 80.945312 Z M 302.542969 61.527344 " fill-opacity="1" fill-rule="evenodd"/></g></g></g><g clip-path="url(#e2a0e4044c)"><g clip-path="url(#62f265db15)"><g clip-path="url(#2d3e4ff140)"><path fill="#ffbd59" d="M 197.675781 40.492188 L 201.8125 53.417969 L 215.199219 55.625 L 204.1875 63.554688 L 206.222656 76.96875 L 195.28125 68.945312 L 183.148438 75.027344 L 187.398438 62.140625 L 177.867188 52.484375 L 191.4375 52.542969 Z M 197.675781 40.492188 " fill-opacity="1" fill-rule="evenodd"/></g></g></g><g clip-path="url(#fd0930e7cc)"><g clip-path="url(#14b8f97557)"><g clip-path="url(#0182bc3c4d)"><path fill="#ffbd59" d="M 219.992188 126.75 L 224.164062 130.035156 L 228.992188 127.816406 L 227.160156 132.800781 L 230.761719 136.707031 L 225.453125 136.503906 L 222.851562 141.136719 L 221.40625 136.023438 L 216.195312 134.984375 L 220.609375 132.027344 Z M 219.992188 126.75 " fill-opacity="1" fill-rule="evenodd"/></g></g></g><g clip-path="url(#1c4bc8b5b0)"><g clip-path="url(#24e2831f67)"><g clip-path="url(#c3cf24b683)"><path fill="#ffbd59" d="M 108.636719 98.871094 L 112.152344 101.636719 L 116.21875 99.769531 L 114.675781 103.96875 L 117.707031 107.257812 L 113.238281 107.085938 L 111.046875 110.988281 L 109.828125 106.683594 L 105.441406 105.804688 L 109.15625 103.316406 Z M 108.636719 98.871094 " fill-opacity="1" fill-rule="evenodd"/></g></g></g><g clip-path="url(#1ebaa7bdb5)"><g clip-path="url(#52674ffae6)"><g clip-path="url(#67e15f64e4)"><path fill="#ffbd59" d="M 248.53125 46.90625 L 244.761719 50.652344 L 246.378906 55.710938 L 241.652344 53.285156 L 237.339844 56.386719 L 238.1875 51.140625 L 233.90625 47.996094 L 239.15625 47.183594 L 240.820312 42.140625 L 243.21875 46.878906 Z M 248.53125 46.90625 " fill-opacity="1" fill-rule="evenodd"/></g></g></g><g clip-path="url(#4f3bc59391)"><g clip-path="url(#dfdd9ea121)"><g clip-path="url(#404f4e567c)"><path fill="#ffbd59" d="M 141.234375 48.386719 L 140.582031 53.65625 L 144.980469 56.640625 L 139.765625 57.652344 L 138.289062 62.753906 L 135.714844 58.105469 L 130.40625 58.277344 L 134.03125 54.394531 L 132.226562 49.398438 L 137.039062 51.644531 Z M 141.234375 48.386719 " fill-opacity="1" fill-rule="evenodd"/></g></g></g><g fill="#ffbd59" fill-opacity="1"><g transform="translate(94.972122, 218.009463)"><g><path d="M 42.75 -15.140625 C 43.75 -15.140625 44.453125 -14.773438 44.859375 -14.046875 C 45.265625 -13.316406 45.5 -12.472656 45.5625 -11.515625 C 45.632812 -10.566406 45.648438 -9.75 45.609375 -9.0625 C 45.609375 -7.476562 45.332031 -5.957031 44.78125 -4.5 C 44.238281 -3.039062 43.375 -1.859375 42.1875 -0.953125 C 41.007812 -0.046875 39.421875 0.40625 37.421875 0.40625 C 35.921875 0.40625 34.476562 -0.09375 33.09375 -1.09375 C 31.707031 -2.09375 30.378906 -3.382812 29.109375 -4.96875 C 27.835938 -6.5625 26.578125 -8.242188 25.328125 -10.015625 C 24.078125 -11.796875 22.816406 -13.488281 21.546875 -15.09375 C 20.273438 -16.707031 18.96875 -18.035156 17.625 -19.078125 C 16.28125 -20.128906 14.882812 -20.675781 13.4375 -20.71875 C 13.019531 -20.675781 12.742188 -20.800781 12.609375 -21.09375 C 12.472656 -21.394531 12.472656 -21.703125 12.609375 -22.015625 C 12.742188 -22.335938 12.992188 -22.472656 13.359375 -22.421875 C 13.859375 -22.378906 14.128906 -22.332031 14.171875 -22.28125 C 14.222656 -22.238281 14.5 -22.21875 15 -22.21875 C 17.09375 -22.21875 19.140625 -22.695312 21.140625 -23.65625 C 23.140625 -24.613281 24.988281 -25.875 26.6875 -27.4375 C 28.394531 -29.007812 29.875 -30.757812 31.125 -32.6875 C 32.375 -34.613281 33.289062 -36.554688 33.875 -38.515625 C 34.101562 -39.515625 34.070312 -40.226562 33.78125 -40.65625 C 33.488281 -41.09375 33.035156 -41.378906 32.421875 -41.515625 C 31.804688 -41.648438 31.113281 -41.785156 30.34375 -41.921875 C 30.019531 -42.015625 29.867188 -42.226562 29.890625 -42.5625 C 29.910156 -42.90625 30.082031 -43.078125 30.40625 -43.078125 L 43.21875 -43.078125 C 43.582031 -43.078125 43.773438 -42.90625 43.796875 -42.5625 C 43.816406 -42.226562 43.648438 -42.015625 43.296875 -41.921875 C 42.148438 -41.742188 41.222656 -41.484375 40.515625 -41.140625 C 39.816406 -40.796875 39.332031 -40.171875 39.0625 -39.265625 L 39.0625 -39.328125 C 38.382812 -36.515625 37.066406 -33.859375 35.109375 -31.359375 C 33.148438 -28.859375 30.882812 -26.734375 28.3125 -24.984375 C 25.75 -23.234375 23.148438 -22.019531 20.515625 -21.34375 C 22.148438 -21.019531 23.640625 -20.1875 24.984375 -18.84375 C 26.328125 -17.507812 27.585938 -15.96875 28.765625 -14.21875 C 29.953125 -12.46875 31.125 -10.738281 32.28125 -9.03125 C 33.4375 -7.320312 34.648438 -5.898438 35.921875 -4.765625 C 37.191406 -3.628906 38.578125 -3.0625 40.078125 -3.0625 C 41.304688 -3.0625 42.238281 -3.445312 42.875 -4.21875 C 43.507812 -5 43.847656 -5.898438 43.890625 -6.921875 C 43.941406 -7.941406 43.628906 -8.816406 42.953125 -9.546875 C 42.316406 -10.273438 41.757812 -10.816406 41.28125 -11.171875 C 40.800781 -11.535156 40.5625 -12.082031 40.5625 -12.8125 C 40.5625 -13.539062 40.800781 -14.109375 41.28125 -14.515625 C 41.757812 -14.929688 42.25 -15.140625 42.75 -15.140625 Z M 15.46875 -1.4375 C 15.832031 -1.382812 16.003906 -1.1875 15.984375 -0.84375 C 15.960938 -0.507812 15.769531 -0.34375 15.40625 -0.34375 L 1.984375 -0.34375 C 1.660156 -0.34375 1.488281 -0.507812 1.46875 -0.84375 C 1.445312 -1.1875 1.59375 -1.382812 1.90625 -1.4375 C 2.675781 -1.570312 3.390625 -1.671875 4.046875 -1.734375 C 4.710938 -1.804688 5.238281 -2.046875 5.625 -2.453125 C 6.007812 -2.859375 6.203125 -3.65625 6.203125 -4.84375 L 6.203125 -38.515625 C 6.203125 -39.742188 6.007812 -40.5625 5.625 -40.96875 C 5.238281 -41.375 4.710938 -41.597656 4.046875 -41.640625 C 3.390625 -41.691406 2.675781 -41.785156 1.90625 -41.921875 C 1.59375 -42.015625 1.445312 -42.226562 1.46875 -42.5625 C 1.488281 -42.90625 1.660156 -43.078125 1.984375 -43.078125 L 15.40625 -43.078125 C 15.769531 -43.078125 15.960938 -42.90625 15.984375 -42.5625 C 16.003906 -42.226562 15.832031 -42.015625 15.46875 -41.921875 C 14.75 -41.785156 14.054688 -41.691406 13.390625 -41.640625 C 12.734375 -41.597656 12.210938 -41.375 11.828125 -40.96875 C 11.441406 -40.5625 11.25 -39.742188 11.25 -38.515625 L 11.25 -4.84375 C 11.25 -3.65625 11.441406 -2.859375 11.828125 -2.453125 C 12.210938 -2.046875 12.734375 -1.804688 13.390625 -1.734375 C 14.054688 -1.671875 14.75 -1.570312 15.46875 -1.4375 Z M 15.46875 -1.4375 "/></g></g></g><g fill="#ffbd59" fill-opacity="1"><g transform="translate(157.622476, 218.009463)"><g><path d="M 48.75 -1.09375 C 49.0625 -1.039062 49.21875 -0.890625 49.21875 -0.640625 C 49.21875 -0.390625 49.035156 -0.265625 48.671875 -0.265625 C 47.804688 -0.265625 47.03125 -0.265625 46.34375 -0.265625 C 45.664062 -0.265625 44.941406 -0.265625 44.171875 -0.265625 L 44.171875 -0.34375 L 38.859375 -0.34375 L 38.859375 -0.265625 C 38.128906 -0.265625 37.363281 -0.265625 36.5625 -0.265625 C 35.769531 -0.265625 34.921875 -0.265625 34.015625 -0.265625 C 33.648438 -0.265625 33.46875 -0.390625 33.46875 -0.640625 C 33.46875 -0.890625 33.628906 -1.039062 33.953125 -1.09375 C 34.722656 -1.226562 35.4375 -1.316406 36.09375 -1.359375 C 36.75 -1.410156 37.210938 -1.601562 37.484375 -1.9375 C 37.765625 -2.28125 37.703125 -2.953125 37.296875 -3.953125 C 36.878906 -4.992188 36.453125 -6.035156 36.015625 -7.078125 C 35.585938 -8.128906 35.148438 -9.175781 34.703125 -10.21875 L 12.140625 -10.21875 L 9.546875 -3.953125 C 9.140625 -2.953125 9.171875 -2.28125 9.640625 -1.9375 C 10.117188 -1.601562 10.789062 -1.410156 11.65625 -1.359375 C 12.519531 -1.316406 13.316406 -1.226562 14.046875 -1.09375 C 14.410156 -1.039062 14.578125 -0.890625 14.546875 -0.640625 C 14.523438 -0.390625 14.332031 -0.265625 13.96875 -0.265625 C 13.113281 -0.265625 12.09375 -0.265625 10.90625 -0.265625 C 9.726562 -0.265625 8.75 -0.265625 7.96875 -0.265625 L 7.96875 -0.34375 L 6.40625 -0.34375 L 6.40625 -0.265625 C 5.675781 -0.265625 4.984375 -0.265625 4.328125 -0.265625 C 3.671875 -0.265625 2.890625 -0.265625 1.984375 -0.265625 C 1.660156 -0.265625 1.488281 -0.390625 1.46875 -0.640625 C 1.445312 -0.890625 1.59375 -1.039062 1.90625 -1.09375 C 2.675781 -1.226562 3.414062 -1.316406 4.125 -1.359375 C 4.832031 -1.410156 5.503906 -1.640625 6.140625 -2.046875 C 6.773438 -2.453125 7.316406 -3.222656 7.765625 -4.359375 C 10.316406 -10.410156 12.851562 -16.445312 15.375 -22.46875 C 17.894531 -28.488281 20.40625 -34.519531 22.90625 -40.5625 C 23.363281 -41.601562 23.796875 -42.335938 24.203125 -42.765625 C 24.609375 -43.203125 25.40625 -43.304688 26.59375 -43.078125 L 43.015625 -3.953125 C 43.515625 -2.953125 44.054688 -2.28125 44.640625 -1.9375 C 45.234375 -1.601562 45.882812 -1.410156 46.59375 -1.359375 C 47.300781 -1.316406 48.019531 -1.226562 48.75 -1.09375 Z M 12.8125 -11.71875 L 34.015625 -11.71875 C 32.335938 -15.632812 30.664062 -19.554688 29 -23.484375 C 27.34375 -27.410156 25.695312 -31.332031 24.0625 -35.25 C 23.5625 -36.289062 23.109375 -36.289062 22.703125 -35.25 Z M 12.8125 -11.71875 "/></g></g></g><g fill="#ffbd59" fill-opacity="1"><g transform="translate(223.817651, 218.009463)"><g><path d="M 36.328125 -9 C 36.421875 -9.3125 36.640625 -9.457031 36.984375 -9.4375 C 37.328125 -9.414062 37.5 -9.25 37.5 -8.9375 L 37.15625 -0.6875 C 37.15625 -0.457031 36.992188 -0.34375 36.671875 -0.34375 L 1.984375 -0.34375 C 1.617188 -0.34375 1.4375 -0.507812 1.4375 -0.84375 C 1.4375 -1.1875 1.59375 -1.382812 1.90625 -1.4375 C 2.675781 -1.570312 3.378906 -1.671875 4.015625 -1.734375 C 4.648438 -1.804688 5.160156 -2.046875 5.546875 -2.453125 C 5.941406 -2.859375 6.140625 -3.65625 6.140625 -4.84375 L 6.140625 -38.515625 C 6.140625 -39.742188 5.941406 -40.5625 5.546875 -40.96875 C 5.160156 -41.375 4.648438 -41.597656 4.015625 -41.640625 C 3.378906 -41.691406 2.675781 -41.785156 1.90625 -41.921875 C 1.59375 -42.015625 1.4375 -42.226562 1.4375 -42.5625 C 1.4375 -42.90625 1.617188 -43.078125 1.984375 -43.078125 L 15.40625 -43.078125 C 15.769531 -43.078125 15.960938 -42.90625 15.984375 -42.5625 C 16.003906 -42.226562 15.832031 -42.015625 15.46875 -41.921875 C 14.695312 -41.785156 13.984375 -41.691406 13.328125 -41.640625 C 12.671875 -41.597656 12.148438 -41.375 11.765625 -40.96875 C 11.378906 -40.5625 11.1875 -39.742188 11.1875 -38.515625 L 11.1875 -4.703125 C 11.1875 -3.703125 11.421875 -3 11.890625 -2.59375 C 12.367188 -2.1875 12.972656 -1.9375 13.703125 -1.84375 L 26.515625 -1.84375 C 28.878906 -1.84375 30.707031 -2.125 32 -2.6875 C 33.300781 -3.257812 34.269531 -4.085938 34.90625 -5.171875 C 35.539062 -6.265625 36.015625 -7.539062 36.328125 -9 Z M 36.328125 -9 "/></g></g></g><g fill="#ffbd59" fill-opacity="1"><g transform="translate(279.651049, 218.009463)"><g><path d="M 36.328125 -7.84375 C 36.421875 -8.15625 36.640625 -8.300781 36.984375 -8.28125 C 37.328125 -8.257812 37.5 -8.085938 37.5 -7.765625 L 37.15625 -0.6875 C 37.15625 -0.457031 36.992188 -0.34375 36.671875 -0.34375 L 1.984375 -0.34375 C 1.617188 -0.34375 1.4375 -0.507812 1.4375 -0.84375 C 1.4375 -1.1875 1.59375 -1.382812 1.90625 -1.4375 C 2.675781 -1.570312 3.378906 -1.671875 4.015625 -1.734375 C 4.648438 -1.804688 5.160156 -2.046875 5.546875 -2.453125 C 5.941406 -2.859375 6.140625 -3.65625 6.140625 -4.84375 L 6.140625 -38.515625 C 6.140625 -39.742188 5.941406 -40.5625 5.546875 -40.96875 C 5.160156 -41.375 4.648438 -41.597656 4.015625 -41.640625 C 3.378906 -41.691406 2.675781 -41.785156 1.90625 -41.921875 C 1.59375 -42.015625 1.4375 -42.226562 1.4375 -42.5625 C 1.4375 -42.90625 1.617188 -43.078125 1.984375 -43.078125 L 35.109375 -43.078125 C 35.421875 -43.078125 35.578125 -42.96875 35.578125 -42.75 L 36 -35.578125 C 36 -35.304688 35.816406 -35.148438 35.453125 -35.109375 C 35.085938 -35.066406 34.859375 -35.203125 34.765625 -35.515625 C 34.453125 -37.015625 33.972656 -38.195312 33.328125 -39.0625 C 32.691406 -39.925781 31.726562 -40.550781 30.4375 -40.9375 C 29.144531 -41.320312 27.316406 -41.515625 24.953125 -41.515625 L 14.25 -41.515625 C 13.382812 -41.515625 12.65625 -41.332031 12.0625 -40.96875 C 11.476562 -40.601562 11.1875 -39.832031 11.1875 -38.65625 L 11.1875 -21.46875 L 24.75 -21.46875 C 26.882812 -21.46875 28.289062 -21.929688 28.96875 -22.859375 C 29.65625 -23.796875 30.019531 -24.765625 30.0625 -25.765625 C 30.101562 -26.128906 30.304688 -26.300781 30.671875 -26.28125 C 31.035156 -26.257812 31.21875 -26.066406 31.21875 -25.703125 L 31.21875 -15.75 C 31.21875 -15.425781 31.035156 -15.253906 30.671875 -15.234375 C 30.304688 -15.210938 30.101562 -15.359375 30.0625 -15.671875 C 30.019531 -16.722656 29.65625 -17.703125 28.96875 -18.609375 C 28.289062 -19.515625 26.882812 -19.96875 24.75 -19.96875 L 11.1875 -19.96875 L 11.1875 -4.703125 C 11.1875 -3.703125 11.421875 -3 11.890625 -2.59375 C 12.367188 -2.1875 12.972656 -1.9375 13.703125 -1.84375 L 27.265625 -1.84375 C 29.628906 -1.84375 31.398438 -2.035156 32.578125 -2.421875 C 33.765625 -2.804688 34.609375 -3.441406 35.109375 -4.328125 C 35.609375 -5.210938 36.015625 -6.382812 36.328125 -7.84375 Z M 36.328125 -7.84375 "/></g></g></g><g fill="#ffbd59" fill-opacity="1"><g transform="translate(335.484594, 218.009463)"><g><path d="M 45.8125 -42.8125 C 46.175781 -42.8125 46.367188 -42.640625 46.390625 -42.296875 C 46.410156 -41.960938 46.238281 -41.75 45.875 -41.65625 C 45.101562 -41.5625 44.332031 -41.476562 43.5625 -41.40625 C 42.789062 -41.34375 42.140625 -41.101562 41.609375 -40.6875 C 41.085938 -40.28125 40.828125 -39.46875 40.828125 -38.25 L 40.765625 -0.953125 C 40.765625 -0.273438 40.445312 0.0625 39.8125 0.0625 C 39.445312 0.0625 39.0625 0.0625 38.65625 0.0625 C 38.25 0.0625 37.835938 0.0625 37.421875 0.0625 C 36.835938 0.0625 36.375 -0.0351562 36.03125 -0.234375 C 35.6875 -0.441406 35.359375 -0.75 35.046875 -1.15625 L 8.796875 -37.625 L 9.140625 -4.5 C 9.140625 -3.320312 9.363281 -2.515625 9.8125 -2.078125 C 10.269531 -1.648438 10.863281 -1.410156 11.59375 -1.359375 C 12.320312 -1.316406 13.070312 -1.226562 13.84375 -1.09375 C 14.207031 -1.039062 14.375 -0.832031 14.34375 -0.46875 C 14.320312 -0.113281 14.128906 0.0625 13.765625 0.0625 L 1.984375 0.0625 C 1.617188 0.0625 1.4375 -0.113281 1.4375 -0.46875 C 1.4375 -0.832031 1.59375 -1.039062 1.90625 -1.09375 C 2.675781 -1.226562 3.425781 -1.328125 4.15625 -1.390625 C 4.882812 -1.460938 5.472656 -1.722656 5.921875 -2.171875 C 6.378906 -2.628906 6.609375 -3.472656 6.609375 -4.703125 L 6.953125 -38.578125 C 6.910156 -39.671875 6.679688 -40.398438 6.265625 -40.765625 C 5.859375 -41.128906 5.347656 -41.34375 4.734375 -41.40625 C 4.117188 -41.476562 3.425781 -41.5625 2.65625 -41.65625 C 2.34375 -41.75 2.195312 -41.960938 2.21875 -42.296875 C 2.238281 -42.640625 2.410156 -42.8125 2.734375 -42.8125 L 9.75 -42.8125 C 10.789062 -42.8125 11.539062 -42.660156 12 -42.359375 C 12.457031 -42.066406 12.910156 -41.601562 13.359375 -40.96875 C 17.398438 -35.332031 21.46875 -29.660156 25.5625 -23.953125 C 29.65625 -18.253906 33.742188 -12.566406 37.828125 -6.890625 C 38.109375 -6.472656 38.375 -6.3125 38.625 -6.40625 C 38.875 -6.5 39 -6.769531 39 -7.21875 C 39 -12.5 39 -17.738281 39 -22.9375 C 39 -28.144531 39 -33.359375 39 -38.578125 C 38.945312 -39.671875 38.660156 -40.398438 38.140625 -40.765625 C 37.617188 -41.128906 36.984375 -41.34375 36.234375 -41.40625 C 35.484375 -41.476562 34.722656 -41.5625 33.953125 -41.65625 C 33.628906 -41.75 33.476562 -41.960938 33.5 -42.296875 C 33.53125 -42.640625 33.703125 -42.8125 34.015625 -42.8125 Z M 45.8125 -42.8125 "/></g></g></g><g fill="#ffbd59" fill-opacity="1"><g transform="translate(398.884829, 218.009463)"><g><path d="M 20.25 -43.078125 C 25.019531 -43.078125 29.109375 -42.304688 32.515625 -40.765625 C 35.921875 -39.222656 38.644531 -37.175781 40.6875 -34.625 C 42.738281 -32.082031 44.101562 -29.300781 44.78125 -26.28125 C 45.46875 -23.257812 45.46875 -20.222656 44.78125 -17.171875 C 44.101562 -14.128906 42.738281 -11.332031 40.6875 -8.78125 C 38.644531 -6.238281 35.921875 -4.195312 32.515625 -2.65625 C 29.109375 -1.113281 25.019531 -0.34375 20.25 -0.34375 L 1.984375 -0.34375 C 1.617188 -0.34375 1.4375 -0.507812 1.4375 -0.84375 C 1.4375 -1.1875 1.59375 -1.382812 1.90625 -1.4375 C 2.675781 -1.570312 3.378906 -1.671875 4.015625 -1.734375 C 4.648438 -1.804688 5.160156 -2.046875 5.546875 -2.453125 C 5.941406 -2.859375 6.140625 -3.65625 6.140625 -4.84375 C 6.140625 -7.113281 6.140625 -9.703125 6.140625 -12.609375 C 6.140625 -15.515625 6.140625 -18.535156 6.140625 -21.671875 C 6.140625 -24.804688 6.140625 -27.835938 6.140625 -30.765625 C 6.140625 -33.703125 6.140625 -36.285156 6.140625 -38.515625 C 6.140625 -39.742188 5.941406 -40.5625 5.546875 -40.96875 C 5.160156 -41.375 4.648438 -41.597656 4.015625 -41.640625 C 3.378906 -41.691406 2.675781 -41.785156 1.90625 -41.921875 C 1.59375 -42.015625 1.4375 -42.226562 1.4375 -42.5625 C 1.4375 -42.90625 1.617188 -43.078125 1.984375 -43.078125 Z M 19.09375 -1.765625 C 23.132812 -1.765625 26.597656 -2.476562 29.484375 -3.90625 C 32.367188 -5.34375 34.660156 -7.242188 36.359375 -9.609375 C 38.066406 -11.972656 39.203125 -14.570312 39.765625 -17.40625 C 40.335938 -20.25 40.328125 -23.078125 39.734375 -25.890625 C 39.148438 -28.710938 37.992188 -31.304688 36.265625 -33.671875 C 34.535156 -36.035156 32.238281 -37.929688 29.375 -39.359375 C 26.519531 -40.796875 23.09375 -41.515625 19.09375 -41.515625 L 14.25 -41.515625 C 13.382812 -41.515625 12.65625 -41.332031 12.0625 -40.96875 C 11.476562 -40.601562 11.1875 -39.832031 11.1875 -38.65625 L 11.1875 -4.703125 C 11.1875 -3.523438 11.488281 -2.738281 12.09375 -2.34375 C 12.707031 -1.957031 13.445312 -1.765625 14.3125 -1.765625 Z M 19.09375 -1.765625 "/></g></g></g><g fill="#ffbd59" fill-opacity="1"><g transform="translate(461.194333, 218.009463)"><g><path d="M 36.328125 -7.84375 C 36.421875 -8.15625 36.640625 -8.300781 36.984375 -8.28125 C 37.328125 -8.257812 37.5 -8.085938 37.5 -7.765625 L 37.15625 -0.6875 C 37.15625 -0.457031 36.992188 -0.34375 36.671875 -0.34375 L 1.984375 -0.34375 C 1.617188 -0.34375 1.4375 -0.507812 1.4375 -0.84375 C 1.4375 -1.1875 1.59375 -1.382812 1.90625 -1.4375 C 2.675781 -1.570312 3.378906 -1.671875 4.015625 -1.734375 C 4.648438 -1.804688 5.160156 -2.046875 5.546875 -2.453125 C 5.941406 -2.859375 6.140625 -3.65625 6.140625 -4.84375 L 6.140625 -38.515625 C 6.140625 -39.742188 5.941406 -40.5625 5.546875 -40.96875 C 5.160156 -41.375 4.648438 -41.597656 4.015625 -41.640625 C 3.378906 -41.691406 2.675781 -41.785156 1.90625 -41.921875 C 1.59375 -42.015625 1.4375 -42.226562 1.4375 -42.5625 C 1.4375 -42.90625 1.617188 -43.078125 1.984375 -43.078125 L 35.109375 -43.078125 C 35.421875 -43.078125 35.578125 -42.96875 35.578125 -42.75 L 36 -35.578125 C 36 -35.304688 35.816406 -35.148438 35.453125 -35.109375 C 35.085938 -35.066406 34.859375 -35.203125 34.765625 -35.515625 C 34.453125 -37.015625 33.972656 -38.195312 33.328125 -39.0625 C 32.691406 -39.925781 31.726562 -40.550781 30.4375 -40.9375 C 29.144531 -41.320312 27.316406 -41.515625 24.953125 -41.515625 L 14.25 -41.515625 C 13.382812 -41.515625 12.65625 -41.332031 12.0625 -40.96875 C 11.476562 -40.601562 11.1875 -39.832031 11.1875 -38.65625 L 11.1875 -21.46875 L 24.75 -21.46875 C 26.882812 -21.46875 28.289062 -21.929688 28.96875 -22.859375 C 29.65625 -23.796875 30.019531 -24.765625 30.0625 -25.765625 C 30.101562 -26.128906 30.304688 -26.300781 30.671875 -26.28125 C 31.035156 -26.257812 31.21875 -26.066406 31.21875 -25.703125 L 31.21875 -15.75 C 31.21875 -15.425781 31.035156 -15.253906 30.671875 -15.234375 C 30.304688 -15.210938 30.101562 -15.359375 30.0625 -15.671875 C 30.019531 -16.722656 29.65625 -17.703125 28.96875 -18.609375 C 28.289062 -19.515625 26.882812 -19.96875 24.75 -19.96875 L 11.1875 -19.96875 L 11.1875 -4.703125 C 11.1875 -3.703125 11.421875 -3 11.890625 -2.59375 C 12.367188 -2.1875 12.972656 -1.9375 13.703125 -1.84375 L 27.265625 -1.84375 C 29.628906 -1.84375 31.398438 -2.035156 32.578125 -2.421875 C 33.765625 -2.804688 34.609375 -3.441406 35.109375 -4.328125 C 35.609375 -5.210938 36.015625 -6.382812 36.328125 -7.84375 Z M 36.328125 -7.84375 "/></g></g></g><g fill="#ffbd59" fill-opacity="1"><g transform="translate(517.709623, 218.009463)"><g><path d="M 41.171875 -15.0625 C 42.171875 -15.0625 42.875 -14.695312 43.28125 -13.96875 C 43.695312 -13.25 43.9375 -12.398438 44 -11.421875 C 44.070312 -10.441406 44.085938 -9.613281 44.046875 -8.9375 C 44.046875 -7.34375 43.757812 -5.816406 43.1875 -4.359375 C 42.613281 -2.910156 41.738281 -1.71875 40.5625 -0.78125 C 39.382812 0.144531 37.796875 0.609375 35.796875 0.609375 C 33.972656 0.609375 32.359375 0.125 30.953125 -0.84375 C 29.546875 -1.820312 28.238281 -3.023438 27.03125 -4.453125 C 25.820312 -5.890625 24.613281 -7.320312 23.40625 -8.75 C 22.207031 -10.1875 20.925781 -11.414062 19.5625 -12.4375 C 18.195312 -13.457031 16.628906 -13.992188 14.859375 -14.046875 C 14.265625 -13.992188 13.957031 -14.226562 13.9375 -14.75 C 13.914062 -15.28125 14.203125 -15.5 14.796875 -15.40625 C 15.296875 -15.363281 15.554688 -15.316406 15.578125 -15.265625 C 15.597656 -15.222656 15.878906 -15.203125 16.421875 -15.203125 C 19.785156 -15.203125 22.832031 -15.703125 25.5625 -16.703125 C 28.289062 -17.703125 30.445312 -19.191406 32.03125 -21.171875 C 33.625 -23.148438 34.421875 -25.59375 34.421875 -28.5 C 34.421875 -32.863281 32.804688 -36.085938 29.578125 -38.171875 C 26.359375 -40.265625 21.972656 -41.3125 16.421875 -41.3125 C 15.785156 -41.3125 15.304688 -41.3125 14.984375 -41.3125 C 14.671875 -41.3125 14.40625 -41.3125 14.1875 -41.3125 L 14.390625 -41.25 C 13.523438 -41.25 12.785156 -41.066406 12.171875 -40.703125 C 11.554688 -40.335938 11.25 -39.5625 11.25 -38.375 L 11.25 -4.5 C 11.25 -3.320312 11.441406 -2.515625 11.828125 -2.078125 C 12.210938 -1.648438 12.734375 -1.410156 13.390625 -1.359375 C 14.054688 -1.316406 14.773438 -1.226562 15.546875 -1.09375 C 15.859375 -1.039062 16.015625 -0.832031 16.015625 -0.46875 C 16.015625 -0.113281 15.832031 0.0625 15.46875 0.0625 L 1.984375 0.0625 C 1.617188 0.0625 1.4375 -0.113281 1.4375 -0.46875 C 1.4375 -0.832031 1.59375 -1.039062 1.90625 -1.09375 C 2.675781 -1.226562 3.378906 -1.316406 4.015625 -1.359375 C 4.648438 -1.410156 5.171875 -1.648438 5.578125 -2.078125 C 5.992188 -2.515625 6.203125 -3.320312 6.203125 -4.5 L 6.203125 -38.25 C 6.203125 -39.46875 5.992188 -40.28125 5.578125 -40.6875 C 5.171875 -41.101562 4.648438 -41.34375 4.015625 -41.40625 C 3.378906 -41.476562 2.675781 -41.5625 1.90625 -41.65625 C 1.59375 -41.75 1.4375 -41.960938 1.4375 -42.296875 C 1.4375 -42.640625 1.617188 -42.8125 1.984375 -42.8125 L 21.75 -42.8125 C 25.019531 -42.8125 28.050781 -42.273438 30.84375 -41.203125 C 33.644531 -40.140625 35.90625 -38.550781 37.625 -36.4375 C 39.351562 -34.320312 40.21875 -31.695312 40.21875 -28.5625 C 40.21875 -26.195312 39.71875 -24.140625 38.71875 -22.390625 C 37.71875 -20.640625 36.390625 -19.195312 34.734375 -18.0625 C 33.078125 -16.925781 31.222656 -16.039062 29.171875 -15.40625 C 27.128906 -14.769531 25.039062 -14.363281 22.90625 -14.1875 C 24.3125 -13.820312 25.535156 -13.207031 26.578125 -12.34375 C 27.628906 -11.476562 28.585938 -10.507812 29.453125 -9.4375 C 30.316406 -8.375 31.164062 -7.351562 32 -6.375 C 32.84375 -5.394531 33.738281 -4.578125 34.6875 -3.921875 C 35.644531 -3.265625 36.765625 -2.9375 38.046875 -2.9375 C 39.265625 -2.9375 40.257812 -3.296875 41.03125 -4.015625 C 41.8125 -4.742188 42.257812 -5.597656 42.375 -6.578125 C 42.488281 -7.554688 42.203125 -8.410156 41.515625 -9.140625 C 40.921875 -9.859375 40.351562 -10.488281 39.8125 -11.03125 C 39.269531 -11.582031 39 -12.222656 39 -12.953125 C 39 -13.585938 39.210938 -14.097656 39.640625 -14.484375 C 40.078125 -14.867188 40.585938 -15.0625 41.171875 -15.0625 Z M 41.171875 -15.0625 "/></g></g></g><g transform="matrix(1, 0, 0, 1, 380, 112)"><g clip-path="url(#f9ba15f7a3)"><g fill="#ffbd59" fill-opacity="1"><g transform="translate(2.878531, 32.560407)"><g><path d="M 22.859375 -5.484375 C 22.910156 -5.679688 23.046875 -5.769531 23.265625 -5.75 C 23.484375 -5.738281 23.59375 -5.632812 23.59375 -5.4375 L 23.375 -0.171875 C 23.34375 -0.0234375 23.226562 0.046875 23.03125 0.046875 L 1.71875 0.046875 L 1.71875 0 C 1.257812 -0.0625 0.992188 -0.265625 0.921875 -0.609375 C 0.847656 -0.953125 0.882812 -1.253906 1.03125 -1.515625 C 2.90625 -4.273438 4.882812 -7.007812 6.96875 -9.71875 C 9.050781 -12.4375 11.140625 -15.160156 13.234375 -17.890625 C 15.335938 -20.628906 17.335938 -23.363281 19.234375 -26.09375 L 7.890625 -26.09375 C 6.398438 -26.09375 5.257812 -25.910156 4.46875 -25.546875 C 3.675781 -25.191406 3.109375 -24.675781 2.765625 -24 C 2.421875 -23.320312 2.128906 -22.507812 1.890625 -21.5625 C 1.867188 -21.363281 1.742188 -21.273438 1.515625 -21.296875 C 1.285156 -21.328125 1.171875 -21.429688 1.171875 -21.609375 L 1.375 -26.859375 C 1.40625 -27.003906 1.519531 -27.078125 1.71875 -27.078125 L 23.671875 -27.078125 L 5.09375 -1.71875 C 4.800781 -1.207031 4.941406 -0.953125 5.515625 -0.953125 L 16.859375 -0.953125 C 18.359375 -0.953125 19.5 -1.128906 20.28125 -1.484375 C 21.070312 -1.847656 21.644531 -2.375 22 -3.0625 C 22.363281 -3.75 22.648438 -4.554688 22.859375 -5.484375 Z M 22.859375 -5.484375 "/></g></g></g><g fill="#ffbd59" fill-opacity="1"><g transform="translate(38.158227, 32.560407)"><g><path d="M 29.328125 -27.078125 C 29.554688 -27.078125 29.675781 -26.96875 29.6875 -26.75 C 29.707031 -26.539062 29.601562 -26.40625 29.375 -26.34375 C 28.90625 -26.289062 28.421875 -26.242188 27.921875 -26.203125 C 27.421875 -26.160156 27.003906 -26.007812 26.671875 -25.75 C 26.335938 -25.488281 26.171875 -24.96875 26.171875 -24.1875 L 26.171875 -9.96875 C 26.171875 -8.207031 25.863281 -6.671875 25.25 -5.359375 C 24.632812 -4.054688 23.789062 -2.96875 22.71875 -2.09375 C 21.65625 -1.21875 20.457031 -0.554688 19.125 -0.109375 C 17.789062 0.335938 16.429688 0.5625 15.046875 0.5625 C 13.640625 0.5625 12.273438 0.335938 10.953125 -0.109375 C 9.628906 -0.554688 8.4375 -1.21875 7.375 -2.09375 C 6.3125 -2.96875 5.46875 -4.054688 4.84375 -5.359375 C 4.226562 -6.671875 3.921875 -8.207031 3.921875 -9.96875 L 3.921875 -24.1875 C 3.921875 -24.96875 3.789062 -25.488281 3.53125 -25.75 C 3.269531 -26.007812 2.9375 -26.160156 2.53125 -26.203125 C 2.132812 -26.242188 1.691406 -26.289062 1.203125 -26.34375 C 1.003906 -26.40625 0.90625 -26.539062 0.90625 -26.75 C 0.90625 -26.96875 1.019531 -27.078125 1.25 -27.078125 L 9.796875 -27.078125 C 10.023438 -27.078125 10.140625 -26.96875 10.140625 -26.75 C 10.140625 -26.539062 10.035156 -26.40625 9.828125 -26.34375 C 9.335938 -26.289062 8.882812 -26.242188 8.46875 -26.203125 C 8.050781 -26.160156 7.71875 -26.007812 7.46875 -25.75 C 7.226562 -25.488281 7.109375 -24.96875 7.109375 -24.1875 L 7.109375 -9.96875 C 7.140625 -7.945312 7.585938 -6.273438 8.453125 -4.953125 C 9.316406 -3.628906 10.421875 -2.632812 11.765625 -1.96875 C 13.117188 -1.3125 14.53125 -0.984375 16 -0.984375 C 17.488281 -0.984375 18.921875 -1.320312 20.296875 -2 C 21.679688 -2.675781 22.8125 -3.679688 23.6875 -5.015625 C 24.570312 -6.359375 25.015625 -8.007812 25.015625 -9.96875 L 25.015625 -24.328125 C 25.015625 -25.046875 24.84375 -25.523438 24.5 -25.765625 C 24.15625 -26.015625 23.742188 -26.160156 23.265625 -26.203125 C 22.785156 -26.242188 22.304688 -26.289062 21.828125 -26.34375 C 21.617188 -26.40625 21.519531 -26.539062 21.53125 -26.75 C 21.550781 -26.96875 21.660156 -27.078125 21.859375 -27.078125 Z M 29.328125 -27.078125 "/></g></g></g><g fill="#ffbd59" fill-opacity="1"><g transform="translate(78.613419, 32.560407)"><g><path d="M 32.125 -0.90625 C 32.351562 -0.875 32.460938 -0.75 32.453125 -0.53125 C 32.441406 -0.320312 32.316406 -0.21875 32.078125 -0.21875 L 23.59375 -0.21875 C 23.363281 -0.21875 23.25 -0.320312 23.25 -0.53125 C 23.25 -0.75 23.347656 -0.875 23.546875 -0.90625 C 24.035156 -0.988281 24.476562 -1.050781 24.875 -1.09375 C 25.28125 -1.144531 25.601562 -1.296875 25.84375 -1.546875 C 26.09375 -1.804688 26.21875 -2.3125 26.21875 -3.0625 L 26.21875 -24.0625 L 17.15625 -2.625 L 15.828125 -2.625 C 15.453125 -2.625 15.15625 -2.6875 14.9375 -2.8125 C 14.726562 -2.945312 14.519531 -3.128906 14.3125 -3.359375 L 5.5625 -23.453125 L 5.78125 -3.359375 C 5.8125 -2.585938 5.96875 -2.039062 6.25 -1.71875 C 6.539062 -1.40625 6.90625 -1.210938 7.34375 -1.140625 C 7.789062 -1.066406 8.25 -0.988281 8.71875 -0.90625 C 8.945312 -0.875 9.050781 -0.742188 9.03125 -0.515625 C 9.019531 -0.285156 8.898438 -0.171875 8.671875 -0.171875 L 1.25 -0.171875 C 1.019531 -0.171875 0.90625 -0.285156 0.90625 -0.515625 C 0.90625 -0.742188 1.003906 -0.875 1.203125 -0.90625 C 1.691406 -0.988281 2.160156 -1.066406 2.609375 -1.140625 C 3.054688 -1.210938 3.421875 -1.40625 3.703125 -1.71875 C 3.992188 -2.039062 4.140625 -2.585938 4.140625 -3.359375 L 4.359375 -24.1875 C 4.359375 -24.9375 4.234375 -25.453125 3.984375 -25.734375 C 3.742188 -26.023438 3.421875 -26.207031 3.015625 -26.28125 C 2.617188 -26.351562 2.175781 -26.429688 1.6875 -26.515625 C 1.476562 -26.578125 1.375 -26.710938 1.375 -26.921875 C 1.375 -27.140625 1.488281 -27.25 1.71875 -27.25 L 6.296875 -27.25 C 6.785156 -27.25 7.164062 -27.15625 7.4375 -26.96875 C 7.707031 -26.78125 7.914062 -26.515625 8.0625 -26.171875 C 8.4375 -25.367188 8.800781 -24.550781 9.15625 -23.71875 C 9.519531 -22.882812 9.890625 -22.050781 10.265625 -21.21875 L 14.625 -11.296875 C 15 -10.492188 15.363281 -9.675781 15.71875 -8.84375 C 16.082031 -8.007812 16.445312 -7.175781 16.8125 -6.34375 C 16.90625 -6.132812 17.035156 -6.03125 17.203125 -6.03125 C 17.378906 -6.03125 17.492188 -6.132812 17.546875 -6.34375 L 26.21875 -27.25 L 32.078125 -27.25 C 32.316406 -27.25 32.441406 -27.140625 32.453125 -26.921875 C 32.460938 -26.710938 32.351562 -26.578125 32.125 -26.515625 C 31.632812 -26.429688 31.179688 -26.375 30.765625 -26.34375 C 30.347656 -26.320312 30.015625 -26.179688 29.765625 -25.921875 C 29.523438 -25.660156 29.40625 -25.140625 29.40625 -24.359375 L 29.40625 -3.0625 C 29.40625 -2.3125 29.523438 -1.804688 29.765625 -1.546875 C 30.015625 -1.296875 30.347656 -1.144531 30.765625 -1.09375 C 31.179688 -1.050781 31.632812 -0.988281 32.125 -0.90625 Z M 32.125 -0.90625 "/></g></g></g></g></g></svg>