<svg xmlns="http://www.w3.org/2000/svg" xmlns:xlink="http://www.w3.org/1999/xlink" width="862" zoomAndPan="magnify" viewBox="0 0 646.5 314.250004" height="419" preserveAspectRatio="xMidYMid meet" version="1.0"><defs><g/><clipPath id="5f687168a4"><path d="M 296 0 L 645 0 L 645 313 L 296 313 Z M 296 0 " clip-rule="nonzero"/></clipPath><clipPath id="4c8b4c718e"><path d="M 296.160156 69.027344 L 586.617188 0.046875 L 644.535156 243.914062 L 354.078125 312.898438 Z M 296.160156 69.027344 " clip-rule="nonzero"/></clipPath><clipPath id="1a4e813a8b"><path d="M 73 89 L 345 89 L 345 246 L 73 246 Z M 73 89 " clip-rule="nonzero"/></clipPath><clipPath id="d3cc9289a2"><path d="M 0.160156 69.027344 L 290.617188 0.046875 L 348.535156 243.914062 L 58.078125 312.898438 Z M 0.160156 69.027344 " clip-rule="nonzero"/></clipPath><clipPath id="bd30a107fd"><path d="M 290.8125 0 L 0.351562 68.984375 L 58.269531 312.851562 L 348.726562 243.867188 Z M 290.8125 0 " clip-rule="nonzero"/></clipPath><clipPath id="32f515b76c"><path d="M 55 112 L 233 112 L 233 143 L 55 143 Z M 55 112 " clip-rule="nonzero"/></clipPath><clipPath id="ba1d7f3049"><path d="M 0.160156 69.027344 L 290.617188 0.046875 L 348.535156 243.914062 L 58.078125 312.898438 Z M 0.160156 69.027344 " clip-rule="nonzero"/></clipPath><clipPath id="ab93eb22e5"><path d="M 290.8125 0 L 0.351562 68.984375 L 58.269531 312.851562 L 348.726562 243.867188 Z M 290.8125 0 " clip-rule="nonzero"/></clipPath><clipPath id="c89439985f"><path d="M 151 130 L 245 130 L 245 162 L 151 162 Z M 151 130 " clip-rule="nonzero"/></clipPath><clipPath id="addefd8f98"><path d="M 0.160156 69.027344 L 290.617188 0.046875 L 348.535156 243.914062 L 58.078125 312.898438 Z M 0.160156 69.027344 " clip-rule="nonzero"/></clipPath><clipPath id="ecfe96007e"><path d="M 290.8125 0 L 0.351562 68.984375 L 58.269531 312.851562 L 348.726562 243.867188 Z M 290.8125 0 " clip-rule="nonzero"/></clipPath><clipPath id="c1d00e5e11"><path d="M 99 74 L 215 74 L 215 99 L 99 99 Z M 99 74 " clip-rule="nonzero"/></clipPath><clipPath id="d210808b4d"><path d="M 0.160156 69.027344 L 290.617188 0.046875 L 348.535156 243.914062 L 58.078125 312.898438 Z M 0.160156 69.027344 " clip-rule="nonzero"/></clipPath><clipPath id="7ff661fb58"><path d="M 290.8125 0 L 0.351562 68.984375 L 58.269531 312.851562 L 348.726562 243.867188 Z M 290.8125 0 " clip-rule="nonzero"/></clipPath><clipPath id="51d157ca66"><path d="M 152 64 L 304 64 L 304 132 L 152 132 Z M 152 64 " clip-rule="nonzero"/></clipPath><clipPath id="b77caf164e"><path d="M 0.160156 69.027344 L 290.617188 0.046875 L 348.535156 243.914062 L 58.078125 312.898438 Z M 0.160156 69.027344 " clip-rule="nonzero"/></clipPath><clipPath id="3661acbad1"><path d="M 290.8125 0 L 0.351562 68.984375 L 58.269531 312.851562 L 348.726562 243.867188 Z M 290.8125 0 " clip-rule="nonzero"/></clipPath><clipPath id="906c9cf2b0"><path d="M 18 69 L 99 69 L 99 150 L 18 150 Z M 18 69 " clip-rule="nonzero"/></clipPath><clipPath id="b4afb0097d"><path d="M 0.160156 69.027344 L 290.617188 0.046875 L 348.535156 243.914062 L 58.078125 312.898438 Z M 0.160156 69.027344 " clip-rule="nonzero"/></clipPath><clipPath id="95862e11a3"><path d="M 290.8125 0 L 0.351562 68.984375 L 58.269531 312.851562 L 348.726562 243.867188 Z M 290.8125 0 " clip-rule="nonzero"/></clipPath><clipPath id="a4484c8e51"><path d="M 127 45 L 165 45 L 165 82 L 127 82 Z M 127 45 " clip-rule="nonzero"/></clipPath><clipPath id="36ce186d45"><path d="M 0.160156 69.027344 L 290.617188 0.046875 L 348.535156 243.914062 L 58.078125 312.898438 Z M 0.160156 69.027344 " clip-rule="nonzero"/></clipPath><clipPath id="bc94f8e29d"><path d="M 290.8125 0 L 0.351562 68.984375 L 58.269531 312.851562 L 348.726562 243.867188 Z M 290.8125 0 " clip-rule="nonzero"/></clipPath><clipPath id="10a854f8c9"><path d="M 114 132 L 130 132 L 130 147 L 114 147 Z M 114 132 " clip-rule="nonzero"/></clipPath><clipPath id="6ec930d602"><path d="M 0.160156 69.027344 L 290.617188 0.046875 L 348.535156 243.914062 L 58.078125 312.898438 Z M 0.160156 69.027344 " clip-rule="nonzero"/></clipPath><clipPath id="29fd478cf8"><path d="M 290.8125 0 L 0.351562 68.984375 L 58.269531 312.851562 L 348.726562 243.867188 Z M 290.8125 0 " clip-rule="nonzero"/></clipPath><clipPath id="ac21a73b41"><path d="M 226 100 L 239 100 L 239 113 L 226 113 Z M 226 100 " clip-rule="nonzero"/></clipPath><clipPath id="19b246bc2b"><path d="M 0.160156 69.027344 L 290.617188 0.046875 L 348.535156 243.914062 L 58.078125 312.898438 Z M 0.160156 69.027344 " clip-rule="nonzero"/></clipPath><clipPath id="0ab150a5a9"><path d="M 290.8125 0 L 0.351562 68.984375 L 58.269531 312.851562 L 348.726562 243.867188 Z M 290.8125 0 " clip-rule="nonzero"/></clipPath><clipPath id="e91f32bfe8"><path d="M 94 48 L 109 48 L 109 63 L 94 63 Z M 94 48 " clip-rule="nonzero"/></clipPath><clipPath id="68b2883513"><path d="M 0.160156 69.027344 L 290.617188 0.046875 L 348.535156 243.914062 L 58.078125 312.898438 Z M 0.160156 69.027344 " clip-rule="nonzero"/></clipPath><clipPath id="4b42fe9d51"><path d="M 290.8125 0 L 0.351562 68.984375 L 58.269531 312.851562 L 348.726562 243.867188 Z M 290.8125 0 " clip-rule="nonzero"/></clipPath><clipPath id="353a3a2e3c"><path d="M 197 51 L 213 51 L 213 66 L 197 66 Z M 197 51 " clip-rule="nonzero"/></clipPath><clipPath id="cc3f78d4dc"><path d="M 0.160156 69.027344 L 290.617188 0.046875 L 348.535156 243.914062 L 58.078125 312.898438 Z M 0.160156 69.027344 " clip-rule="nonzero"/></clipPath><clipPath id="03d1e1ebeb"><path d="M 290.8125 0 L 0.351562 68.984375 L 58.269531 312.851562 L 348.726562 243.867188 Z M 290.8125 0 " clip-rule="nonzero"/></clipPath><clipPath id="063281e3e8"><rect x="0" width="349" y="0" height="313"/></clipPath><clipPath id="e1e9850617"><rect x="0" width="233" y="0" height="50"/></clipPath></defs><g clip-path="url(#5f687168a4)"><g clip-path="url(#4c8b4c718e)"><g transform="matrix(1, 0, 0, 1, 296, -0.000000000000026561)"><g clip-path="url(#063281e3e8)"><g clip-path="url(#1a4e813a8b)"><g clip-path="url(#d3cc9289a2)"><g clip-path="url(#bd30a107fd)"><path fill="#ffbd59" d="M 344.351562 245.222656 C 340.808594 212.011719 325.449219 185.121094 303.5 163.6875 C 270.757812 131.714844 223.546875 111.984375 180.320312 100.140625 C 172.378906 97.980469 164.359375 96.152344 156.277344 94.640625 C 148.195312 93.128906 140.050781 91.941406 131.867188 91.054688 C 122.917969 90.085938 113.9375 89.566406 104.957031 89.449219 C 95.972656 89.335938 86.984375 89.628906 78.019531 90.296875 C 75.105469 90.542969 72.941406 93.109375 73.191406 96.023438 C 73.4375 98.9375 76.007812 101.101562 78.917969 100.851562 C 87.574219 100.015625 96.253906 99.535156 104.9375 99.449219 C 113.617188 99.363281 122.300781 99.667969 130.964844 100.410156 C 138.933594 101.089844 146.867188 102.066406 154.753906 103.355469 C 162.636719 104.644531 170.472656 106.238281 178.242188 108.15625 C 220.828125 118.59375 267.199219 136.953125 300.398438 166.988281 C 322.78125 187.242188 339.269531 212.753906 344.351562 245.222656 Z M 344.351562 245.222656 " fill-opacity="1" fill-rule="evenodd"/></g></g></g><g clip-path="url(#32f515b76c)"><g clip-path="url(#ba1d7f3049)"><g clip-path="url(#ab93eb22e5)"><path fill="#ffbd59" d="M 232.914062 142.558594 C 221.449219 135.855469 207.496094 129.808594 191.765625 125 C 178.246094 120.871094 163.4375 117.667969 147.898438 115.496094 C 119.386719 111.507812 88.390625 111.160156 58.09375 115.609375 C 56.441406 115.871094 55.316406 117.425781 55.582031 119.074219 C 55.84375 120.726562 57.398438 121.851562 59.046875 121.589844 C 88.753906 116.472656 119.25 116.191406 147.417969 119.308594 C 162.855469 121.019531 177.578125 123.789062 191.121094 127.296875 C 206.953125 131.402344 221.171875 136.507812 232.914062 142.558594 Z M 232.914062 142.558594 " fill-opacity="1" fill-rule="evenodd"/></g></g></g><g clip-path="url(#c89439985f)"><g clip-path="url(#addefd8f98)"><g clip-path="url(#ecfe96007e)"><path fill="#ffbd59" d="M 244.859375 161.332031 C 237.714844 157.492188 230.53125 153.820312 223.207031 150.5 C 215.820312 147.15625 208.304688 144.164062 200.675781 141.527344 C 185.429688 136.265625 169.683594 132.558594 153.257812 130.953125 C 152.296875 130.871094 151.449219 131.589844 151.367188 132.550781 C 151.289062 133.511719 152.003906 134.359375 152.964844 134.441406 C 169.195312 135.59375 184.792969 138.910156 199.988281 143.636719 C 207.640625 146.019531 215.179688 148.785156 222.667969 151.773438 C 230.121094 154.746094 237.523438 157.914062 244.859375 161.332031 Z M 244.859375 161.332031 " fill-opacity="1" fill-rule="evenodd"/></g></g></g><g clip-path="url(#c1d00e5e11)"><g clip-path="url(#d210808b4d)"><g clip-path="url(#7ff661fb58)"><path fill="#ffbd59" d="M 214.074219 98.074219 C 205.144531 94.601562 196.089844 91.25 186.875 88.28125 C 177.6875 85.320312 168.363281 82.734375 158.957031 80.585938 C 140.011719 76.257812 120.707031 73.820312 101.304688 74.332031 C 100.335938 74.371094 99.585938 75.179688 99.621094 76.148438 C 99.660156 77.109375 100.46875 77.863281 101.433594 77.828125 C 116.75 77.085938 132.035156 78.253906 147.171875 80.691406 C 158.523438 82.519531 169.78125 85.09375 180.910156 88.078125 C 186.492188 89.574219 192.046875 91.160156 197.558594 92.832031 C 203.109375 94.515625 208.617188 96.257812 214.074219 98.074219 Z M 214.074219 98.074219 " fill-opacity="1" fill-rule="evenodd"/></g></g></g><g clip-path="url(#51d157ca66)"><g clip-path="url(#b77caf164e)"><g clip-path="url(#3661acbad1)"><path fill="#ffbd59" d="M 303.046875 131.945312 C 292.355469 123.5 281.339844 115.476562 269.859375 108.203125 C 258.3125 100.878906 246.328125 94.300781 234.007812 88.492188 C 209.296875 76.832031 183.140625 68.441406 155.710938 64.292969 C 154.015625 64.0625 152.453125 65.25 152.222656 66.945312 C 151.988281 68.636719 153.175781 70.207031 154.871094 70.4375 C 181.910156 73.757812 207.761719 81.410156 232.386719 92.074219 C 244.773438 97.4375 256.820312 103.597656 268.601562 110.292969 C 280.386719 116.988281 291.902344 124.179688 303.046875 131.945312 Z M 303.046875 131.945312 " fill-opacity="1" fill-rule="evenodd"/></g></g></g><g clip-path="url(#906c9cf2b0)"><g clip-path="url(#b4afb0097d)"><g clip-path="url(#95862e11a3)"><path fill="#ffbd59" d="M 40.632812 69.644531 L 43.242188 98.703125 L 18.566406 114.269531 L 47.007812 120.769531 L 54.191406 149.046875 L 69.160156 124.003906 L 98.273438 125.914062 L 79.082031 103.9375 L 89.894531 76.839844 L 63.0625 88.300781 Z M 40.632812 69.644531 " fill-opacity="1" fill-rule="evenodd"/></g></g></g><g clip-path="url(#a4484c8e51)"><g clip-path="url(#36ce186d45)"><g clip-path="url(#bc94f8e29d)"><path fill="#ffbd59" d="M 144.617188 45.15625 L 140.917969 58.195312 L 127.628906 60.847656 L 138.886719 68.394531 L 137.296875 81.855469 L 147.957031 73.480469 L 160.265625 79.148438 L 155.59375 66.425781 L 164.789062 56.46875 L 151.246094 56.980469 Z M 144.617188 45.15625 " fill-opacity="1" fill-rule="evenodd"/></g></g></g><g clip-path="url(#10a854f8c9)"><g clip-path="url(#6ec930d602)"><g clip-path="url(#29fd478cf8)"><path fill="#ffbd59" d="M 125.210938 132.003906 L 121.152344 135.421875 L 116.261719 133.367188 L 118.253906 138.285156 L 114.789062 142.300781 L 120.082031 141.921875 L 122.832031 146.460938 L 124.105469 141.308594 L 129.269531 140.097656 L 124.765625 137.292969 Z M 125.210938 132.003906 " fill-opacity="1" fill-rule="evenodd"/></g></g></g><g clip-path="url(#ac21a73b41)"><g clip-path="url(#19b246bc2b)"><g clip-path="url(#0ab150a5a9)"><path fill="#ffbd59" d="M 235.441406 100.472656 L 232.023438 103.351562 L 227.902344 101.617188 L 229.585938 105.757812 L 226.664062 109.144531 L 231.121094 108.824219 L 233.4375 112.644531 L 234.511719 108.308594 L 238.863281 107.285156 L 235.070312 104.925781 Z M 235.441406 100.472656 " fill-opacity="1" fill-rule="evenodd"/></g></g></g><g clip-path="url(#e91f32bfe8)"><g clip-path="url(#68b2883513)"><g clip-path="url(#4b42fe9d51)"><path fill="#ffbd59" d="M 94.066406 53.25 L 97.949219 56.863281 L 96.507812 61.96875 L 101.140625 59.390625 L 105.550781 62.339844 L 104.53125 57.132812 L 108.699219 53.851562 L 103.433594 53.214844 L 101.601562 48.234375 L 99.367188 53.046875 Z M 94.066406 53.25 " fill-opacity="1" fill-rule="evenodd"/></g></g></g><g clip-path="url(#353a3a2e3c)"><g clip-path="url(#cc3f78d4dc)"><g clip-path="url(#03d1e1ebeb)"><path fill="#ffbd59" d="M 201.222656 51.160156 L 202.046875 56.398438 L 197.757812 59.523438 L 202.996094 60.359375 L 204.640625 65.402344 L 207.054688 60.679688 L 212.359375 60.675781 L 208.613281 56.917969 L 210.25 51.871094 L 205.519531 54.273438 Z M 201.222656 51.160156 " fill-opacity="1" fill-rule="evenodd"/></g></g></g></g></g></g></g><g fill="#ffbd59" fill-opacity="1"><g transform="translate(160.211591, 213.111906)"><g><path d="M 36.09375 -8.640625 C 36.175781 -8.960938 36.390625 -9.113281 36.734375 -9.09375 C 37.078125 -9.070312 37.25 -8.898438 37.25 -8.578125 L 36.90625 -0.265625 C 36.863281 -0.046875 36.679688 0.0625 36.359375 0.0625 L 2.71875 0.0625 L 2.71875 0 C 2 -0.09375 1.582031 -0.410156 1.46875 -0.953125 C 1.351562 -1.492188 1.410156 -1.972656 1.640625 -2.390625 C 4.585938 -6.742188 7.707031 -11.066406 11 -15.359375 C 14.289062 -19.648438 17.59375 -23.953125 20.90625 -28.265625 C 24.21875 -32.578125 27.375 -36.890625 30.375 -41.203125 L 12.46875 -41.203125 C 10.101562 -41.203125 8.296875 -40.914062 7.046875 -40.34375 C 5.796875 -39.78125 4.898438 -38.960938 4.359375 -37.890625 C 3.816406 -36.828125 3.363281 -35.546875 3 -34.046875 C 2.945312 -33.722656 2.738281 -33.582031 2.375 -33.625 C 2.019531 -33.675781 1.84375 -33.835938 1.84375 -34.109375 L 2.171875 -42.421875 C 2.222656 -42.648438 2.40625 -42.765625 2.71875 -42.765625 L 37.390625 -42.765625 L 8.03125 -2.71875 C 7.582031 -1.90625 7.8125 -1.5 8.71875 -1.5 L 26.625 -1.5 C 28.988281 -1.5 30.789062 -1.78125 32.03125 -2.34375 C 33.28125 -2.914062 34.1875 -3.742188 34.75 -4.828125 C 35.320312 -5.921875 35.769531 -7.191406 36.09375 -8.640625 Z M 36.09375 -8.640625 "/></g></g></g><g fill="#ffbd59" fill-opacity="1"><g transform="translate(215.909724, 213.111906)"><g><path d="M 46.296875 -42.765625 C 46.660156 -42.765625 46.851562 -42.59375 46.875 -42.25 C 46.90625 -41.90625 46.738281 -41.691406 46.375 -41.609375 C 45.644531 -41.515625 44.882812 -41.429688 44.09375 -41.359375 C 43.300781 -41.296875 42.640625 -41.0625 42.109375 -40.65625 C 41.585938 -40.25 41.328125 -39.429688 41.328125 -38.203125 L 41.328125 -15.734375 C 41.328125 -12.960938 40.835938 -10.539062 39.859375 -8.46875 C 38.890625 -6.40625 37.5625 -4.679688 35.875 -3.296875 C 34.195312 -1.910156 32.300781 -0.863281 30.1875 -0.15625 C 28.082031 0.539062 25.941406 0.890625 23.765625 0.890625 C 21.535156 0.890625 19.375 0.539062 17.28125 -0.15625 C 15.195312 -0.863281 13.316406 -1.910156 11.640625 -3.296875 C 9.960938 -4.679688 8.632812 -6.40625 7.65625 -8.46875 C 6.6875 -10.539062 6.203125 -12.960938 6.203125 -15.734375 L 6.203125 -38.203125 C 6.203125 -39.429688 5.992188 -40.25 5.578125 -40.65625 C 5.171875 -41.0625 4.648438 -41.296875 4.015625 -41.359375 C 3.378906 -41.429688 2.675781 -41.515625 1.90625 -41.609375 C 1.59375 -41.691406 1.4375 -41.90625 1.4375 -42.25 C 1.4375 -42.59375 1.613281 -42.765625 1.96875 -42.765625 L 15.453125 -42.765625 C 15.816406 -42.765625 16 -42.59375 16 -42.25 C 16 -41.90625 15.84375 -41.691406 15.53125 -41.609375 C 14.757812 -41.515625 14.039062 -41.429688 13.375 -41.359375 C 12.71875 -41.296875 12.195312 -41.0625 11.8125 -40.65625 C 11.425781 -40.25 11.234375 -39.429688 11.234375 -38.203125 L 11.234375 -15.734375 C 11.273438 -12.554688 11.976562 -9.921875 13.34375 -7.828125 C 14.707031 -5.742188 16.457031 -4.175781 18.59375 -3.125 C 20.726562 -2.082031 22.953125 -1.5625 25.265625 -1.5625 C 27.617188 -1.5625 29.882812 -2.09375 32.0625 -3.15625 C 34.25 -4.226562 36.035156 -5.816406 37.421875 -7.921875 C 38.804688 -10.035156 39.5 -12.640625 39.5 -15.734375 L 39.5 -38.40625 C 39.5 -39.539062 39.222656 -40.300781 38.671875 -40.6875 C 38.128906 -41.070312 37.484375 -41.296875 36.734375 -41.359375 C 35.984375 -41.429688 35.222656 -41.515625 34.453125 -41.609375 C 34.140625 -41.691406 33.992188 -41.90625 34.015625 -42.25 C 34.035156 -42.59375 34.207031 -42.765625 34.53125 -42.765625 Z M 46.296875 -42.765625 "/></g></g></g><g fill="#ffbd59" fill-opacity="1"><g transform="translate(279.778368, 213.111906)"><g><path d="M 41.125 -15.046875 C 42.125 -15.046875 42.828125 -14.679688 43.234375 -13.953125 C 43.648438 -13.234375 43.890625 -12.382812 43.953125 -11.40625 C 44.023438 -10.425781 44.035156 -9.597656 43.984375 -8.921875 C 43.984375 -7.328125 43.695312 -5.800781 43.125 -4.34375 C 42.5625 -2.894531 41.691406 -1.707031 40.515625 -0.78125 C 39.335938 0.144531 37.75 0.609375 35.75 0.609375 C 33.9375 0.609375 32.320312 0.125 30.90625 -0.84375 C 29.5 -1.820312 28.191406 -3.023438 26.984375 -4.453125 C 25.785156 -5.890625 24.582031 -7.320312 23.375 -8.75 C 22.175781 -10.175781 20.894531 -11.398438 19.53125 -12.421875 C 18.175781 -13.441406 16.613281 -13.976562 14.84375 -14.03125 C 14.25 -13.976562 13.941406 -14.210938 13.921875 -14.734375 C 13.898438 -15.265625 14.1875 -15.484375 14.78125 -15.390625 C 15.28125 -15.347656 15.539062 -15.300781 15.5625 -15.25 C 15.582031 -15.207031 15.863281 -15.1875 16.40625 -15.1875 C 19.769531 -15.1875 22.8125 -15.6875 25.53125 -16.6875 C 28.257812 -17.6875 30.414062 -19.171875 32 -21.140625 C 33.59375 -23.117188 34.390625 -25.5625 34.390625 -28.46875 C 34.390625 -32.820312 32.773438 -36.039062 29.546875 -38.125 C 26.328125 -40.21875 21.945312 -41.265625 16.40625 -41.265625 C 15.769531 -41.265625 15.289062 -41.265625 14.96875 -41.265625 C 14.65625 -41.265625 14.382812 -41.265625 14.15625 -41.265625 L 14.375 -41.203125 C 13.507812 -41.203125 12.769531 -41.019531 12.15625 -40.65625 C 11.539062 -40.289062 11.234375 -39.519531 11.234375 -38.34375 L 11.234375 -4.5 C 11.234375 -3.3125 11.425781 -2.503906 11.8125 -2.078125 C 12.195312 -1.648438 12.71875 -1.410156 13.375 -1.359375 C 14.039062 -1.316406 14.757812 -1.226562 15.53125 -1.09375 C 15.84375 -1.039062 16 -0.832031 16 -0.46875 C 16 -0.113281 15.816406 0.0625 15.453125 0.0625 L 1.96875 0.0625 C 1.613281 0.0625 1.4375 -0.113281 1.4375 -0.46875 C 1.4375 -0.832031 1.59375 -1.039062 1.90625 -1.09375 C 2.675781 -1.226562 3.378906 -1.316406 4.015625 -1.359375 C 4.648438 -1.410156 5.171875 -1.648438 5.578125 -2.078125 C 5.992188 -2.503906 6.203125 -3.3125 6.203125 -4.5 L 6.203125 -38.203125 C 6.203125 -39.429688 5.992188 -40.25 5.578125 -40.65625 C 5.171875 -41.0625 4.648438 -41.296875 4.015625 -41.359375 C 3.378906 -41.429688 2.675781 -41.515625 1.90625 -41.609375 C 1.59375 -41.691406 1.4375 -41.90625 1.4375 -42.25 C 1.4375 -42.59375 1.613281 -42.765625 1.96875 -42.765625 L 21.71875 -42.765625 C 24.988281 -42.765625 28.019531 -42.226562 30.8125 -41.15625 C 33.601562 -40.09375 35.859375 -38.503906 37.578125 -36.390625 C 39.304688 -34.285156 40.171875 -31.664062 40.171875 -28.53125 C 40.171875 -26.164062 39.671875 -24.109375 38.671875 -22.359375 C 37.671875 -20.617188 36.34375 -19.179688 34.6875 -18.046875 C 33.03125 -16.910156 31.179688 -16.023438 29.140625 -15.390625 C 27.097656 -14.753906 25.007812 -14.34375 22.875 -14.15625 C 24.28125 -13.800781 25.503906 -13.191406 26.546875 -12.328125 C 27.597656 -11.460938 28.550781 -10.492188 29.40625 -9.421875 C 30.269531 -8.359375 31.125 -7.335938 31.96875 -6.359375 C 32.8125 -5.390625 33.707031 -4.570312 34.65625 -3.90625 C 35.613281 -3.25 36.726562 -2.921875 38 -2.921875 C 39.21875 -2.921875 40.210938 -3.285156 40.984375 -4.015625 C 41.765625 -4.742188 42.207031 -5.59375 42.3125 -6.5625 C 42.425781 -7.539062 42.144531 -8.394531 41.46875 -9.125 C 40.875 -9.851562 40.304688 -10.488281 39.765625 -11.03125 C 39.222656 -11.570312 38.953125 -12.207031 38.953125 -12.9375 C 38.953125 -13.570312 39.164062 -14.082031 39.59375 -14.46875 C 40.03125 -14.851562 40.539062 -15.046875 41.125 -15.046875 Z M 41.125 -15.046875 "/></g></g></g><g fill="#ffbd59" fill-opacity="1"><g transform="translate(337.246397, 213.111906)"><g><path d="M 21.578125 -50.796875 C 22.398438 -50.796875 23.09375 -50.507812 23.65625 -49.9375 C 24.226562 -49.375 24.515625 -48.6875 24.515625 -47.875 C 24.515625 -47.050781 24.226562 -46.34375 23.65625 -45.75 C 23.09375 -45.164062 22.398438 -44.875 21.578125 -44.875 C 20.765625 -44.875 20.0625 -45.164062 19.46875 -45.75 C 18.882812 -46.34375 18.59375 -47.050781 18.59375 -47.875 C 18.59375 -48.6875 18.882812 -49.375 19.46875 -49.9375 C 20.0625 -50.507812 20.765625 -50.796875 21.578125 -50.796875 Z M 28.390625 -50.796875 C 29.210938 -50.796875 29.90625 -50.507812 30.46875 -49.9375 C 31.039062 -49.375 31.328125 -48.6875 31.328125 -47.875 C 31.328125 -47.050781 31.039062 -46.34375 30.46875 -45.75 C 29.90625 -45.164062 29.210938 -44.875 28.390625 -44.875 C 27.578125 -44.875 26.875 -45.164062 26.28125 -45.75 C 25.695312 -46.34375 25.40625 -47.050781 25.40625 -47.875 C 25.40625 -48.6875 25.695312 -49.375 26.28125 -49.9375 C 26.875 -50.507812 27.578125 -50.796875 28.390625 -50.796875 Z M 46.296875 -42.765625 C 46.660156 -42.765625 46.851562 -42.59375 46.875 -42.25 C 46.90625 -41.90625 46.738281 -41.691406 46.375 -41.609375 C 45.644531 -41.515625 44.882812 -41.429688 44.09375 -41.359375 C 43.300781 -41.296875 42.640625 -41.0625 42.109375 -40.65625 C 41.585938 -40.25 41.328125 -39.429688 41.328125 -38.203125 L 41.328125 -15.734375 C 41.328125 -12.960938 40.835938 -10.539062 39.859375 -8.46875 C 38.890625 -6.40625 37.5625 -4.679688 35.875 -3.296875 C 34.195312 -1.910156 32.300781 -0.863281 30.1875 -0.15625 C 28.082031 0.539062 25.941406 0.890625 23.765625 0.890625 C 21.535156 0.890625 19.375 0.539062 17.28125 -0.15625 C 15.195312 -0.863281 13.316406 -1.910156 11.640625 -3.296875 C 9.960938 -4.679688 8.632812 -6.40625 7.65625 -8.46875 C 6.6875 -10.539062 6.203125 -12.960938 6.203125 -15.734375 L 6.203125 -38.203125 C 6.203125 -39.429688 5.992188 -40.25 5.578125 -40.65625 C 5.171875 -41.0625 4.648438 -41.296875 4.015625 -41.359375 C 3.378906 -41.429688 2.675781 -41.515625 1.90625 -41.609375 C 1.59375 -41.691406 1.4375 -41.90625 1.4375 -42.25 C 1.4375 -42.59375 1.613281 -42.765625 1.96875 -42.765625 L 15.453125 -42.765625 C 15.816406 -42.765625 16 -42.59375 16 -42.25 C 16 -41.90625 15.84375 -41.691406 15.53125 -41.609375 C 14.757812 -41.515625 14.039062 -41.429688 13.375 -41.359375 C 12.71875 -41.296875 12.195312 -41.0625 11.8125 -40.65625 C 11.425781 -40.25 11.234375 -39.429688 11.234375 -38.203125 L 11.234375 -15.734375 C 11.273438 -12.554688 11.976562 -9.921875 13.34375 -7.828125 C 14.707031 -5.742188 16.457031 -4.175781 18.59375 -3.125 C 20.726562 -2.082031 22.953125 -1.5625 25.265625 -1.5625 C 27.617188 -1.5625 29.882812 -2.09375 32.0625 -3.15625 C 34.25 -4.226562 36.035156 -5.816406 37.421875 -7.921875 C 38.804688 -10.035156 39.5 -12.640625 39.5 -15.734375 L 39.5 -38.40625 C 39.5 -39.539062 39.222656 -40.300781 38.671875 -40.6875 C 38.128906 -41.070312 37.484375 -41.296875 36.734375 -41.359375 C 35.984375 -41.429688 35.222656 -41.515625 34.453125 -41.609375 C 34.140625 -41.691406 33.992188 -41.90625 34.015625 -42.25 C 34.035156 -42.59375 34.207031 -42.765625 34.53125 -42.765625 Z M 46.296875 -42.765625 "/></g></g></g><g fill="#ffbd59" fill-opacity="1"><g transform="translate(399.07219, 213.111906)"><g><path d="M 40.171875 -8.375 C 40.578125 -8.96875 41.03125 -9.265625 41.53125 -9.265625 C 42.03125 -9.265625 42.40625 -9.035156 42.65625 -8.578125 C 42.90625 -8.128906 42.78125 -7.628906 42.28125 -7.078125 C 40.332031 -4.804688 37.972656 -2.957031 35.203125 -1.53125 C 32.429688 -0.101562 28.984375 0.609375 24.859375 0.609375 C 20.410156 0.609375 16.582031 -0.191406 13.375 -1.796875 C 10.175781 -3.410156 7.625 -5.546875 5.71875 -8.203125 C 3.8125 -10.859375 2.539062 -13.773438 1.90625 -16.953125 C 1.269531 -20.128906 1.269531 -23.296875 1.90625 -26.453125 C 2.539062 -29.609375 3.8125 -32.515625 5.71875 -35.171875 C 7.625 -37.828125 10.175781 -39.957031 13.375 -41.5625 C 16.582031 -43.175781 20.410156 -43.984375 24.859375 -43.984375 C 26.578125 -43.984375 28.207031 -43.847656 29.75 -43.578125 C 31.300781 -43.304688 32.734375 -42.921875 34.046875 -42.421875 C 34.679688 -42.285156 35.460938 -41.976562 36.390625 -41.5 C 37.328125 -41.019531 38.222656 -40.484375 39.078125 -39.890625 C 39.941406 -39.304688 40.582031 -38.765625 41 -38.265625 C 41.71875 -37.398438 42.054688 -36.582031 42.015625 -35.8125 C 41.972656 -35.039062 41.710938 -34.414062 41.234375 -33.9375 C 40.753906 -33.46875 40.175781 -33.234375 39.5 -33.234375 C 39.039062 -33.234375 38.550781 -33.378906 38.03125 -33.671875 C 37.507812 -33.960938 37.066406 -34.472656 36.703125 -35.203125 C 36.429688 -35.796875 36.226562 -36.429688 36.09375 -37.109375 C 35.957031 -37.785156 35.640625 -38.476562 35.140625 -39.1875 C 34.640625 -39.894531 33.640625 -40.585938 32.140625 -41.265625 C 31.046875 -41.628906 29.84375 -41.878906 28.53125 -42.015625 C 27.21875 -42.148438 25.992188 -42.21875 24.859375 -42.21875 C 21.546875 -42.21875 18.6875 -41.476562 16.28125 -40 C 13.875 -38.53125 11.941406 -36.566406 10.484375 -34.109375 C 9.035156 -31.660156 8.0625 -28.972656 7.5625 -26.046875 C 7.0625 -23.117188 7.046875 -20.191406 7.515625 -17.265625 C 7.992188 -14.335938 8.945312 -11.644531 10.375 -9.1875 C 11.8125 -6.738281 13.734375 -4.773438 16.140625 -3.296875 C 18.546875 -1.828125 21.453125 -1.09375 24.859375 -1.09375 C 27.984375 -1.09375 30.519531 -1.453125 32.46875 -2.171875 C 34.425781 -2.898438 35.992188 -3.820312 37.171875 -4.9375 C 38.359375 -6.050781 39.359375 -7.195312 40.171875 -8.375 Z M 40.171875 -8.375 "/></g></g></g><g fill="#ffbd59" fill-opacity="1"><g transform="translate(458.787489, 213.111906)"><g><path d="M 42.6875 -15.109375 C 43.6875 -15.109375 44.390625 -14.742188 44.796875 -14.015625 C 45.210938 -13.296875 45.453125 -12.457031 45.515625 -11.5 C 45.585938 -10.550781 45.601562 -9.738281 45.5625 -9.0625 C 45.5625 -7.46875 45.285156 -5.941406 44.734375 -4.484375 C 44.191406 -3.035156 43.328125 -1.859375 42.140625 -0.953125 C 40.960938 -0.046875 39.378906 0.40625 37.390625 0.40625 C 35.890625 0.40625 34.445312 -0.09375 33.0625 -1.09375 C 31.675781 -2.09375 30.347656 -3.382812 29.078125 -4.96875 C 27.804688 -6.5625 26.546875 -8.242188 25.296875 -10.015625 C 24.046875 -11.785156 22.785156 -13.472656 21.515625 -15.078125 C 20.242188 -16.691406 18.9375 -18.019531 17.59375 -19.0625 C 16.257812 -20.101562 14.867188 -20.648438 13.421875 -20.703125 C 13.003906 -20.648438 12.726562 -20.769531 12.59375 -21.0625 C 12.457031 -21.363281 12.457031 -21.671875 12.59375 -21.984375 C 12.726562 -22.304688 12.976562 -22.445312 13.34375 -22.40625 C 13.84375 -22.351562 14.113281 -22.304688 14.15625 -22.265625 C 14.207031 -22.222656 14.484375 -22.203125 14.984375 -22.203125 C 17.066406 -22.203125 19.109375 -22.675781 21.109375 -23.625 C 23.109375 -24.582031 24.957031 -25.84375 26.65625 -27.40625 C 28.363281 -28.96875 29.835938 -30.710938 31.078125 -32.640625 C 32.328125 -34.578125 33.25 -36.519531 33.84375 -38.46875 C 34.070312 -39.46875 34.035156 -40.179688 33.734375 -40.609375 C 33.441406 -41.046875 32.988281 -41.332031 32.375 -41.46875 C 31.757812 -41.601562 31.066406 -41.738281 30.296875 -41.875 C 29.984375 -41.96875 29.835938 -42.179688 29.859375 -42.515625 C 29.878906 -42.859375 30.050781 -43.03125 30.375 -43.03125 L 43.171875 -43.03125 C 43.535156 -43.03125 43.726562 -42.859375 43.75 -42.515625 C 43.769531 -42.179688 43.597656 -41.96875 43.234375 -41.875 C 42.097656 -41.695312 41.175781 -41.4375 40.46875 -41.09375 C 39.769531 -40.75 39.285156 -40.125 39.015625 -39.21875 L 39.015625 -39.296875 C 38.335938 -36.472656 37.019531 -33.8125 35.0625 -31.3125 C 33.113281 -28.820312 30.859375 -26.703125 28.296875 -24.953125 C 25.734375 -23.203125 23.132812 -21.988281 20.5 -21.3125 C 22.132812 -21 23.617188 -20.171875 24.953125 -18.828125 C 26.296875 -17.484375 27.554688 -15.9375 28.734375 -14.1875 C 29.910156 -12.445312 31.078125 -10.722656 32.234375 -9.015625 C 33.398438 -7.316406 34.617188 -5.898438 35.890625 -4.765625 C 37.160156 -3.628906 38.546875 -3.0625 40.046875 -3.0625 C 41.265625 -3.0625 42.191406 -3.445312 42.828125 -4.21875 C 43.460938 -4.988281 43.800781 -5.882812 43.84375 -6.90625 C 43.894531 -7.925781 43.582031 -8.800781 42.90625 -9.53125 C 42.269531 -10.257812 41.710938 -10.804688 41.234375 -11.171875 C 40.753906 -11.535156 40.515625 -12.078125 40.515625 -12.796875 C 40.515625 -13.523438 40.753906 -14.09375 41.234375 -14.5 C 41.710938 -14.90625 42.195312 -15.109375 42.6875 -15.109375 Z M 15.453125 -1.4375 C 15.816406 -1.382812 15.988281 -1.1875 15.96875 -0.84375 C 15.945312 -0.507812 15.753906 -0.34375 15.390625 -0.34375 L 1.96875 -0.34375 C 1.65625 -0.34375 1.488281 -0.507812 1.46875 -0.84375 C 1.445312 -1.1875 1.59375 -1.382812 1.90625 -1.4375 C 2.675781 -1.570312 3.390625 -1.671875 4.046875 -1.734375 C 4.703125 -1.804688 5.222656 -2.046875 5.609375 -2.453125 C 6.003906 -2.859375 6.203125 -3.648438 6.203125 -4.828125 L 6.203125 -38.46875 C 6.203125 -39.695312 6.003906 -40.515625 5.609375 -40.921875 C 5.222656 -41.328125 4.703125 -41.550781 4.046875 -41.59375 C 3.390625 -41.644531 2.675781 -41.738281 1.90625 -41.875 C 1.59375 -41.96875 1.445312 -42.179688 1.46875 -42.515625 C 1.488281 -42.859375 1.65625 -43.03125 1.96875 -43.03125 L 15.390625 -43.03125 C 15.753906 -43.03125 15.945312 -42.859375 15.96875 -42.515625 C 15.988281 -42.179688 15.816406 -41.96875 15.453125 -41.875 C 14.734375 -41.738281 14.039062 -41.644531 13.375 -41.59375 C 12.71875 -41.550781 12.195312 -41.328125 11.8125 -40.921875 C 11.425781 -40.515625 11.234375 -39.695312 11.234375 -38.46875 L 11.234375 -4.828125 C 11.234375 -3.648438 11.425781 -2.859375 11.8125 -2.453125 C 12.195312 -2.046875 12.71875 -1.804688 13.375 -1.734375 C 14.039062 -1.671875 14.734375 -1.570312 15.453125 -1.4375 Z M 15.453125 -1.4375 "/></g></g></g><g transform="matrix(1, 0, 0, 1, 86, 119)"><g clip-path="url(#e1e9850617)"><g fill="#ffbd59" fill-opacity="1"><g transform="translate(1.921346, 33.127077)"><g><path d="M 49.453125 -27.046875 C 49.679688 -27.046875 49.796875 -26.9375 49.796875 -26.71875 C 49.796875 -26.507812 49.695312 -26.378906 49.5 -26.328125 C 49.007812 -26.265625 48.519531 -26.203125 48.03125 -26.140625 C 47.539062 -26.085938 47.085938 -25.925781 46.671875 -25.65625 C 46.253906 -25.382812 45.890625 -24.875 45.578125 -24.125 L 35.453125 0.125 C 34.816406 0.332031 34.351562 0.28125 34.0625 -0.03125 C 33.78125 -0.351562 33.5 -0.816406 33.21875 -1.421875 C 31.894531 -5.097656 30.554688 -8.765625 29.203125 -12.421875 C 27.859375 -16.085938 26.507812 -19.742188 25.15625 -23.390625 L 15.375 0.125 C 14.75 0.332031 14.289062 0.28125 14 -0.03125 C 13.707031 -0.351562 13.421875 -0.816406 13.140625 -1.421875 L 4.953125 -24.078125 C 4.640625 -24.796875 4.28125 -25.296875 3.875 -25.578125 C 3.476562 -25.867188 3.054688 -26.050781 2.609375 -26.125 C 2.160156 -26.195312 1.691406 -26.265625 1.203125 -26.328125 C 1.003906 -26.378906 0.910156 -26.507812 0.921875 -26.71875 C 0.941406 -26.9375 1.050781 -27.046875 1.25 -27.046875 L 10.546875 -27.046875 C 10.785156 -27.046875 10.90625 -26.9375 10.90625 -26.71875 C 10.90625 -26.507812 10.800781 -26.378906 10.59375 -26.328125 C 10.101562 -26.265625 9.644531 -26.195312 9.21875 -26.125 C 8.789062 -26.050781 8.488281 -25.882812 8.3125 -25.625 C 8.144531 -25.375 8.1875 -24.929688 8.4375 -24.296875 L 15.375 -4.90625 C 15.519531 -4.59375 15.679688 -4.4375 15.859375 -4.4375 C 15.992188 -4.4375 16.132812 -4.59375 16.28125 -4.90625 C 16.914062 -6.40625 17.613281 -8.050781 18.375 -9.84375 C 19.132812 -11.632812 19.910156 -13.476562 20.703125 -15.375 C 21.492188 -17.269531 22.257812 -19.113281 23 -20.90625 C 23.75 -22.707031 24.441406 -24.351562 25.078125 -25.84375 C 25.097656 -25.90625 25.132812 -25.976562 25.1875 -26.0625 C 25.25 -26.144531 25.296875 -26.234375 25.328125 -26.328125 C 25.554688 -26.691406 25.820312 -26.929688 26.125 -27.046875 C 26.425781 -27.160156 26.894531 -27.160156 27.53125 -27.046875 L 35.453125 -4.90625 C 35.710938 -4.25 36 -4.25 36.3125 -4.90625 L 44.546875 -24.421875 C 44.804688 -25.054688 44.832031 -25.488281 44.625 -25.71875 C 44.425781 -25.945312 44.101562 -26.085938 43.65625 -26.140625 C 43.207031 -26.203125 42.742188 -26.265625 42.265625 -26.328125 C 42.054688 -26.378906 41.957031 -26.507812 41.96875 -26.71875 C 41.988281 -26.9375 42.097656 -27.046875 42.296875 -27.046875 Z M 49.453125 -27.046875 "/></g></g></g><g fill="#ffbd59" fill-opacity="1"><g transform="translate(62.444996, 33.127077)"><g><path d="M 9.78125 -0.90625 C 10.007812 -0.875 10.113281 -0.75 10.09375 -0.53125 C 10.082031 -0.320312 9.960938 -0.21875 9.734375 -0.21875 L 1.25 -0.21875 C 1.019531 -0.21875 0.90625 -0.320312 0.90625 -0.53125 C 0.90625 -0.75 1.003906 -0.875 1.203125 -0.90625 C 1.691406 -0.988281 2.132812 -1.050781 2.53125 -1.09375 C 2.9375 -1.132812 3.257812 -1.285156 3.5 -1.546875 C 3.75 -1.804688 3.875 -2.3125 3.875 -3.0625 L 3.875 -24.34375 C 3.875 -25.113281 3.75 -25.628906 3.5 -25.890625 C 3.257812 -26.148438 2.9375 -26.289062 2.53125 -26.3125 C 2.132812 -26.34375 1.691406 -26.40625 1.203125 -26.5 C 1.003906 -26.550781 0.90625 -26.679688 0.90625 -26.890625 C 0.90625 -27.109375 1.019531 -27.21875 1.25 -27.21875 L 9.734375 -27.21875 C 9.960938 -27.21875 10.082031 -27.109375 10.09375 -26.890625 C 10.113281 -26.679688 10.007812 -26.550781 9.78125 -26.5 C 9.289062 -26.40625 8.835938 -26.34375 8.421875 -26.3125 C 8.003906 -26.289062 7.671875 -26.148438 7.421875 -25.890625 C 7.179688 -25.628906 7.0625 -25.113281 7.0625 -24.34375 L 7.0625 -3.0625 C 7.0625 -2.3125 7.179688 -1.804688 7.421875 -1.546875 C 7.671875 -1.285156 8.003906 -1.132812 8.421875 -1.09375 C 8.835938 -1.050781 9.289062 -0.988281 9.78125 -0.90625 Z M 9.78125 -0.90625 "/></g></g></g><g fill="#ffbd59" fill-opacity="1"><g transform="translate(83.294368, 33.127077)"><g><path d="M 22.953125 -4.953125 C 23.015625 -5.148438 23.148438 -5.242188 23.359375 -5.234375 C 23.578125 -5.222656 23.6875 -5.113281 23.6875 -4.90625 L 23.484375 -0.4375 C 23.484375 -0.289062 23.378906 -0.21875 23.171875 -0.21875 L 1.25 -0.21875 C 1.019531 -0.21875 0.90625 -0.320312 0.90625 -0.53125 C 0.90625 -0.75 1.003906 -0.875 1.203125 -0.90625 C 1.691406 -0.988281 2.132812 -1.050781 2.53125 -1.09375 C 2.9375 -1.132812 3.257812 -1.285156 3.5 -1.546875 C 3.75 -1.804688 3.875 -2.3125 3.875 -3.0625 L 3.875 -24.34375 C 3.875 -25.113281 3.75 -25.628906 3.5 -25.890625 C 3.257812 -26.148438 2.9375 -26.289062 2.53125 -26.3125 C 2.132812 -26.34375 1.691406 -26.40625 1.203125 -26.5 C 1.003906 -26.550781 0.90625 -26.679688 0.90625 -26.890625 C 0.90625 -27.109375 1.019531 -27.21875 1.25 -27.21875 L 22.1875 -27.21875 C 22.382812 -27.21875 22.484375 -27.148438 22.484375 -27.015625 L 22.75 -22.484375 C 22.75 -22.316406 22.632812 -22.21875 22.40625 -22.1875 C 22.175781 -22.15625 22.03125 -22.238281 21.96875 -22.4375 C 21.769531 -23.382812 21.46875 -24.128906 21.0625 -24.671875 C 20.664062 -25.222656 20.054688 -25.617188 19.234375 -25.859375 C 18.410156 -26.109375 17.253906 -26.234375 15.765625 -26.234375 L 9 -26.234375 C 8.457031 -26.234375 8 -26.117188 7.625 -25.890625 C 7.25 -25.660156 7.0625 -25.171875 7.0625 -24.421875 L 7.0625 -13.5625 L 15.640625 -13.5625 C 16.984375 -13.5625 17.867188 -13.851562 18.296875 -14.4375 C 18.734375 -15.03125 18.96875 -15.644531 19 -16.28125 C 19.03125 -16.507812 19.160156 -16.613281 19.390625 -16.59375 C 19.617188 -16.582031 19.734375 -16.460938 19.734375 -16.234375 L 19.734375 -9.953125 C 19.734375 -9.753906 19.617188 -9.644531 19.390625 -9.625 C 19.160156 -9.613281 19.03125 -9.707031 19 -9.90625 C 18.96875 -10.570312 18.734375 -11.191406 18.296875 -11.765625 C 17.867188 -12.335938 16.984375 -12.625 15.640625 -12.625 L 7.0625 -12.625 L 7.0625 -2.96875 C 7.0625 -2.34375 7.210938 -1.898438 7.515625 -1.640625 C 7.816406 -1.378906 8.195312 -1.21875 8.65625 -1.15625 L 17.234375 -1.15625 C 18.722656 -1.15625 19.84375 -1.273438 20.59375 -1.515625 C 21.34375 -1.765625 21.875 -2.171875 22.1875 -2.734375 C 22.5 -3.296875 22.753906 -4.035156 22.953125 -4.953125 Z M 22.953125 -4.953125 "/></g></g></g><g fill="#ffbd59" fill-opacity="1"><g transform="translate(117.713148, 33.127077)"><g><path d="M 12.796875 -27.21875 C 15.804688 -27.21875 18.390625 -26.726562 20.546875 -25.75 C 22.703125 -24.78125 24.425781 -23.488281 25.71875 -21.875 C 27.007812 -20.269531 27.867188 -18.507812 28.296875 -16.59375 C 28.734375 -14.6875 28.734375 -12.769531 28.296875 -10.84375 C 27.867188 -8.925781 27.007812 -7.160156 25.71875 -5.546875 C 24.425781 -3.941406 22.703125 -2.648438 20.546875 -1.671875 C 18.390625 -0.703125 15.804688 -0.21875 12.796875 -0.21875 L 1.25 -0.21875 C 1.019531 -0.21875 0.90625 -0.320312 0.90625 -0.53125 C 0.90625 -0.75 1.003906 -0.875 1.203125 -0.90625 C 1.691406 -0.988281 2.132812 -1.050781 2.53125 -1.09375 C 2.9375 -1.132812 3.257812 -1.285156 3.5 -1.546875 C 3.75 -1.804688 3.875 -2.3125 3.875 -3.0625 C 3.875 -4.5 3.875 -6.132812 3.875 -7.96875 C 3.875 -9.800781 3.875 -11.707031 3.875 -13.6875 C 3.875 -15.675781 3.875 -17.597656 3.875 -19.453125 C 3.875 -21.304688 3.875 -22.9375 3.875 -24.34375 C 3.875 -25.113281 3.75 -25.628906 3.5 -25.890625 C 3.257812 -26.148438 2.9375 -26.289062 2.53125 -26.3125 C 2.132812 -26.34375 1.691406 -26.40625 1.203125 -26.5 C 1.003906 -26.550781 0.90625 -26.679688 0.90625 -26.890625 C 0.90625 -27.109375 1.019531 -27.21875 1.25 -27.21875 Z M 12.0625 -1.125 C 14.613281 -1.125 16.800781 -1.570312 18.625 -2.46875 C 20.445312 -3.375 21.894531 -4.570312 22.96875 -6.0625 C 24.050781 -7.5625 24.769531 -9.207031 25.125 -11 C 25.488281 -12.800781 25.484375 -14.59375 25.109375 -16.375 C 24.734375 -18.15625 24 -19.789062 22.90625 -21.28125 C 21.820312 -22.769531 20.375 -23.96875 18.5625 -24.875 C 16.757812 -25.78125 14.59375 -26.234375 12.0625 -26.234375 L 9 -26.234375 C 8.457031 -26.234375 8 -26.117188 7.625 -25.890625 C 7.25 -25.660156 7.0625 -25.171875 7.0625 -24.421875 L 7.0625 -2.96875 C 7.0625 -2.226562 7.253906 -1.734375 7.640625 -1.484375 C 8.035156 -1.242188 8.503906 -1.125 9.046875 -1.125 Z M 12.0625 -1.125 "/></g></g></g><g fill="#ffbd59" fill-opacity="1"><g transform="translate(157.085806, 33.127077)"><g><path d="M 22.953125 -4.953125 C 23.015625 -5.148438 23.148438 -5.242188 23.359375 -5.234375 C 23.578125 -5.222656 23.6875 -5.113281 23.6875 -4.90625 L 23.484375 -0.4375 C 23.484375 -0.289062 23.378906 -0.21875 23.171875 -0.21875 L 1.25 -0.21875 C 1.019531 -0.21875 0.90625 -0.320312 0.90625 -0.53125 C 0.90625 -0.75 1.003906 -0.875 1.203125 -0.90625 C 1.691406 -0.988281 2.132812 -1.050781 2.53125 -1.09375 C 2.9375 -1.132812 3.257812 -1.285156 3.5 -1.546875 C 3.75 -1.804688 3.875 -2.3125 3.875 -3.0625 L 3.875 -24.34375 C 3.875 -25.113281 3.75 -25.628906 3.5 -25.890625 C 3.257812 -26.148438 2.9375 -26.289062 2.53125 -26.3125 C 2.132812 -26.34375 1.691406 -26.40625 1.203125 -26.5 C 1.003906 -26.550781 0.90625 -26.679688 0.90625 -26.890625 C 0.90625 -27.109375 1.019531 -27.21875 1.25 -27.21875 L 22.1875 -27.21875 C 22.382812 -27.21875 22.484375 -27.148438 22.484375 -27.015625 L 22.75 -22.484375 C 22.75 -22.316406 22.632812 -22.21875 22.40625 -22.1875 C 22.175781 -22.15625 22.03125 -22.238281 21.96875 -22.4375 C 21.769531 -23.382812 21.46875 -24.128906 21.0625 -24.671875 C 20.664062 -25.222656 20.054688 -25.617188 19.234375 -25.859375 C 18.410156 -26.109375 17.253906 -26.234375 15.765625 -26.234375 L 9 -26.234375 C 8.457031 -26.234375 8 -26.117188 7.625 -25.890625 C 7.25 -25.660156 7.0625 -25.171875 7.0625 -24.421875 L 7.0625 -13.5625 L 15.640625 -13.5625 C 16.984375 -13.5625 17.867188 -13.851562 18.296875 -14.4375 C 18.734375 -15.03125 18.96875 -15.644531 19 -16.28125 C 19.03125 -16.507812 19.160156 -16.613281 19.390625 -16.59375 C 19.617188 -16.582031 19.734375 -16.460938 19.734375 -16.234375 L 19.734375 -9.953125 C 19.734375 -9.753906 19.617188 -9.644531 19.390625 -9.625 C 19.160156 -9.613281 19.03125 -9.707031 19 -9.90625 C 18.96875 -10.570312 18.734375 -11.191406 18.296875 -11.765625 C 17.867188 -12.335938 16.984375 -12.625 15.640625 -12.625 L 7.0625 -12.625 L 7.0625 -2.96875 C 7.0625 -2.34375 7.210938 -1.898438 7.515625 -1.640625 C 7.816406 -1.378906 8.195312 -1.21875 8.65625 -1.15625 L 17.234375 -1.15625 C 18.722656 -1.15625 19.84375 -1.273438 20.59375 -1.515625 C 21.34375 -1.765625 21.875 -2.171875 22.1875 -2.734375 C 22.5 -3.296875 22.753906 -4.035156 22.953125 -4.953125 Z M 22.953125 -4.953125 "/></g></g></g><g fill="#ffbd59" fill-opacity="1"><g transform="translate(191.504586, 33.127077)"><g><path d="M 26.015625 -9.515625 C 26.648438 -9.515625 27.097656 -9.285156 27.359375 -8.828125 C 27.617188 -8.367188 27.769531 -7.832031 27.8125 -7.21875 C 27.851562 -6.601562 27.859375 -6.078125 27.828125 -5.640625 C 27.828125 -4.640625 27.644531 -3.675781 27.28125 -2.75 C 26.925781 -1.832031 26.375 -1.078125 25.625 -0.484375 C 24.882812 0.0976562 23.878906 0.390625 22.609375 0.390625 C 21.460938 0.390625 20.441406 0.0820312 19.546875 -0.53125 C 18.660156 -1.15625 17.835938 -1.914062 17.078125 -2.8125 C 16.316406 -3.71875 15.554688 -4.625 14.796875 -5.53125 C 14.035156 -6.4375 13.222656 -7.210938 12.359375 -7.859375 C 11.503906 -8.503906 10.515625 -8.84375 9.390625 -8.875 C 9.015625 -8.84375 8.816406 -8.992188 8.796875 -9.328125 C 8.785156 -9.660156 8.96875 -9.796875 9.34375 -9.734375 C 9.664062 -9.703125 9.832031 -9.671875 9.84375 -9.640625 C 9.851562 -9.617188 10.03125 -9.609375 10.375 -9.609375 C 12.5 -9.609375 14.421875 -9.921875 16.140625 -10.546875 C 17.867188 -11.179688 19.234375 -12.125 20.234375 -13.375 C 21.242188 -14.625 21.75 -16.164062 21.75 -18 C 21.75 -20.757812 20.726562 -22.800781 18.6875 -24.125 C 16.65625 -25.445312 13.882812 -26.109375 10.375 -26.109375 C 9.976562 -26.109375 9.675781 -26.109375 9.46875 -26.109375 C 9.269531 -26.109375 9.097656 -26.109375 8.953125 -26.109375 L 9.09375 -26.0625 C 8.539062 -26.0625 8.070312 -25.945312 7.6875 -25.71875 C 7.300781 -25.488281 7.109375 -25 7.109375 -24.25 L 7.109375 -2.84375 C 7.109375 -2.09375 7.226562 -1.582031 7.46875 -1.3125 C 7.71875 -1.039062 8.050781 -0.890625 8.46875 -0.859375 C 8.882812 -0.828125 9.335938 -0.769531 9.828125 -0.6875 C 10.023438 -0.65625 10.125 -0.523438 10.125 -0.296875 C 10.125 -0.0664062 10.007812 0.046875 9.78125 0.046875 L 1.25 0.046875 C 1.019531 0.046875 0.90625 -0.0664062 0.90625 -0.296875 C 0.90625 -0.523438 1.003906 -0.65625 1.203125 -0.6875 C 1.691406 -0.769531 2.132812 -0.828125 2.53125 -0.859375 C 2.9375 -0.890625 3.269531 -1.039062 3.53125 -1.3125 C 3.789062 -1.582031 3.921875 -2.09375 3.921875 -2.84375 L 3.921875 -24.171875 C 3.921875 -24.941406 3.789062 -25.457031 3.53125 -25.71875 C 3.269531 -25.976562 2.9375 -26.128906 2.53125 -26.171875 C 2.132812 -26.210938 1.691406 -26.265625 1.203125 -26.328125 C 1.003906 -26.378906 0.90625 -26.507812 0.90625 -26.71875 C 0.90625 -26.9375 1.019531 -27.046875 1.25 -27.046875 L 13.734375 -27.046875 C 15.804688 -27.046875 17.722656 -26.707031 19.484375 -26.03125 C 21.253906 -25.363281 22.6875 -24.359375 23.78125 -23.015625 C 24.875 -21.679688 25.421875 -20.023438 25.421875 -18.046875 C 25.421875 -16.554688 25.101562 -15.257812 24.46875 -14.15625 C 23.832031 -13.050781 22.988281 -12.140625 21.9375 -11.421875 C 20.894531 -10.703125 19.726562 -10.140625 18.4375 -9.734375 C 17.144531 -9.328125 15.820312 -9.066406 14.46875 -8.953125 C 15.363281 -8.722656 16.140625 -8.335938 16.796875 -7.796875 C 17.460938 -7.253906 18.066406 -6.644531 18.609375 -5.96875 C 19.148438 -5.289062 19.6875 -4.644531 20.21875 -4.03125 C 20.75 -3.414062 21.316406 -2.898438 21.921875 -2.484375 C 22.523438 -2.066406 23.226562 -1.859375 24.03125 -1.859375 C 24.8125 -1.859375 25.445312 -2.085938 25.9375 -2.546875 C 26.425781 -3.003906 26.703125 -3.539062 26.765625 -4.15625 C 26.835938 -4.769531 26.660156 -5.304688 26.234375 -5.765625 C 25.859375 -6.234375 25.5 -6.640625 25.15625 -6.984375 C 24.8125 -7.328125 24.640625 -7.726562 24.640625 -8.1875 C 24.640625 -8.582031 24.773438 -8.898438 25.046875 -9.140625 C 25.316406 -9.390625 25.640625 -9.515625 26.015625 -9.515625 Z M 26.015625 -9.515625 "/></g></g></g></g></g></svg>