<svg xmlns="http://www.w3.org/2000/svg" xmlns:xlink="http://www.w3.org/1999/xlink" width="318" zoomAndPan="magnify" viewBox="0 0 238.5 255.749992" height="341" preserveAspectRatio="xMidYMid meet" version="1.0"><defs><clipPath id="44d693b8b0"><path d="M 49.351562 53.066406 L 188.558594 53.066406 L 188.558594 202.003906 L 49.351562 202.003906 Z M 49.351562 53.066406 " clip-rule="nonzero"/></clipPath><clipPath id="dcc604242c"><path d="M 0 0.144531 L 237.253906 0.144531 L 237.253906 254.609375 L 0 254.609375 Z M 0 0.144531 " clip-rule="nonzero"/></clipPath></defs><path fill="#9fd17b" d="M 117.410156 57.597656 C 117.492188 57.511719 117.578125 57.429688 117.671875 57.355469 L 117.75 57.292969 L 117.800781 57.261719 L 117.847656 57.230469 L 117.855469 57.222656 L 117.90625 57.191406 L 118.03125 57.121094 L 118.097656 57.089844 L 118.148438 57.066406 C 118.375 56.964844 118.621094 56.902344 118.875 56.882812 L 118.9375 56.878906 L 118.976562 56.875 L 119.089844 56.875 L 119.164062 56.878906 L 119.222656 56.882812 C 119.476562 56.902344 119.722656 56.964844 119.949219 57.066406 L 119.988281 57.085938 L 120.039062 57.109375 L 120.085938 57.132812 L 120.140625 57.164062 L 120.1875 57.191406 L 120.195312 57.195312 L 120.25 57.230469 L 120.367188 57.308594 L 120.425781 57.355469 L 120.457031 57.378906 C 120.539062 57.449219 120.613281 57.519531 120.6875 57.597656 L 183.808594 126.046875 C 184.089844 126.351562 184.269531 126.71875 184.347656 127.097656 C 184.402344 127.359375 184.410156 127.632812 184.367188 127.90625 C 184.328125 128.144531 184.25 128.375 184.132812 128.589844 L 184.128906 128.601562 C 184.039062 128.769531 183.925781 128.925781 183.792969 129.0625 L 121.054688 197.097656 C 120.675781 197.765625 119.957031 198.21875 119.128906 198.222656 C 119.117188 198.222656 119.101562 198.222656 119.089844 198.21875 C 119.074219 198.222656 119.0625 198.222656 119.046875 198.222656 C 118.429688 198.222656 117.839844 197.960938 117.421875 197.507812 L 54.285156 129.046875 C 53.503906 128.199219 53.503906 126.894531 54.285156 126.046875 Z M 117.410156 57.597656 " fill-opacity="1" fill-rule="evenodd"/><g clip-path="url(#44d693b8b0)"><path fill="#9fd17b" d="M 58.082031 127.546875 L 119.046875 61.441406 L 180.015625 127.546875 L 119.046875 193.65625 Z M 122.097656 53.902344 L 122.164062 53.9375 L 122.167969 53.941406 L 122.164062 53.9375 L 122.21875 53.96875 L 122.269531 54 C 122.300781 54.023438 122.332031 54.042969 122.363281 54.0625 L 122.425781 54.105469 C 122.457031 54.125 122.492188 54.148438 122.523438 54.171875 L 122.582031 54.214844 C 122.617188 54.238281 122.648438 54.265625 122.683594 54.289062 L 122.742188 54.335938 C 122.765625 54.355469 122.792969 54.375 122.820312 54.394531 L 122.851562 54.421875 C 122.859375 54.429688 122.867188 54.433594 122.875 54.441406 C 123.09375 54.621094 186.609375 123.464844 186.609375 123.464844 C 187.375 124.296875 187.863281 125.289062 188.078125 126.328125 C 188.222656 127.03125 188.246094 127.777344 188.125 128.523438 C 188.019531 129.167969 187.808594 129.796875 187.492188 130.386719 L 187.484375 130.398438 L 187.484375 130.402344 L 187.480469 130.410156 C 187.230469 130.871094 186.929688 131.289062 186.578125 131.660156 C 186.582031 131.65625 128.152344 195.015625 124.078125 199.433594 C 122.992188 201 121.183594 202.027344 119.136719 202.027344 L 119.046875 202.027344 C 117.367188 202.027344 115.761719 201.324219 114.621094 200.089844 L 51.488281 131.628906 C 49.363281 129.324219 49.363281 125.773438 51.488281 123.464844 C 51.488281 123.464844 113.875 55.816406 114.605469 55.023438 L 114.605469 55.027344 C 114.820312 54.789062 115.054688 54.570312 115.304688 54.375 L 115.339844 54.347656 L 115.378906 54.316406 L 115.445312 54.265625 L 115.488281 54.234375 C 115.511719 54.214844 115.539062 54.199219 115.5625 54.179688 L 115.613281 54.144531 C 115.640625 54.125 115.667969 54.105469 115.695312 54.089844 L 115.742188 54.058594 L 115.792969 54.023438 C 115.792969 54.023438 116.453125 53.613281 115.847656 53.988281 L 115.902344 53.957031 C 115.933594 53.9375 115.964844 53.917969 116 53.898438 L 116.0625 53.863281 C 116.097656 53.839844 116.132812 53.820312 116.167969 53.800781 L 116.230469 53.769531 C 116.265625 53.75 116.304688 53.730469 116.34375 53.710938 L 116.410156 53.679688 C 116.441406 53.660156 116.472656 53.644531 116.507812 53.632812 L 116.554688 53.609375 C 116.570312 53.601562 116.585938 53.597656 116.597656 53.589844 C 117.214844 53.3125 117.882812 53.140625 118.574219 53.085938 C 118.589844 53.085938 118.609375 53.085938 118.625 53.082031 L 118.691406 53.078125 C 118.71875 53.078125 118.75 53.074219 118.78125 53.074219 L 118.816406 53.074219 C 118.84375 53.070312 118.871094 53.070312 118.898438 53.070312 L 118.957031 53.070312 C 118.988281 53.066406 119.019531 53.066406 119.054688 53.066406 L 119.113281 53.070312 C 119.152344 53.070312 119.191406 53.070312 119.230469 53.070312 L 119.300781 53.074219 C 119.335938 53.074219 119.375 53.078125 119.414062 53.078125 L 119.472656 53.082031 C 119.488281 53.085938 119.503906 53.085938 119.519531 53.085938 C 120.210938 53.140625 120.878906 53.3125 121.5 53.589844 C 121.507812 53.59375 121.519531 53.597656 121.53125 53.605469 L 121.570312 53.621094 C 121.597656 53.632812 121.625 53.648438 121.652344 53.660156 L 121.699219 53.683594 C 121.730469 53.699219 121.757812 53.710938 121.785156 53.726562 L 121.835938 53.75 C 121.863281 53.765625 121.890625 53.78125 121.917969 53.796875 L 121.972656 53.824219 C 122 53.84375 122.03125 53.859375 122.058594 53.875 L 122.109375 53.902344 Z M 122.097656 53.902344 " fill-opacity="1" fill-rule="evenodd"/></g><path fill="#9fd17b" d="M 117.410156 57.597656 C 117.492188 57.511719 117.578125 57.429688 117.671875 57.355469 L 117.75 57.292969 L 117.800781 57.261719 L 117.847656 57.230469 L 117.855469 57.222656 L 117.90625 57.191406 L 118.03125 57.121094 L 118.097656 57.089844 L 118.148438 57.066406 C 118.375 56.964844 118.621094 56.902344 118.875 56.882812 L 118.9375 56.878906 L 118.976562 56.875 L 119.089844 56.875 L 119.164062 56.878906 L 119.222656 56.882812 C 119.476562 56.902344 119.722656 56.964844 119.949219 57.066406 L 119.988281 57.085938 L 120.039062 57.109375 L 120.085938 57.132812 L 120.140625 57.164062 L 120.1875 57.191406 L 120.195312 57.195312 L 120.25 57.230469 L 120.367188 57.308594 L 120.425781 57.355469 L 120.457031 57.378906 C 120.539062 57.449219 120.613281 57.519531 120.6875 57.597656 L 183.808594 126.046875 C 184.089844 126.351562 184.269531 126.71875 184.347656 127.097656 C 184.402344 127.359375 184.410156 127.632812 184.367188 127.90625 C 184.328125 128.144531 184.25 128.375 184.132812 128.589844 L 184.128906 128.601562 C 184.039062 128.769531 183.925781 128.925781 183.792969 129.0625 L 121.054688 197.097656 C 120.675781 197.765625 119.957031 198.21875 119.128906 198.222656 C 119.117188 198.222656 119.101562 198.222656 119.089844 198.21875 C 119.074219 198.222656 119.0625 198.222656 119.046875 198.222656 C 118.429688 198.222656 117.839844 197.960938 117.421875 197.507812 L 54.285156 129.046875 C 53.503906 128.199219 53.503906 126.894531 54.285156 126.046875 Z M 117.410156 57.597656 " fill-opacity="1" fill-rule="evenodd"/><path fill="#000000" d="M 64.386719 129.925781 L 84.414062 125.25 L 114.640625 140.125 L 114.640625 168.066406 C 114.640625 168.066406 111.925781 132.304688 64.386719 129.925781 " fill-opacity="1" fill-rule="evenodd"/><path fill="#000000" d="M 157.5625 115.582031 L 168.980469 119.355469 L 140.351562 87.855469 Z M 157.5625 115.582031 " fill-opacity="1" fill-rule="evenodd"/><path fill="#000000" d="M 81.28125 115.582031 L 69.859375 119.355469 L 98.488281 87.855469 Z M 81.28125 115.582031 " fill-opacity="1" fill-rule="evenodd"/><path fill="#000000" d="M 173.496094 129.925781 L 153.46875 125.25 L 123.246094 140.125 L 123.246094 168.066406 C 123.246094 168.066406 125.960938 132.304688 173.496094 129.925781 " fill-opacity="1" fill-rule="evenodd"/><path fill="#000000" d="M 154.796875 122.632812 L 178.058594 128.753906 L 121.332031 190.265625 L 121.261719 138.40625 L 154.703125 122.679688 C 154.734375 122.664062 154.765625 122.648438 154.796875 122.632812 M 60.066406 128.785156 L 83.953125 122.5 L 116.835938 138.394531 L 116.90625 190.421875 Z M 107.746094 74.609375 L 83.179688 118.128906 L 62.625 123.535156 Z M 154.832031 118.0625 L 130.316406 74.574219 L 175.421875 123.480469 Z M 119.046875 63.59375 C 119.046875 63.59375 93.390625 109.046875 87.582031 119.335938 C 87.582031 119.335938 113.710938 131.964844 119.0625 134.550781 C 123.703125 132.367188 143.96875 122.835938 150.664062 119.6875 Z M 117.410156 57.597656 C 117.492188 57.511719 117.578125 57.429688 117.671875 57.355469 L 117.679688 57.351562 L 117.691406 57.339844 L 117.738281 57.304688 L 117.753906 57.296875 C 117.761719 57.289062 117.769531 57.28125 117.78125 57.273438 L 117.789062 57.269531 L 117.8125 57.253906 C 117.820312 57.246094 117.832031 57.242188 117.839844 57.234375 L 117.847656 57.230469 L 117.855469 57.222656 C 117.871094 57.214844 117.886719 57.207031 117.902344 57.195312 L 117.917969 57.1875 C 117.929688 57.179688 117.9375 57.175781 117.949219 57.167969 L 117.957031 57.164062 L 117.980469 57.148438 L 118.011719 57.132812 L 118.03125 57.121094 L 118.042969 57.117188 L 118.058594 57.109375 L 118.078125 57.101562 L 118.148438 57.066406 C 118.375 56.964844 118.621094 56.902344 118.875 56.882812 L 118.882812 56.882812 L 118.917969 56.878906 L 118.957031 56.878906 L 118.976562 56.875 L 119.125 56.875 L 119.179688 56.878906 L 119.21875 56.882812 L 119.222656 56.882812 C 119.476562 56.902344 119.722656 56.964844 119.949219 57.066406 L 119.972656 57.078125 C 119.976562 57.082031 119.984375 57.082031 119.988281 57.085938 L 120.007812 57.09375 L 120.085938 57.132812 C 120.097656 57.140625 120.109375 57.144531 120.117188 57.152344 L 120.128906 57.15625 L 120.140625 57.164062 L 120.148438 57.167969 C 120.160156 57.175781 120.171875 57.179688 120.179688 57.1875 L 120.195312 57.195312 C 120.210938 57.207031 120.226562 57.214844 120.242188 57.226562 L 120.257812 57.234375 C 120.269531 57.242188 120.277344 57.25 120.289062 57.253906 L 120.296875 57.261719 L 120.308594 57.269531 L 120.316406 57.277344 L 120.332031 57.285156 L 120.378906 57.320312 L 120.390625 57.328125 L 120.40625 57.339844 L 120.417969 57.351562 L 120.433594 57.363281 C 120.4375 57.367188 120.441406 57.371094 120.449219 57.375 L 120.457031 57.378906 C 120.539062 57.449219 120.613281 57.519531 120.6875 57.597656 L 183.808594 126.046875 C 184.089844 126.351562 184.269531 126.71875 184.351562 127.097656 C 184.402344 127.359375 184.414062 127.632812 184.367188 127.90625 C 184.328125 128.144531 184.25 128.375 184.136719 128.589844 L 184.128906 128.601562 C 184.039062 128.769531 183.925781 128.925781 183.796875 129.0625 L 121.054688 197.097656 C 120.675781 197.765625 119.957031 198.21875 119.132812 198.21875 C 119.117188 198.21875 119.101562 198.21875 119.089844 198.21875 C 119.074219 198.21875 119.0625 198.21875 119.046875 198.21875 C 118.429688 198.21875 117.839844 197.960938 117.421875 197.507812 L 54.289062 129.046875 C 53.507812 128.199219 53.507812 126.894531 54.289062 126.046875 Z M 117.410156 57.597656 " fill-opacity="1" fill-rule="evenodd"/><path fill="#000000" d="M 89.546875 118.785156 L 119.121094 132.71875 L 148.054688 118.464844 L 119.121094 126.65625 Z M 89.546875 118.785156 " fill-opacity="1" fill-rule="evenodd"/><path fill="#000000" d="M 121.5 92.382812 L 121.5 116.789062 L 125.339844 116.789062 L 125.339844 120.835938 L 113.550781 120.835938 L 113.550781 116.789062 L 117.394531 116.789062 L 117.394531 96.425781 L 113.550781 96.425781 L 113.550781 92.382812 Z M 121.5 92.382812 " fill-opacity="1" fill-rule="nonzero"/><path fill="#000000" d="M 119.3125 67.914062 L 134.15625 95.621094 L 119.3125 73.960938 L 108.871094 85.394531 Z M 119.3125 67.914062 " fill-opacity="1" fill-rule="evenodd"/><path fill="#000000" d="M 123.542969 170.253906 L 123.109375 185.355469 L 173.914062 131.316406 L 125.410156 178.136719 Z M 114.738281 169.867188 L 114.144531 183.269531 L 64.261719 131.378906 L 111.910156 177.460938 Z M 114.738281 169.867188 " fill-opacity="1" fill-rule="evenodd"/><path fill="#9fd17b" d="M 116.417969 7.894531 C 116.554688 7.742188 116.707031 7.605469 116.863281 7.476562 L 116.929688 7.425781 L 117 7.375 L 117.082031 7.316406 L 117.164062 7.261719 L 117.179688 7.253906 L 117.269531 7.199219 L 117.375 7.136719 L 117.480469 7.078125 L 117.59375 7.023438 L 117.679688 6.984375 C 118.066406 6.8125 118.484375 6.703125 118.921875 6.667969 L 119.027344 6.660156 L 119.09375 6.660156 L 119.191406 6.65625 L 119.292969 6.65625 L 119.417969 6.660156 L 119.515625 6.667969 C 119.953125 6.703125 120.371094 6.8125 120.757812 6.984375 L 120.828125 7.015625 L 120.914062 7.058594 L 120.996094 7.097656 L 121.085938 7.148438 L 121.167969 7.199219 L 121.183594 7.207031 L 121.273438 7.261719 L 121.375 7.328125 L 121.472656 7.398438 L 121.574219 7.476562 L 121.628906 7.519531 C 121.765625 7.636719 121.898438 7.761719 122.019531 7.894531 L 229.996094 124.976562 C 230.476562 125.5 230.785156 126.125 230.917969 126.777344 C 231.011719 127.222656 231.027344 127.691406 230.949219 128.160156 C 230.882812 128.5625 230.75 128.960938 230.550781 129.332031 L 230.542969 129.34375 C 230.386719 129.636719 230.191406 129.902344 229.972656 130.140625 L 122.652344 246.511719 C 122 247.65625 120.769531 248.433594 119.359375 248.433594 C 119.335938 248.433594 119.3125 248.433594 119.285156 248.433594 C 119.265625 248.433594 119.242188 248.433594 119.21875 248.433594 C 118.160156 248.433594 117.152344 247.992188 116.433594 247.214844 L 8.441406 130.113281 C 7.105469 128.664062 7.105469 126.429688 8.441406 124.980469 Z M 116.417969 7.894531 " fill-opacity="1" fill-rule="evenodd"/><g clip-path="url(#dcc604242c)"><path fill="#9fd17b" d="M 14.933594 127.546875 L 119.21875 14.464844 L 223.503906 127.546875 L 119.21875 240.625 Z M 124.4375 1.570312 L 124.546875 1.632812 L 124.554688 1.636719 L 124.546875 1.632812 L 124.640625 1.6875 L 124.726562 1.742188 C 124.78125 1.777344 124.835938 1.8125 124.890625 1.847656 L 124.992188 1.917969 C 125.050781 1.953125 125.109375 1.996094 125.164062 2.035156 L 125.265625 2.105469 C 125.324219 2.148438 125.378906 2.191406 125.4375 2.234375 L 125.535156 2.308594 C 125.582031 2.34375 125.625 2.378906 125.667969 2.414062 L 125.722656 2.457031 C 125.738281 2.46875 125.753906 2.480469 125.769531 2.492188 C 126.140625 2.800781 234.785156 120.5625 234.785156 120.5625 C 236.09375 121.984375 236.929688 123.683594 237.296875 125.460938 C 237.546875 126.660156 237.585938 127.933594 237.375 129.214844 C 237.195312 130.316406 236.835938 131.394531 236.296875 132.402344 L 236.285156 132.421875 L 236.28125 132.429688 L 236.273438 132.4375 C 235.851562 133.226562 235.332031 133.945312 234.734375 134.582031 C 234.742188 134.574219 134.796875 242.949219 127.820312 250.511719 C 125.96875 253.1875 122.871094 254.945312 119.367188 254.949219 L 119.21875 254.949219 C 116.34375 254.949219 113.597656 253.746094 111.648438 251.632812 L 3.652344 134.527344 C 0.015625 130.585938 0.015625 124.507812 3.652344 120.5625 C 3.652344 120.5625 110.371094 4.84375 111.621094 3.492188 L 111.617188 3.492188 C 111.988281 3.089844 112.390625 2.714844 112.816406 2.375 L 112.871094 2.332031 L 112.941406 2.28125 L 113.054688 2.191406 L 113.125 2.140625 C 113.167969 2.105469 113.214844 2.074219 113.257812 2.042969 L 113.339844 1.984375 C 113.386719 1.953125 113.433594 1.921875 113.484375 1.890625 L 113.5625 1.835938 L 113.652344 1.777344 C 113.652344 1.777344 114.777344 1.078125 113.746094 1.71875 L 113.835938 1.664062 C 113.890625 1.628906 113.949219 1.59375 114.003906 1.5625 L 114.109375 1.5 C 114.167969 1.46875 114.230469 1.433594 114.292969 1.398438 L 114.398438 1.34375 C 114.460938 1.308594 114.523438 1.277344 114.589844 1.242188 L 114.703125 1.1875 C 114.761719 1.160156 114.816406 1.132812 114.871094 1.105469 L 114.957031 1.070312 C 114.980469 1.058594 115.003906 1.046875 115.027344 1.035156 C 116.085938 0.5625 117.226562 0.269531 118.40625 0.175781 C 118.4375 0.171875 118.46875 0.171875 118.496094 0.171875 L 118.605469 0.164062 C 118.660156 0.160156 118.707031 0.15625 118.757812 0.15625 L 118.824219 0.152344 C 118.871094 0.148438 118.917969 0.148438 118.964844 0.148438 L 119.058594 0.144531 C 119.117188 0.144531 119.171875 0.144531 119.230469 0.144531 L 119.332031 0.144531 C 119.398438 0.144531 119.460938 0.144531 119.527344 0.148438 L 119.652344 0.152344 C 119.714844 0.15625 119.777344 0.160156 119.84375 0.164062 L 119.945312 0.171875 C 119.972656 0.171875 120 0.171875 120.027344 0.175781 C 121.210938 0.269531 122.351562 0.5625 123.410156 1.035156 C 123.425781 1.042969 123.445312 1.050781 123.464844 1.0625 L 123.535156 1.09375 C 123.582031 1.113281 123.625 1.136719 123.671875 1.15625 L 123.757812 1.199219 C 123.804688 1.222656 123.855469 1.246094 123.902344 1.269531 L 123.984375 1.3125 C 124.03125 1.339844 124.082031 1.363281 124.132812 1.390625 L 124.21875 1.4375 C 124.269531 1.46875 124.320312 1.496094 124.367188 1.523438 L 124.453125 1.574219 Z M 124.4375 1.570312 " fill-opacity="1" fill-rule="evenodd"/></g><path fill="#9fd17b" d="M 116.417969 7.894531 C 116.554688 7.742188 116.707031 7.605469 116.863281 7.476562 L 116.929688 7.425781 L 117 7.375 L 117.082031 7.316406 L 117.164062 7.261719 L 117.179688 7.253906 L 117.269531 7.199219 L 117.375 7.136719 L 117.480469 7.078125 L 117.59375 7.023438 L 117.679688 6.984375 C 118.066406 6.8125 118.484375 6.703125 118.921875 6.667969 L 119.027344 6.660156 L 119.09375 6.660156 L 119.191406 6.65625 L 119.292969 6.65625 L 119.417969 6.660156 L 119.515625 6.667969 C 119.953125 6.703125 120.371094 6.8125 120.757812 6.984375 L 120.828125 7.015625 L 120.914062 7.058594 L 120.996094 7.097656 L 121.085938 7.148438 L 121.167969 7.199219 L 121.183594 7.207031 L 121.273438 7.261719 L 121.375 7.328125 L 121.472656 7.398438 L 121.574219 7.476562 L 121.628906 7.519531 C 121.765625 7.636719 121.898438 7.761719 122.019531 7.894531 L 229.996094 124.976562 C 230.476562 125.5 230.785156 126.125 230.917969 126.777344 C 231.011719 127.222656 231.027344 127.691406 230.949219 128.160156 C 230.882812 128.5625 230.75 128.960938 230.550781 129.332031 L 230.542969 129.34375 C 230.386719 129.636719 230.191406 129.902344 229.972656 130.140625 L 122.652344 246.511719 C 122 247.65625 120.769531 248.433594 119.359375 248.433594 C 119.335938 248.433594 119.3125 248.433594 119.285156 248.433594 C 119.265625 248.433594 119.242188 248.433594 119.21875 248.433594 C 118.160156 248.433594 117.152344 247.992188 116.433594 247.214844 L 8.441406 130.113281 C 7.105469 128.664062 7.105469 126.429688 8.441406 124.980469 Z M 116.417969 7.894531 " fill-opacity="1" fill-rule="evenodd"/><path fill="#000000" d="M 25.71875 131.613281 L 59.972656 123.617188 L 111.675781 149.058594 L 111.675781 196.855469 C 111.675781 196.855469 107.03125 135.683594 25.71875 131.613281 " fill-opacity="1" fill-rule="evenodd"/><path fill="#000000" d="M 185.097656 107.078125 L 204.632812 113.53125 L 155.65625 59.644531 Z M 185.097656 107.078125 " fill-opacity="1" fill-rule="evenodd"/><path fill="#000000" d="M 54.613281 107.078125 L 35.078125 113.53125 L 84.054688 59.644531 Z M 54.613281 107.078125 " fill-opacity="1" fill-rule="evenodd"/><path fill="#000000" d="M 212.355469 131.613281 L 178.097656 123.617188 L 126.398438 149.058594 L 126.398438 196.855469 C 126.398438 196.855469 131.042969 135.683594 212.355469 131.613281 " fill-opacity="1" fill-rule="evenodd"/><path fill="#000000" d="M 180.371094 119.136719 L 220.164062 129.605469 L 123.128906 234.824219 L 123.007812 146.121094 L 180.210938 119.214844 C 180.265625 119.191406 180.316406 119.164062 180.371094 119.136719 M 18.328125 129.664062 L 59.191406 118.914062 L 115.4375 146.097656 L 115.558594 235.09375 Z M 99.882812 36.992188 L 57.863281 111.433594 L 22.703125 120.683594 Z M 180.429688 111.324219 L 138.496094 36.929688 L 215.644531 120.585938 Z M 119.21875 18.148438 C 119.21875 18.148438 75.328125 95.898438 65.394531 113.5 C 65.394531 113.5 110.089844 135.101562 119.242188 139.523438 C 127.183594 135.789062 161.847656 119.484375 173.300781 114.097656 L 119.214844 18.148438 Z M 116.417969 7.894531 C 116.558594 7.742188 116.707031 7.605469 116.867188 7.476562 L 116.875 7.46875 L 116.902344 7.449219 L 116.949219 7.410156 L 116.976562 7.394531 L 117 7.375 C 117.019531 7.363281 117.03125 7.351562 117.050781 7.339844 L 117.066406 7.328125 L 117.085938 7.316406 L 117.101562 7.304688 C 117.117188 7.292969 117.136719 7.28125 117.152344 7.269531 L 117.164062 7.261719 L 117.179688 7.253906 C 117.207031 7.234375 117.230469 7.222656 117.257812 7.207031 L 117.269531 7.199219 L 117.285156 7.1875 C 117.300781 7.179688 117.320312 7.167969 117.335938 7.15625 L 117.355469 7.148438 L 117.394531 7.125 L 117.421875 7.109375 L 117.445312 7.097656 L 117.480469 7.078125 L 117.527344 7.054688 L 117.554688 7.042969 L 117.585938 7.027344 L 117.613281 7.015625 L 117.640625 7 L 117.667969 6.988281 L 117.679688 6.984375 C 118.066406 6.8125 118.488281 6.703125 118.921875 6.667969 L 118.933594 6.667969 L 118.996094 6.664062 L 119.0625 6.660156 L 119.09375 6.660156 L 119.125 6.65625 L 119.316406 6.65625 L 119.347656 6.660156 L 119.445312 6.664062 L 119.507812 6.667969 L 119.519531 6.667969 C 119.953125 6.703125 120.371094 6.8125 120.757812 6.984375 L 120.773438 6.988281 L 120.800781 7.003906 C 120.808594 7.007812 120.820312 7.011719 120.828125 7.015625 L 120.855469 7.027344 L 120.882812 7.042969 L 120.914062 7.058594 L 120.96875 7.082031 L 120.996094 7.101562 C 121.015625 7.109375 121.03125 7.117188 121.046875 7.128906 L 121.066406 7.136719 L 121.085938 7.148438 L 121.101562 7.160156 C 121.121094 7.167969 121.136719 7.179688 121.15625 7.1875 L 121.167969 7.199219 L 121.183594 7.207031 C 121.210938 7.222656 121.234375 7.238281 121.261719 7.253906 L 121.273438 7.261719 L 121.289062 7.273438 C 121.304688 7.28125 121.320312 7.292969 121.339844 7.304688 L 121.355469 7.316406 L 121.375 7.328125 L 121.390625 7.339844 L 121.417969 7.359375 L 121.441406 7.378906 L 121.464844 7.394531 L 121.492188 7.414062 L 121.515625 7.433594 L 121.539062 7.449219 L 121.566406 7.46875 L 121.589844 7.488281 C 121.597656 7.496094 121.605469 7.503906 121.613281 7.507812 L 121.628906 7.519531 C 121.765625 7.636719 121.898438 7.761719 122.019531 7.894531 L 229.996094 124.980469 C 230.476562 125.5 230.785156 126.125 230.921875 126.777344 C 231.011719 127.222656 231.027344 127.691406 230.949219 128.160156 C 230.882812 128.5625 230.75 128.960938 230.554688 129.332031 L 230.542969 129.347656 C 230.386719 129.636719 230.195312 129.902344 229.972656 130.140625 L 122.652344 246.511719 C 122.003906 247.65625 120.773438 248.433594 119.359375 248.433594 C 119.335938 248.433594 119.3125 248.433594 119.289062 248.433594 C 119.265625 248.433594 119.242188 248.433594 119.21875 248.433594 C 118.164062 248.433594 117.152344 247.992188 116.4375 247.214844 L 8.441406 130.113281 C 7.105469 128.664062 7.105469 126.429688 8.441406 124.980469 Z M 116.417969 7.894531 " fill-opacity="1" fill-rule="evenodd"/><path fill="#000000" d="M 68.757812 112.554688 L 119.34375 136.390625 L 168.835938 112.007812 L 119.34375 126.019531 Z M 68.757812 112.554688 " fill-opacity="1" fill-rule="evenodd"/><path fill="#000000" d="M 123.410156 67.390625 L 123.410156 109.140625 L 129.984375 109.140625 L 129.984375 116.0625 L 109.816406 116.0625 L 109.816406 109.140625 L 116.390625 109.140625 L 116.390625 74.3125 L 109.816406 74.3125 L 109.816406 67.390625 Z M 123.410156 67.390625 " fill-opacity="1" fill-rule="nonzero"/><path fill="#000000" d="M 119.671875 25.539062 L 145.058594 72.929688 L 119.671875 35.882812 L 101.808594 55.441406 Z M 119.671875 25.539062 " fill-opacity="1" fill-rule="evenodd"/><path fill="#000000" d="M 126.90625 200.597656 L 126.167969 226.429688 L 213.070312 133.992188 L 130.105469 214.078125 Z M 111.847656 199.9375 L 110.828125 222.859375 L 25.503906 134.097656 L 107.007812 212.925781 Z M 111.847656 199.9375 " fill-opacity="1" fill-rule="evenodd"/></svg>