<svg xmlns="http://www.w3.org/2000/svg" xmlns:xlink="http://www.w3.org/1999/xlink" width="318" zoomAndPan="magnify" viewBox="0 0 238.5 255.749992" height="341" preserveAspectRatio="xMidYMid meet" version="1.0"><defs><clipPath id="817a2c9f64"><path d="M 65 59.964844 L 172.761719 59.964844 L 172.761719 175.222656 L 65 175.222656 Z M 65 59.964844 " clip-rule="nonzero"/></clipPath><clipPath id="5277a19a45"><path d="M 0 0.144531 L 237.253906 0.144531 L 237.253906 254.609375 L 0 254.609375 Z M 0 0.144531 " clip-rule="nonzero"/></clipPath></defs><path fill="#ecb939" d="M 117.722656 63.476562 C 117.785156 63.410156 117.855469 63.347656 117.925781 63.289062 L 117.988281 63.242188 L 118.023438 63.214844 L 118.0625 63.191406 L 118.070312 63.1875 L 118.109375 63.160156 L 118.15625 63.132812 L 118.257812 63.082031 L 118.292969 63.066406 C 118.46875 62.988281 118.660156 62.9375 118.855469 62.921875 L 118.90625 62.917969 L 119.082031 62.917969 L 119.128906 62.921875 C 119.324219 62.9375 119.515625 62.988281 119.691406 63.066406 L 119.722656 63.078125 L 119.761719 63.097656 L 119.796875 63.117188 L 119.835938 63.140625 L 119.882812 63.164062 L 119.921875 63.191406 L 119.96875 63.222656 L 120.011719 63.253906 L 120.058594 63.289062 L 120.082031 63.308594 C 120.144531 63.359375 120.207031 63.417969 120.261719 63.476562 L 169.171875 116.515625 C 169.390625 116.75 169.53125 117.035156 169.589844 117.328125 C 169.632812 117.53125 169.640625 117.742188 169.601562 117.953125 C 169.574219 118.136719 169.515625 118.316406 169.421875 118.484375 L 169.421875 118.492188 C 169.347656 118.625 169.261719 118.746094 169.160156 118.851562 L 120.546875 171.566406 C 120.253906 172.085938 119.695312 172.4375 119.054688 172.4375 C 119.042969 172.4375 119.035156 172.4375 119.023438 172.4375 C 119.011719 172.4375 119.003906 172.4375 118.992188 172.4375 C 118.511719 172.4375 118.054688 172.238281 117.730469 171.886719 L 68.8125 118.839844 C 68.207031 118.183594 68.207031 117.171875 68.8125 116.515625 Z M 117.722656 63.476562 " fill-opacity="1" fill-rule="evenodd"/><g clip-path="url(#817a2c9f64)"><path fill="#ecb939" d="M 71.753906 117.675781 L 118.992188 66.453125 L 166.230469 117.675781 L 118.992188 168.902344 Z M 121.355469 60.613281 L 121.40625 60.640625 L 121.410156 60.640625 L 121.40625 60.640625 L 121.449219 60.664062 L 121.488281 60.691406 C 121.511719 60.707031 121.539062 60.722656 121.5625 60.738281 L 121.609375 60.769531 C 121.632812 60.785156 121.660156 60.804688 121.6875 60.824219 L 121.730469 60.855469 C 121.757812 60.875 121.78125 60.894531 121.808594 60.914062 L 121.855469 60.949219 C 121.875 60.960938 121.894531 60.976562 121.914062 60.996094 L 121.9375 61.015625 C 121.945312 61.019531 121.953125 61.027344 121.957031 61.03125 C 122.125 61.171875 171.339844 114.515625 171.339844 114.515625 C 171.933594 115.160156 172.3125 115.929688 172.480469 116.734375 C 172.59375 117.277344 172.609375 117.855469 172.515625 118.433594 C 172.433594 118.933594 172.269531 119.421875 172.027344 119.878906 L 172.027344 119.875 L 172.019531 119.886719 L 172.019531 119.890625 L 172.015625 119.894531 C 171.824219 120.25 171.589844 120.574219 171.320312 120.863281 C 171.320312 120.859375 126.046875 169.953125 122.890625 173.378906 C 122.050781 174.589844 120.644531 175.386719 119.058594 175.386719 L 118.992188 175.386719 C 117.6875 175.386719 116.445312 174.84375 115.5625 173.886719 L 66.644531 120.839844 C 64.996094 119.054688 64.996094 116.300781 66.644531 114.515625 C 66.644531 114.515625 114.984375 62.09375 115.550781 61.484375 C 115.71875 61.300781 115.898438 61.132812 116.089844 60.976562 L 116.117188 60.957031 L 116.148438 60.933594 L 116.199219 60.894531 L 116.230469 60.871094 C 116.253906 60.855469 116.273438 60.839844 116.292969 60.828125 L 116.328125 60.800781 C 116.351562 60.785156 116.371094 60.773438 116.394531 60.757812 L 116.429688 60.734375 L 116.46875 60.707031 C 116.46875 60.707031 116.980469 60.390625 116.511719 60.679688 L 116.554688 60.65625 C 116.578125 60.640625 116.605469 60.625 116.628906 60.609375 L 116.675781 60.582031 C 116.703125 60.566406 116.734375 60.550781 116.761719 60.535156 L 116.808594 60.507812 C 116.835938 60.496094 116.867188 60.480469 116.894531 60.464844 L 116.945312 60.4375 C 116.972656 60.425781 116.996094 60.414062 117.023438 60.402344 L 117.0625 60.386719 C 117.074219 60.378906 117.082031 60.375 117.09375 60.371094 C 117.574219 60.15625 118.089844 60.023438 118.625 59.980469 C 118.636719 59.980469 118.652344 59.980469 118.664062 59.980469 L 118.714844 59.976562 C 118.738281 59.972656 118.761719 59.972656 118.785156 59.972656 L 118.8125 59.96875 C 118.835938 59.96875 118.855469 59.96875 118.875 59.96875 L 118.921875 59.96875 C 118.945312 59.964844 118.972656 59.964844 118.996094 59.964844 L 119.042969 59.96875 C 119.074219 59.96875 119.101562 59.96875 119.132812 59.96875 L 119.1875 59.972656 C 119.214844 59.972656 119.246094 59.972656 119.273438 59.976562 L 119.320312 59.980469 C 119.332031 59.980469 119.34375 59.980469 119.359375 59.980469 C 119.894531 60.023438 120.410156 60.15625 120.890625 60.371094 C 120.898438 60.375 120.90625 60.378906 120.917969 60.382812 L 120.949219 60.398438 C 120.96875 60.40625 120.988281 60.414062 121.007812 60.425781 L 121.046875 60.445312 C 121.070312 60.453125 121.089844 60.464844 121.113281 60.476562 L 121.152344 60.496094 C 121.171875 60.507812 121.195312 60.519531 121.21875 60.53125 L 121.257812 60.554688 C 121.28125 60.566406 121.300781 60.578125 121.324219 60.59375 L 121.363281 60.613281 Z M 121.355469 60.613281 " fill-opacity="1" fill-rule="evenodd"/></g><path fill="#ecb939" d="M 117.722656 63.476562 C 117.785156 63.410156 117.855469 63.347656 117.925781 63.289062 L 117.988281 63.242188 L 118.023438 63.214844 L 118.0625 63.191406 L 118.070312 63.1875 L 118.109375 63.160156 L 118.15625 63.132812 L 118.257812 63.082031 L 118.292969 63.066406 C 118.46875 62.988281 118.660156 62.9375 118.855469 62.921875 L 118.90625 62.917969 L 119.082031 62.917969 L 119.128906 62.921875 C 119.324219 62.9375 119.515625 62.988281 119.691406 63.066406 L 119.722656 63.078125 L 119.761719 63.097656 L 119.796875 63.117188 L 119.835938 63.140625 L 119.882812 63.164062 L 119.921875 63.191406 L 119.96875 63.222656 L 120.011719 63.253906 L 120.058594 63.289062 L 120.082031 63.308594 C 120.144531 63.359375 120.207031 63.417969 120.261719 63.476562 L 169.171875 116.515625 C 169.390625 116.75 169.53125 117.035156 169.589844 117.328125 C 169.632812 117.53125 169.640625 117.742188 169.601562 117.953125 C 169.574219 118.136719 169.515625 118.316406 169.421875 118.484375 L 169.421875 118.492188 C 169.347656 118.625 169.261719 118.746094 169.160156 118.851562 L 120.546875 171.566406 C 120.253906 172.085938 119.695312 172.4375 119.054688 172.4375 C 119.042969 172.4375 119.035156 172.4375 119.023438 172.4375 C 119.011719 172.4375 119.003906 172.4375 118.992188 172.4375 C 118.511719 172.4375 118.054688 172.238281 117.730469 171.886719 L 68.8125 118.839844 C 68.207031 118.183594 68.207031 117.171875 68.8125 116.515625 Z M 117.722656 63.476562 " fill-opacity="1" fill-rule="evenodd"/><path fill="#000000" d="M 122.472656 150.769531 L 122.140625 162.46875 L 161.503906 120.597656 L 123.921875 156.875 Z M 115.652344 150.46875 L 115.191406 160.851562 L 76.542969 120.644531 L 113.460938 156.351562 Z M 115.652344 150.46875 " fill-opacity="1" fill-rule="evenodd"/><path fill="#000000" d="M 76.636719 119.519531 L 92.15625 115.898438 L 115.574219 127.421875 L 115.574219 149.074219 C 115.574219 149.074219 113.472656 121.363281 76.636719 119.519531 " fill-opacity="1" fill-rule="evenodd"/><path fill="#000000" d="M 148.832031 108.40625 L 157.683594 111.328125 L 135.496094 86.921875 Z M 148.832031 108.40625 " fill-opacity="1" fill-rule="evenodd"/><path fill="#000000" d="M 89.726562 108.40625 L 80.878906 111.328125 L 103.0625 86.921875 Z M 89.726562 108.40625 " fill-opacity="1" fill-rule="evenodd"/><path fill="#000000" d="M 161.179688 119.519531 L 145.664062 115.898438 L 122.242188 127.421875 L 122.242188 149.074219 C 122.242188 149.074219 124.347656 121.363281 161.179688 119.519531 " fill-opacity="1" fill-rule="evenodd"/><path fill="#000000" d="M 146.691406 113.867188 L 164.71875 118.609375 L 120.761719 166.273438 L 120.707031 126.089844 L 146.621094 113.902344 C 146.644531 113.894531 146.667969 113.878906 146.691406 113.867188 M 73.292969 118.636719 L 91.800781 113.765625 L 117.277344 126.082031 L 117.332031 166.394531 Z M 110.234375 76.660156 L 91.199219 110.378906 L 75.273438 114.570312 Z M 146.71875 110.328125 L 127.722656 76.628906 L 162.671875 114.523438 Z M 118.992188 68.121094 C 118.992188 68.121094 99.109375 103.339844 94.609375 111.316406 C 94.609375 111.316406 114.855469 121.101562 119.003906 123.105469 C 122.601562 121.410156 138.300781 114.027344 143.488281 111.585938 Z M 117.722656 63.476562 C 117.785156 63.410156 117.855469 63.347656 117.925781 63.289062 L 117.929688 63.285156 L 117.941406 63.277344 L 117.953125 63.265625 L 117.988281 63.242188 C 117.996094 63.238281 118.003906 63.230469 118.007812 63.226562 L 118.015625 63.222656 L 118.023438 63.214844 L 118.035156 63.210938 C 118.039062 63.203125 118.046875 63.199219 118.054688 63.195312 L 118.070312 63.1875 C 118.082031 63.179688 118.089844 63.171875 118.101562 63.164062 L 118.117188 63.15625 C 118.125 63.152344 118.132812 63.148438 118.140625 63.144531 L 118.148438 63.140625 L 118.15625 63.132812 L 118.1875 63.117188 L 118.207031 63.109375 L 118.214844 63.101562 L 118.226562 63.097656 L 118.238281 63.089844 L 118.25 63.085938 L 118.265625 63.078125 L 118.277344 63.074219 L 118.289062 63.066406 L 118.292969 63.066406 C 118.472656 62.988281 118.660156 62.9375 118.855469 62.921875 L 118.863281 62.921875 L 118.890625 62.917969 L 119.09375 62.917969 L 119.121094 62.921875 L 119.128906 62.921875 C 119.324219 62.9375 119.515625 62.988281 119.691406 63.066406 L 119.695312 63.066406 L 119.707031 63.074219 C 119.714844 63.074219 119.71875 63.078125 119.722656 63.078125 L 119.734375 63.085938 L 119.746094 63.089844 L 119.761719 63.097656 L 119.773438 63.105469 L 119.785156 63.109375 L 119.796875 63.117188 C 119.804688 63.121094 119.8125 63.125 119.820312 63.128906 L 119.828125 63.132812 L 119.839844 63.140625 L 119.847656 63.144531 C 119.855469 63.148438 119.863281 63.152344 119.871094 63.15625 L 119.875 63.160156 L 119.882812 63.164062 C 119.894531 63.171875 119.90625 63.179688 119.917969 63.1875 L 119.921875 63.191406 L 119.929688 63.195312 C 119.9375 63.199219 119.945312 63.207031 119.953125 63.210938 L 119.960938 63.214844 L 119.96875 63.222656 L 119.976562 63.226562 L 120.011719 63.25 L 120.03125 63.269531 L 120.066406 63.292969 C 120.070312 63.296875 120.074219 63.300781 120.078125 63.300781 L 120.082031 63.308594 C 120.144531 63.359375 120.207031 63.417969 120.261719 63.476562 L 169.171875 116.515625 C 169.390625 116.75 169.53125 117.035156 169.589844 117.328125 C 169.632812 117.53125 169.640625 117.742188 169.605469 117.953125 C 169.574219 118.136719 169.515625 118.316406 169.425781 118.484375 L 169.421875 118.492188 C 169.347656 118.625 169.261719 118.746094 169.160156 118.851562 L 120.546875 171.566406 C 120.253906 172.085938 119.695312 172.4375 119.054688 172.4375 C 119.046875 172.4375 119.035156 172.4375 119.023438 172.4375 C 119.011719 172.4375 119.003906 172.4375 118.992188 172.4375 C 118.511719 172.4375 118.054688 172.238281 117.730469 171.886719 L 68.8125 118.839844 C 68.207031 118.183594 68.207031 117.171875 68.8125 116.515625 Z M 117.722656 63.476562 " fill-opacity="1" fill-rule="evenodd"/><path fill="#000000" d="M 96.132812 110.886719 L 119.050781 121.683594 L 141.46875 110.640625 L 119.050781 116.984375 Z M 96.132812 110.886719 " fill-opacity="1" fill-rule="evenodd"/><path fill="#000000" d="M 120.6875 94.710938 C 120.6875 93.722656 120.226562 93.222656 119.304688 93.214844 L 119.285156 93.214844 C 118.371094 93.214844 117.914062 93.714844 117.914062 94.710938 L 117.914062 97.664062 L 114.734375 97.664062 L 114.734375 94.710938 C 114.734375 91.625 116.253906 90.082031 119.296875 90.082031 C 122.34375 90.082031 123.867188 91.625 123.867188 94.710938 L 123.867188 98.542969 C 123.867188 99.988281 123.289062 101.011719 122.125 101.609375 C 123.289062 102.207031 123.867188 103.230469 123.867188 104.675781 L 123.867188 108.195312 C 123.867188 111.28125 122.34375 112.824219 119.296875 112.824219 C 116.253906 112.824219 114.734375 111.28125 114.734375 108.195312 L 114.734375 105.238281 L 117.914062 105.238281 L 117.914062 108.195312 C 117.914062 109.191406 118.371094 109.6875 119.285156 109.6875 L 119.304688 109.6875 C 120.226562 109.679688 120.6875 109.183594 120.6875 108.195312 L 120.6875 104.675781 C 120.6875 103.875 120.519531 103.398438 120.183594 103.25 C 120.003906 103.175781 119.726562 103.136719 119.351562 103.136719 L 118.304688 103.136719 L 118.304688 100.003906 L 119.597656 100.003906 C 119.898438 100.003906 120.121094 99.957031 120.273438 99.867188 C 120.550781 99.710938 120.6875 99.261719 120.6875 98.519531 Z M 120.6875 94.710938 " fill-opacity="1" fill-rule="nonzero"/><path fill="#000000" d="M 119.199219 71.472656 L 130.699219 92.9375 L 119.199219 76.15625 L 111.105469 85.015625 Z M 119.199219 71.472656 " fill-opacity="1" fill-rule="evenodd"/><path fill="#ecb939" d="M 116.417969 7.894531 C 116.554688 7.742188 116.707031 7.605469 116.863281 7.476562 L 116.929688 7.425781 L 117 7.375 L 117.082031 7.316406 L 117.164062 7.261719 L 117.179688 7.253906 L 117.269531 7.199219 L 117.375 7.136719 L 117.480469 7.078125 L 117.59375 7.023438 L 117.679688 6.984375 C 118.066406 6.8125 118.484375 6.703125 118.921875 6.667969 L 119.027344 6.660156 L 119.09375 6.660156 L 119.191406 6.65625 L 119.292969 6.65625 L 119.417969 6.660156 L 119.515625 6.667969 C 119.953125 6.703125 120.371094 6.8125 120.757812 6.984375 L 120.828125 7.015625 L 120.914062 7.058594 L 120.996094 7.097656 L 121.085938 7.148438 L 121.167969 7.199219 L 121.183594 7.207031 L 121.273438 7.261719 L 121.375 7.328125 L 121.472656 7.398438 L 121.574219 7.476562 L 121.628906 7.519531 C 121.765625 7.636719 121.898438 7.761719 122.019531 7.894531 L 229.996094 124.976562 C 230.476562 125.5 230.785156 126.125 230.917969 126.777344 C 231.011719 127.222656 231.027344 127.691406 230.949219 128.160156 C 230.882812 128.5625 230.75 128.960938 230.550781 129.332031 L 230.542969 129.34375 C 230.386719 129.636719 230.191406 129.902344 229.972656 130.140625 L 122.652344 246.511719 C 122 247.65625 120.769531 248.433594 119.359375 248.433594 C 119.335938 248.433594 119.3125 248.433594 119.285156 248.433594 C 119.265625 248.433594 119.242188 248.433594 119.21875 248.433594 C 118.160156 248.433594 117.152344 247.992188 116.433594 247.214844 L 8.441406 130.113281 C 7.105469 128.664062 7.105469 126.429688 8.441406 124.980469 Z M 116.417969 7.894531 " fill-opacity="1" fill-rule="evenodd"/><g clip-path="url(#5277a19a45)"><path fill="#ecb939" d="M 14.933594 127.546875 L 119.21875 14.464844 L 223.503906 127.546875 L 119.21875 240.625 Z M 124.4375 1.570312 L 124.546875 1.632812 L 124.554688 1.636719 L 124.546875 1.632812 L 124.640625 1.6875 L 124.726562 1.742188 C 124.78125 1.777344 124.835938 1.8125 124.890625 1.847656 L 124.992188 1.917969 C 125.050781 1.953125 125.109375 1.996094 125.164062 2.035156 L 125.265625 2.105469 C 125.324219 2.148438 125.378906 2.191406 125.4375 2.234375 L 125.535156 2.308594 C 125.582031 2.34375 125.625 2.378906 125.667969 2.414062 L 125.722656 2.457031 C 125.738281 2.46875 125.753906 2.480469 125.769531 2.492188 C 126.140625 2.800781 234.785156 120.5625 234.785156 120.5625 C 236.09375 121.984375 236.929688 123.683594 237.296875 125.460938 C 237.546875 126.660156 237.585938 127.933594 237.375 129.214844 C 237.195312 130.316406 236.835938 131.394531 236.296875 132.402344 L 236.285156 132.421875 L 236.28125 132.429688 L 236.273438 132.4375 C 235.851562 133.226562 235.332031 133.945312 234.734375 134.582031 C 234.742188 134.574219 134.796875 242.949219 127.820312 250.511719 C 125.96875 253.1875 122.871094 254.945312 119.367188 254.949219 L 119.21875 254.949219 C 116.34375 254.949219 113.597656 253.746094 111.648438 251.632812 L 3.652344 134.527344 C 0.015625 130.585938 0.015625 124.507812 3.652344 120.5625 C 3.652344 120.5625 110.371094 4.84375 111.621094 3.492188 L 111.617188 3.492188 C 111.988281 3.089844 112.390625 2.714844 112.816406 2.375 L 112.871094 2.332031 L 112.941406 2.28125 L 113.054688 2.191406 L 113.125 2.140625 C 113.167969 2.105469 113.214844 2.074219 113.257812 2.042969 L 113.339844 1.984375 C 113.386719 1.953125 113.433594 1.921875 113.484375 1.890625 L 113.5625 1.835938 L 113.652344 1.777344 C 113.652344 1.777344 114.777344 1.078125 113.746094 1.71875 L 113.835938 1.664062 C 113.890625 1.628906 113.949219 1.59375 114.003906 1.5625 L 114.109375 1.5 C 114.167969 1.46875 114.230469 1.433594 114.292969 1.398438 L 114.398438 1.34375 C 114.460938 1.308594 114.523438 1.277344 114.589844 1.242188 L 114.703125 1.1875 C 114.761719 1.160156 114.816406 1.132812 114.871094 1.105469 L 114.957031 1.070312 C 114.980469 1.058594 115.003906 1.046875 115.027344 1.035156 C 116.085938 0.5625 117.226562 0.269531 118.40625 0.175781 C 118.4375 0.171875 118.46875 0.171875 118.496094 0.171875 L 118.605469 0.164062 C 118.660156 0.160156 118.707031 0.15625 118.757812 0.15625 L 118.824219 0.152344 C 118.871094 0.148438 118.917969 0.148438 118.964844 0.148438 L 119.058594 0.144531 C 119.117188 0.144531 119.171875 0.144531 119.230469 0.144531 L 119.332031 0.144531 C 119.398438 0.144531 119.460938 0.144531 119.527344 0.148438 L 119.652344 0.152344 C 119.714844 0.15625 119.777344 0.160156 119.84375 0.164062 L 119.945312 0.171875 C 119.972656 0.171875 120 0.171875 120.027344 0.175781 C 121.210938 0.269531 122.351562 0.5625 123.410156 1.035156 C 123.425781 1.042969 123.445312 1.050781 123.464844 1.0625 L 123.535156 1.09375 C 123.582031 1.113281 123.625 1.136719 123.671875 1.15625 L 123.757812 1.199219 C 123.804688 1.222656 123.855469 1.246094 123.902344 1.269531 L 123.984375 1.3125 C 124.03125 1.339844 124.082031 1.363281 124.132812 1.390625 L 124.21875 1.4375 C 124.269531 1.46875 124.320312 1.496094 124.367188 1.523438 L 124.453125 1.574219 Z M 124.4375 1.570312 " fill-opacity="1" fill-rule="evenodd"/></g><path fill="#ecb939" d="M 116.417969 7.894531 C 116.554688 7.742188 116.707031 7.605469 116.863281 7.476562 L 116.929688 7.425781 L 117 7.375 L 117.082031 7.316406 L 117.164062 7.261719 L 117.179688 7.253906 L 117.269531 7.199219 L 117.375 7.136719 L 117.480469 7.078125 L 117.59375 7.023438 L 117.679688 6.984375 C 118.066406 6.8125 118.484375 6.703125 118.921875 6.667969 L 119.027344 6.660156 L 119.09375 6.660156 L 119.191406 6.65625 L 119.292969 6.65625 L 119.417969 6.660156 L 119.515625 6.667969 C 119.953125 6.703125 120.371094 6.8125 120.757812 6.984375 L 120.828125 7.015625 L 120.914062 7.058594 L 120.996094 7.097656 L 121.085938 7.148438 L 121.167969 7.199219 L 121.183594 7.207031 L 121.273438 7.261719 L 121.375 7.328125 L 121.472656 7.398438 L 121.574219 7.476562 L 121.628906 7.519531 C 121.765625 7.636719 121.898438 7.761719 122.019531 7.894531 L 229.996094 124.976562 C 230.476562 125.5 230.785156 126.125 230.917969 126.777344 C 231.011719 127.222656 231.027344 127.691406 230.949219 128.160156 C 230.882812 128.5625 230.75 128.960938 230.550781 129.332031 L 230.542969 129.34375 C 230.386719 129.636719 230.191406 129.902344 229.972656 130.140625 L 122.652344 246.511719 C 122 247.65625 120.769531 248.433594 119.359375 248.433594 C 119.335938 248.433594 119.3125 248.433594 119.285156 248.433594 C 119.265625 248.433594 119.242188 248.433594 119.21875 248.433594 C 118.160156 248.433594 117.152344 247.992188 116.433594 247.214844 L 8.441406 130.113281 C 7.105469 128.664062 7.105469 126.429688 8.441406 124.980469 Z M 116.417969 7.894531 " fill-opacity="1" fill-rule="evenodd"/><path fill="#000000" d="M 126.90625 200.597656 L 126.167969 226.429688 L 213.070312 133.992188 L 130.105469 214.078125 Z M 111.847656 199.9375 L 110.828125 222.859375 L 25.503906 134.097656 L 107.007812 212.925781 Z M 111.847656 199.9375 " fill-opacity="1" fill-rule="evenodd"/><path fill="#000000" d="M 25.71875 131.613281 L 59.972656 123.617188 L 111.675781 149.058594 L 111.675781 196.855469 C 111.675781 196.855469 107.03125 135.683594 25.71875 131.613281 " fill-opacity="1" fill-rule="evenodd"/><path fill="#000000" d="M 185.097656 107.078125 L 204.632812 113.53125 L 155.65625 59.644531 Z M 185.097656 107.078125 " fill-opacity="1" fill-rule="evenodd"/><path fill="#000000" d="M 54.613281 107.078125 L 35.078125 113.53125 L 84.054688 59.644531 Z M 54.613281 107.078125 " fill-opacity="1" fill-rule="evenodd"/><path fill="#000000" d="M 212.355469 131.613281 L 178.097656 123.617188 L 126.398438 149.058594 L 126.398438 196.855469 C 126.398438 196.855469 131.042969 135.683594 212.355469 131.613281 " fill-opacity="1" fill-rule="evenodd"/><path fill="#000000" d="M 180.371094 119.136719 L 220.164062 129.605469 L 123.128906 234.824219 L 123.007812 146.121094 L 180.210938 119.214844 C 180.265625 119.191406 180.316406 119.164062 180.371094 119.136719 M 18.328125 129.664062 L 59.191406 118.914062 L 115.4375 146.097656 L 115.558594 235.09375 Z M 99.882812 36.992188 L 57.863281 111.433594 L 22.703125 120.683594 Z M 180.429688 111.324219 L 138.496094 36.929688 L 215.644531 120.585938 Z M 119.21875 18.148438 C 119.21875 18.148438 75.328125 95.898438 65.394531 113.5 C 65.394531 113.5 110.089844 135.101562 119.242188 139.523438 C 127.183594 135.789062 161.847656 119.484375 173.300781 114.097656 L 119.214844 18.148438 Z M 116.417969 7.894531 C 116.558594 7.742188 116.707031 7.605469 116.867188 7.476562 L 116.875 7.46875 L 116.902344 7.449219 L 116.949219 7.410156 L 116.976562 7.394531 L 117 7.375 C 117.019531 7.363281 117.03125 7.351562 117.050781 7.339844 L 117.066406 7.328125 L 117.085938 7.316406 L 117.101562 7.304688 C 117.117188 7.292969 117.136719 7.28125 117.152344 7.269531 L 117.164062 7.261719 L 117.179688 7.253906 C 117.207031 7.234375 117.230469 7.222656 117.257812 7.207031 L 117.269531 7.199219 L 117.285156 7.1875 C 117.300781 7.179688 117.320312 7.167969 117.335938 7.15625 L 117.355469 7.148438 L 117.394531 7.125 L 117.421875 7.109375 L 117.445312 7.097656 L 117.480469 7.078125 L 117.527344 7.054688 L 117.554688 7.042969 L 117.585938 7.027344 L 117.613281 7.015625 L 117.640625 7 L 117.667969 6.988281 L 117.679688 6.984375 C 118.066406 6.8125 118.488281 6.703125 118.921875 6.667969 L 118.933594 6.667969 L 118.996094 6.664062 L 119.0625 6.660156 L 119.09375 6.660156 L 119.125 6.65625 L 119.316406 6.65625 L 119.347656 6.660156 L 119.445312 6.664062 L 119.507812 6.667969 L 119.519531 6.667969 C 119.953125 6.703125 120.371094 6.8125 120.757812 6.984375 L 120.773438 6.988281 L 120.800781 7.003906 C 120.808594 7.007812 120.820312 7.011719 120.828125 7.015625 L 120.855469 7.027344 L 120.882812 7.042969 L 120.914062 7.058594 L 120.96875 7.082031 L 120.996094 7.101562 C 121.015625 7.109375 121.03125 7.117188 121.046875 7.128906 L 121.066406 7.136719 L 121.085938 7.148438 L 121.101562 7.160156 C 121.121094 7.167969 121.136719 7.179688 121.15625 7.1875 L 121.167969 7.199219 L 121.183594 7.207031 C 121.210938 7.222656 121.234375 7.238281 121.261719 7.253906 L 121.273438 7.261719 L 121.289062 7.273438 C 121.304688 7.28125 121.320312 7.292969 121.339844 7.304688 L 121.355469 7.316406 L 121.375 7.328125 L 121.390625 7.339844 L 121.417969 7.359375 L 121.441406 7.378906 L 121.464844 7.394531 L 121.492188 7.414062 L 121.515625 7.433594 L 121.539062 7.449219 L 121.566406 7.46875 L 121.589844 7.488281 C 121.597656 7.496094 121.605469 7.503906 121.613281 7.507812 L 121.628906 7.519531 C 121.765625 7.636719 121.898438 7.761719 122.019531 7.894531 L 229.996094 124.980469 C 230.476562 125.5 230.785156 126.125 230.921875 126.777344 C 231.011719 127.222656 231.027344 127.691406 230.949219 128.160156 C 230.882812 128.5625 230.75 128.960938 230.554688 129.332031 L 230.542969 129.347656 C 230.386719 129.636719 230.195312 129.902344 229.972656 130.140625 L 122.652344 246.511719 C 122.003906 247.65625 120.773438 248.433594 119.359375 248.433594 C 119.335938 248.433594 119.3125 248.433594 119.289062 248.433594 C 119.265625 248.433594 119.242188 248.433594 119.21875 248.433594 C 118.164062 248.433594 117.152344 247.992188 116.4375 247.214844 L 8.441406 130.113281 C 7.105469 128.664062 7.105469 126.429688 8.441406 124.980469 Z M 116.417969 7.894531 " fill-opacity="1" fill-rule="evenodd"/><path fill="#000000" d="M 68.757812 112.554688 L 119.34375 136.390625 L 168.835938 112.007812 L 119.34375 126.019531 Z M 68.757812 112.554688 " fill-opacity="1" fill-rule="evenodd"/><path fill="#000000" d="M 122.964844 76.84375 C 122.964844 74.660156 121.945312 73.558594 119.914062 73.542969 L 119.863281 73.542969 C 117.84375 73.542969 116.835938 74.644531 116.835938 76.84375 L 116.835938 83.367188 L 109.816406 83.367188 L 109.816406 76.84375 C 109.816406 70.027344 113.171875 66.621094 119.886719 66.621094 C 126.617188 66.621094 129.984375 70.027344 129.984375 76.84375 L 129.984375 85.300781 C 129.984375 88.492188 128.703125 90.75 126.140625 92.074219 C 128.703125 93.398438 129.984375 95.652344 129.984375 98.84375 L 129.984375 106.609375 C 129.984375 113.421875 126.617188 116.832031 119.886719 116.832031 C 113.171875 116.832031 109.816406 113.421875 109.816406 106.609375 L 109.816406 100.085938 L 116.835938 100.085938 L 116.835938 106.609375 C 116.835938 108.808594 117.84375 109.910156 119.863281 109.910156 L 119.914062 109.910156 C 121.945312 109.894531 122.964844 108.792969 122.964844 106.609375 L 122.964844 98.84375 C 122.964844 97.078125 122.589844 96.027344 121.847656 95.695312 C 121.449219 95.53125 120.839844 95.449219 120.011719 95.449219 L 117.703125 95.449219 L 117.703125 88.527344 L 120.558594 88.527344 C 121.21875 88.527344 121.714844 88.425781 122.046875 88.230469 C 122.65625 87.882812 122.964844 86.890625 122.964844 85.25 Z M 122.964844 76.84375 " fill-opacity="1" fill-rule="nonzero"/><path fill="#000000" d="M 119.671875 25.539062 L 145.058594 72.929688 L 119.671875 35.882812 L 101.808594 55.441406 Z M 119.671875 25.539062 " fill-opacity="1" fill-rule="evenodd"/></svg>