<svg xmlns="http://www.w3.org/2000/svg" xmlns:xlink="http://www.w3.org/1999/xlink" width="318" zoomAndPan="magnify" viewBox="0 0 238.5 255.749992" height="341" preserveAspectRatio="xMidYMid meet" version="1.0"><defs><clipPath id="e3c1177f07"><path d="M 78.597656 84.429688 L 158.679688 84.429688 L 158.679688 170.5 L 78.597656 170.5 Z M 78.597656 84.429688 " clip-rule="nonzero"/></clipPath><clipPath id="1a0e30b373"><path d="M 0 0.144531 L 237.253906 0.144531 L 237.253906 254.609375 L 0 254.609375 Z M 0 0.144531 " clip-rule="nonzero"/></clipPath></defs><path fill="#c8441b" d="M 117.996094 87.050781 C 118.042969 87 118.09375 86.953125 118.144531 86.910156 L 118.167969 86.894531 L 118.191406 86.875 L 118.21875 86.855469 L 118.246094 86.839844 L 118.253906 86.835938 L 118.28125 86.816406 L 118.320312 86.796875 L 118.355469 86.777344 L 118.394531 86.757812 L 118.421875 86.746094 C 118.554688 86.6875 118.695312 86.648438 118.84375 86.636719 L 118.878906 86.636719 L 118.902344 86.632812 L 118.96875 86.632812 L 119.007812 86.636719 L 119.042969 86.636719 C 119.191406 86.648438 119.332031 86.6875 119.464844 86.746094 L 119.488281 86.753906 L 119.542969 86.785156 L 119.574219 86.800781 L 119.601562 86.816406 L 119.609375 86.820312 L 119.636719 86.839844 L 119.707031 86.886719 L 119.738281 86.910156 L 119.757812 86.925781 C 119.804688 86.964844 119.851562 87.007812 119.890625 87.054688 L 156.433594 126.675781 C 156.59375 126.855469 156.699219 127.066406 156.746094 127.285156 C 156.777344 127.4375 156.78125 127.59375 156.753906 127.753906 C 156.734375 127.890625 156.6875 128.023438 156.621094 128.148438 L 156.617188 128.15625 C 156.566406 128.253906 156.5 128.34375 156.425781 128.421875 L 120.105469 167.808594 C 119.882812 168.195312 119.46875 168.457031 118.992188 168.457031 C 118.980469 168.457031 118.972656 168.457031 118.964844 168.457031 C 118.957031 168.457031 118.949219 168.457031 118.941406 168.457031 C 118.585938 168.457031 118.242188 168.308594 118 168.046875 L 81.453125 128.414062 C 81 127.921875 81 127.167969 81.453125 126.675781 Z M 117.996094 87.050781 " fill-opacity="1" fill-rule="evenodd"/><g clip-path="url(#e3c1177f07)"><path fill="#c8441b" d="M 83.652344 127.546875 L 118.941406 89.277344 L 154.234375 127.546875 L 118.941406 165.816406 Z M 120.707031 84.910156 L 120.746094 84.933594 L 120.75 84.933594 L 120.746094 84.933594 L 120.777344 84.953125 L 120.808594 84.96875 C 120.824219 84.980469 120.84375 84.992188 120.863281 85.007812 L 120.898438 85.027344 C 120.917969 85.042969 120.9375 85.054688 120.957031 85.070312 L 120.988281 85.09375 C 121.007812 85.109375 121.027344 85.121094 121.046875 85.136719 L 121.082031 85.164062 C 121.097656 85.171875 121.109375 85.183594 121.125 85.199219 L 121.144531 85.210938 C 121.148438 85.214844 121.15625 85.222656 121.160156 85.226562 C 121.285156 85.328125 158.054688 125.183594 158.054688 125.183594 C 158.496094 125.664062 158.78125 126.238281 158.902344 126.839844 C 158.988281 127.246094 159 127.675781 158.929688 128.109375 C 158.871094 128.484375 158.746094 128.847656 158.566406 129.191406 L 158.566406 129.1875 L 158.5625 129.195312 L 158.558594 129.199219 L 158.558594 129.203125 C 158.414062 129.46875 158.238281 129.710938 158.035156 129.925781 C 158.039062 129.925781 124.214844 166.601562 121.855469 169.160156 C 121.226562 170.066406 120.179688 170.660156 118.992188 170.664062 L 118.941406 170.664062 C 117.96875 170.664062 117.039062 170.253906 116.378906 169.539062 L 79.832031 129.910156 C 78.601562 128.574219 78.601562 126.519531 79.832031 125.183594 C 79.832031 125.183594 115.949219 86.019531 116.371094 85.5625 C 116.496094 85.425781 116.632812 85.300781 116.777344 85.183594 L 116.796875 85.171875 L 116.816406 85.152344 L 116.855469 85.121094 L 116.882812 85.105469 C 116.894531 85.09375 116.910156 85.082031 116.925781 85.074219 L 116.953125 85.054688 C 116.96875 85.042969 116.984375 85.03125 117 85.019531 L 117.027344 85.003906 L 117.058594 84.984375 C 117.058594 84.984375 117.441406 84.746094 117.089844 84.960938 L 117.121094 84.945312 C 117.140625 84.933594 117.160156 84.921875 117.179688 84.910156 L 117.214844 84.890625 C 117.234375 84.878906 117.253906 84.867188 117.277344 84.855469 L 117.3125 84.835938 C 117.332031 84.824219 117.355469 84.8125 117.375 84.800781 L 117.414062 84.78125 C 117.433594 84.773438 117.453125 84.765625 117.472656 84.753906 L 117.5 84.742188 C 117.507812 84.738281 117.515625 84.734375 117.523438 84.730469 C 117.882812 84.570312 118.269531 84.472656 118.667969 84.441406 C 118.679688 84.441406 118.6875 84.4375 118.699219 84.4375 L 118.734375 84.4375 C 118.753906 84.433594 118.769531 84.433594 118.789062 84.433594 L 118.808594 84.433594 C 118.824219 84.429688 118.839844 84.429688 118.855469 84.429688 L 118.890625 84.429688 C 118.90625 84.429688 118.925781 84.429688 118.945312 84.429688 L 118.980469 84.429688 C 119.003906 84.429688 119.023438 84.429688 119.046875 84.429688 L 119.089844 84.433594 C 119.109375 84.433594 119.132812 84.433594 119.152344 84.4375 L 119.1875 84.4375 C 119.199219 84.4375 119.207031 84.441406 119.214844 84.441406 C 119.617188 84.472656 120.003906 84.570312 120.359375 84.730469 C 120.367188 84.734375 120.375 84.738281 120.378906 84.738281 L 120.402344 84.75 C 120.417969 84.757812 120.433594 84.765625 120.449219 84.773438 L 120.480469 84.785156 C 120.496094 84.792969 120.511719 84.800781 120.527344 84.8125 L 120.554688 84.824219 C 120.570312 84.832031 120.589844 84.84375 120.605469 84.851562 L 120.636719 84.867188 C 120.652344 84.878906 120.667969 84.886719 120.6875 84.898438 L 120.714844 84.914062 Z M 120.707031 84.910156 " fill-opacity="1" fill-rule="evenodd"/></g><path fill="#c8441b" d="M 117.996094 87.050781 C 118.042969 87 118.09375 86.953125 118.144531 86.910156 L 118.167969 86.894531 L 118.191406 86.875 L 118.21875 86.855469 L 118.246094 86.839844 L 118.253906 86.835938 L 118.28125 86.816406 L 118.320312 86.796875 L 118.355469 86.777344 L 118.394531 86.757812 L 118.421875 86.746094 C 118.554688 86.6875 118.695312 86.648438 118.84375 86.636719 L 118.878906 86.636719 L 118.902344 86.632812 L 118.96875 86.632812 L 119.007812 86.636719 L 119.042969 86.636719 C 119.191406 86.648438 119.332031 86.6875 119.464844 86.746094 L 119.488281 86.753906 L 119.542969 86.785156 L 119.574219 86.800781 L 119.601562 86.816406 L 119.609375 86.820312 L 119.636719 86.839844 L 119.707031 86.886719 L 119.738281 86.910156 L 119.757812 86.925781 C 119.804688 86.964844 119.851562 87.007812 119.890625 87.054688 L 156.433594 126.675781 C 156.59375 126.855469 156.699219 127.066406 156.746094 127.285156 C 156.777344 127.4375 156.78125 127.59375 156.753906 127.753906 C 156.734375 127.890625 156.6875 128.023438 156.621094 128.148438 L 156.617188 128.15625 C 156.566406 128.253906 156.5 128.34375 156.425781 128.421875 L 120.105469 167.808594 C 119.882812 168.195312 119.46875 168.457031 118.992188 168.457031 C 118.980469 168.457031 118.972656 168.457031 118.964844 168.457031 C 118.957031 168.457031 118.949219 168.457031 118.941406 168.457031 C 118.585938 168.457031 118.242188 168.308594 118 168.046875 L 81.453125 128.414062 C 81 127.921875 81 127.167969 81.453125 126.675781 Z M 117.996094 87.050781 " fill-opacity="1" fill-rule="evenodd"/><path fill="#000000" d="M 121.542969 152.269531 L 121.292969 161.011719 L 150.703125 129.726562 L 122.625 156.832031 Z M 116.449219 152.042969 L 116.101562 159.800781 L 87.226562 129.761719 L 114.808594 156.441406 Z M 116.449219 152.042969 " fill-opacity="1" fill-rule="evenodd"/><path fill="#000000" d="M 87.300781 128.921875 L 98.894531 126.214844 L 116.390625 134.828125 L 116.390625 151 C 116.390625 151 114.820312 130.300781 87.300781 128.921875 " fill-opacity="1" fill-rule="evenodd"/><path fill="#000000" d="M 141.238281 120.617188 L 147.847656 122.800781 L 131.273438 104.566406 Z M 141.238281 120.617188 " fill-opacity="1" fill-rule="evenodd"/><path fill="#000000" d="M 97.078125 120.617188 L 90.46875 122.800781 L 107.042969 104.566406 Z M 97.078125 120.617188 " fill-opacity="1" fill-rule="evenodd"/><path fill="#000000" d="M 150.464844 128.921875 L 138.871094 126.214844 L 121.371094 134.828125 L 121.371094 151 C 121.371094 151 122.945312 130.300781 150.464844 128.921875 " fill-opacity="1" fill-rule="evenodd"/><path fill="#000000" d="M 139.636719 124.699219 L 153.105469 128.242188 L 120.265625 163.851562 L 120.226562 133.832031 L 139.585938 124.726562 C 139.601562 124.71875 139.621094 124.710938 139.636719 124.699219 M 84.800781 128.261719 L 98.628906 124.625 L 117.664062 133.824219 L 117.703125 163.941406 Z M 112.398438 96.898438 L 98.179688 122.09375 L 86.28125 125.222656 Z M 139.65625 122.054688 L 125.464844 96.878906 L 151.578125 125.191406 Z M 118.941406 90.523438 C 118.941406 90.523438 104.089844 116.835938 100.726562 122.792969 C 100.726562 122.792969 115.851562 130.101562 118.949219 131.601562 C 121.636719 130.335938 133.371094 124.816406 137.246094 122.996094 Z M 117.996094 87.050781 C 118.042969 87 118.09375 86.953125 118.144531 86.910156 L 118.148438 86.910156 L 118.160156 86.902344 L 118.167969 86.894531 L 118.175781 86.890625 L 118.191406 86.875 C 118.199219 86.871094 118.203125 86.867188 118.207031 86.863281 L 118.214844 86.859375 L 118.21875 86.855469 L 118.226562 86.851562 C 118.230469 86.847656 118.238281 86.84375 118.242188 86.839844 L 118.25 86.839844 L 118.253906 86.835938 C 118.261719 86.828125 118.269531 86.824219 118.277344 86.820312 L 118.28125 86.816406 L 118.289062 86.8125 C 118.292969 86.808594 118.300781 86.808594 118.304688 86.804688 L 118.320312 86.796875 L 118.324219 86.792969 L 118.335938 86.789062 L 118.34375 86.78125 L 118.355469 86.777344 L 118.378906 86.765625 L 118.390625 86.757812 L 118.398438 86.753906 L 118.410156 86.75 L 118.417969 86.746094 L 118.421875 86.746094 C 118.554688 86.6875 118.695312 86.648438 118.84375 86.636719 L 118.867188 86.636719 L 118.890625 86.632812 L 118.988281 86.632812 L 119.019531 86.636719 L 119.042969 86.636719 C 119.191406 86.648438 119.332031 86.6875 119.464844 86.746094 L 119.46875 86.746094 L 119.476562 86.75 C 119.480469 86.753906 119.484375 86.753906 119.488281 86.753906 L 119.496094 86.757812 L 119.507812 86.765625 L 119.523438 86.773438 L 119.535156 86.777344 L 119.542969 86.785156 C 119.550781 86.785156 119.554688 86.789062 119.5625 86.792969 L 119.566406 86.796875 L 119.582031 86.804688 C 119.585938 86.808594 119.59375 86.808594 119.597656 86.8125 L 119.601562 86.816406 L 119.609375 86.820312 C 119.617188 86.824219 119.625 86.832031 119.632812 86.835938 L 119.636719 86.839844 L 119.644531 86.839844 C 119.648438 86.84375 119.65625 86.847656 119.660156 86.851562 L 119.664062 86.855469 L 119.671875 86.859375 L 119.679688 86.867188 L 119.6875 86.871094 L 119.695312 86.878906 L 119.703125 86.882812 L 119.710938 86.890625 L 119.71875 86.894531 L 119.726562 86.902344 L 119.738281 86.910156 L 119.746094 86.914062 C 119.746094 86.917969 119.75 86.917969 119.753906 86.921875 L 119.757812 86.925781 C 119.804688 86.964844 119.851562 87.007812 119.890625 87.050781 L 156.433594 126.675781 C 156.597656 126.855469 156.699219 127.066406 156.746094 127.285156 C 156.777344 127.4375 156.78125 127.59375 156.753906 127.753906 C 156.734375 127.890625 156.6875 128.023438 156.621094 128.148438 L 156.617188 128.15625 C 156.566406 128.253906 156.5 128.34375 156.425781 128.421875 L 120.105469 167.808594 C 119.886719 168.195312 119.46875 168.457031 118.992188 168.457031 C 118.984375 168.457031 118.972656 168.457031 118.964844 168.457031 C 118.957031 168.457031 118.949219 168.457031 118.941406 168.457031 C 118.585938 168.457031 118.242188 168.308594 118 168.046875 L 81.453125 128.414062 C 81 127.921875 81 127.167969 81.453125 126.675781 Z M 117.996094 87.050781 " fill-opacity="1" fill-rule="evenodd"/><path fill="#000000" d="M 101.867188 122.472656 L 118.984375 130.539062 L 135.734375 122.289062 L 118.984375 127.027344 Z M 101.867188 122.472656 " fill-opacity="1" fill-rule="evenodd"/><path fill="#000000" d="M 122.300781 107.1875 L 122.300781 117.992188 L 123.214844 117.992188 L 123.214844 120.335938 L 122.300781 120.335938 L 122.300781 123.660156 L 119.925781 123.660156 L 119.925781 120.335938 L 115.105469 120.335938 L 115.105469 118.253906 L 119.269531 107.1875 Z M 117.449219 117.992188 L 119.925781 117.992188 L 119.925781 110.992188 Z M 117.449219 117.992188 " fill-opacity="1" fill-rule="nonzero"/><path fill="#000000" d="M 119.097656 93.023438 L 127.6875 109.0625 L 119.097656 96.523438 L 113.050781 103.144531 Z M 119.097656 93.023438 " fill-opacity="1" fill-rule="evenodd"/><path fill="#c8441b" d="M 116.417969 7.894531 C 116.554688 7.742188 116.707031 7.605469 116.863281 7.476562 L 116.929688 7.425781 L 117 7.375 L 117.082031 7.316406 L 117.164062 7.261719 L 117.179688 7.253906 L 117.269531 7.199219 L 117.375 7.136719 L 117.480469 7.078125 L 117.59375 7.023438 L 117.679688 6.984375 C 118.066406 6.8125 118.484375 6.703125 118.921875 6.667969 L 119.027344 6.660156 L 119.09375 6.660156 L 119.191406 6.65625 L 119.292969 6.65625 L 119.417969 6.660156 L 119.515625 6.667969 C 119.953125 6.703125 120.371094 6.8125 120.757812 6.984375 L 120.828125 7.015625 L 120.914062 7.058594 L 120.996094 7.097656 L 121.085938 7.148438 L 121.167969 7.199219 L 121.183594 7.207031 L 121.273438 7.261719 L 121.375 7.328125 L 121.472656 7.398438 L 121.574219 7.476562 L 121.628906 7.519531 C 121.765625 7.636719 121.898438 7.761719 122.019531 7.894531 L 229.996094 124.976562 C 230.476562 125.5 230.785156 126.125 230.917969 126.777344 C 231.011719 127.222656 231.027344 127.691406 230.949219 128.160156 C 230.882812 128.5625 230.75 128.960938 230.550781 129.332031 L 230.542969 129.34375 C 230.386719 129.636719 230.191406 129.902344 229.972656 130.140625 L 122.652344 246.511719 C 122 247.65625 120.769531 248.433594 119.359375 248.433594 C 119.335938 248.433594 119.3125 248.433594 119.285156 248.433594 C 119.265625 248.433594 119.242188 248.433594 119.21875 248.433594 C 118.160156 248.433594 117.152344 247.992188 116.433594 247.214844 L 8.441406 130.113281 C 7.105469 128.664062 7.105469 126.429688 8.441406 124.980469 Z M 116.417969 7.894531 " fill-opacity="1" fill-rule="evenodd"/><g clip-path="url(#1a0e30b373)"><path fill="#c8441b" d="M 14.933594 127.546875 L 119.21875 14.464844 L 223.503906 127.546875 L 119.21875 240.625 Z M 124.4375 1.570312 L 124.546875 1.632812 L 124.554688 1.636719 L 124.546875 1.632812 L 124.640625 1.6875 L 124.726562 1.742188 C 124.78125 1.777344 124.835938 1.8125 124.890625 1.847656 L 124.992188 1.917969 C 125.050781 1.953125 125.109375 1.996094 125.164062 2.035156 L 125.265625 2.105469 C 125.324219 2.148438 125.378906 2.191406 125.4375 2.234375 L 125.535156 2.308594 C 125.582031 2.34375 125.625 2.378906 125.667969 2.414062 L 125.722656 2.457031 C 125.738281 2.46875 125.753906 2.480469 125.769531 2.492188 C 126.140625 2.800781 234.785156 120.5625 234.785156 120.5625 C 236.09375 121.984375 236.929688 123.683594 237.296875 125.460938 C 237.546875 126.660156 237.585938 127.933594 237.375 129.214844 C 237.195312 130.316406 236.835938 131.394531 236.296875 132.402344 L 236.285156 132.421875 L 236.28125 132.429688 L 236.273438 132.4375 C 235.851562 133.226562 235.332031 133.945312 234.734375 134.582031 C 234.742188 134.574219 134.796875 242.949219 127.820312 250.511719 C 125.96875 253.1875 122.871094 254.945312 119.367188 254.949219 L 119.21875 254.949219 C 116.34375 254.949219 113.597656 253.746094 111.648438 251.632812 L 3.652344 134.527344 C 0.015625 130.585938 0.015625 124.507812 3.652344 120.5625 C 3.652344 120.5625 110.371094 4.84375 111.621094 3.492188 L 111.617188 3.492188 C 111.988281 3.089844 112.390625 2.714844 112.816406 2.375 L 112.871094 2.332031 L 112.941406 2.28125 L 113.054688 2.191406 L 113.125 2.140625 C 113.167969 2.105469 113.214844 2.074219 113.257812 2.042969 L 113.339844 1.984375 C 113.386719 1.953125 113.433594 1.921875 113.484375 1.890625 L 113.5625 1.835938 L 113.652344 1.777344 C 113.652344 1.777344 114.777344 1.078125 113.746094 1.71875 L 113.835938 1.664062 C 113.890625 1.628906 113.949219 1.59375 114.003906 1.5625 L 114.109375 1.5 C 114.167969 1.46875 114.230469 1.433594 114.292969 1.398438 L 114.398438 1.34375 C 114.460938 1.308594 114.523438 1.277344 114.589844 1.242188 L 114.703125 1.1875 C 114.761719 1.160156 114.816406 1.132812 114.871094 1.105469 L 114.957031 1.070312 C 114.980469 1.058594 115.003906 1.046875 115.027344 1.035156 C 116.085938 0.5625 117.226562 0.269531 118.40625 0.175781 C 118.4375 0.171875 118.46875 0.171875 118.496094 0.171875 L 118.605469 0.164062 C 118.660156 0.160156 118.707031 0.15625 118.757812 0.15625 L 118.824219 0.152344 C 118.871094 0.148438 118.917969 0.148438 118.964844 0.148438 L 119.058594 0.144531 C 119.117188 0.144531 119.171875 0.144531 119.230469 0.144531 L 119.332031 0.144531 C 119.398438 0.144531 119.460938 0.144531 119.527344 0.148438 L 119.652344 0.152344 C 119.714844 0.15625 119.777344 0.160156 119.84375 0.164062 L 119.945312 0.171875 C 119.972656 0.171875 120 0.171875 120.027344 0.175781 C 121.210938 0.269531 122.351562 0.5625 123.410156 1.035156 C 123.425781 1.042969 123.445312 1.050781 123.464844 1.0625 L 123.535156 1.09375 C 123.582031 1.113281 123.625 1.136719 123.671875 1.15625 L 123.757812 1.199219 C 123.804688 1.222656 123.855469 1.246094 123.902344 1.269531 L 123.984375 1.3125 C 124.03125 1.339844 124.082031 1.363281 124.132812 1.390625 L 124.21875 1.4375 C 124.269531 1.46875 124.320312 1.496094 124.367188 1.523438 L 124.453125 1.574219 Z M 124.4375 1.570312 " fill-opacity="1" fill-rule="evenodd"/></g><path fill="#c8441b" d="M 116.417969 7.894531 C 116.554688 7.742188 116.707031 7.605469 116.863281 7.476562 L 116.929688 7.425781 L 117 7.375 L 117.082031 7.316406 L 117.164062 7.261719 L 117.179688 7.253906 L 117.269531 7.199219 L 117.375 7.136719 L 117.480469 7.078125 L 117.59375 7.023438 L 117.679688 6.984375 C 118.066406 6.8125 118.484375 6.703125 118.921875 6.667969 L 119.027344 6.660156 L 119.09375 6.660156 L 119.191406 6.65625 L 119.292969 6.65625 L 119.417969 6.660156 L 119.515625 6.667969 C 119.953125 6.703125 120.371094 6.8125 120.757812 6.984375 L 120.828125 7.015625 L 120.914062 7.058594 L 120.996094 7.097656 L 121.085938 7.148438 L 121.167969 7.199219 L 121.183594 7.207031 L 121.273438 7.261719 L 121.375 7.328125 L 121.472656 7.398438 L 121.574219 7.476562 L 121.628906 7.519531 C 121.765625 7.636719 121.898438 7.761719 122.019531 7.894531 L 229.996094 124.976562 C 230.476562 125.5 230.785156 126.125 230.917969 126.777344 C 231.011719 127.222656 231.027344 127.691406 230.949219 128.160156 C 230.882812 128.5625 230.75 128.960938 230.550781 129.332031 L 230.542969 129.34375 C 230.386719 129.636719 230.191406 129.902344 229.972656 130.140625 L 122.652344 246.511719 C 122 247.65625 120.769531 248.433594 119.359375 248.433594 C 119.335938 248.433594 119.3125 248.433594 119.285156 248.433594 C 119.265625 248.433594 119.242188 248.433594 119.21875 248.433594 C 118.160156 248.433594 117.152344 247.992188 116.433594 247.214844 L 8.441406 130.113281 C 7.105469 128.664062 7.105469 126.429688 8.441406 124.980469 Z M 116.417969 7.894531 " fill-opacity="1" fill-rule="evenodd"/><path fill="#000000" d="M 126.90625 200.597656 L 126.167969 226.429688 L 213.070312 133.992188 L 130.105469 214.078125 Z M 111.847656 199.9375 L 110.828125 222.859375 L 25.503906 134.097656 L 107.007812 212.925781 Z M 111.847656 199.9375 " fill-opacity="1" fill-rule="evenodd"/><path fill="#000000" d="M 25.71875 131.613281 L 59.972656 123.617188 L 111.675781 149.058594 L 111.675781 196.855469 C 111.675781 196.855469 107.03125 135.683594 25.71875 131.613281 " fill-opacity="1" fill-rule="evenodd"/><path fill="#000000" d="M 185.097656 107.078125 L 204.632812 113.53125 L 155.65625 59.644531 Z M 185.097656 107.078125 " fill-opacity="1" fill-rule="evenodd"/><path fill="#000000" d="M 54.613281 107.078125 L 35.078125 113.53125 L 84.054688 59.644531 Z M 54.613281 107.078125 " fill-opacity="1" fill-rule="evenodd"/><path fill="#000000" d="M 212.355469 131.613281 L 178.097656 123.617188 L 126.398438 149.058594 L 126.398438 196.855469 C 126.398438 196.855469 131.042969 135.683594 212.355469 131.613281 " fill-opacity="1" fill-rule="evenodd"/><path fill="#000000" d="M 180.371094 119.136719 L 220.164062 129.605469 L 123.128906 234.824219 L 123.007812 146.121094 L 180.210938 119.214844 C 180.265625 119.191406 180.316406 119.164062 180.371094 119.136719 M 18.328125 129.664062 L 59.191406 118.914062 L 115.4375 146.097656 L 115.558594 235.09375 Z M 99.882812 36.992188 L 57.863281 111.433594 L 22.703125 120.683594 Z M 180.429688 111.324219 L 138.496094 36.929688 L 215.644531 120.585938 Z M 119.21875 18.148438 C 119.21875 18.148438 75.328125 95.898438 65.394531 113.5 C 65.394531 113.5 110.089844 135.101562 119.242188 139.523438 C 127.183594 135.789062 161.847656 119.484375 173.300781 114.097656 L 119.214844 18.148438 Z M 116.417969 7.894531 C 116.558594 7.742188 116.707031 7.605469 116.867188 7.476562 L 116.875 7.46875 L 116.902344 7.449219 L 116.949219 7.410156 L 116.976562 7.394531 L 117 7.375 C 117.019531 7.363281 117.03125 7.351562 117.050781 7.339844 L 117.066406 7.328125 L 117.085938 7.316406 L 117.101562 7.304688 C 117.117188 7.292969 117.136719 7.28125 117.152344 7.269531 L 117.164062 7.261719 L 117.179688 7.253906 C 117.207031 7.234375 117.230469 7.222656 117.257812 7.207031 L 117.269531 7.199219 L 117.285156 7.1875 C 117.300781 7.179688 117.320312 7.167969 117.335938 7.15625 L 117.355469 7.148438 L 117.394531 7.125 L 117.421875 7.109375 L 117.445312 7.097656 L 117.480469 7.078125 L 117.527344 7.054688 L 117.554688 7.042969 L 117.585938 7.027344 L 117.613281 7.015625 L 117.640625 7 L 117.667969 6.988281 L 117.679688 6.984375 C 118.066406 6.8125 118.488281 6.703125 118.921875 6.667969 L 118.933594 6.667969 L 118.996094 6.664062 L 119.0625 6.660156 L 119.09375 6.660156 L 119.125 6.65625 L 119.316406 6.65625 L 119.347656 6.660156 L 119.445312 6.664062 L 119.507812 6.667969 L 119.519531 6.667969 C 119.953125 6.703125 120.371094 6.8125 120.757812 6.984375 L 120.773438 6.988281 L 120.800781 7.003906 C 120.808594 7.007812 120.820312 7.011719 120.828125 7.015625 L 120.855469 7.027344 L 120.882812 7.042969 L 120.914062 7.058594 L 120.96875 7.082031 L 120.996094 7.101562 C 121.015625 7.109375 121.03125 7.117188 121.046875 7.128906 L 121.066406 7.136719 L 121.085938 7.148438 L 121.101562 7.160156 C 121.121094 7.167969 121.136719 7.179688 121.15625 7.1875 L 121.167969 7.199219 L 121.183594 7.207031 C 121.210938 7.222656 121.234375 7.238281 121.261719 7.253906 L 121.273438 7.261719 L 121.289062 7.273438 C 121.304688 7.28125 121.320312 7.292969 121.339844 7.304688 L 121.355469 7.316406 L 121.375 7.328125 L 121.390625 7.339844 L 121.417969 7.359375 L 121.441406 7.378906 L 121.464844 7.394531 L 121.492188 7.414062 L 121.515625 7.433594 L 121.539062 7.449219 L 121.566406 7.46875 L 121.589844 7.488281 C 121.597656 7.496094 121.605469 7.503906 121.613281 7.507812 L 121.628906 7.519531 C 121.765625 7.636719 121.898438 7.761719 122.019531 7.894531 L 229.996094 124.980469 C 230.476562 125.5 230.785156 126.125 230.921875 126.777344 C 231.011719 127.222656 231.027344 127.691406 230.949219 128.160156 C 230.882812 128.5625 230.75 128.960938 230.554688 129.332031 L 230.542969 129.347656 C 230.386719 129.636719 230.195312 129.902344 229.972656 130.140625 L 122.652344 246.511719 C 122.003906 247.65625 120.773438 248.433594 119.359375 248.433594 C 119.335938 248.433594 119.3125 248.433594 119.289062 248.433594 C 119.265625 248.433594 119.242188 248.433594 119.21875 248.433594 C 118.164062 248.433594 117.152344 247.992188 116.4375 247.214844 L 8.441406 130.113281 C 7.105469 128.664062 7.105469 126.429688 8.441406 124.980469 Z M 116.417969 7.894531 " fill-opacity="1" fill-rule="evenodd"/><path fill="#000000" d="M 68.757812 112.554688 L 119.34375 136.390625 L 168.835938 112.007812 L 119.34375 126.019531 Z M 68.757812 112.554688 " fill-opacity="1" fill-rule="evenodd"/><path fill="#000000" d="M 129.140625 67.390625 L 129.140625 99.316406 L 131.84375 99.316406 L 131.84375 106.238281 L 129.140625 106.238281 L 129.140625 116.0625 L 122.121094 116.0625 L 122.121094 106.238281 L 107.882812 106.238281 L 107.882812 100.085938 L 120.183594 67.390625 Z M 114.800781 99.316406 L 122.121094 99.316406 L 122.121094 78.628906 Z M 114.800781 99.316406 " fill-opacity="1" fill-rule="nonzero"/><path fill="#000000" d="M 119.671875 25.539062 L 145.058594 72.929688 L 119.671875 35.882812 L 101.808594 55.441406 Z M 119.671875 25.539062 " fill-opacity="1" fill-rule="evenodd"/></svg>