<svg xmlns="http://www.w3.org/2000/svg" xmlns:xlink="http://www.w3.org/1999/xlink" width="907" zoomAndPan="magnify" viewBox="0 0 680.25 253.499997" height="338" preserveAspectRatio="xMidYMid meet" version="1.0"><defs><g/><clipPath id="97047bf258"><rect x="0" width="117" y="0" height="49"/></clipPath><clipPath id="c2be0c7b7e"><path d="M 0.296875 22.460938 L 209 22.460938 L 209 252.257812 L 0.296875 252.257812 Z M 0.296875 22.460938 " clip-rule="nonzero"/></clipPath><clipPath id="56884612ad"><path d="M 129.648438 251.4375 L 86.019531 202.6875 C 84.273438 200.753906 82.191406 199.308594 79.773438 198.351562 C 77.351562 197.390625 74.84375 197.015625 72.25 197.230469 L 8.875 216.976562 C 7.878906 217.097656 7.085938 216.757812 6.488281 215.953125 C 5.894531 215.148438 5.800781 214.289062 6.207031 213.375 L 39.707031 155.679688 C 40.867188 153.144531 41.320312 150.488281 41.074219 147.710938 C 40.828125 144.9375 39.910156 142.402344 38.320312 140.109375 L 0.960938 86.222656 C 0.296875 85.257812 0.289062 84.289062 0.9375 83.3125 C 1.589844 82.339844 2.484375 81.972656 3.632812 82.21875 L 69.183594 95.679688 C 70.742188 96.007812 72.316406 96.105469 73.90625 95.980469 C 75.496094 95.855469 77.039062 95.511719 78.527344 94.945312 C 80.019531 94.378906 81.402344 93.613281 82.671875 92.652344 C 83.945312 91.691406 85.054688 90.570312 86.007812 89.289062 L 134.386719 23.445312 C 135.144531 22.476562 136.109375 22.179688 137.285156 22.546875 C 138.457031 22.914062 139.078125 23.710938 139.148438 24.941406 L 139.253906 105.261719 C 139.269531 106.898438 139.527344 108.5 140.027344 110.058594 C 140.527344 111.621094 141.246094 113.070312 142.1875 114.414062 C 143.128906 115.753906 144.25 116.925781 145.546875 117.925781 C 146.84375 118.925781 148.261719 119.714844 149.796875 120.285156 L 207.273438 136.132812 C 208.191406 136.464844 208.738281 137.113281 208.910156 138.074219 C 209.082031 139.035156 208.796875 139.828125 208.050781 140.457031 L 144.898438 172.917969 C 141.480469 175.792969 139.59375 179.460938 139.242188 183.914062 L 134.226562 249.929688 C 134.085938 251.046875 133.480469 251.777344 132.414062 252.128906 C 131.347656 252.480469 130.425781 252.25 129.648438 251.4375 Z M 129.648438 251.4375 " clip-rule="nonzero"/></clipPath></defs><g fill="#ffbd59" fill-opacity="1"><g transform="translate(164.177165, 95.571977)"><g><path d="M 42.71875 -15.125 C 43.71875 -15.125 44.421875 -14.757812 44.828125 -14.03125 C 45.234375 -13.300781 45.46875 -12.457031 45.53125 -11.5 C 45.601562 -10.550781 45.617188 -9.738281 45.578125 -9.0625 C 45.578125 -7.46875 45.300781 -5.941406 44.75 -4.484375 C 44.207031 -3.035156 43.34375 -1.859375 42.15625 -0.953125 C 40.976562 -0.046875 39.394531 0.40625 37.40625 0.40625 C 35.90625 0.40625 34.460938 -0.09375 33.078125 -1.09375 C 31.691406 -2.09375 30.363281 -3.382812 29.09375 -4.96875 C 27.820312 -6.5625 26.5625 -8.242188 25.3125 -10.015625 C 24.0625 -11.785156 22.800781 -13.476562 21.53125 -15.09375 C 20.257812 -16.707031 18.953125 -18.035156 17.609375 -19.078125 C 16.265625 -20.117188 14.867188 -20.660156 13.421875 -20.703125 C 13.015625 -20.660156 12.742188 -20.785156 12.609375 -21.078125 C 12.472656 -21.378906 12.472656 -21.6875 12.609375 -22 C 12.742188 -22.320312 12.992188 -22.457031 13.359375 -22.40625 C 13.859375 -22.363281 14.128906 -22.316406 14.171875 -22.265625 C 14.210938 -22.222656 14.484375 -22.203125 14.984375 -22.203125 C 17.078125 -22.203125 19.117188 -22.675781 21.109375 -23.625 C 23.109375 -24.582031 24.957031 -25.84375 26.65625 -27.40625 C 28.363281 -28.976562 29.84375 -30.726562 31.09375 -32.65625 C 32.34375 -34.59375 33.265625 -36.535156 33.859375 -38.484375 C 34.085938 -39.484375 34.050781 -40.195312 33.75 -40.625 C 33.457031 -41.0625 33.003906 -41.347656 32.390625 -41.484375 C 31.773438 -41.617188 31.082031 -41.753906 30.3125 -41.890625 C 30 -41.984375 29.851562 -42.203125 29.875 -42.546875 C 29.894531 -42.890625 30.066406 -43.0625 30.390625 -43.0625 L 43.1875 -43.0625 C 43.550781 -43.0625 43.742188 -42.890625 43.765625 -42.546875 C 43.785156 -42.203125 43.617188 -41.984375 43.265625 -41.890625 C 42.128906 -41.710938 41.207031 -41.453125 40.5 -41.109375 C 39.789062 -40.773438 39.300781 -40.148438 39.03125 -39.234375 L 39.03125 -39.3125 C 38.351562 -36.488281 37.035156 -33.828125 35.078125 -31.328125 C 33.128906 -28.835938 30.867188 -26.71875 28.296875 -24.96875 C 25.734375 -23.21875 23.132812 -22.003906 20.5 -21.328125 C 22.132812 -21.003906 23.625 -20.171875 24.96875 -18.828125 C 26.3125 -17.492188 27.570312 -15.953125 28.75 -14.203125 C 29.925781 -12.453125 31.09375 -10.722656 32.25 -9.015625 C 33.414062 -7.316406 34.632812 -5.898438 35.90625 -4.765625 C 37.175781 -3.628906 38.5625 -3.0625 40.0625 -3.0625 C 41.28125 -3.0625 42.207031 -3.445312 42.84375 -4.21875 C 43.476562 -4.988281 43.816406 -5.882812 43.859375 -6.90625 C 43.910156 -7.9375 43.597656 -8.8125 42.921875 -9.53125 C 42.285156 -10.257812 41.726562 -10.804688 41.25 -11.171875 C 40.769531 -11.535156 40.53125 -12.082031 40.53125 -12.8125 C 40.53125 -13.53125 40.769531 -14.09375 41.25 -14.5 C 41.726562 -14.914062 42.21875 -15.125 42.71875 -15.125 Z M 15.46875 -1.4375 C 15.832031 -1.382812 16 -1.1875 15.96875 -0.84375 C 15.945312 -0.507812 15.753906 -0.34375 15.390625 -0.34375 L 1.96875 -0.34375 C 1.65625 -0.34375 1.488281 -0.507812 1.46875 -0.84375 C 1.445312 -1.1875 1.59375 -1.382812 1.90625 -1.4375 C 2.675781 -1.570312 3.390625 -1.671875 4.046875 -1.734375 C 4.710938 -1.804688 5.238281 -2.046875 5.625 -2.453125 C 6.007812 -2.859375 6.203125 -3.65625 6.203125 -4.84375 L 6.203125 -38.484375 C 6.203125 -39.710938 6.007812 -40.53125 5.625 -40.9375 C 5.238281 -41.351562 4.710938 -41.582031 4.046875 -41.625 C 3.390625 -41.664062 2.675781 -41.753906 1.90625 -41.890625 C 1.59375 -41.984375 1.445312 -42.203125 1.46875 -42.546875 C 1.488281 -42.890625 1.65625 -43.0625 1.96875 -43.0625 L 15.390625 -43.0625 C 15.753906 -43.0625 15.945312 -42.890625 15.96875 -42.546875 C 16 -42.203125 15.832031 -41.984375 15.46875 -41.890625 C 14.738281 -41.753906 14.046875 -41.664062 13.390625 -41.625 C 12.734375 -41.582031 12.207031 -41.351562 11.8125 -40.9375 C 11.425781 -40.53125 11.234375 -39.710938 11.234375 -38.484375 L 11.234375 -4.84375 C 11.234375 -3.65625 11.425781 -2.859375 11.8125 -2.453125 C 12.207031 -2.046875 12.734375 -1.804688 13.390625 -1.734375 C 14.046875 -1.671875 14.738281 -1.570312 15.46875 -1.4375 Z M 15.46875 -1.4375 "/></g></g></g><g fill="#ffbd59" fill-opacity="1"><g transform="translate(226.778012, 95.571977)"><g><path d="M 48.703125 -1.09375 C 49.023438 -1.039062 49.1875 -0.890625 49.1875 -0.640625 C 49.1875 -0.390625 49.003906 -0.265625 48.640625 -0.265625 C 47.773438 -0.265625 47 -0.265625 46.3125 -0.265625 C 45.632812 -0.265625 44.910156 -0.265625 44.140625 -0.265625 L 44.140625 -0.34375 L 38.828125 -0.34375 L 38.828125 -0.265625 C 38.097656 -0.265625 37.335938 -0.265625 36.546875 -0.265625 C 35.753906 -0.265625 34.90625 -0.265625 34 -0.265625 C 33.632812 -0.265625 33.453125 -0.390625 33.453125 -0.640625 C 33.453125 -0.890625 33.609375 -1.039062 33.921875 -1.09375 C 34.691406 -1.226562 35.40625 -1.316406 36.0625 -1.359375 C 36.726562 -1.410156 37.195312 -1.601562 37.46875 -1.9375 C 37.738281 -2.28125 37.671875 -2.953125 37.265625 -3.953125 C 36.859375 -4.992188 36.4375 -6.035156 36 -7.078125 C 35.570312 -8.128906 35.128906 -9.175781 34.671875 -10.21875 L 12.125 -10.21875 L 9.53125 -3.953125 C 9.125 -2.953125 9.160156 -2.28125 9.640625 -1.9375 C 10.117188 -1.601562 10.785156 -1.410156 11.640625 -1.359375 C 12.503906 -1.316406 13.300781 -1.226562 14.03125 -1.09375 C 14.394531 -1.039062 14.566406 -0.890625 14.546875 -0.640625 C 14.523438 -0.390625 14.332031 -0.265625 13.96875 -0.265625 C 13.101562 -0.265625 12.078125 -0.265625 10.890625 -0.265625 C 9.710938 -0.265625 8.738281 -0.265625 7.96875 -0.265625 L 7.96875 -0.34375 L 6.40625 -0.34375 L 6.40625 -0.265625 C 5.675781 -0.265625 4.984375 -0.265625 4.328125 -0.265625 C 3.671875 -0.265625 2.882812 -0.265625 1.96875 -0.265625 C 1.65625 -0.265625 1.488281 -0.390625 1.46875 -0.640625 C 1.445312 -0.890625 1.59375 -1.039062 1.90625 -1.09375 C 2.675781 -1.226562 3.410156 -1.316406 4.109375 -1.359375 C 4.816406 -1.410156 5.488281 -1.640625 6.125 -2.046875 C 6.757812 -2.453125 7.304688 -3.222656 7.765625 -4.359375 C 10.304688 -10.398438 12.835938 -16.425781 15.359375 -22.4375 C 17.878906 -28.457031 20.390625 -34.488281 22.890625 -40.53125 C 23.347656 -41.570312 23.78125 -42.304688 24.1875 -42.734375 C 24.59375 -43.171875 25.382812 -43.28125 26.5625 -43.0625 L 42.984375 -3.953125 C 43.484375 -2.953125 44.023438 -2.28125 44.609375 -1.9375 C 45.203125 -1.601562 45.851562 -1.410156 46.5625 -1.359375 C 47.269531 -1.316406 47.984375 -1.226562 48.703125 -1.09375 Z M 12.8125 -11.71875 L 34 -11.71875 C 32.3125 -15.625 30.640625 -19.539062 28.984375 -23.46875 C 27.328125 -27.394531 25.679688 -31.3125 24.046875 -35.21875 C 23.546875 -36.257812 23.09375 -36.257812 22.6875 -35.21875 Z M 12.8125 -11.71875 "/></g></g></g><g fill="#ffbd59" fill-opacity="1"><g transform="translate(292.92088, 95.571977)"><g><path d="M 36.3125 -9 C 36.40625 -9.3125 36.617188 -9.457031 36.953125 -9.4375 C 37.296875 -9.414062 37.46875 -9.242188 37.46875 -8.921875 L 37.125 -0.6875 C 37.125 -0.457031 36.96875 -0.34375 36.65625 -0.34375 L 1.96875 -0.34375 C 1.613281 -0.34375 1.4375 -0.507812 1.4375 -0.84375 C 1.4375 -1.1875 1.59375 -1.382812 1.90625 -1.4375 C 2.675781 -1.570312 3.378906 -1.671875 4.015625 -1.734375 C 4.648438 -1.804688 5.160156 -2.046875 5.546875 -2.453125 C 5.929688 -2.859375 6.125 -3.65625 6.125 -4.84375 L 6.125 -38.484375 C 6.125 -39.710938 5.929688 -40.53125 5.546875 -40.9375 C 5.160156 -41.351562 4.648438 -41.582031 4.015625 -41.625 C 3.378906 -41.664062 2.675781 -41.753906 1.90625 -41.890625 C 1.59375 -41.984375 1.4375 -42.203125 1.4375 -42.546875 C 1.4375 -42.890625 1.613281 -43.0625 1.96875 -43.0625 L 15.390625 -43.0625 C 15.753906 -43.0625 15.945312 -42.890625 15.96875 -42.546875 C 16 -42.203125 15.832031 -41.984375 15.46875 -41.890625 C 14.695312 -41.753906 13.976562 -41.664062 13.3125 -41.625 C 12.65625 -41.582031 12.132812 -41.351562 11.75 -40.9375 C 11.363281 -40.53125 11.171875 -39.710938 11.171875 -38.484375 L 11.171875 -4.703125 C 11.171875 -3.703125 11.410156 -2.992188 11.890625 -2.578125 C 12.367188 -2.171875 12.96875 -1.925781 13.6875 -1.84375 L 26.5 -1.84375 C 28.863281 -1.84375 30.691406 -2.125 31.984375 -2.6875 C 33.273438 -3.257812 34.238281 -4.085938 34.875 -5.171875 C 35.507812 -6.265625 35.988281 -7.539062 36.3125 -9 Z M 36.3125 -9 "/></g></g></g><g fill="#ffbd59" fill-opacity="1"><g transform="translate(348.710157, 95.571977)"><g><path d="M 36.3125 -7.828125 C 36.40625 -8.148438 36.617188 -8.300781 36.953125 -8.28125 C 37.296875 -8.257812 37.46875 -8.085938 37.46875 -7.765625 L 37.125 -0.6875 C 37.125 -0.457031 36.96875 -0.34375 36.65625 -0.34375 L 1.96875 -0.34375 C 1.613281 -0.34375 1.4375 -0.507812 1.4375 -0.84375 C 1.4375 -1.1875 1.59375 -1.382812 1.90625 -1.4375 C 2.675781 -1.570312 3.378906 -1.671875 4.015625 -1.734375 C 4.648438 -1.804688 5.160156 -2.046875 5.546875 -2.453125 C 5.929688 -2.859375 6.125 -3.65625 6.125 -4.84375 L 6.125 -38.484375 C 6.125 -39.710938 5.929688 -40.53125 5.546875 -40.9375 C 5.160156 -41.351562 4.648438 -41.582031 4.015625 -41.625 C 3.378906 -41.664062 2.675781 -41.753906 1.90625 -41.890625 C 1.59375 -41.984375 1.4375 -42.203125 1.4375 -42.546875 C 1.4375 -42.890625 1.613281 -43.0625 1.96875 -43.0625 L 35.078125 -43.0625 C 35.398438 -43.0625 35.5625 -42.945312 35.5625 -42.71875 L 35.96875 -35.5625 C 35.96875 -35.289062 35.785156 -35.128906 35.421875 -35.078125 C 35.054688 -35.035156 34.832031 -35.175781 34.75 -35.5 C 34.425781 -36.988281 33.945312 -38.164062 33.3125 -39.03125 C 32.675781 -39.894531 31.707031 -40.519531 30.40625 -40.90625 C 29.113281 -41.289062 27.289062 -41.484375 24.9375 -41.484375 L 14.234375 -41.484375 C 13.367188 -41.484375 12.640625 -41.300781 12.046875 -40.9375 C 11.460938 -40.570312 11.171875 -39.800781 11.171875 -38.625 L 11.171875 -21.453125 L 24.734375 -21.453125 C 26.867188 -21.453125 28.273438 -21.914062 28.953125 -22.84375 C 29.628906 -23.78125 29.992188 -24.75 30.046875 -25.75 C 30.085938 -26.113281 30.289062 -26.285156 30.65625 -26.265625 C 31.019531 -26.242188 31.203125 -26.050781 31.203125 -25.6875 L 31.203125 -15.734375 C 31.203125 -15.421875 31.019531 -15.25 30.65625 -15.21875 C 30.289062 -15.195312 30.085938 -15.347656 30.046875 -15.671875 C 29.992188 -16.710938 29.628906 -17.6875 28.953125 -18.59375 C 28.273438 -19.5 26.867188 -19.953125 24.734375 -19.953125 L 11.171875 -19.953125 L 11.171875 -4.703125 C 11.171875 -3.703125 11.410156 -2.992188 11.890625 -2.578125 C 12.367188 -2.171875 12.96875 -1.925781 13.6875 -1.84375 L 27.25 -1.84375 C 29.613281 -1.84375 31.382812 -2.035156 32.5625 -2.421875 C 33.738281 -2.804688 34.578125 -3.441406 35.078125 -4.328125 C 35.578125 -5.210938 35.988281 -6.378906 36.3125 -7.828125 Z M 36.3125 -7.828125 "/></g></g></g><g fill="#ffbd59" fill-opacity="1"><g transform="translate(404.499583, 95.571977)"><g><path d="M 45.78125 -42.78125 C 46.144531 -42.78125 46.335938 -42.609375 46.359375 -42.265625 C 46.378906 -41.929688 46.207031 -41.71875 45.84375 -41.625 C 45.070312 -41.53125 44.300781 -41.445312 43.53125 -41.375 C 42.757812 -41.3125 42.113281 -41.078125 41.59375 -40.671875 C 41.070312 -40.265625 40.8125 -39.445312 40.8125 -38.21875 L 40.734375 -0.953125 C 40.734375 -0.273438 40.414062 0.0625 39.78125 0.0625 C 39.414062 0.0625 39.03125 0.0625 38.625 0.0625 C 38.21875 0.0625 37.8125 0.0625 37.40625 0.0625 C 36.8125 0.0625 36.34375 -0.0351562 36 -0.234375 C 35.664062 -0.441406 35.335938 -0.75 35.015625 -1.15625 L 8.78125 -37.609375 L 9.125 -4.5 C 9.125 -3.3125 9.347656 -2.503906 9.796875 -2.078125 C 10.253906 -1.648438 10.847656 -1.410156 11.578125 -1.359375 C 12.304688 -1.316406 13.054688 -1.226562 13.828125 -1.09375 C 14.191406 -1.039062 14.363281 -0.832031 14.34375 -0.46875 C 14.320312 -0.113281 14.128906 0.0625 13.765625 0.0625 L 1.96875 0.0625 C 1.613281 0.0625 1.4375 -0.113281 1.4375 -0.46875 C 1.4375 -0.832031 1.59375 -1.039062 1.90625 -1.09375 C 2.675781 -1.226562 3.425781 -1.328125 4.15625 -1.390625 C 4.882812 -1.460938 5.472656 -1.722656 5.921875 -2.171875 C 6.378906 -2.628906 6.609375 -3.472656 6.609375 -4.703125 L 6.953125 -38.5625 C 6.898438 -39.644531 6.671875 -40.367188 6.265625 -40.734375 C 5.859375 -41.097656 5.347656 -41.3125 4.734375 -41.375 C 4.117188 -41.445312 3.425781 -41.53125 2.65625 -41.625 C 2.34375 -41.71875 2.195312 -41.929688 2.21875 -42.265625 C 2.238281 -42.609375 2.40625 -42.78125 2.71875 -42.78125 L 9.734375 -42.78125 C 10.785156 -42.78125 11.535156 -42.628906 11.984375 -42.328125 C 12.441406 -42.035156 12.898438 -41.570312 13.359375 -40.9375 C 17.398438 -35.3125 21.460938 -29.644531 25.546875 -23.9375 C 29.628906 -18.238281 33.71875 -12.550781 37.8125 -6.875 C 38.082031 -6.46875 38.34375 -6.3125 38.59375 -6.40625 C 38.84375 -6.5 38.96875 -6.769531 38.96875 -7.21875 C 38.96875 -12.488281 38.96875 -17.722656 38.96875 -22.921875 C 38.96875 -28.117188 38.96875 -33.332031 38.96875 -38.5625 C 38.925781 -39.644531 38.640625 -40.367188 38.109375 -40.734375 C 37.585938 -41.097656 36.953125 -41.3125 36.203125 -41.375 C 35.453125 -41.445312 34.691406 -41.53125 33.921875 -41.625 C 33.609375 -41.71875 33.460938 -41.929688 33.484375 -42.265625 C 33.503906 -42.609375 33.675781 -42.78125 34 -42.78125 Z M 45.78125 -42.78125 "/></g></g></g><g fill="#ffbd59" fill-opacity="1"><g transform="translate(467.849719, 95.571977)"><g><path d="M 20.234375 -43.0625 C 25.003906 -43.0625 29.09375 -42.285156 32.5 -40.734375 C 35.90625 -39.191406 38.628906 -37.148438 40.671875 -34.609375 C 42.710938 -32.066406 44.070312 -29.285156 44.75 -26.265625 C 45.4375 -23.242188 45.4375 -20.210938 44.75 -17.171875 C 44.070312 -14.128906 42.710938 -11.332031 40.671875 -8.78125 C 38.628906 -6.238281 35.90625 -4.195312 32.5 -2.65625 C 29.09375 -1.113281 25.003906 -0.34375 20.234375 -0.34375 L 1.96875 -0.34375 C 1.613281 -0.34375 1.4375 -0.507812 1.4375 -0.84375 C 1.4375 -1.1875 1.59375 -1.382812 1.90625 -1.4375 C 2.675781 -1.570312 3.378906 -1.671875 4.015625 -1.734375 C 4.648438 -1.804688 5.160156 -2.046875 5.546875 -2.453125 C 5.929688 -2.859375 6.125 -3.65625 6.125 -4.84375 C 6.125 -7.113281 6.125 -9.703125 6.125 -12.609375 C 6.125 -15.515625 6.125 -18.53125 6.125 -21.65625 C 6.125 -24.789062 6.125 -27.820312 6.125 -30.75 C 6.125 -33.6875 6.125 -36.265625 6.125 -38.484375 C 6.125 -39.710938 5.929688 -40.53125 5.546875 -40.9375 C 5.160156 -41.351562 4.648438 -41.582031 4.015625 -41.625 C 3.378906 -41.664062 2.675781 -41.753906 1.90625 -41.890625 C 1.59375 -41.984375 1.4375 -42.203125 1.4375 -42.546875 C 1.4375 -42.890625 1.613281 -43.0625 1.96875 -43.0625 Z M 19.078125 -1.765625 C 23.117188 -1.765625 26.582031 -2.476562 29.46875 -3.90625 C 32.351562 -5.34375 34.644531 -7.238281 36.34375 -9.59375 C 38.050781 -11.957031 39.1875 -14.554688 39.75 -17.390625 C 40.320312 -20.234375 40.3125 -23.0625 39.71875 -25.875 C 39.125 -28.695312 37.960938 -31.289062 36.234375 -33.65625 C 34.515625 -36.019531 32.222656 -37.914062 29.359375 -39.34375 C 26.492188 -40.769531 23.066406 -41.484375 19.078125 -41.484375 L 14.234375 -41.484375 C 13.367188 -41.484375 12.640625 -41.300781 12.046875 -40.9375 C 11.460938 -40.570312 11.171875 -39.800781 11.171875 -38.625 L 11.171875 -4.703125 C 11.171875 -3.515625 11.476562 -2.726562 12.09375 -2.34375 C 12.707031 -1.957031 13.445312 -1.765625 14.3125 -1.765625 Z M 19.078125 -1.765625 "/></g></g></g><g fill="#ffbd59" fill-opacity="1"><g transform="translate(530.109986, 95.571977)"><g><path d="M 36.3125 -7.828125 C 36.40625 -8.148438 36.617188 -8.300781 36.953125 -8.28125 C 37.296875 -8.257812 37.46875 -8.085938 37.46875 -7.765625 L 37.125 -0.6875 C 37.125 -0.457031 36.96875 -0.34375 36.65625 -0.34375 L 1.96875 -0.34375 C 1.613281 -0.34375 1.4375 -0.507812 1.4375 -0.84375 C 1.4375 -1.1875 1.59375 -1.382812 1.90625 -1.4375 C 2.675781 -1.570312 3.378906 -1.671875 4.015625 -1.734375 C 4.648438 -1.804688 5.160156 -2.046875 5.546875 -2.453125 C 5.929688 -2.859375 6.125 -3.65625 6.125 -4.84375 L 6.125 -38.484375 C 6.125 -39.710938 5.929688 -40.53125 5.546875 -40.9375 C 5.160156 -41.351562 4.648438 -41.582031 4.015625 -41.625 C 3.378906 -41.664062 2.675781 -41.753906 1.90625 -41.890625 C 1.59375 -41.984375 1.4375 -42.203125 1.4375 -42.546875 C 1.4375 -42.890625 1.613281 -43.0625 1.96875 -43.0625 L 35.078125 -43.0625 C 35.398438 -43.0625 35.5625 -42.945312 35.5625 -42.71875 L 35.96875 -35.5625 C 35.96875 -35.289062 35.785156 -35.128906 35.421875 -35.078125 C 35.054688 -35.035156 34.832031 -35.175781 34.75 -35.5 C 34.425781 -36.988281 33.945312 -38.164062 33.3125 -39.03125 C 32.675781 -39.894531 31.707031 -40.519531 30.40625 -40.90625 C 29.113281 -41.289062 27.289062 -41.484375 24.9375 -41.484375 L 14.234375 -41.484375 C 13.367188 -41.484375 12.640625 -41.300781 12.046875 -40.9375 C 11.460938 -40.570312 11.171875 -39.800781 11.171875 -38.625 L 11.171875 -21.453125 L 24.734375 -21.453125 C 26.867188 -21.453125 28.273438 -21.914062 28.953125 -22.84375 C 29.628906 -23.78125 29.992188 -24.75 30.046875 -25.75 C 30.085938 -26.113281 30.289062 -26.285156 30.65625 -26.265625 C 31.019531 -26.242188 31.203125 -26.050781 31.203125 -25.6875 L 31.203125 -15.734375 C 31.203125 -15.421875 31.019531 -15.25 30.65625 -15.21875 C 30.289062 -15.195312 30.085938 -15.347656 30.046875 -15.671875 C 29.992188 -16.710938 29.628906 -17.6875 28.953125 -18.59375 C 28.273438 -19.5 26.867188 -19.953125 24.734375 -19.953125 L 11.171875 -19.953125 L 11.171875 -4.703125 C 11.171875 -3.703125 11.410156 -2.992188 11.890625 -2.578125 C 12.367188 -2.171875 12.96875 -1.925781 13.6875 -1.84375 L 27.25 -1.84375 C 29.613281 -1.84375 31.382812 -2.035156 32.5625 -2.421875 C 33.738281 -2.804688 34.578125 -3.441406 35.078125 -4.328125 C 35.578125 -5.210938 35.988281 -6.378906 36.3125 -7.828125 Z M 36.3125 -7.828125 "/></g></g></g><g fill="#ffbd59" fill-opacity="1"><g transform="translate(586.580617, 95.571977)"><g><path d="M 41.140625 -15.0625 C 42.140625 -15.0625 42.84375 -14.695312 43.25 -13.96875 C 43.664062 -13.238281 43.90625 -12.382812 43.96875 -11.40625 C 44.039062 -10.4375 44.054688 -9.609375 44.015625 -8.921875 C 44.015625 -7.335938 43.726562 -5.816406 43.15625 -4.359375 C 42.59375 -2.910156 41.71875 -1.71875 40.53125 -0.78125 C 39.351562 0.144531 37.765625 0.609375 35.765625 0.609375 C 33.953125 0.609375 32.335938 0.125 30.921875 -0.84375 C 29.515625 -1.820312 28.207031 -3.023438 27 -4.453125 C 25.800781 -5.890625 24.597656 -7.320312 23.390625 -8.75 C 22.191406 -10.1875 20.910156 -11.414062 19.546875 -12.4375 C 18.191406 -13.457031 16.625 -13.988281 14.84375 -14.03125 C 14.257812 -13.988281 13.953125 -14.226562 13.921875 -14.75 C 13.898438 -15.269531 14.1875 -15.484375 14.78125 -15.390625 C 15.28125 -15.347656 15.539062 -15.300781 15.5625 -15.25 C 15.582031 -15.207031 15.867188 -15.1875 16.421875 -15.1875 C 19.773438 -15.1875 22.816406 -15.6875 25.546875 -16.6875 C 28.273438 -17.6875 30.429688 -19.171875 32.015625 -21.140625 C 33.609375 -23.117188 34.40625 -25.5625 34.40625 -28.46875 C 34.40625 -32.832031 32.789062 -36.054688 29.5625 -38.140625 C 26.34375 -40.234375 21.960938 -41.28125 16.421875 -41.28125 C 15.785156 -41.28125 15.304688 -41.28125 14.984375 -41.28125 C 14.671875 -41.28125 14.398438 -41.28125 14.171875 -41.28125 L 14.375 -41.21875 C 13.507812 -41.21875 12.769531 -41.035156 12.15625 -40.671875 C 11.539062 -40.304688 11.234375 -39.535156 11.234375 -38.359375 L 11.234375 -4.5 C 11.234375 -3.3125 11.425781 -2.503906 11.8125 -2.078125 C 12.207031 -1.648438 12.734375 -1.410156 13.390625 -1.359375 C 14.046875 -1.316406 14.757812 -1.226562 15.53125 -1.09375 C 15.851562 -1.039062 16.015625 -0.832031 16.015625 -0.46875 C 16.015625 -0.113281 15.832031 0.0625 15.46875 0.0625 L 1.96875 0.0625 C 1.613281 0.0625 1.4375 -0.113281 1.4375 -0.46875 C 1.4375 -0.832031 1.59375 -1.039062 1.90625 -1.09375 C 2.675781 -1.226562 3.378906 -1.316406 4.015625 -1.359375 C 4.648438 -1.410156 5.171875 -1.648438 5.578125 -2.078125 C 5.992188 -2.503906 6.203125 -3.3125 6.203125 -4.5 L 6.203125 -38.21875 C 6.203125 -39.445312 5.992188 -40.265625 5.578125 -40.671875 C 5.171875 -41.078125 4.648438 -41.3125 4.015625 -41.375 C 3.378906 -41.445312 2.675781 -41.53125 1.90625 -41.625 C 1.59375 -41.71875 1.4375 -41.929688 1.4375 -42.265625 C 1.4375 -42.609375 1.613281 -42.78125 1.96875 -42.78125 L 21.734375 -42.78125 C 25.003906 -42.78125 28.035156 -42.242188 30.828125 -41.171875 C 33.617188 -40.109375 35.875 -38.519531 37.59375 -36.40625 C 39.320312 -34.300781 40.1875 -31.679688 40.1875 -28.546875 C 40.1875 -26.179688 39.6875 -24.125 38.6875 -22.375 C 37.695312 -20.625 36.367188 -19.179688 34.703125 -18.046875 C 33.046875 -16.910156 31.195312 -16.023438 29.15625 -15.390625 C 27.113281 -14.753906 25.023438 -14.347656 22.890625 -14.171875 C 24.296875 -13.804688 25.519531 -13.191406 26.5625 -12.328125 C 27.613281 -11.460938 28.566406 -10.492188 29.421875 -9.421875 C 30.285156 -8.359375 31.140625 -7.335938 31.984375 -6.359375 C 32.828125 -5.390625 33.722656 -4.570312 34.671875 -3.90625 C 35.628906 -3.25 36.742188 -2.921875 38.015625 -2.921875 C 39.242188 -2.921875 40.242188 -3.285156 41.015625 -4.015625 C 41.785156 -4.742188 42.226562 -5.59375 42.34375 -6.5625 C 42.457031 -7.539062 42.171875 -8.394531 41.484375 -9.125 C 40.898438 -9.851562 40.332031 -10.488281 39.78125 -11.03125 C 39.238281 -11.582031 38.96875 -12.21875 38.96875 -12.9375 C 38.96875 -13.570312 39.179688 -14.082031 39.609375 -14.46875 C 40.046875 -14.863281 40.554688 -15.0625 41.140625 -15.0625 Z M 41.140625 -15.0625 "/></g></g></g><g transform="matrix(1, 0, 0, 1, 158, 10)"><g clip-path="url(#97047bf258)"><g fill="#ffbd59" fill-opacity="1"><g transform="translate(2.895199, 32.38402)"><g><path d="M 12.796875 -27.234375 C 15.816406 -27.234375 18.398438 -26.742188 20.546875 -25.765625 C 22.703125 -24.796875 24.425781 -23.503906 25.71875 -21.890625 C 27.019531 -20.285156 27.882812 -18.523438 28.3125 -16.609375 C 28.738281 -14.703125 28.738281 -12.785156 28.3125 -10.859375 C 27.882812 -8.929688 27.019531 -7.160156 25.71875 -5.546875 C 24.425781 -3.941406 22.703125 -2.648438 20.546875 -1.671875 C 18.398438 -0.703125 15.816406 -0.21875 12.796875 -0.21875 L 1.25 -0.21875 C 1.019531 -0.21875 0.90625 -0.320312 0.90625 -0.53125 C 0.90625 -0.75 1.003906 -0.875 1.203125 -0.90625 C 1.691406 -0.988281 2.132812 -1.050781 2.53125 -1.09375 C 2.9375 -1.132812 3.257812 -1.285156 3.5 -1.546875 C 3.75 -1.804688 3.875 -2.3125 3.875 -3.0625 C 3.875 -4.5 3.875 -6.132812 3.875 -7.96875 C 3.875 -9.8125 3.875 -11.722656 3.875 -13.703125 C 3.875 -15.679688 3.875 -17.597656 3.875 -19.453125 C 3.875 -21.304688 3.875 -22.9375 3.875 -24.34375 C 3.875 -25.125 3.75 -25.640625 3.5 -25.890625 C 3.257812 -26.148438 2.9375 -26.296875 2.53125 -26.328125 C 2.132812 -26.359375 1.691406 -26.414062 1.203125 -26.5 C 1.003906 -26.5625 0.90625 -26.695312 0.90625 -26.90625 C 0.90625 -27.125 1.019531 -27.234375 1.25 -27.234375 Z M 12.0625 -1.125 C 14.625 -1.125 16.816406 -1.570312 18.640625 -2.46875 C 20.460938 -3.375 21.910156 -4.570312 22.984375 -6.0625 C 24.066406 -7.5625 24.785156 -9.207031 25.140625 -11 C 25.503906 -12.800781 25.5 -14.59375 25.125 -16.375 C 24.75 -18.15625 24.015625 -19.789062 22.921875 -21.28125 C 21.828125 -22.78125 20.375 -23.984375 18.5625 -24.890625 C 16.757812 -25.796875 14.59375 -26.25 12.0625 -26.25 L 9 -26.25 C 8.457031 -26.25 8 -26.128906 7.625 -25.890625 C 7.25 -25.660156 7.0625 -25.175781 7.0625 -24.4375 L 7.0625 -2.96875 C 7.0625 -2.226562 7.253906 -1.734375 7.640625 -1.484375 C 8.035156 -1.242188 8.503906 -1.125 9.046875 -1.125 Z M 12.0625 -1.125 "/></g></g></g><g fill="#ffbd59" fill-opacity="1"><g transform="translate(42.284134, 32.38402)"><g><path d="M 22.96875 -4.953125 C 23.03125 -5.148438 23.164062 -5.242188 23.375 -5.234375 C 23.59375 -5.222656 23.703125 -5.113281 23.703125 -4.90625 L 23.484375 -0.4375 C 23.484375 -0.289062 23.382812 -0.21875 23.1875 -0.21875 L 1.25 -0.21875 C 1.019531 -0.21875 0.90625 -0.320312 0.90625 -0.53125 C 0.90625 -0.75 1.003906 -0.875 1.203125 -0.90625 C 1.691406 -0.988281 2.132812 -1.050781 2.53125 -1.09375 C 2.9375 -1.132812 3.257812 -1.285156 3.5 -1.546875 C 3.75 -1.804688 3.875 -2.3125 3.875 -3.0625 L 3.875 -24.34375 C 3.875 -25.125 3.75 -25.640625 3.5 -25.890625 C 3.257812 -26.148438 2.9375 -26.296875 2.53125 -26.328125 C 2.132812 -26.359375 1.691406 -26.414062 1.203125 -26.5 C 1.003906 -26.5625 0.90625 -26.695312 0.90625 -26.90625 C 0.90625 -27.125 1.019531 -27.234375 1.25 -27.234375 L 22.1875 -27.234375 C 22.394531 -27.234375 22.5 -27.160156 22.5 -27.015625 L 22.75 -22.5 C 22.75 -22.320312 22.632812 -22.21875 22.40625 -22.1875 C 22.175781 -22.164062 22.035156 -22.253906 21.984375 -22.453125 C 21.773438 -23.398438 21.46875 -24.144531 21.0625 -24.6875 C 20.664062 -25.238281 20.054688 -25.632812 19.234375 -25.875 C 18.421875 -26.125 17.265625 -26.25 15.765625 -26.25 L 9 -26.25 C 8.457031 -26.25 8 -26.128906 7.625 -25.890625 C 7.25 -25.660156 7.0625 -25.175781 7.0625 -24.4375 L 7.0625 -13.578125 L 15.640625 -13.578125 C 16.992188 -13.578125 17.882812 -13.867188 18.3125 -14.453125 C 18.75 -15.046875 18.976562 -15.660156 19 -16.296875 C 19.03125 -16.523438 19.160156 -16.628906 19.390625 -16.609375 C 19.617188 -16.597656 19.734375 -16.476562 19.734375 -16.25 L 19.734375 -9.953125 C 19.734375 -9.753906 19.617188 -9.644531 19.390625 -9.625 C 19.160156 -9.613281 19.03125 -9.707031 19 -9.90625 C 18.976562 -10.570312 18.75 -11.191406 18.3125 -11.765625 C 17.882812 -12.335938 16.992188 -12.625 15.640625 -12.625 L 7.0625 -12.625 L 7.0625 -2.96875 C 7.0625 -2.34375 7.210938 -1.898438 7.515625 -1.640625 C 7.816406 -1.378906 8.195312 -1.21875 8.65625 -1.15625 L 17.234375 -1.15625 C 18.734375 -1.15625 19.851562 -1.273438 20.59375 -1.515625 C 21.34375 -1.765625 21.875 -2.171875 22.1875 -2.734375 C 22.507812 -3.296875 22.769531 -4.035156 22.96875 -4.953125 Z M 22.96875 -4.953125 "/></g></g></g><g fill="#ffbd59" fill-opacity="1"><g transform="translate(76.717142, 32.38402)"><g><path d="M 26.03125 -9.53125 C 26.664062 -9.53125 27.109375 -9.296875 27.359375 -8.828125 C 27.617188 -8.367188 27.769531 -7.832031 27.8125 -7.21875 C 27.851562 -6.601562 27.863281 -6.078125 27.84375 -5.640625 C 27.84375 -4.640625 27.660156 -3.675781 27.296875 -2.75 C 26.941406 -1.832031 26.390625 -1.078125 25.640625 -0.484375 C 24.890625 0.0976562 23.882812 0.390625 22.625 0.390625 C 21.476562 0.390625 20.457031 0.0820312 19.5625 -0.53125 C 18.675781 -1.15625 17.847656 -1.921875 17.078125 -2.828125 C 16.316406 -3.734375 15.554688 -4.632812 14.796875 -5.53125 C 14.035156 -6.4375 13.222656 -7.210938 12.359375 -7.859375 C 11.503906 -8.503906 10.515625 -8.84375 9.390625 -8.875 C 9.015625 -8.84375 8.820312 -8.992188 8.8125 -9.328125 C 8.800781 -9.660156 8.976562 -9.796875 9.34375 -9.734375 C 9.664062 -9.710938 9.832031 -9.6875 9.84375 -9.65625 C 9.863281 -9.625 10.046875 -9.609375 10.390625 -9.609375 C 12.515625 -9.609375 14.4375 -9.921875 16.15625 -10.546875 C 17.882812 -11.179688 19.25 -12.125 20.25 -13.375 C 21.257812 -14.625 21.765625 -16.171875 21.765625 -18.015625 C 21.765625 -20.773438 20.742188 -22.8125 18.703125 -24.125 C 16.660156 -25.445312 13.890625 -26.109375 10.390625 -26.109375 C 9.984375 -26.109375 9.675781 -26.109375 9.46875 -26.109375 C 9.269531 -26.109375 9.101562 -26.109375 8.96875 -26.109375 L 9.09375 -26.078125 C 8.550781 -26.078125 8.082031 -25.957031 7.6875 -25.71875 C 7.300781 -25.488281 7.109375 -25.003906 7.109375 -24.265625 L 7.109375 -2.84375 C 7.109375 -2.09375 7.226562 -1.582031 7.46875 -1.3125 C 7.71875 -1.039062 8.050781 -0.890625 8.46875 -0.859375 C 8.882812 -0.828125 9.335938 -0.769531 9.828125 -0.6875 C 10.023438 -0.65625 10.125 -0.523438 10.125 -0.296875 C 10.125 -0.0664062 10.007812 0.046875 9.78125 0.046875 L 1.25 0.046875 C 1.019531 0.046875 0.90625 -0.0664062 0.90625 -0.296875 C 0.90625 -0.523438 1.003906 -0.65625 1.203125 -0.6875 C 1.691406 -0.769531 2.132812 -0.828125 2.53125 -0.859375 C 2.9375 -0.890625 3.269531 -1.039062 3.53125 -1.3125 C 3.789062 -1.582031 3.921875 -2.09375 3.921875 -2.84375 L 3.921875 -24.171875 C 3.921875 -24.953125 3.789062 -25.46875 3.53125 -25.71875 C 3.269531 -25.976562 2.9375 -26.128906 2.53125 -26.171875 C 2.132812 -26.222656 1.691406 -26.273438 1.203125 -26.328125 C 1.003906 -26.390625 0.90625 -26.523438 0.90625 -26.734375 C 0.90625 -26.953125 1.019531 -27.0625 1.25 -27.0625 L 13.75 -27.0625 C 15.8125 -27.0625 17.726562 -26.722656 19.5 -26.046875 C 21.269531 -25.367188 22.695312 -24.363281 23.78125 -23.03125 C 24.875 -21.695312 25.421875 -20.039062 25.421875 -18.0625 C 25.421875 -16.5625 25.101562 -15.257812 24.46875 -14.15625 C 23.84375 -13.050781 23.003906 -12.140625 21.953125 -11.421875 C 20.910156 -10.703125 19.738281 -10.140625 18.4375 -9.734375 C 17.144531 -9.335938 15.828125 -9.082031 14.484375 -8.96875 C 15.367188 -8.738281 16.140625 -8.347656 16.796875 -7.796875 C 17.460938 -7.253906 18.066406 -6.644531 18.609375 -5.96875 C 19.160156 -5.289062 19.703125 -4.644531 20.234375 -4.03125 C 20.765625 -3.414062 21.332031 -2.898438 21.9375 -2.484375 C 22.539062 -2.066406 23.242188 -1.859375 24.046875 -1.859375 C 24.816406 -1.859375 25.445312 -2.085938 25.9375 -2.546875 C 26.425781 -3.003906 26.707031 -3.539062 26.78125 -4.15625 C 26.851562 -4.769531 26.675781 -5.3125 26.25 -5.78125 C 25.875 -6.238281 25.515625 -6.640625 25.171875 -6.984375 C 24.828125 -7.328125 24.65625 -7.726562 24.65625 -8.1875 C 24.65625 -8.59375 24.789062 -8.914062 25.0625 -9.15625 C 25.332031 -9.40625 25.65625 -9.53125 26.03125 -9.53125 Z M 26.03125 -9.53125 "/></g></g></g></g></g><g clip-path="url(#c2be0c7b7e)"><g clip-path="url(#56884612ad)"><path fill="#ffbd59" d="M 159.777344 326.902344 L -85.761719 189.53125 L 49.222656 -40.757812 L 294.773438 96.613281 Z M 159.777344 326.902344 " fill-opacity="1" fill-rule="nonzero"/></g></g></svg>