<svg xmlns="http://www.w3.org/2000/svg" xmlns:xlink="http://www.w3.org/1999/xlink" width="310" zoomAndPan="magnify" viewBox="0 0 232.5 95.999999" height="128" preserveAspectRatio="xMidYMid meet" version="1.0"><defs><g/><clipPath id="bd519ecad5"><path d="M 77.292969 0.101562 L 176.082031 0.101562 L 176.082031 83.175781 L 77.292969 83.175781 Z M 77.292969 0.101562 " clip-rule="nonzero"/></clipPath><clipPath id="6699b73b54"><rect x="0" width="135" y="0" height="10"/></clipPath></defs><g clip-path="url(#bd519ecad5)"><path fill="#ffbd59" d="M 79.410156 31.964844 C 79.410156 31.871094 78.585938 28.203125 78.679688 28.273438 C 78.777344 28.320312 80.421875 31.070312 80.492188 31 C 80.585938 30.953125 82.539062 29.332031 82.539062 29.332031 L 81.996094 32.246094 L 84.511719 34.222656 L 81.527344 33.65625 C 81.527344 33.65625 80.773438 36.949219 80.773438 36.855469 C 80.773438 36.761719 80.046875 33.914062 80.046875 33.914062 L 77.292969 35.042969 Z M 122.136719 6.027344 L 124.511719 7.414062 C 124.535156 7.4375 124.558594 7.460938 124.535156 7.507812 L 123.289062 10.613281 C 123.265625 10.683594 123.335938 10.730469 123.40625 10.683594 L 126.113281 8.261719 C 126.136719 8.238281 126.183594 8.238281 126.207031 8.261719 L 128.367188 10.210938 C 128.414062 10.257812 128.511719 10.210938 128.488281 10.140625 L 127.265625 7.203125 C 127.242188 7.179688 127.265625 7.132812 127.289062 7.109375 L 129.027344 5.839844 C 129.074219 5.792969 129.050781 5.722656 129.003906 5.722656 L 127.003906 5.507812 C 126.980469 5.507812 126.957031 5.484375 126.933594 5.460938 L 126.277344 2.050781 C 126.253906 1.980469 126.160156 1.980469 126.136719 2.050781 L 124.816406 5.625 C 124.816406 5.648438 124.792969 5.675781 124.769531 5.675781 C 124.488281 5.699219 122.796875 5.863281 122.183594 5.910156 C 122.089844 5.886719 122.066406 5.980469 122.136719 6.027344 Z M 126.015625 53.550781 C 126.253906 53.527344 126.417969 53.339844 126.394531 53.105469 C 126.371094 52.867188 126.183594 52.703125 125.945312 52.726562 C 124.628906 52.820312 123.289062 52.304688 122.183594 51.269531 C 120.820312 49.976562 119.996094 48.023438 120.019531 46.214844 C 120.113281 42.214844 123.148438 39.089844 124.960938 37.585938 C 130.460938 33.023438 137.75 31.28125 144.78125 29.589844 C 145.417969 29.449219 146.050781 29.28125 146.6875 29.140625 C 154.636719 27.214844 162.652344 24.582031 167.59375 18.324219 C 169.238281 16.230469 169.96875 14.234375 169.707031 12.398438 C 169.472656 10.800781 168.273438 7.882812 162.675781 6.238281 C 155.976562 4.261719 147.511719 4.546875 138.902344 7.015625 C 138.691406 7.085938 138.550781 7.296875 138.621094 7.53125 C 138.691406 7.742188 138.925781 7.882812 139.140625 7.8125 C 144.054688 6.402344 153.601562 4.425781 162.464844 7.039062 C 164.253906 7.554688 168.414062 9.152344 168.910156 12.515625 C 169.144531 14.117188 168.484375 15.878906 166.980469 17.808594 C 162.207031 23.851562 154.328125 26.4375 146.523438 28.34375 C 145.886719 28.507812 145.253906 28.648438 144.617188 28.789062 C 137.492188 30.480469 130.109375 32.246094 124.441406 36.949219 C 122.515625 38.546875 119.292969 41.863281 119.199219 46.191406 C 119.152344 48.238281 120.066406 50.421875 121.597656 51.882812 C 122.773438 52.988281 124.183594 53.597656 125.617188 53.597656 C 125.757812 53.574219 125.875 53.550781 126.015625 53.550781 Z M 102.996094 45.8125 C 103.207031 45.695312 103.277344 45.460938 103.160156 45.25 C 103.042969 45.039062 102.808594 44.96875 102.597656 45.085938 C 98.152344 47.484375 93.800781 49.578125 89.429688 48.800781 C 88.277344 48.589844 87.453125 48.210938 86.886719 47.648438 C 86.230469 46.988281 85.855469 45.957031 85.78125 44.589844 C 85.59375 41.300781 86.910156 37.867188 89.945312 33.75 C 95.941406 25.613281 104.523438 19.382812 117.789062 13.480469 C 118 13.386719 118.09375 13.152344 118 12.941406 C 117.90625 12.726562 117.667969 12.632812 117.457031 12.726562 C 104.078125 18.679688 95.402344 25.003906 89.285156 33.257812 C 86.136719 37.511719 84.773438 41.136719 84.984375 44.636719 C 85.078125 46.191406 85.523438 47.414062 86.347656 48.210938 C 87.027344 48.917969 88.015625 49.363281 89.332031 49.601562 C 90.015625 49.71875 90.699219 49.789062 91.378906 49.789062 C 95.257812 49.789062 99.09375 47.90625 102.996094 45.8125 Z M 152.707031 91.058594 C 152.917969 91.011719 153.058594 90.773438 153.011719 90.5625 L 143.066406 52.140625 C 143.019531 51.929688 142.785156 51.789062 142.570312 51.835938 C 142.359375 51.882812 142.21875 52.117188 142.265625 52.328125 L 152.214844 90.75 C 152.261719 90.941406 152.425781 91.058594 152.613281 91.058594 C 152.636719 91.082031 152.683594 91.082031 152.707031 91.058594 Z M 139.492188 49.386719 L 132.15625 51.339844 C 132.015625 51.386719 132.015625 51.597656 132.15625 51.621094 L 139.515625 53.691406 C 139.585938 53.714844 139.632812 53.785156 139.632812 53.878906 L 138.316406 60.039062 C 138.292969 60.207031 138.480469 60.300781 138.574219 60.160156 L 143.042969 54.164062 C 143.089844 54.113281 143.160156 54.089844 143.207031 54.113281 L 149.625 56.371094 C 149.769531 56.417969 149.886719 56.253906 149.792969 56.136719 L 145.160156 50.871094 C 145.113281 50.824219 145.113281 50.753906 145.136719 50.707031 L 147.488281 46.425781 C 147.558594 46.308594 147.417969 46.167969 147.296875 46.214844 L 143.207031 48 C 143.136719 48.023438 143.042969 48 143.019531 47.929688 L 139.445312 39.960938 C 139.375 39.816406 139.140625 39.863281 139.164062 40.03125 L 139.585938 49.269531 C 139.609375 49.316406 139.5625 49.363281 139.492188 49.386719 Z M 115.953125 16.632812 C 115.507812 16.632812 115.152344 16.984375 115.152344 17.429688 C 115.152344 17.878906 115.507812 18.230469 115.953125 18.230469 C 116.398438 18.230469 116.753906 17.878906 116.753906 17.429688 C 116.753906 16.984375 116.398438 16.632812 115.953125 16.632812 Z M 145.488281 9.765625 C 145.042969 9.765625 144.6875 10.117188 144.6875 10.566406 C 144.6875 11.011719 145.042969 11.363281 145.488281 11.363281 C 145.933594 11.363281 146.289062 11.011719 146.289062 10.566406 C 146.3125 10.117188 145.933594 9.765625 145.488281 9.765625 Z M 139.492188 33.75 C 139.042969 33.75 138.691406 34.105469 138.691406 34.550781 C 138.691406 34.996094 139.042969 35.351562 139.492188 35.351562 C 139.9375 35.351562 140.292969 34.996094 140.292969 34.550781 C 140.292969 34.105469 139.9375 33.75 139.492188 33.75 Z M 134.058594 46.589844 C 133.613281 46.589844 133.261719 46.941406 133.261719 47.390625 C 133.261719 47.835938 133.613281 48.1875 134.058594 48.1875 C 134.507812 48.1875 134.859375 47.835938 134.859375 47.390625 C 134.859375 46.941406 134.507812 46.589844 134.058594 46.589844 Z M 112.707031 48.707031 C 112.261719 48.707031 111.910156 49.058594 111.910156 49.507812 C 111.910156 49.953125 112.261719 50.304688 112.707031 50.304688 C 113.15625 50.304688 113.507812 49.953125 113.507812 49.507812 C 113.507812 49.058594 113.15625 48.707031 112.707031 48.707031 Z M 118.75 52.75 C 118.304688 52.75 117.953125 53.105469 117.953125 53.550781 C 117.953125 53.996094 118.304688 54.351562 118.75 54.351562 C 119.199219 54.351562 119.550781 53.996094 119.550781 53.550781 C 119.550781 53.105469 119.199219 52.75 118.75 52.75 Z M 117.953125 39.605469 C 117.503906 39.605469 117.152344 39.960938 117.152344 40.40625 C 117.152344 40.851562 117.503906 41.207031 117.953125 41.207031 C 118.398438 41.207031 118.75 40.851562 118.75 40.40625 C 118.75 39.960938 118.398438 39.605469 117.953125 39.605469 Z M 134.578125 33.234375 C 134.128906 33.234375 133.777344 33.585938 133.777344 34.035156 C 133.777344 34.480469 134.128906 34.832031 134.578125 34.832031 C 135.023438 34.832031 135.375 34.480469 135.375 34.035156 C 135.375 33.585938 135.023438 33.234375 134.578125 33.234375 Z M 157.738281 9.175781 C 157.292969 9.175781 156.941406 9.53125 156.941406 9.976562 C 156.941406 10.425781 157.292969 10.777344 157.738281 10.777344 C 158.1875 10.777344 158.539062 10.425781 158.539062 9.976562 C 158.539062 9.53125 158.164062 9.175781 157.738281 9.175781 Z M 134.222656 3.652344 C 133.777344 3.652344 133.425781 4.003906 133.425781 4.449219 C 133.425781 4.898438 133.777344 5.25 134.222656 5.25 C 134.671875 5.25 135.023438 4.898438 135.023438 4.449219 C 135.023438 4.003906 134.671875 3.652344 134.222656 3.652344 Z M 151.742188 1.371094 C 151.296875 1.371094 150.945312 1.722656 150.945312 2.171875 C 150.945312 2.617188 151.296875 2.96875 151.742188 2.96875 C 152.191406 2.96875 152.542969 2.617188 152.542969 2.171875 C 152.542969 1.722656 152.167969 1.371094 151.742188 1.371094 Z M 163.007812 24.039062 C 162.558594 24.039062 162.207031 24.390625 162.207031 24.839844 C 162.207031 25.285156 162.558594 25.636719 163.007812 25.636719 C 163.453125 25.636719 163.804688 25.285156 163.804688 24.839844 C 163.804688 24.390625 163.453125 24.039062 163.007812 24.039062 Z M 146.097656 21.875 C 145.652344 21.875 145.300781 22.230469 145.300781 22.675781 C 145.300781 23.121094 145.652344 23.476562 146.097656 23.476562 C 146.546875 23.476562 146.898438 23.121094 146.898438 22.675781 C 146.898438 22.253906 146.546875 21.875 146.097656 21.875 Z M 175.328125 16.113281 C 174.882812 16.113281 174.527344 16.46875 174.527344 16.914062 C 174.527344 17.359375 174.882812 17.714844 175.328125 17.714844 C 175.777344 17.714844 176.128906 17.359375 176.128906 16.914062 C 176.128906 16.492188 175.777344 16.113281 175.328125 16.113281 Z M 88.769531 37.136719 C 88.324219 37.136719 87.96875 37.488281 87.96875 37.9375 C 87.96875 38.382812 88.324219 38.734375 88.769531 38.734375 C 89.214844 38.734375 89.570312 38.382812 89.570312 37.9375 C 89.570312 37.488281 89.214844 37.136719 88.769531 37.136719 Z M 78.917969 52.585938 C 78.46875 52.585938 78.117188 52.9375 78.117188 53.386719 C 78.117188 53.832031 78.46875 54.1875 78.917969 54.1875 C 79.363281 54.1875 79.714844 53.832031 79.714844 53.386719 C 79.714844 52.9375 79.363281 52.585938 78.917969 52.585938 Z M 89.476562 42.78125 C 89.027344 42.78125 88.675781 43.132812 88.675781 43.582031 C 88.675781 44.027344 89.027344 44.378906 89.476562 44.378906 C 89.921875 44.378906 90.273438 44.027344 90.273438 43.582031 C 90.273438 43.132812 89.921875 42.78125 89.476562 42.78125 Z M 79.011719 43.34375 C 78.5625 43.34375 78.210938 43.699219 78.210938 44.144531 C 78.210938 44.589844 78.5625 44.945312 79.011719 44.945312 C 79.457031 44.945312 79.808594 44.589844 79.808594 44.144531 C 79.808594 43.699219 79.457031 43.34375 79.011719 43.34375 Z M 83.03125 47.320312 C 82.585938 47.320312 82.230469 47.671875 82.230469 48.117188 C 82.230469 48.566406 82.585938 48.917969 83.03125 48.917969 C 83.476562 48.917969 83.832031 48.566406 83.832031 48.117188 C 83.832031 47.671875 83.476562 47.320312 83.03125 47.320312 Z M 93.800781 22.324219 C 93.355469 22.324219 93.003906 22.675781 93.003906 23.121094 C 93.003906 23.570312 93.355469 23.921875 93.800781 23.921875 C 94.25 23.921875 94.601562 23.570312 94.601562 23.121094 C 94.601562 22.675781 94.25 22.324219 93.800781 22.324219 Z M 116.351562 7.460938 C 115.90625 7.460938 115.554688 7.8125 115.554688 8.261719 C 115.554688 8.707031 115.90625 9.058594 116.351562 9.058594 C 116.800781 9.058594 117.152344 8.707031 117.152344 8.261719 C 117.152344 7.8125 116.800781 7.460938 116.351562 7.460938 Z M 157.480469 0.171875 C 157.035156 0.171875 156.679688 0.523438 156.679688 0.972656 C 156.679688 1.417969 157.035156 1.769531 157.480469 1.769531 C 157.925781 1.769531 158.28125 1.417969 158.28125 0.972656 C 158.28125 0.523438 157.925781 0.171875 157.480469 0.171875 Z M 106.265625 12.964844 C 105.816406 12.964844 105.464844 13.316406 105.464844 13.761719 C 105.464844 14.210938 105.816406 14.5625 106.265625 14.5625 C 106.710938 14.5625 107.0625 14.210938 107.0625 13.761719 C 107.085938 13.339844 106.710938 12.964844 106.265625 12.964844 Z M 110.710938 5.0625 C 110.261719 5.0625 109.910156 5.414062 109.910156 5.863281 C 109.910156 6.308594 110.261719 6.660156 110.710938 6.660156 C 111.15625 6.660156 111.507812 6.308594 111.507812 5.863281 C 111.507812 5.414062 111.15625 5.0625 110.710938 5.0625 Z M 114.542969 23.945312 C 114.09375 23.945312 113.742188 24.296875 113.742188 24.746094 C 113.742188 25.191406 114.09375 25.542969 114.542969 25.542969 C 114.988281 25.542969 115.339844 25.191406 115.339844 24.746094 C 115.339844 24.296875 114.988281 23.945312 114.542969 23.945312 Z M 165.289062 7.578125 C 164.839844 7.578125 164.488281 7.929688 164.488281 8.378906 C 164.488281 8.824219 164.839844 9.175781 165.289062 9.175781 C 165.734375 9.175781 166.085938 8.824219 166.085938 8.378906 C 166.085938 7.929688 165.734375 7.578125 165.289062 7.578125 Z M 161.335938 13.976562 C 160.890625 13.976562 160.539062 14.328125 160.539062 14.773438 C 160.539062 15.222656 160.890625 15.574219 161.335938 15.574219 C 161.785156 15.574219 162.136719 15.222656 162.136719 14.773438 C 162.136719 14.328125 161.785156 13.976562 161.335938 13.976562 Z M 152.214844 30.789062 C 151.765625 30.789062 151.414062 31.140625 151.414062 31.585938 C 151.414062 32.035156 151.765625 32.386719 152.214844 32.386719 C 152.660156 32.386719 153.011719 32.035156 153.011719 31.585938 C 153.011719 31.140625 152.660156 30.789062 152.214844 30.789062 Z M 159.644531 32.082031 C 159.199219 32.082031 158.84375 32.433594 158.84375 32.882812 C 158.84375 33.328125 159.199219 33.679688 159.644531 33.679688 C 160.089844 33.679688 160.445312 33.328125 160.445312 32.882812 C 160.445312 32.433594 160.089844 32.082031 159.644531 32.082031 Z M 143.066406 26.789062 C 142.621094 26.789062 142.265625 27.144531 142.265625 27.589844 C 142.265625 28.035156 142.621094 28.390625 143.066406 28.390625 C 143.511719 28.390625 143.867188 28.035156 143.867188 27.589844 C 143.867188 27.144531 143.511719 26.789062 143.066406 26.789062 Z M 151.742188 20.441406 C 151.296875 20.441406 150.945312 20.792969 150.945312 21.242188 C 150.945312 21.6875 151.296875 22.039062 151.742188 22.039062 C 152.191406 22.039062 152.542969 21.6875 152.542969 21.242188 C 152.542969 20.792969 152.167969 20.441406 151.742188 20.441406 Z M 129.144531 39.394531 C 128.699219 39.394531 128.34375 39.746094 128.34375 40.195312 C 128.34375 40.640625 128.699219 40.992188 129.144531 40.992188 C 129.589844 40.992188 129.945312 40.640625 129.945312 40.195312 C 129.945312 39.746094 129.589844 39.394531 129.144531 39.394531 Z M 144.289062 40.59375 C 143.84375 40.59375 143.488281 40.945312 143.488281 41.394531 C 143.488281 41.839844 143.84375 42.191406 144.289062 42.191406 C 144.734375 42.191406 145.089844 41.839844 145.089844 41.394531 C 145.113281 40.945312 144.734375 40.59375 144.289062 40.59375 Z M 136.222656 41.0625 C 135.777344 41.0625 135.421875 41.417969 135.421875 41.863281 C 135.421875 42.3125 135.777344 42.664062 136.222656 42.664062 C 136.667969 42.664062 137.023438 42.3125 137.023438 41.863281 C 137.023438 41.417969 136.667969 41.0625 136.222656 41.0625 Z M 170.71875 17.808594 C 170.273438 17.808594 169.921875 18.160156 169.921875 18.605469 C 169.921875 19.054688 170.273438 19.40625 170.71875 19.40625 C 171.167969 19.40625 171.519531 19.054688 171.519531 18.605469 C 171.519531 18.160156 171.167969 17.808594 170.71875 17.808594 Z M 100.761719 33.398438 C 100.316406 33.398438 99.960938 33.75 99.960938 34.199219 C 99.960938 34.644531 100.316406 34.996094 100.761719 34.996094 C 101.207031 34.996094 101.5625 34.644531 101.5625 34.199219 C 101.5625 33.75 101.207031 33.398438 100.761719 33.398438 Z M 87.195312 28.8125 C 86.746094 28.8125 86.394531 29.164062 86.394531 29.613281 C 86.394531 30.058594 86.746094 30.410156 87.195312 30.410156 C 87.640625 30.410156 87.992188 30.058594 87.992188 29.613281 C 87.992188 29.164062 87.640625 28.8125 87.195312 28.8125 Z M 89.476562 19.359375 C 89.027344 19.359375 88.675781 19.710938 88.675781 20.160156 C 88.675781 20.605469 89.027344 20.957031 89.476562 20.957031 C 89.921875 20.957031 90.273438 20.605469 90.273438 20.160156 C 90.296875 19.710938 89.921875 19.359375 89.476562 19.359375 Z M 89.476562 19.359375 " fill-opacity="1" fill-rule="nonzero"/></g><g fill="#ffbd59" fill-opacity="1"><g transform="translate(9.356386, 82.983801)"><g><path d="M 6.3125 -8.5625 C 7.039062 -8.40625 7.789062 -8.234375 8.5625 -8.046875 C 9.34375 -7.867188 10.0625 -7.625 10.71875 -7.3125 C 11.375 -7 11.910156 -6.570312 12.328125 -6.03125 C 12.742188 -5.5 12.953125 -4.8125 12.953125 -3.96875 C 12.953125 -2.976562 12.660156 -2.164062 12.078125 -1.53125 C 11.503906 -0.90625 10.765625 -0.445312 9.859375 -0.15625 C 8.960938 0.132812 8.007812 0.28125 7 0.28125 C 5.75 0.28125 4.617188 0.113281 3.609375 -0.21875 C 2.609375 -0.5625 1.632812 -1.171875 0.6875 -2.046875 C 0.488281 -2.253906 0.429688 -2.445312 0.515625 -2.625 C 0.597656 -2.800781 0.722656 -2.890625 0.890625 -2.890625 C 1.046875 -2.890625 1.1875 -2.804688 1.3125 -2.640625 C 1.71875 -2.078125 2.226562 -1.609375 2.84375 -1.234375 C 3.457031 -0.867188 4.097656 -0.601562 4.765625 -0.4375 C 5.441406 -0.28125 6.078125 -0.210938 6.671875 -0.234375 C 7.566406 -0.265625 8.359375 -0.445312 9.046875 -0.78125 C 9.734375 -1.113281 10.265625 -1.539062 10.640625 -2.0625 C 11.023438 -2.582031 11.210938 -3.125 11.203125 -3.6875 C 11.203125 -4.257812 10.957031 -4.785156 10.46875 -5.265625 C 9.976562 -5.742188 9.195312 -6.109375 8.125 -6.359375 C 7.394531 -6.546875 6.617188 -6.722656 5.796875 -6.890625 C 4.972656 -7.054688 4.207031 -7.273438 3.5 -7.546875 C 2.789062 -7.828125 2.210938 -8.210938 1.765625 -8.703125 C 1.328125 -9.191406 1.109375 -9.832031 1.109375 -10.625 C 1.109375 -11.570312 1.363281 -12.34375 1.875 -12.9375 C 2.394531 -13.539062 3.066406 -13.976562 3.890625 -14.25 C 4.722656 -14.53125 5.59375 -14.671875 6.5 -14.671875 C 7.519531 -14.671875 8.515625 -14.5 9.484375 -14.15625 C 9.816406 -14.070312 10.175781 -13.914062 10.5625 -13.6875 L 10.609375 -13.6875 C 10.804688 -13.5625 10.984375 -13.429688 11.140625 -13.296875 C 11.304688 -13.171875 11.441406 -13.046875 11.546875 -12.921875 C 11.867188 -12.535156 11.957031 -12.203125 11.8125 -11.921875 C 11.675781 -11.640625 11.472656 -11.5 11.203125 -11.5 C 11.097656 -11.5 10.976562 -11.53125 10.84375 -11.59375 C 10.71875 -11.664062 10.609375 -11.78125 10.515625 -11.9375 C 10.390625 -12.144531 10.300781 -12.359375 10.25 -12.578125 C 10.207031 -12.804688 10.101562 -13.023438 9.9375 -13.234375 C 9.78125 -13.453125 9.46875 -13.65625 9 -13.84375 C 8.257812 -14.070312 7.460938 -14.1875 6.609375 -14.1875 C 5.929688 -14.1875 5.296875 -14.09375 4.703125 -13.90625 C 4.109375 -13.726562 3.625 -13.4375 3.25 -13.03125 C 2.882812 -12.625 2.703125 -12.09375 2.703125 -11.4375 C 2.703125 -11.050781 2.796875 -10.675781 2.984375 -10.3125 C 3.171875 -9.957031 3.519531 -9.628906 4.03125 -9.328125 C 4.550781 -9.035156 5.3125 -8.78125 6.3125 -8.5625 Z M 6.3125 -8.5625 "/></g></g></g><g fill="#ffbd59" fill-opacity="1"><g transform="translate(28.010754, 82.983801)"><g><path d="M 13.515625 -14.296875 L 13.640625 -11.640625 C 13.648438 -11.523438 13.59375 -11.460938 13.46875 -11.453125 C 13.351562 -11.453125 13.28125 -11.503906 13.25 -11.609375 C 13.15625 -12.085938 13.070312 -12.472656 13 -12.765625 C 12.9375 -13.066406 12.816406 -13.296875 12.640625 -13.453125 C 12.460938 -13.617188 12.191406 -13.734375 11.828125 -13.796875 C 11.472656 -13.859375 10.96875 -13.890625 10.3125 -13.890625 L 8.921875 -13.890625 C 8.640625 -13.890625 8.394531 -13.828125 8.1875 -13.703125 C 7.988281 -13.578125 7.890625 -13.316406 7.890625 -12.921875 L 7.890625 -1.515625 C 7.890625 -1.117188 7.957031 -0.847656 8.09375 -0.703125 C 8.238281 -0.554688 8.421875 -0.472656 8.640625 -0.453125 C 8.859375 -0.441406 9.09375 -0.414062 9.34375 -0.375 C 9.46875 -0.351562 9.523438 -0.28125 9.515625 -0.15625 C 9.503906 -0.0390625 9.4375 0.015625 9.3125 0.015625 L 4.796875 0.015625 C 4.671875 0.015625 4.601562 -0.0390625 4.59375 -0.15625 C 4.59375 -0.28125 4.644531 -0.351562 4.75 -0.375 C 5.007812 -0.414062 5.25 -0.441406 5.46875 -0.453125 C 5.695312 -0.472656 5.875 -0.554688 6 -0.703125 C 6.132812 -0.847656 6.203125 -1.117188 6.203125 -1.515625 L 6.203125 -12.921875 C 6.203125 -13.316406 6.097656 -13.578125 5.890625 -13.703125 C 5.691406 -13.828125 5.457031 -13.890625 5.1875 -13.890625 L 3.8125 -13.890625 C 3.15625 -13.890625 2.644531 -13.859375 2.28125 -13.796875 C 1.925781 -13.734375 1.660156 -13.617188 1.484375 -13.453125 C 1.304688 -13.296875 1.179688 -13.066406 1.109375 -12.765625 C 1.046875 -12.472656 0.96875 -12.085938 0.875 -11.609375 C 0.851562 -11.503906 0.773438 -11.453125 0.640625 -11.453125 C 0.515625 -11.460938 0.460938 -11.523438 0.484375 -11.640625 L 0.59375 -14.296875 C 0.59375 -14.378906 0.644531 -14.421875 0.75 -14.421875 L 13.359375 -14.421875 C 13.460938 -14.421875 13.515625 -14.378906 13.515625 -14.296875 Z M 13.515625 -14.296875 "/></g></g></g><g fill="#ffbd59" fill-opacity="1"><g transform="translate(47.376352, 82.983801)"><g><path d="M 12.234375 -2.640625 C 12.265625 -2.742188 12.335938 -2.789062 12.453125 -2.78125 C 12.566406 -2.78125 12.625 -2.722656 12.625 -2.609375 L 12.515625 -0.234375 C 12.515625 -0.148438 12.457031 -0.109375 12.34375 -0.109375 L 0.671875 -0.109375 C 0.546875 -0.109375 0.484375 -0.164062 0.484375 -0.28125 C 0.484375 -0.394531 0.535156 -0.460938 0.640625 -0.484375 C 0.898438 -0.523438 1.132812 -0.554688 1.34375 -0.578125 C 1.5625 -0.609375 1.734375 -0.691406 1.859375 -0.828125 C 1.992188 -0.960938 2.0625 -1.226562 2.0625 -1.625 L 2.0625 -12.96875 C 2.0625 -13.382812 1.992188 -13.660156 1.859375 -13.796875 C 1.734375 -13.929688 1.5625 -14.003906 1.34375 -14.015625 C 1.132812 -14.035156 0.898438 -14.066406 0.640625 -14.109375 C 0.535156 -14.140625 0.484375 -14.210938 0.484375 -14.328125 C 0.484375 -14.441406 0.546875 -14.5 0.671875 -14.5 L 11.828125 -14.5 C 11.929688 -14.5 11.984375 -14.460938 11.984375 -14.390625 L 12.125 -11.984375 C 12.125 -11.890625 12.0625 -11.832031 11.9375 -11.8125 C 11.8125 -11.800781 11.734375 -11.847656 11.703125 -11.953125 C 11.597656 -12.460938 11.4375 -12.863281 11.21875 -13.15625 C 11.007812 -13.445312 10.6875 -13.65625 10.25 -13.78125 C 9.8125 -13.914062 9.195312 -13.984375 8.40625 -13.984375 L 4.796875 -13.984375 C 4.503906 -13.984375 4.257812 -13.921875 4.0625 -13.796875 C 3.863281 -13.671875 3.765625 -13.410156 3.765625 -13.015625 L 3.765625 -7.234375 L 8.328125 -7.234375 C 9.046875 -7.234375 9.519531 -7.390625 9.75 -7.703125 C 9.976562 -8.015625 10.101562 -8.335938 10.125 -8.671875 C 10.132812 -8.796875 10.203125 -8.851562 10.328125 -8.84375 C 10.453125 -8.84375 10.515625 -8.78125 10.515625 -8.65625 L 10.515625 -5.296875 C 10.515625 -5.191406 10.453125 -5.132812 10.328125 -5.125 C 10.203125 -5.125 10.132812 -5.175781 10.125 -5.28125 C 10.101562 -5.632812 9.976562 -5.960938 9.75 -6.265625 C 9.519531 -6.566406 9.046875 -6.71875 8.328125 -6.71875 L 3.765625 -6.71875 L 3.765625 -1.578125 C 3.765625 -1.242188 3.84375 -1.007812 4 -0.875 C 4.164062 -0.738281 4.367188 -0.65625 4.609375 -0.625 L 9.1875 -0.625 C 9.976562 -0.625 10.570312 -0.6875 10.96875 -0.8125 C 11.363281 -0.945312 11.644531 -1.160156 11.8125 -1.453125 C 11.988281 -1.753906 12.128906 -2.148438 12.234375 -2.640625 Z M 12.234375 -2.640625 "/></g></g></g><g fill="#ffbd59" fill-opacity="1"><g transform="translate(65.70951, 82.983801)"><g><path d="M 13.859375 -5.078125 C 14.203125 -5.078125 14.441406 -4.953125 14.578125 -4.703125 C 14.710938 -4.460938 14.789062 -4.175781 14.8125 -3.84375 C 14.832031 -3.507812 14.835938 -3.226562 14.828125 -3 C 14.828125 -2.46875 14.726562 -1.957031 14.53125 -1.46875 C 14.34375 -0.976562 14.050781 -0.578125 13.65625 -0.265625 C 13.257812 0.046875 12.722656 0.203125 12.046875 0.203125 C 11.429688 0.203125 10.882812 0.0390625 10.40625 -0.28125 C 9.9375 -0.613281 9.5 -1.019531 9.09375 -1.5 C 8.695312 -1.976562 8.296875 -2.457031 7.890625 -2.9375 C 7.484375 -3.425781 7.050781 -3.84375 6.59375 -4.1875 C 6.132812 -4.53125 5.601562 -4.710938 5 -4.734375 C 4.800781 -4.710938 4.695312 -4.789062 4.6875 -4.96875 C 4.6875 -5.144531 4.785156 -5.21875 4.984375 -5.1875 C 5.148438 -5.175781 5.234375 -5.160156 5.234375 -5.140625 C 5.242188 -5.128906 5.34375 -5.125 5.53125 -5.125 C 6.664062 -5.125 7.691406 -5.289062 8.609375 -5.625 C 9.523438 -5.957031 10.25 -6.457031 10.78125 -7.125 C 11.320312 -7.789062 11.59375 -8.613281 11.59375 -9.59375 C 11.59375 -11.0625 11.046875 -12.144531 9.953125 -12.84375 C 8.867188 -13.550781 7.394531 -13.90625 5.53125 -13.90625 C 5.3125 -13.90625 5.148438 -13.90625 5.046875 -13.90625 C 4.941406 -13.90625 4.851562 -13.90625 4.78125 -13.90625 L 4.84375 -13.890625 C 4.550781 -13.890625 4.300781 -13.828125 4.09375 -13.703125 C 3.882812 -13.578125 3.78125 -13.316406 3.78125 -12.921875 L 3.78125 -1.515625 C 3.78125 -1.117188 3.84375 -0.847656 3.96875 -0.703125 C 4.101562 -0.554688 4.28125 -0.472656 4.5 -0.453125 C 4.726562 -0.441406 4.972656 -0.414062 5.234375 -0.375 C 5.335938 -0.351562 5.390625 -0.28125 5.390625 -0.15625 C 5.390625 -0.0390625 5.328125 0.015625 5.203125 0.015625 L 0.671875 0.015625 C 0.546875 0.015625 0.484375 -0.0390625 0.484375 -0.15625 C 0.484375 -0.28125 0.535156 -0.351562 0.640625 -0.375 C 0.898438 -0.414062 1.132812 -0.441406 1.34375 -0.453125 C 1.5625 -0.472656 1.738281 -0.554688 1.875 -0.703125 C 2.019531 -0.847656 2.09375 -1.117188 2.09375 -1.515625 L 2.09375 -12.875 C 2.09375 -13.289062 2.019531 -13.566406 1.875 -13.703125 C 1.738281 -13.835938 1.5625 -13.914062 1.34375 -13.9375 C 1.132812 -13.96875 0.898438 -14 0.640625 -14.03125 C 0.535156 -14.050781 0.484375 -14.117188 0.484375 -14.234375 C 0.484375 -14.359375 0.546875 -14.421875 0.671875 -14.421875 L 7.328125 -14.421875 C 8.421875 -14.421875 9.4375 -14.238281 10.375 -13.875 C 11.320312 -13.507812 12.085938 -12.972656 12.671875 -12.265625 C 13.253906 -11.554688 13.546875 -10.675781 13.546875 -9.625 C 13.546875 -8.820312 13.375 -8.125 13.03125 -7.53125 C 12.695312 -6.945312 12.25 -6.460938 11.6875 -6.078125 C 11.132812 -5.703125 10.515625 -5.40625 9.828125 -5.1875 C 9.140625 -4.96875 8.4375 -4.832031 7.71875 -4.78125 C 8.1875 -4.65625 8.597656 -4.445312 8.953125 -4.15625 C 9.304688 -3.863281 9.628906 -3.535156 9.921875 -3.171875 C 10.210938 -2.816406 10.5 -2.472656 10.78125 -2.140625 C 11.0625 -1.816406 11.363281 -1.539062 11.6875 -1.3125 C 12.007812 -1.09375 12.382812 -0.984375 12.8125 -0.984375 C 13.21875 -0.984375 13.550781 -1.101562 13.8125 -1.34375 C 14.070312 -1.59375 14.222656 -1.878906 14.265625 -2.203125 C 14.304688 -2.535156 14.210938 -2.828125 13.984375 -3.078125 C 13.785156 -3.316406 13.59375 -3.53125 13.40625 -3.71875 C 13.21875 -3.90625 13.125 -4.117188 13.125 -4.359375 C 13.125 -4.578125 13.195312 -4.75 13.34375 -4.875 C 13.488281 -5.007812 13.660156 -5.078125 13.859375 -5.078125 Z M 13.859375 -5.078125 "/></g></g></g><g fill="#ffbd59" fill-opacity="1"><g transform="translate(86.268142, 82.983801)"><g><path d="M 15.421875 -14.421875 C 15.546875 -14.421875 15.609375 -14.359375 15.609375 -14.234375 C 15.617188 -14.117188 15.566406 -14.050781 15.453125 -14.03125 C 15.191406 -14 14.929688 -13.96875 14.671875 -13.9375 C 14.410156 -13.914062 14.191406 -13.835938 14.015625 -13.703125 C 13.835938 -13.566406 13.75 -13.289062 13.75 -12.875 L 13.71875 -0.328125 C 13.71875 -0.0976562 13.613281 0.015625 13.40625 0.015625 C 13.28125 0.015625 13.148438 0.015625 13.015625 0.015625 C 12.878906 0.015625 12.738281 0.015625 12.59375 0.015625 C 12.394531 0.015625 12.238281 -0.015625 12.125 -0.078125 C 12.007812 -0.148438 11.898438 -0.253906 11.796875 -0.390625 L 2.96875 -12.671875 L 3.078125 -1.515625 C 3.078125 -1.117188 3.148438 -0.847656 3.296875 -0.703125 C 3.453125 -0.554688 3.648438 -0.472656 3.890625 -0.453125 C 4.140625 -0.441406 4.394531 -0.414062 4.65625 -0.375 C 4.78125 -0.351562 4.835938 -0.28125 4.828125 -0.15625 C 4.816406 -0.0390625 4.753906 0.015625 4.640625 0.015625 L 0.671875 0.015625 C 0.546875 0.015625 0.484375 -0.0390625 0.484375 -0.15625 C 0.484375 -0.28125 0.535156 -0.351562 0.640625 -0.375 C 0.898438 -0.414062 1.148438 -0.445312 1.390625 -0.46875 C 1.640625 -0.488281 1.835938 -0.578125 1.984375 -0.734375 C 2.140625 -0.890625 2.21875 -1.171875 2.21875 -1.578125 L 2.34375 -12.984375 C 2.320312 -13.359375 2.242188 -13.601562 2.109375 -13.71875 C 1.972656 -13.84375 1.800781 -13.914062 1.59375 -13.9375 C 1.382812 -13.96875 1.148438 -14 0.890625 -14.03125 C 0.785156 -14.050781 0.734375 -14.117188 0.734375 -14.234375 C 0.742188 -14.359375 0.804688 -14.421875 0.921875 -14.421875 L 3.28125 -14.421875 C 3.632812 -14.421875 3.882812 -14.367188 4.03125 -14.265625 C 4.1875 -14.160156 4.34375 -14.003906 4.5 -13.796875 C 5.863281 -11.898438 7.234375 -9.988281 8.609375 -8.0625 C 9.984375 -6.144531 11.359375 -4.226562 12.734375 -2.3125 C 12.828125 -2.175781 12.914062 -2.125 13 -2.15625 C 13.082031 -2.1875 13.125 -2.28125 13.125 -2.4375 C 13.125 -4.207031 13.125 -5.96875 13.125 -7.71875 C 13.125 -9.476562 13.125 -11.234375 13.125 -12.984375 C 13.113281 -13.359375 13.019531 -13.601562 12.84375 -13.71875 C 12.664062 -13.84375 12.453125 -13.914062 12.203125 -13.9375 C 11.953125 -13.96875 11.695312 -14 11.4375 -14.03125 C 11.320312 -14.050781 11.269531 -14.117188 11.28125 -14.234375 C 11.289062 -14.359375 11.347656 -14.421875 11.453125 -14.421875 Z M 15.421875 -14.421875 "/></g></g></g><g fill="#ffbd59" fill-opacity="1"><g transform="translate(107.60683, 82.983801)"><g><path d="M 12.234375 -2.640625 C 12.265625 -2.742188 12.335938 -2.789062 12.453125 -2.78125 C 12.566406 -2.78125 12.625 -2.722656 12.625 -2.609375 L 12.515625 -0.234375 C 12.515625 -0.148438 12.457031 -0.109375 12.34375 -0.109375 L 0.671875 -0.109375 C 0.546875 -0.109375 0.484375 -0.164062 0.484375 -0.28125 C 0.484375 -0.394531 0.535156 -0.460938 0.640625 -0.484375 C 0.898438 -0.523438 1.132812 -0.554688 1.34375 -0.578125 C 1.5625 -0.609375 1.734375 -0.691406 1.859375 -0.828125 C 1.992188 -0.960938 2.0625 -1.226562 2.0625 -1.625 L 2.0625 -12.96875 C 2.0625 -13.382812 1.992188 -13.660156 1.859375 -13.796875 C 1.734375 -13.929688 1.5625 -14.003906 1.34375 -14.015625 C 1.132812 -14.035156 0.898438 -14.066406 0.640625 -14.109375 C 0.535156 -14.140625 0.484375 -14.210938 0.484375 -14.328125 C 0.484375 -14.441406 0.546875 -14.5 0.671875 -14.5 L 11.828125 -14.5 C 11.929688 -14.5 11.984375 -14.460938 11.984375 -14.390625 L 12.125 -11.984375 C 12.125 -11.890625 12.0625 -11.832031 11.9375 -11.8125 C 11.8125 -11.800781 11.734375 -11.847656 11.703125 -11.953125 C 11.597656 -12.460938 11.4375 -12.863281 11.21875 -13.15625 C 11.007812 -13.445312 10.6875 -13.65625 10.25 -13.78125 C 9.8125 -13.914062 9.195312 -13.984375 8.40625 -13.984375 L 4.796875 -13.984375 C 4.503906 -13.984375 4.257812 -13.921875 4.0625 -13.796875 C 3.863281 -13.671875 3.765625 -13.410156 3.765625 -13.015625 L 3.765625 -7.234375 L 8.328125 -7.234375 C 9.046875 -7.234375 9.519531 -7.390625 9.75 -7.703125 C 9.976562 -8.015625 10.101562 -8.335938 10.125 -8.671875 C 10.132812 -8.796875 10.203125 -8.851562 10.328125 -8.84375 C 10.453125 -8.84375 10.515625 -8.78125 10.515625 -8.65625 L 10.515625 -5.296875 C 10.515625 -5.191406 10.453125 -5.132812 10.328125 -5.125 C 10.203125 -5.125 10.132812 -5.175781 10.125 -5.28125 C 10.101562 -5.632812 9.976562 -5.960938 9.75 -6.265625 C 9.519531 -6.566406 9.046875 -6.71875 8.328125 -6.71875 L 3.765625 -6.71875 L 3.765625 -1.578125 C 3.765625 -1.242188 3.84375 -1.007812 4 -0.875 C 4.164062 -0.738281 4.367188 -0.65625 4.609375 -0.625 L 9.1875 -0.625 C 9.976562 -0.625 10.570312 -0.6875 10.96875 -0.8125 C 11.363281 -0.945312 11.644531 -1.160156 11.8125 -1.453125 C 11.988281 -1.753906 12.128906 -2.148438 12.234375 -2.640625 Z M 12.234375 -2.640625 "/></g></g></g><g fill="#ffbd59" fill-opacity="1"><g transform="translate(125.939988, 82.983801)"><g><path d="M 15.421875 -14.421875 C 15.546875 -14.421875 15.609375 -14.359375 15.609375 -14.234375 C 15.617188 -14.117188 15.566406 -14.050781 15.453125 -14.03125 C 15.191406 -14 14.929688 -13.96875 14.671875 -13.9375 C 14.410156 -13.914062 14.191406 -13.835938 14.015625 -13.703125 C 13.835938 -13.566406 13.75 -13.289062 13.75 -12.875 L 13.71875 -0.328125 C 13.71875 -0.0976562 13.613281 0.015625 13.40625 0.015625 C 13.28125 0.015625 13.148438 0.015625 13.015625 0.015625 C 12.878906 0.015625 12.738281 0.015625 12.59375 0.015625 C 12.394531 0.015625 12.238281 -0.015625 12.125 -0.078125 C 12.007812 -0.148438 11.898438 -0.253906 11.796875 -0.390625 L 2.96875 -12.671875 L 3.078125 -1.515625 C 3.078125 -1.117188 3.148438 -0.847656 3.296875 -0.703125 C 3.453125 -0.554688 3.648438 -0.472656 3.890625 -0.453125 C 4.140625 -0.441406 4.394531 -0.414062 4.65625 -0.375 C 4.78125 -0.351562 4.835938 -0.28125 4.828125 -0.15625 C 4.816406 -0.0390625 4.753906 0.015625 4.640625 0.015625 L 0.671875 0.015625 C 0.546875 0.015625 0.484375 -0.0390625 0.484375 -0.15625 C 0.484375 -0.28125 0.535156 -0.351562 0.640625 -0.375 C 0.898438 -0.414062 1.148438 -0.445312 1.390625 -0.46875 C 1.640625 -0.488281 1.835938 -0.578125 1.984375 -0.734375 C 2.140625 -0.890625 2.21875 -1.171875 2.21875 -1.578125 L 2.34375 -12.984375 C 2.320312 -13.359375 2.242188 -13.601562 2.109375 -13.71875 C 1.972656 -13.84375 1.800781 -13.914062 1.59375 -13.9375 C 1.382812 -13.96875 1.148438 -14 0.890625 -14.03125 C 0.785156 -14.050781 0.734375 -14.117188 0.734375 -14.234375 C 0.742188 -14.359375 0.804688 -14.421875 0.921875 -14.421875 L 3.28125 -14.421875 C 3.632812 -14.421875 3.882812 -14.367188 4.03125 -14.265625 C 4.1875 -14.160156 4.34375 -14.003906 4.5 -13.796875 C 5.863281 -11.898438 7.234375 -9.988281 8.609375 -8.0625 C 9.984375 -6.144531 11.359375 -4.226562 12.734375 -2.3125 C 12.828125 -2.175781 12.914062 -2.125 13 -2.15625 C 13.082031 -2.1875 13.125 -2.28125 13.125 -2.4375 C 13.125 -4.207031 13.125 -5.96875 13.125 -7.71875 C 13.125 -9.476562 13.125 -11.234375 13.125 -12.984375 C 13.113281 -13.359375 13.019531 -13.601562 12.84375 -13.71875 C 12.664062 -13.84375 12.453125 -13.914062 12.203125 -13.9375 C 11.953125 -13.96875 11.695312 -14 11.4375 -14.03125 C 11.320312 -14.050781 11.269531 -14.117188 11.28125 -14.234375 C 11.289062 -14.359375 11.347656 -14.421875 11.453125 -14.421875 Z M 15.421875 -14.421875 "/></g></g></g><g fill="#ffbd59" fill-opacity="1"><g transform="translate(147.278677, 82.983801)"><g/></g></g><g fill="#ffbd59" fill-opacity="1"><g transform="translate(157.558883, 82.983801)"><g><path d="M 6.8125 -14.5 C 8.425781 -14.5 9.804688 -14.238281 10.953125 -13.71875 C 12.097656 -13.207031 13.015625 -12.519531 13.703125 -11.65625 C 14.390625 -10.800781 14.847656 -9.863281 15.078125 -8.84375 C 15.304688 -7.832031 15.304688 -6.8125 15.078125 -5.78125 C 14.847656 -4.757812 14.390625 -3.816406 13.703125 -2.953125 C 13.015625 -2.097656 12.097656 -1.410156 10.953125 -0.890625 C 9.804688 -0.367188 8.425781 -0.109375 6.8125 -0.109375 L 0.671875 -0.109375 C 0.546875 -0.109375 0.484375 -0.164062 0.484375 -0.28125 C 0.484375 -0.394531 0.535156 -0.460938 0.640625 -0.484375 C 0.898438 -0.523438 1.132812 -0.554688 1.34375 -0.578125 C 1.5625 -0.609375 1.734375 -0.691406 1.859375 -0.828125 C 1.992188 -0.960938 2.0625 -1.226562 2.0625 -1.625 C 2.0625 -2.394531 2.0625 -3.269531 2.0625 -4.25 C 2.0625 -5.226562 2.0625 -6.242188 2.0625 -7.296875 C 2.0625 -8.359375 2.0625 -9.378906 2.0625 -10.359375 C 2.0625 -11.347656 2.0625 -12.21875 2.0625 -12.96875 C 2.0625 -13.382812 1.992188 -13.660156 1.859375 -13.796875 C 1.734375 -13.929688 1.5625 -14.003906 1.34375 -14.015625 C 1.132812 -14.035156 0.898438 -14.066406 0.640625 -14.109375 C 0.535156 -14.140625 0.484375 -14.210938 0.484375 -14.328125 C 0.484375 -14.441406 0.546875 -14.5 0.671875 -14.5 Z M 6.421875 -0.59375 C 7.785156 -0.59375 8.953125 -0.832031 9.921875 -1.3125 C 10.898438 -1.800781 11.675781 -2.441406 12.25 -3.234375 C 12.820312 -4.035156 13.203125 -4.910156 13.390625 -5.859375 C 13.585938 -6.816406 13.582031 -7.769531 13.375 -8.71875 C 13.175781 -9.664062 12.785156 -10.535156 12.203125 -11.328125 C 11.628906 -12.128906 10.859375 -12.769531 9.890625 -13.25 C 8.929688 -13.738281 7.773438 -13.984375 6.421875 -13.984375 L 4.796875 -13.984375 C 4.503906 -13.984375 4.257812 -13.921875 4.0625 -13.796875 C 3.863281 -13.671875 3.765625 -13.410156 3.765625 -13.015625 L 3.765625 -1.578125 C 3.765625 -1.179688 3.867188 -0.914062 4.078125 -0.78125 C 4.285156 -0.65625 4.53125 -0.59375 4.8125 -0.59375 Z M 6.421875 -0.59375 "/></g></g></g><g fill="#ffbd59" fill-opacity="1"><g transform="translate(178.530479, 82.983801)"><g><path d="M 5.203125 -0.484375 C 5.328125 -0.460938 5.382812 -0.394531 5.375 -0.28125 C 5.375 -0.164062 5.3125 -0.109375 5.1875 -0.109375 L 0.671875 -0.109375 C 0.546875 -0.109375 0.484375 -0.164062 0.484375 -0.28125 C 0.484375 -0.394531 0.535156 -0.460938 0.640625 -0.484375 C 0.898438 -0.523438 1.132812 -0.554688 1.34375 -0.578125 C 1.5625 -0.609375 1.734375 -0.691406 1.859375 -0.828125 C 1.992188 -0.960938 2.0625 -1.226562 2.0625 -1.625 L 2.0625 -12.96875 C 2.0625 -13.382812 1.992188 -13.660156 1.859375 -13.796875 C 1.734375 -13.929688 1.5625 -14.003906 1.34375 -14.015625 C 1.132812 -14.035156 0.898438 -14.066406 0.640625 -14.109375 C 0.535156 -14.140625 0.484375 -14.210938 0.484375 -14.328125 C 0.484375 -14.441406 0.546875 -14.5 0.671875 -14.5 L 5.1875 -14.5 C 5.3125 -14.5 5.375 -14.441406 5.375 -14.328125 C 5.382812 -14.210938 5.328125 -14.140625 5.203125 -14.109375 C 4.941406 -14.066406 4.703125 -14.035156 4.484375 -14.015625 C 4.265625 -14.003906 4.085938 -13.929688 3.953125 -13.796875 C 3.828125 -13.660156 3.765625 -13.382812 3.765625 -12.96875 L 3.765625 -1.625 C 3.765625 -1.226562 3.828125 -0.960938 3.953125 -0.828125 C 4.085938 -0.691406 4.265625 -0.609375 4.484375 -0.578125 C 4.703125 -0.554688 4.941406 -0.523438 5.203125 -0.484375 Z M 5.203125 -0.484375 "/></g></g></g><g fill="#ffbd59" fill-opacity="1"><g transform="translate(189.636626, 82.983801)"><g><path d="M 12.234375 -2.640625 C 12.265625 -2.742188 12.335938 -2.789062 12.453125 -2.78125 C 12.566406 -2.78125 12.625 -2.722656 12.625 -2.609375 L 12.515625 -0.234375 C 12.515625 -0.148438 12.457031 -0.109375 12.34375 -0.109375 L 0.671875 -0.109375 C 0.546875 -0.109375 0.484375 -0.164062 0.484375 -0.28125 C 0.484375 -0.394531 0.535156 -0.460938 0.640625 -0.484375 C 0.898438 -0.523438 1.132812 -0.554688 1.34375 -0.578125 C 1.5625 -0.609375 1.734375 -0.691406 1.859375 -0.828125 C 1.992188 -0.960938 2.0625 -1.226562 2.0625 -1.625 L 2.0625 -12.96875 C 2.0625 -13.382812 1.992188 -13.660156 1.859375 -13.796875 C 1.734375 -13.929688 1.5625 -14.003906 1.34375 -14.015625 C 1.132812 -14.035156 0.898438 -14.066406 0.640625 -14.109375 C 0.535156 -14.140625 0.484375 -14.210938 0.484375 -14.328125 C 0.484375 -14.441406 0.546875 -14.5 0.671875 -14.5 L 11.828125 -14.5 C 11.929688 -14.5 11.984375 -14.460938 11.984375 -14.390625 L 12.125 -11.984375 C 12.125 -11.890625 12.0625 -11.832031 11.9375 -11.8125 C 11.8125 -11.800781 11.734375 -11.847656 11.703125 -11.953125 C 11.597656 -12.460938 11.4375 -12.863281 11.21875 -13.15625 C 11.007812 -13.445312 10.6875 -13.65625 10.25 -13.78125 C 9.8125 -13.914062 9.195312 -13.984375 8.40625 -13.984375 L 4.796875 -13.984375 C 4.503906 -13.984375 4.257812 -13.921875 4.0625 -13.796875 C 3.863281 -13.671875 3.765625 -13.410156 3.765625 -13.015625 L 3.765625 -7.234375 L 8.328125 -7.234375 C 9.046875 -7.234375 9.519531 -7.390625 9.75 -7.703125 C 9.976562 -8.015625 10.101562 -8.335938 10.125 -8.671875 C 10.132812 -8.796875 10.203125 -8.851562 10.328125 -8.84375 C 10.453125 -8.84375 10.515625 -8.78125 10.515625 -8.65625 L 10.515625 -5.296875 C 10.515625 -5.191406 10.453125 -5.132812 10.328125 -5.125 C 10.203125 -5.125 10.132812 -5.175781 10.125 -5.28125 C 10.101562 -5.632812 9.976562 -5.960938 9.75 -6.265625 C 9.519531 -6.566406 9.046875 -6.71875 8.328125 -6.71875 L 3.765625 -6.71875 L 3.765625 -1.578125 C 3.765625 -1.242188 3.84375 -1.007812 4 -0.875 C 4.164062 -0.738281 4.367188 -0.65625 4.609375 -0.625 L 9.1875 -0.625 C 9.976562 -0.625 10.570312 -0.6875 10.96875 -0.8125 C 11.363281 -0.945312 11.644531 -1.160156 11.8125 -1.453125 C 11.988281 -1.753906 12.128906 -2.148438 12.234375 -2.640625 Z M 12.234375 -2.640625 "/></g></g></g><g fill="#ffbd59" fill-opacity="1"><g transform="translate(207.969796, 82.983801)"><g><path d="M 9.203125 -8.328125 C 9.992188 -8.234375 10.710938 -8.035156 11.359375 -7.734375 C 12.015625 -7.429688 12.535156 -7 12.921875 -6.4375 C 13.316406 -5.875 13.515625 -5.160156 13.515625 -4.296875 C 13.515625 -3.429688 13.269531 -2.6875 12.78125 -2.0625 C 12.289062 -1.4375 11.617188 -0.953125 10.765625 -0.609375 C 9.910156 -0.273438 8.929688 -0.109375 7.828125 -0.109375 L 0.671875 -0.109375 C 0.554688 -0.109375 0.492188 -0.164062 0.484375 -0.28125 C 0.484375 -0.394531 0.535156 -0.460938 0.640625 -0.484375 C 0.898438 -0.523438 1.140625 -0.554688 1.359375 -0.578125 C 1.585938 -0.609375 1.765625 -0.691406 1.890625 -0.828125 C 2.023438 -0.960938 2.09375 -1.226562 2.09375 -1.625 C 2.09375 -3.519531 2.09375 -5.410156 2.09375 -7.296875 C 2.09375 -9.191406 2.09375 -11.082031 2.09375 -12.96875 C 2.09375 -13.382812 2.023438 -13.660156 1.890625 -13.796875 C 1.765625 -13.929688 1.585938 -14.003906 1.359375 -14.015625 C 1.140625 -14.035156 0.898438 -14.066406 0.640625 -14.109375 C 0.535156 -14.140625 0.484375 -14.210938 0.484375 -14.328125 C 0.492188 -14.441406 0.554688 -14.5 0.671875 -14.5 L 7.203125 -14.5 C 7.691406 -14.5 8.203125 -14.445312 8.734375 -14.34375 C 9.273438 -14.25 9.78125 -14.082031 10.25 -13.84375 C 10.71875 -13.613281 11.097656 -13.289062 11.390625 -12.875 C 11.679688 -12.457031 11.828125 -11.9375 11.828125 -11.3125 C 11.828125 -10.6875 11.679688 -10.171875 11.390625 -9.765625 C 11.097656 -9.359375 10.75 -9.039062 10.34375 -8.8125 C 9.9375 -8.582031 9.554688 -8.421875 9.203125 -8.328125 Z M 6.8125 -0.625 C 7.820312 -0.625 8.703125 -0.773438 9.453125 -1.078125 C 10.203125 -1.378906 10.785156 -1.804688 11.203125 -2.359375 C 11.628906 -2.910156 11.84375 -3.546875 11.84375 -4.265625 C 11.84375 -5.441406 11.394531 -6.335938 10.5 -6.953125 C 9.601562 -7.578125 8.421875 -7.890625 6.953125 -7.890625 C 6.535156 -7.890625 6.203125 -7.890625 5.953125 -7.890625 C 5.710938 -7.890625 5.394531 -7.867188 5 -7.828125 C 4.832031 -7.804688 4.71875 -7.851562 4.65625 -7.96875 C 4.59375 -8.082031 4.59375 -8.203125 4.65625 -8.328125 C 4.71875 -8.453125 4.84375 -8.5 5.03125 -8.46875 C 5.425781 -8.425781 5.738281 -8.40625 5.96875 -8.40625 C 6.195312 -8.40625 6.503906 -8.40625 6.890625 -8.40625 C 7.523438 -8.40625 8.097656 -8.535156 8.609375 -8.796875 C 9.128906 -9.054688 9.539062 -9.398438 9.84375 -9.828125 C 10.15625 -10.265625 10.3125 -10.738281 10.3125 -11.25 C 10.3125 -12.175781 9.960938 -12.863281 9.265625 -13.3125 C 8.566406 -13.757812 7.691406 -13.984375 6.640625 -13.984375 C 6.265625 -13.984375 5.9375 -13.984375 5.65625 -13.984375 C 5.382812 -13.984375 5.101562 -13.984375 4.8125 -13.984375 C 4.53125 -13.984375 4.285156 -13.921875 4.078125 -13.796875 C 3.878906 -13.671875 3.78125 -13.410156 3.78125 -13.015625 L 3.765625 -13.21875 C 3.765625 -11.25 3.765625 -9.273438 3.765625 -7.296875 C 3.765625 -5.328125 3.765625 -3.351562 3.765625 -1.375 L 3.78125 -1.578125 C 3.78125 -1.179688 3.882812 -0.921875 4.09375 -0.796875 C 4.300781 -0.679688 4.550781 -0.625 4.84375 -0.625 Z M 6.8125 -0.625 "/></g></g></g><g fill="#ffbd59" fill-opacity="1"><g transform="translate(10.820496, 66.57909)"><g><path d="M 3.5625 -7.5625 C 4.394531 -7.5625 5.109375 -7.425781 5.703125 -7.15625 C 6.304688 -6.882812 6.785156 -6.523438 7.140625 -6.078125 C 7.503906 -5.628906 7.742188 -5.140625 7.859375 -4.609375 C 7.984375 -4.078125 7.984375 -3.546875 7.859375 -3.015625 C 7.742188 -2.484375 7.503906 -1.992188 7.140625 -1.546875 C 6.785156 -1.097656 6.304688 -0.738281 5.703125 -0.46875 C 5.109375 -0.195312 4.394531 -0.0625 3.5625 -0.0625 L 0.34375 -0.0625 C 0.28125 -0.0625 0.25 -0.0859375 0.25 -0.140625 C 0.25 -0.203125 0.273438 -0.238281 0.328125 -0.25 C 0.460938 -0.269531 0.585938 -0.285156 0.703125 -0.296875 C 0.816406 -0.316406 0.90625 -0.359375 0.96875 -0.421875 C 1.039062 -0.492188 1.078125 -0.632812 1.078125 -0.84375 C 1.078125 -1.25 1.078125 -1.707031 1.078125 -2.21875 C 1.078125 -2.726562 1.078125 -3.253906 1.078125 -3.796875 C 1.078125 -4.347656 1.078125 -4.878906 1.078125 -5.390625 C 1.078125 -5.910156 1.078125 -6.367188 1.078125 -6.765625 C 1.078125 -6.972656 1.039062 -7.113281 0.96875 -7.1875 C 0.90625 -7.257812 0.816406 -7.300781 0.703125 -7.3125 C 0.585938 -7.320312 0.460938 -7.335938 0.328125 -7.359375 C 0.273438 -7.378906 0.25 -7.414062 0.25 -7.46875 C 0.25 -7.53125 0.28125 -7.5625 0.34375 -7.5625 Z M 3.34375 -0.3125 C 4.0625 -0.3125 4.671875 -0.4375 5.171875 -0.6875 C 5.679688 -0.9375 6.082031 -1.269531 6.375 -1.6875 C 6.675781 -2.101562 6.878906 -2.5625 6.984375 -3.0625 C 7.085938 -3.5625 7.085938 -4.054688 6.984375 -4.546875 C 6.878906 -5.046875 6.671875 -5.5 6.359375 -5.90625 C 6.054688 -6.320312 5.65625 -6.65625 5.15625 -6.90625 C 4.65625 -7.15625 4.050781 -7.28125 3.34375 -7.28125 L 2.5 -7.28125 C 2.351562 -7.28125 2.226562 -7.25 2.125 -7.1875 C 2.019531 -7.125 1.96875 -6.988281 1.96875 -6.78125 L 1.96875 -0.828125 C 1.96875 -0.617188 2.019531 -0.476562 2.125 -0.40625 C 2.226562 -0.34375 2.359375 -0.3125 2.515625 -0.3125 Z M 3.34375 -0.3125 "/></g></g></g><g fill="#ffbd59" fill-opacity="1"><g transform="translate(21.764965, 66.57909)"><g><path d="M 6.375 -1.375 C 6.394531 -1.425781 6.429688 -1.453125 6.484375 -1.453125 C 6.546875 -1.453125 6.578125 -1.421875 6.578125 -1.359375 L 6.515625 -0.125 C 6.515625 -0.0820312 6.488281 -0.0625 6.4375 -0.0625 L 0.34375 -0.0625 C 0.28125 -0.0625 0.25 -0.0859375 0.25 -0.140625 C 0.25 -0.203125 0.273438 -0.238281 0.328125 -0.25 C 0.460938 -0.269531 0.585938 -0.285156 0.703125 -0.296875 C 0.816406 -0.316406 0.90625 -0.359375 0.96875 -0.421875 C 1.039062 -0.492188 1.078125 -0.632812 1.078125 -0.84375 L 1.078125 -6.765625 C 1.078125 -6.972656 1.039062 -7.113281 0.96875 -7.1875 C 0.90625 -7.257812 0.816406 -7.300781 0.703125 -7.3125 C 0.585938 -7.320312 0.460938 -7.335938 0.328125 -7.359375 C 0.273438 -7.378906 0.25 -7.414062 0.25 -7.46875 C 0.25 -7.53125 0.28125 -7.5625 0.34375 -7.5625 L 6.15625 -7.5625 C 6.21875 -7.5625 6.25 -7.539062 6.25 -7.5 L 6.3125 -6.25 C 6.3125 -6.195312 6.28125 -6.164062 6.21875 -6.15625 C 6.15625 -6.15625 6.117188 -6.179688 6.109375 -6.234375 C 6.046875 -6.492188 5.957031 -6.695312 5.84375 -6.84375 C 5.738281 -7 5.570312 -7.109375 5.34375 -7.171875 C 5.113281 -7.242188 4.789062 -7.28125 4.375 -7.28125 L 2.5 -7.28125 C 2.351562 -7.28125 2.226562 -7.25 2.125 -7.1875 C 2.019531 -7.125 1.96875 -6.988281 1.96875 -6.78125 L 1.96875 -3.765625 L 4.34375 -3.765625 C 4.71875 -3.765625 4.960938 -3.847656 5.078125 -4.015625 C 5.203125 -4.179688 5.269531 -4.351562 5.28125 -4.53125 C 5.289062 -4.59375 5.328125 -4.617188 5.390625 -4.609375 C 5.453125 -4.609375 5.484375 -4.578125 5.484375 -4.515625 L 5.484375 -2.765625 C 5.484375 -2.710938 5.453125 -2.679688 5.390625 -2.671875 C 5.328125 -2.671875 5.289062 -2.695312 5.28125 -2.75 C 5.269531 -2.9375 5.203125 -3.109375 5.078125 -3.265625 C 4.960938 -3.421875 4.71875 -3.5 4.34375 -3.5 L 1.96875 -3.5 L 1.96875 -0.828125 C 1.96875 -0.648438 2.007812 -0.523438 2.09375 -0.453125 C 2.175781 -0.378906 2.28125 -0.335938 2.40625 -0.328125 L 4.78125 -0.328125 C 5.195312 -0.328125 5.507812 -0.359375 5.71875 -0.421875 C 5.925781 -0.492188 6.070312 -0.609375 6.15625 -0.765625 C 6.25 -0.921875 6.320312 -1.125 6.375 -1.375 Z M 6.375 -1.375 "/></g></g></g><g fill="#ffbd59" fill-opacity="1"><g transform="translate(31.332398, 66.57909)"><g><path d="M 7.234375 -2.640625 C 7.410156 -2.640625 7.53125 -2.578125 7.59375 -2.453125 C 7.664062 -2.328125 7.707031 -2.175781 7.71875 -2 C 7.738281 -1.832031 7.742188 -1.6875 7.734375 -1.5625 C 7.734375 -1.289062 7.679688 -1.023438 7.578125 -0.765625 C 7.484375 -0.515625 7.332031 -0.304688 7.125 -0.140625 C 6.914062 0.0234375 6.632812 0.109375 6.28125 0.109375 C 5.96875 0.109375 5.6875 0.0234375 5.4375 -0.140625 C 5.1875 -0.316406 4.953125 -0.53125 4.734375 -0.78125 C 4.523438 -1.03125 4.316406 -1.28125 4.109375 -1.53125 C 3.898438 -1.789062 3.675781 -2.007812 3.4375 -2.1875 C 3.195312 -2.363281 2.921875 -2.457031 2.609375 -2.46875 C 2.503906 -2.457031 2.445312 -2.5 2.4375 -2.59375 C 2.4375 -2.6875 2.488281 -2.722656 2.59375 -2.703125 C 2.6875 -2.691406 2.734375 -2.679688 2.734375 -2.671875 C 2.734375 -2.671875 2.785156 -2.671875 2.890625 -2.671875 C 3.472656 -2.671875 4.003906 -2.757812 4.484375 -2.9375 C 4.960938 -3.113281 5.34375 -3.375 5.625 -3.71875 C 5.90625 -4.0625 6.046875 -4.488281 6.046875 -5 C 6.046875 -5.769531 5.757812 -6.335938 5.1875 -6.703125 C 4.625 -7.066406 3.859375 -7.25 2.890625 -7.25 C 2.773438 -7.25 2.6875 -7.25 2.625 -7.25 C 2.570312 -7.25 2.523438 -7.25 2.484375 -7.25 L 2.53125 -7.234375 C 2.375 -7.234375 2.238281 -7.203125 2.125 -7.140625 C 2.019531 -7.078125 1.96875 -6.941406 1.96875 -6.734375 L 1.96875 -0.796875 C 1.96875 -0.585938 2 -0.441406 2.0625 -0.359375 C 2.132812 -0.285156 2.226562 -0.242188 2.34375 -0.234375 C 2.46875 -0.234375 2.597656 -0.21875 2.734375 -0.1875 C 2.785156 -0.175781 2.8125 -0.140625 2.8125 -0.078125 C 2.8125 -0.015625 2.78125 0.015625 2.71875 0.015625 L 0.34375 0.015625 C 0.28125 0.015625 0.25 -0.015625 0.25 -0.078125 C 0.25 -0.140625 0.273438 -0.175781 0.328125 -0.1875 C 0.460938 -0.21875 0.585938 -0.234375 0.703125 -0.234375 C 0.816406 -0.242188 0.910156 -0.285156 0.984375 -0.359375 C 1.054688 -0.441406 1.09375 -0.585938 1.09375 -0.796875 L 1.09375 -6.71875 C 1.09375 -6.925781 1.054688 -7.066406 0.984375 -7.140625 C 0.910156 -7.210938 0.816406 -7.253906 0.703125 -7.265625 C 0.585938 -7.273438 0.460938 -7.289062 0.328125 -7.3125 C 0.273438 -7.332031 0.25 -7.367188 0.25 -7.421875 C 0.25 -7.484375 0.28125 -7.515625 0.34375 -7.515625 L 3.8125 -7.515625 C 4.394531 -7.515625 4.929688 -7.421875 5.421875 -7.234375 C 5.910156 -7.046875 6.304688 -6.765625 6.609375 -6.390625 C 6.910156 -6.023438 7.0625 -5.566406 7.0625 -5.015625 C 7.0625 -4.597656 6.972656 -4.234375 6.796875 -3.921875 C 6.617188 -3.617188 6.382812 -3.367188 6.09375 -3.171875 C 5.800781 -2.972656 5.472656 -2.816406 5.109375 -2.703125 C 4.753906 -2.585938 4.390625 -2.515625 4.015625 -2.484375 C 4.265625 -2.421875 4.476562 -2.3125 4.65625 -2.15625 C 4.84375 -2.007812 5.007812 -1.84375 5.15625 -1.65625 C 5.3125 -1.46875 5.460938 -1.285156 5.609375 -1.109375 C 5.765625 -0.941406 5.925781 -0.800781 6.09375 -0.6875 C 6.257812 -0.570312 6.453125 -0.515625 6.671875 -0.515625 C 6.890625 -0.515625 7.066406 -0.578125 7.203125 -0.703125 C 7.335938 -0.828125 7.414062 -0.972656 7.4375 -1.140625 C 7.457031 -1.316406 7.40625 -1.472656 7.28125 -1.609375 C 7.1875 -1.734375 7.085938 -1.84375 6.984375 -1.9375 C 6.890625 -2.03125 6.84375 -2.144531 6.84375 -2.28125 C 6.84375 -2.382812 6.878906 -2.46875 6.953125 -2.53125 C 7.035156 -2.601562 7.128906 -2.640625 7.234375 -2.640625 Z M 7.234375 -2.640625 "/></g></g></g><g transform="matrix(1, 0, 0, 1, 49, 85)"><g clip-path="url(#6699b73b54)"><g fill="#ffbd59" fill-opacity="1"><g transform="translate(1.016456, 7.275495)"><g><path d="M 0.203125 -4.890625 L 1.9375 0 L 2.359375 0 L 3.6875 -3.828125 L 3.734375 -3.828125 L 5.015625 0 L 5.4375 0 L 7.171875 -4.890625 L 6.84375 -4.890625 L 5.40625 -0.8125 L 5.375 -0.8125 L 4.015625 -4.890625 L 3.703125 -4.890625 L 2.3125 -0.828125 L 2.296875 -0.828125 L 0.859375 -4.890625 Z M 0.203125 -4.890625 "/></g></g></g><g fill="#ffbd59" fill-opacity="1"><g transform="translate(10.411311, 7.275495)"><g><path d="M 0.84375 -4.890625 L 0.84375 0 L 4 0 L 4 -0.390625 L 1.46875 -0.390625 L 1.46875 -2.4375 L 3.640625 -2.4375 L 3.640625 -2.75 L 1.46875 -2.75 L 1.46875 -4.5 L 4 -4.5 L 4 -4.890625 Z M 0.84375 -4.890625 "/></g></g></g><g fill="#ffbd59" fill-opacity="1"><g transform="translate(16.634956, 7.275495)"><g><path d="M 1.125 -4.890625 L 1.125 0 L 1.75 0 L 1.75 -4.890625 Z M 1.125 -4.890625 "/></g></g></g><g fill="#ffbd59" fill-opacity="1"><g transform="translate(21.524463, 7.275495)"><g><path d="M 1.46875 -2.4375 L 4.40625 -2.4375 L 4.40625 0 L 5.03125 0 L 5.03125 -4.890625 L 4.40625 -4.890625 L 4.40625 -2.75 L 1.46875 -2.75 L 1.46875 -4.890625 L 0.84375 -4.890625 L 0.84375 0 L 1.46875 0 Z M 1.46875 -2.4375 "/></g></g></g><g fill="#ffbd59" fill-opacity="1"><g transform="translate(29.417535, 7.275495)"><g><path d="M 4.78125 -4.890625 L 4.78125 -1.15625 L 4.75 -1.15625 L 0.875 -4.96875 L 0.84375 -4.96875 L 0.84375 0 L 1.15625 0 L 1.15625 -3.734375 L 1.1875 -3.734375 L 5.0625 0.078125 L 5.09375 0.078125 L 5.09375 -4.890625 Z M 4.78125 -4.890625 "/></g></g></g><g fill="#ffbd59" fill-opacity="1"><g transform="translate(37.373474, 7.275495)"><g><path d="M 3.5625 -1.4375 L 4.21875 0 L 4.90625 0 L 2.625 -4.890625 L 2.28125 -4.890625 L 0.203125 0 L 0.53125 0 L 1.140625 -1.4375 Z M 3.40625 -1.75 L 1.28125 -1.75 L 2.28125 -4.109375 L 2.3125 -4.109375 Z M 3.40625 -1.75 "/></g></g></g><g fill="#ffbd59" fill-opacity="1"><g transform="translate(44.505175, 7.275495)"><g><path d="M 4.953125 -0.90625 C 4.472656 -0.457031 3.910156 -0.234375 3.265625 -0.234375 C 2.898438 -0.234375 2.578125 -0.296875 2.296875 -0.421875 C 2.015625 -0.546875 1.78125 -0.710938 1.59375 -0.921875 C 1.40625 -1.128906 1.265625 -1.367188 1.171875 -1.640625 C 1.078125 -1.921875 1.03125 -2.207031 1.03125 -2.5 C 1.03125 -2.820312 1.078125 -3.113281 1.171875 -3.375 C 1.273438 -3.632812 1.414062 -3.859375 1.59375 -4.046875 C 1.78125 -4.242188 2 -4.394531 2.25 -4.5 C 2.5 -4.613281 2.769531 -4.671875 3.0625 -4.671875 C 3.257812 -4.671875 3.441406 -4.644531 3.609375 -4.59375 C 3.773438 -4.550781 3.921875 -4.488281 4.046875 -4.40625 C 4.179688 -4.332031 4.285156 -4.25 4.359375 -4.15625 C 4.441406 -4.0625 4.503906 -3.96875 4.546875 -3.875 L 5.0625 -3.875 C 4.988281 -4.03125 4.894531 -4.175781 4.78125 -4.3125 C 4.675781 -4.445312 4.539062 -4.5625 4.375 -4.65625 C 4.21875 -4.757812 4.03125 -4.835938 3.8125 -4.890625 C 3.59375 -4.941406 3.34375 -4.96875 3.0625 -4.96875 C 2.65625 -4.96875 2.285156 -4.910156 1.953125 -4.796875 C 1.617188 -4.679688 1.332031 -4.515625 1.09375 -4.296875 C 0.851562 -4.078125 0.664062 -3.816406 0.53125 -3.515625 C 0.40625 -3.210938 0.34375 -2.875 0.34375 -2.5 C 0.34375 -2.164062 0.394531 -1.84375 0.5 -1.53125 C 0.601562 -1.226562 0.765625 -0.957031 0.984375 -0.71875 C 1.203125 -0.476562 1.484375 -0.285156 1.828125 -0.140625 C 2.171875 0.00390625 2.578125 0.078125 3.046875 0.078125 C 3.347656 0.078125 3.613281 0.0507812 3.84375 0 C 4.082031 -0.0507812 4.285156 -0.117188 4.453125 -0.203125 C 4.628906 -0.285156 4.773438 -0.375 4.890625 -0.46875 C 5.015625 -0.5625 5.101562 -0.644531 5.15625 -0.71875 Z M 4.953125 -0.90625 "/></g></g></g><g fill="#ffbd59" fill-opacity="1"><g transform="translate(51.825473, 7.275495)"><g><path d="M 1.46875 -2.4375 L 4.40625 -2.4375 L 4.40625 0 L 5.03125 0 L 5.03125 -4.890625 L 4.40625 -4.890625 L 4.40625 -2.75 L 1.46875 -2.75 L 1.46875 -4.890625 L 0.84375 -4.890625 L 0.84375 0 L 1.46875 0 Z M 1.46875 -2.4375 "/></g></g></g><g fill="#ffbd59" fill-opacity="1"><g transform="translate(59.718546, 7.275495)"><g><path d="M 2.640625 0 L 2.640625 -4.5 L 4.515625 -4.5 L 4.515625 -4.890625 L 0.140625 -4.890625 L 0.140625 -4.5 L 2.015625 -4.5 L 2.015625 0 Z M 2.640625 0 "/></g></g></g><g fill="#ffbd59" fill-opacity="1"><g transform="translate(66.396223, 7.275495)"><g><path d="M 0.265625 -1.234375 C 0.265625 -1.035156 0.3125 -0.851562 0.40625 -0.6875 C 0.507812 -0.53125 0.640625 -0.394531 0.796875 -0.28125 C 0.960938 -0.164062 1.15625 -0.078125 1.375 -0.015625 C 1.601562 0.046875 1.851562 0.078125 2.125 0.078125 C 2.394531 0.078125 2.632812 0.046875 2.84375 -0.015625 C 3.0625 -0.078125 3.25 -0.164062 3.40625 -0.28125 C 3.5625 -0.40625 3.679688 -0.550781 3.765625 -0.71875 C 3.847656 -0.894531 3.890625 -1.09375 3.890625 -1.3125 C 3.890625 -1.59375 3.816406 -1.828125 3.671875 -2.015625 C 3.523438 -2.203125 3.34375 -2.351562 3.125 -2.46875 C 2.914062 -2.59375 2.679688 -2.695312 2.421875 -2.78125 C 2.171875 -2.863281 1.9375 -2.953125 1.71875 -3.046875 C 1.5 -3.140625 1.316406 -3.25 1.171875 -3.375 C 1.035156 -3.5 0.96875 -3.660156 0.96875 -3.859375 C 0.96875 -3.960938 0.988281 -4.0625 1.03125 -4.15625 C 1.082031 -4.257812 1.15625 -4.347656 1.25 -4.421875 C 1.34375 -4.492188 1.457031 -4.550781 1.59375 -4.59375 C 1.738281 -4.644531 1.90625 -4.671875 2.09375 -4.671875 C 2.394531 -4.671875 2.648438 -4.601562 2.859375 -4.46875 C 3.066406 -4.34375 3.191406 -4.144531 3.234375 -3.875 L 3.703125 -3.875 C 3.679688 -4.039062 3.617188 -4.191406 3.515625 -4.328125 C 3.421875 -4.472656 3.296875 -4.59375 3.140625 -4.6875 C 2.992188 -4.78125 2.828125 -4.847656 2.640625 -4.890625 C 2.453125 -4.941406 2.253906 -4.96875 2.046875 -4.96875 C 1.835938 -4.96875 1.632812 -4.941406 1.4375 -4.890625 C 1.25 -4.835938 1.082031 -4.753906 0.9375 -4.640625 C 0.789062 -4.535156 0.671875 -4.398438 0.578125 -4.234375 C 0.492188 -4.078125 0.453125 -3.894531 0.453125 -3.6875 C 0.453125 -3.40625 0.519531 -3.179688 0.65625 -3.015625 C 0.800781 -2.847656 0.976562 -2.707031 1.1875 -2.59375 C 1.40625 -2.488281 1.632812 -2.394531 1.875 -2.3125 C 2.125 -2.226562 2.351562 -2.132812 2.5625 -2.03125 C 2.78125 -1.9375 2.957031 -1.816406 3.09375 -1.671875 C 3.226562 -1.523438 3.296875 -1.332031 3.296875 -1.09375 C 3.296875 -0.789062 3.1875 -0.566406 2.96875 -0.421875 C 2.75 -0.285156 2.457031 -0.21875 2.09375 -0.21875 C 1.789062 -0.21875 1.550781 -0.253906 1.375 -0.328125 C 1.207031 -0.410156 1.078125 -0.503906 0.984375 -0.609375 C 0.890625 -0.722656 0.820312 -0.835938 0.78125 -0.953125 C 0.75 -1.066406 0.734375 -1.160156 0.734375 -1.234375 Z M 0.265625 -1.234375 "/></g></g></g><g fill="#ffbd59" fill-opacity="1"><g transform="translate(72.780522, 7.275495)"><g><path d="M 3.5625 -1.4375 L 4.21875 0 L 4.90625 0 L 2.625 -4.890625 L 2.28125 -4.890625 L 0.203125 0 L 0.53125 0 L 1.140625 -1.4375 Z M 3.40625 -1.75 L 1.28125 -1.75 L 2.28125 -4.109375 L 2.3125 -4.109375 Z M 3.40625 -1.75 "/></g></g></g><g fill="#ffbd59" fill-opacity="1"><g transform="translate(79.912223, 7.275495)"><g><path d="M 0.84375 0 L 2.59375 0 C 2.90625 0 3.164062 -0.0390625 3.375 -0.125 C 3.59375 -0.207031 3.765625 -0.3125 3.890625 -0.4375 C 4.023438 -0.570312 4.117188 -0.71875 4.171875 -0.875 C 4.234375 -1.039062 4.265625 -1.210938 4.265625 -1.390625 C 4.265625 -1.648438 4.207031 -1.859375 4.09375 -2.015625 C 3.976562 -2.171875 3.84375 -2.289062 3.6875 -2.375 C 3.53125 -2.457031 3.367188 -2.515625 3.203125 -2.546875 C 3.035156 -2.578125 2.898438 -2.59375 2.796875 -2.59375 L 2.796875 -2.625 C 2.953125 -2.625 3.101562 -2.65625 3.25 -2.71875 C 3.394531 -2.78125 3.519531 -2.859375 3.625 -2.953125 C 3.738281 -3.054688 3.828125 -3.175781 3.890625 -3.3125 C 3.960938 -3.445312 4 -3.585938 4 -3.734375 C 4 -3.867188 3.96875 -4.003906 3.90625 -4.140625 C 3.851562 -4.273438 3.769531 -4.394531 3.65625 -4.5 C 3.539062 -4.613281 3.394531 -4.707031 3.21875 -4.78125 C 3.039062 -4.851562 2.828125 -4.890625 2.578125 -4.890625 L 0.84375 -4.890625 Z M 1.46875 -0.3125 L 1.46875 -2.4375 L 2.234375 -2.4375 C 2.460938 -2.4375 2.660156 -2.40625 2.828125 -2.34375 C 3.003906 -2.289062 3.144531 -2.210938 3.25 -2.109375 C 3.363281 -2.003906 3.445312 -1.882812 3.5 -1.75 C 3.550781 -1.613281 3.578125 -1.472656 3.578125 -1.328125 C 3.578125 -1.160156 3.546875 -1.015625 3.484375 -0.890625 C 3.429688 -0.765625 3.351562 -0.65625 3.25 -0.5625 C 3.15625 -0.476562 3.039062 -0.414062 2.90625 -0.375 C 2.769531 -0.332031 2.628906 -0.3125 2.484375 -0.3125 Z M 1.46875 -2.75 L 1.46875 -4.578125 L 2.328125 -4.578125 C 2.503906 -4.578125 2.65625 -4.550781 2.78125 -4.5 C 2.914062 -4.445312 3.023438 -4.378906 3.109375 -4.296875 C 3.191406 -4.210938 3.25 -4.117188 3.28125 -4.015625 C 3.320312 -3.910156 3.34375 -3.800781 3.34375 -3.6875 C 3.34375 -3.5625 3.3125 -3.4375 3.25 -3.3125 C 3.195312 -3.195312 3.125 -3.097656 3.03125 -3.015625 C 2.9375 -2.929688 2.828125 -2.863281 2.703125 -2.8125 C 2.578125 -2.769531 2.445312 -2.75 2.3125 -2.75 Z M 1.46875 -2.75 "/></g></g></g><g fill="#ffbd59" fill-opacity="1"><g transform="translate(86.547987, 7.275495)"><g><path d="M 0.84375 -4.890625 L 0.84375 0 L 4 0 L 4 -0.390625 L 1.46875 -0.390625 L 1.46875 -2.4375 L 3.640625 -2.4375 L 3.640625 -2.75 L 1.46875 -2.75 L 1.46875 -4.5 L 4 -4.5 L 4 -4.890625 Z M 0.84375 -4.890625 "/></g></g></g><g fill="#ffbd59" fill-opacity="1"><g transform="translate(92.771631, 7.275495)"><g><path d="M 4.78125 -4.890625 L 4.78125 -1.15625 L 4.75 -1.15625 L 0.875 -4.96875 L 0.84375 -4.96875 L 0.84375 0 L 1.15625 0 L 1.15625 -3.734375 L 1.1875 -3.734375 L 5.0625 0.078125 L 5.09375 0.078125 L 5.09375 -4.890625 Z M 4.78125 -4.890625 "/></g></g></g><g fill="#ffbd59" fill-opacity="1"><g transform="translate(100.72757, 7.275495)"><g><path d="M 2.640625 0 L 2.640625 -4.5 L 4.515625 -4.5 L 4.515625 -4.890625 L 0.140625 -4.890625 L 0.140625 -4.5 L 2.015625 -4.5 L 2.015625 0 Z M 2.640625 0 "/></g></g></g><g fill="#ffbd59" fill-opacity="1"><g transform="translate(107.405247, 7.275495)"><g><path d="M 0.84375 -4.890625 L 0.84375 0 L 4 0 L 4 -0.390625 L 1.46875 -0.390625 L 1.46875 -2.4375 L 3.640625 -2.4375 L 3.640625 -2.75 L 1.46875 -2.75 L 1.46875 -4.5 L 4 -4.5 L 4 -4.890625 Z M 0.84375 -4.890625 "/></g></g></g><g fill="#ffbd59" fill-opacity="1"><g transform="translate(113.628891, 7.275495)"><g><path d="M 0.5625 -4.890625 L 0.5625 -1.890625 C 0.5625 -1.691406 0.578125 -1.476562 0.609375 -1.25 C 0.648438 -1.019531 0.738281 -0.804688 0.875 -0.609375 C 1.019531 -0.410156 1.226562 -0.242188 1.5 -0.109375 C 1.769531 0.015625 2.144531 0.078125 2.625 0.078125 C 2.925781 0.078125 3.191406 0.03125 3.421875 -0.0625 C 3.648438 -0.15625 3.84375 -0.28125 4 -0.4375 C 4.15625 -0.601562 4.269531 -0.789062 4.34375 -1 C 4.425781 -1.21875 4.46875 -1.453125 4.46875 -1.703125 L 4.46875 -4.890625 L 4.15625 -4.890625 L 4.15625 -1.9375 C 4.15625 -1.832031 4.15625 -1.726562 4.15625 -1.625 C 4.15625 -1.519531 4.140625 -1.414062 4.109375 -1.3125 C 4.085938 -1.207031 4.050781 -1.101562 4 -1 C 3.957031 -0.894531 3.890625 -0.789062 3.796875 -0.6875 C 3.628906 -0.507812 3.4375 -0.382812 3.21875 -0.3125 C 3.007812 -0.25 2.789062 -0.21875 2.5625 -0.21875 C 2.375 -0.21875 2.203125 -0.25 2.046875 -0.3125 C 1.898438 -0.375 1.757812 -0.46875 1.625 -0.59375 C 1.507812 -0.675781 1.425781 -0.765625 1.375 -0.859375 C 1.320312 -0.953125 1.28125 -1.046875 1.25 -1.140625 C 1.21875 -1.234375 1.195312 -1.328125 1.1875 -1.421875 C 1.1875 -1.515625 1.1875 -1.609375 1.1875 -1.703125 L 1.1875 -4.890625 Z M 0.5625 -4.890625 "/></g></g></g><g fill="#ffbd59" fill-opacity="1"><g transform="translate(120.676774, 7.275495)"><g><path d="M 0.84375 -4.890625 L 0.84375 0 L 4 0 L 4 -0.390625 L 1.46875 -0.390625 L 1.46875 -2.4375 L 3.640625 -2.4375 L 3.640625 -2.75 L 1.46875 -2.75 L 1.46875 -4.5 L 4 -4.5 L 4 -4.890625 Z M 0.84375 -4.890625 "/></g></g></g><g fill="#ffbd59" fill-opacity="1"><g transform="translate(126.900418, 7.275495)"><g><path d="M 0.84375 -4.890625 L 0.84375 0 L 1.46875 0 L 1.46875 -2.15625 L 1.78125 -2.15625 C 1.914062 -2.15625 2.023438 -2.144531 2.109375 -2.125 C 2.191406 -2.101562 2.265625 -2.0625 2.328125 -2 C 2.398438 -1.945312 2.46875 -1.875 2.53125 -1.78125 C 2.59375 -1.695312 2.664062 -1.585938 2.75 -1.453125 L 3.296875 -0.640625 C 3.367188 -0.535156 3.4375 -0.4375 3.5 -0.34375 C 3.570312 -0.257812 3.644531 -0.1875 3.71875 -0.125 C 3.800781 -0.0625 3.894531 -0.015625 4 0.015625 C 4.101562 0.0546875 4.222656 0.078125 4.359375 0.078125 C 4.460938 0.078125 4.546875 0.0703125 4.609375 0.0625 C 4.671875 0.0625 4.738281 0.0390625 4.8125 0 L 4.8125 -0.265625 C 4.78125 -0.253906 4.753906 -0.25 4.734375 -0.25 C 4.710938 -0.25 4.691406 -0.25 4.671875 -0.25 C 4.566406 -0.25 4.476562 -0.257812 4.40625 -0.28125 C 4.332031 -0.3125 4.257812 -0.351562 4.1875 -0.40625 C 4.125 -0.457031 4.0625 -0.519531 4 -0.59375 C 3.945312 -0.675781 3.890625 -0.765625 3.828125 -0.859375 C 3.628906 -1.148438 3.472656 -1.378906 3.359375 -1.546875 C 3.253906 -1.710938 3.171875 -1.84375 3.109375 -1.9375 C 3.046875 -2.03125 2.992188 -2.097656 2.953125 -2.140625 C 2.921875 -2.179688 2.875 -2.21875 2.8125 -2.25 L 2.75 -2.28125 L 2.75 -2.3125 C 2.96875 -2.320312 3.15625 -2.367188 3.3125 -2.453125 C 3.476562 -2.535156 3.613281 -2.640625 3.71875 -2.765625 C 3.820312 -2.898438 3.894531 -3.039062 3.9375 -3.1875 C 3.988281 -3.332031 4.015625 -3.472656 4.015625 -3.609375 C 4.015625 -3.734375 3.988281 -3.867188 3.9375 -4.015625 C 3.882812 -4.171875 3.796875 -4.3125 3.671875 -4.4375 C 3.554688 -4.5625 3.394531 -4.664062 3.1875 -4.75 C 2.988281 -4.84375 2.734375 -4.890625 2.421875 -4.890625 Z M 1.46875 -4.578125 L 2.171875 -4.578125 C 2.347656 -4.578125 2.507812 -4.550781 2.65625 -4.5 C 2.800781 -4.445312 2.921875 -4.375 3.015625 -4.28125 C 3.117188 -4.195312 3.195312 -4.09375 3.25 -3.96875 C 3.3125 -3.84375 3.34375 -3.707031 3.34375 -3.5625 C 3.34375 -3.425781 3.316406 -3.296875 3.265625 -3.171875 C 3.210938 -3.046875 3.140625 -2.929688 3.046875 -2.828125 C 2.953125 -2.722656 2.832031 -2.632812 2.6875 -2.5625 C 2.539062 -2.5 2.375 -2.46875 2.1875 -2.46875 L 1.46875 -2.46875 Z M 1.46875 -4.578125 "/></g></g></g></g></g></svg>