<svg xmlns="http://www.w3.org/2000/svg" xmlns:xlink="http://www.w3.org/1999/xlink" width="318" zoomAndPan="magnify" viewBox="0 0 238.5 255.749992" height="341" preserveAspectRatio="xMidYMid meet" version="1.0"><defs><clipPath id="f72184168a"><path d="M 61 65.21875 L 176.691406 65.21875 L 176.691406 190 L 61 190 Z M 61 65.21875 " clip-rule="nonzero"/></clipPath><clipPath id="c7e73a6388"><path d="M 0 0.144531 L 237.253906 0.144531 L 237.253906 254.609375 L 0 254.609375 Z M 0 0.144531 " clip-rule="nonzero"/></clipPath></defs><path fill="#81b62a" d="M 117.636719 69.011719 C 117.703125 68.9375 117.777344 68.867188 117.855469 68.808594 L 117.886719 68.78125 L 117.921875 68.757812 L 117.960938 68.726562 L 118.003906 68.703125 L 118.011719 68.695312 L 118.054688 68.667969 L 118.15625 68.613281 L 118.214844 68.585938 L 118.253906 68.566406 C 118.445312 68.480469 118.648438 68.429688 118.859375 68.410156 L 118.914062 68.40625 L 119.105469 68.40625 L 119.152344 68.410156 C 119.367188 68.429688 119.570312 68.480469 119.761719 68.566406 L 119.792969 68.582031 L 119.878906 68.621094 L 119.921875 68.644531 L 119.960938 68.667969 L 119.96875 68.675781 L 120.011719 68.703125 L 120.0625 68.734375 L 120.109375 68.769531 L 120.160156 68.804688 L 120.1875 68.828125 C 120.253906 68.882812 120.316406 68.945312 120.378906 69.011719 L 173.203125 126.292969 C 173.4375 126.546875 173.589844 126.851562 173.65625 127.171875 C 173.699219 127.390625 173.707031 127.621094 173.667969 127.847656 C 173.636719 128.046875 173.574219 128.242188 173.476562 128.421875 L 173.472656 128.429688 C 173.394531 128.574219 173.300781 128.703125 173.191406 128.816406 L 120.6875 185.75 C 120.367188 186.3125 119.765625 186.691406 119.078125 186.691406 C 119.0625 186.691406 119.050781 186.691406 119.039062 186.691406 C 119.03125 186.691406 119.019531 186.691406 119.007812 186.691406 C 118.488281 186.691406 117.996094 186.476562 117.644531 186.09375 L 64.8125 128.804688 C 64.15625 128.09375 64.15625 127.003906 64.8125 126.292969 Z M 117.636719 69.011719 " fill-opacity="1" fill-rule="evenodd"/><g clip-path="url(#f72184168a)"><path fill="#81b62a" d="M 67.988281 127.546875 L 119.007812 72.226562 L 170.027344 127.546875 L 119.007812 182.871094 Z M 121.558594 65.914062 L 121.613281 65.945312 L 121.617188 65.949219 L 121.613281 65.945312 L 121.660156 65.972656 L 121.703125 66 C 121.730469 66.015625 121.757812 66.035156 121.78125 66.050781 L 121.832031 66.085938 C 121.859375 66.105469 121.890625 66.125 121.917969 66.144531 L 121.964844 66.179688 C 121.992188 66.199219 122.023438 66.21875 122.050781 66.242188 L 122.097656 66.277344 C 122.121094 66.292969 122.140625 66.3125 122.164062 66.328125 L 122.1875 66.351562 C 122.195312 66.355469 122.203125 66.363281 122.210938 66.367188 C 122.394531 66.519531 175.546875 124.132812 175.546875 124.132812 C 176.1875 124.828125 176.597656 125.660156 176.777344 126.527344 C 176.898438 127.117188 176.917969 127.738281 176.8125 128.363281 C 176.726562 128.902344 176.550781 129.429688 176.285156 129.925781 L 176.28125 129.933594 L 176.277344 129.9375 L 176.277344 129.941406 C 176.066406 130.328125 175.8125 130.679688 175.523438 130.992188 C 175.523438 130.988281 126.628906 184.007812 123.214844 187.707031 C 122.308594 189.019531 120.792969 189.875 119.082031 189.878906 L 119.007812 189.878906 C 117.601562 189.878906 116.257812 189.289062 115.304688 188.257812 L 62.46875 130.964844 C 60.691406 129.035156 60.691406 126.0625 62.46875 124.132812 C 62.46875 124.132812 114.679688 67.519531 115.289062 66.855469 L 115.289062 66.859375 C 115.46875 66.660156 115.667969 66.476562 115.875 66.3125 L 115.902344 66.289062 L 115.9375 66.265625 L 115.992188 66.21875 L 116.027344 66.195312 C 116.046875 66.179688 116.070312 66.164062 116.089844 66.148438 L 116.132812 66.121094 C 116.152344 66.105469 116.175781 66.089844 116.199219 66.074219 L 116.238281 66.046875 L 116.285156 66.019531 C 116.285156 66.019531 116.835938 65.675781 116.332031 65.988281 L 116.375 65.960938 C 116.402344 65.945312 116.429688 65.929688 116.457031 65.914062 L 116.507812 65.882812 C 116.535156 65.867188 116.566406 65.851562 116.597656 65.832031 L 116.648438 65.804688 C 116.679688 65.789062 116.710938 65.773438 116.742188 65.757812 L 116.796875 65.730469 C 116.824219 65.714844 116.851562 65.703125 116.882812 65.691406 L 116.921875 65.671875 C 116.933594 65.664062 116.945312 65.660156 116.957031 65.65625 C 117.472656 65.425781 118.03125 65.28125 118.609375 65.234375 C 118.625 65.234375 118.640625 65.234375 118.65625 65.230469 L 118.707031 65.226562 C 118.734375 65.226562 118.757812 65.226562 118.78125 65.222656 L 118.816406 65.222656 C 118.835938 65.222656 118.859375 65.222656 118.882812 65.21875 L 118.929688 65.21875 C 118.957031 65.21875 118.984375 65.21875 119.011719 65.21875 L 119.0625 65.21875 C 119.09375 65.21875 119.125 65.21875 119.160156 65.222656 L 119.21875 65.222656 C 119.25 65.226562 119.28125 65.226562 119.3125 65.230469 L 119.363281 65.230469 C 119.375 65.234375 119.390625 65.234375 119.402344 65.234375 C 119.980469 65.28125 120.539062 65.425781 121.058594 65.65625 C 121.066406 65.660156 121.074219 65.664062 121.085938 65.667969 L 121.117188 65.683594 C 121.140625 65.691406 121.164062 65.703125 121.1875 65.714844 L 121.226562 65.734375 C 121.25 65.746094 121.273438 65.757812 121.296875 65.769531 L 121.339844 65.789062 C 121.363281 65.804688 121.386719 65.816406 121.410156 65.828125 L 121.453125 65.851562 C 121.476562 65.867188 121.503906 65.878906 121.527344 65.894531 L 121.566406 65.917969 L 121.558594 65.917969 Z M 121.558594 65.914062 " fill-opacity="1" fill-rule="evenodd"/></g><path fill="#81b62a" d="M 117.636719 69.011719 C 117.703125 68.9375 117.777344 68.867188 117.855469 68.808594 L 117.886719 68.78125 L 117.921875 68.757812 L 117.960938 68.726562 L 118.003906 68.703125 L 118.011719 68.695312 L 118.054688 68.667969 L 118.15625 68.613281 L 118.214844 68.585938 L 118.253906 68.566406 C 118.445312 68.480469 118.648438 68.429688 118.859375 68.410156 L 118.914062 68.40625 L 119.105469 68.40625 L 119.152344 68.410156 C 119.367188 68.429688 119.570312 68.480469 119.761719 68.566406 L 119.792969 68.582031 L 119.878906 68.621094 L 119.921875 68.644531 L 119.960938 68.667969 L 119.96875 68.675781 L 120.011719 68.703125 L 120.0625 68.734375 L 120.109375 68.769531 L 120.160156 68.804688 L 120.1875 68.828125 C 120.253906 68.882812 120.316406 68.945312 120.378906 69.011719 L 173.203125 126.292969 C 173.4375 126.546875 173.589844 126.851562 173.65625 127.171875 C 173.699219 127.390625 173.707031 127.621094 173.667969 127.847656 C 173.636719 128.046875 173.574219 128.242188 173.476562 128.421875 L 173.472656 128.429688 C 173.394531 128.574219 173.300781 128.703125 173.191406 128.816406 L 120.6875 185.75 C 120.367188 186.3125 119.765625 186.691406 119.078125 186.691406 C 119.0625 186.691406 119.050781 186.691406 119.039062 186.691406 C 119.03125 186.691406 119.019531 186.691406 119.007812 186.691406 C 118.488281 186.691406 117.996094 186.476562 117.644531 186.09375 L 64.8125 128.804688 C 64.15625 128.09375 64.15625 127.003906 64.8125 126.292969 Z M 117.636719 69.011719 " fill-opacity="1" fill-rule="evenodd"/><path fill="#000000" d="M 122.769531 163.289062 L 122.40625 175.925781 L 164.921875 130.703125 L 124.332031 169.882812 Z M 115.402344 162.964844 L 114.902344 174.179688 L 73.160156 130.753906 L 113.03125 169.320312 Z M 115.402344 162.964844 " fill-opacity="1" fill-rule="evenodd"/><path fill="#000000" d="M 73.265625 129.539062 L 90.023438 125.625 L 115.316406 138.074219 L 115.316406 161.457031 C 115.316406 161.457031 113.046875 131.53125 73.265625 129.539062 " fill-opacity="1" fill-rule="evenodd"/><path fill="#000000" d="M 151.238281 117.535156 L 160.796875 120.691406 L 136.835938 94.328125 Z M 151.238281 117.535156 " fill-opacity="1" fill-rule="evenodd"/><path fill="#000000" d="M 87.398438 117.535156 L 77.84375 120.691406 L 101.804688 94.328125 Z M 87.398438 117.535156 " fill-opacity="1" fill-rule="evenodd"/><path fill="#000000" d="M 164.574219 129.539062 L 147.8125 125.625 L 122.519531 138.074219 L 122.519531 161.457031 C 122.519531 161.457031 124.792969 131.53125 164.574219 129.539062 " fill-opacity="1" fill-rule="evenodd"/><path fill="#000000" d="M 148.925781 123.433594 L 168.394531 128.558594 L 120.921875 180.035156 L 120.863281 136.636719 L 148.847656 123.472656 C 148.875 123.460938 148.898438 123.449219 148.925781 123.433594 M 69.648438 128.585938 L 89.640625 123.324219 L 117.15625 136.625 L 117.214844 180.164062 Z M 109.546875 83.246094 L 88.992188 119.664062 L 71.789062 124.191406 Z M 148.953125 119.613281 L 128.4375 83.214844 L 166.183594 124.144531 Z M 119.007812 74.027344 C 119.007812 74.027344 97.535156 112.066406 92.671875 120.675781 C 92.671875 120.675781 114.539062 131.246094 119.019531 133.410156 C 122.902344 131.582031 139.863281 123.605469 145.464844 120.96875 Z M 117.636719 69.011719 C 117.707031 68.9375 117.777344 68.867188 117.855469 68.808594 L 117.863281 68.804688 L 117.875 68.792969 L 117.886719 68.785156 L 117.898438 68.773438 L 117.921875 68.757812 C 117.929688 68.75 117.9375 68.746094 117.945312 68.738281 L 117.953125 68.734375 L 117.964844 68.726562 L 117.972656 68.722656 C 117.980469 68.714844 117.988281 68.710938 117.996094 68.707031 L 118.003906 68.699219 L 118.011719 68.695312 C 118.023438 68.6875 118.035156 68.679688 118.046875 68.671875 L 118.054688 68.671875 L 118.0625 68.664062 C 118.070312 68.660156 118.078125 68.65625 118.085938 68.648438 L 118.09375 68.644531 L 118.105469 68.640625 L 118.128906 68.628906 L 118.140625 68.621094 L 118.15625 68.613281 L 118.167969 68.605469 L 118.179688 68.601562 L 118.195312 68.59375 L 118.207031 68.585938 L 118.222656 68.582031 L 118.234375 68.574219 L 118.25 68.566406 L 118.253906 68.566406 C 118.445312 68.480469 118.648438 68.425781 118.863281 68.410156 L 118.898438 68.410156 L 118.929688 68.40625 L 119.070312 68.40625 L 119.117188 68.410156 L 119.152344 68.410156 C 119.367188 68.425781 119.570312 68.480469 119.761719 68.566406 L 119.765625 68.566406 L 119.78125 68.574219 C 119.785156 68.578125 119.789062 68.578125 119.796875 68.582031 L 119.808594 68.585938 L 119.824219 68.59375 L 119.847656 68.609375 L 119.863281 68.613281 L 119.878906 68.621094 C 119.886719 68.625 119.894531 68.628906 119.902344 68.636719 L 119.910156 68.640625 L 119.921875 68.644531 L 119.929688 68.652344 C 119.9375 68.65625 119.945312 68.660156 119.953125 68.664062 L 119.960938 68.671875 L 119.96875 68.675781 C 119.980469 68.683594 119.992188 68.691406 120.007812 68.699219 L 120.011719 68.699219 L 120.019531 68.707031 C 120.027344 68.710938 120.035156 68.71875 120.042969 68.722656 L 120.050781 68.726562 L 120.0625 68.734375 L 120.070312 68.742188 L 120.105469 68.765625 L 120.121094 68.777344 L 120.144531 68.792969 L 120.15625 68.804688 L 120.167969 68.8125 C 120.171875 68.816406 120.175781 68.820312 120.179688 68.820312 L 120.1875 68.828125 C 120.253906 68.882812 120.316406 68.945312 120.378906 69.011719 L 173.203125 126.292969 C 173.4375 126.546875 173.589844 126.855469 173.65625 127.171875 C 173.703125 127.390625 173.707031 127.621094 173.671875 127.847656 C 173.636719 128.046875 173.574219 128.242188 173.476562 128.421875 L 173.472656 128.429688 C 173.394531 128.570312 173.300781 128.703125 173.191406 128.816406 L 120.6875 185.75 C 120.371094 186.3125 119.765625 186.691406 119.078125 186.691406 C 119.066406 186.691406 119.054688 186.691406 119.039062 186.691406 C 119.03125 186.691406 119.019531 186.691406 119.007812 186.691406 C 118.492188 186.691406 117.996094 186.476562 117.644531 186.09375 L 64.8125 128.804688 C 64.15625 128.09375 64.15625 127.003906 64.8125 126.292969 Z M 117.636719 69.011719 " fill-opacity="1" fill-rule="evenodd"/><path fill="#000000" d="M 94.320312 120.214844 L 119.070312 131.875 L 143.28125 119.945312 L 119.070312 126.800781 Z M 94.320312 120.214844 " fill-opacity="1" fill-rule="evenodd"/><path fill="#000000" d="M 114.40625 116.820312 C 114.40625 114.675781 115.476562 112.839844 117.609375 111.3125 C 119.753906 109.78125 120.832031 108.484375 120.839844 107.414062 L 120.839844 102.742188 C 120.839844 101.667969 120.347656 101.128906 119.359375 101.128906 L 119.335938 101.128906 C 118.339844 101.128906 117.84375 101.667969 117.84375 102.742188 L 117.84375 105.933594 L 114.40625 105.933594 L 114.40625 102.742188 C 114.40625 99.402344 116.050781 97.730469 119.335938 97.730469 C 122.628906 97.730469 124.273438 99.402344 124.273438 102.742188 L 124.273438 107.5 C 124.273438 109.683594 123.203125 111.546875 121.058594 113.082031 C 118.914062 114.613281 117.84375 115.953125 117.84375 117.113281 L 117.84375 118.542969 L 124.273438 118.542969 L 124.273438 121.929688 L 114.40625 121.929688 Z M 114.40625 116.820312 " fill-opacity="1" fill-rule="nonzero"/><path fill="#000000" d="M 119.230469 77.644531 L 131.648438 100.828125 L 119.230469 82.703125 L 110.488281 92.273438 Z M 119.230469 77.644531 " fill-opacity="1" fill-rule="evenodd"/><path fill="#81b62a" d="M 116.417969 7.894531 C 116.554688 7.742188 116.707031 7.605469 116.863281 7.476562 L 116.929688 7.425781 L 117 7.375 L 117.082031 7.316406 L 117.164062 7.261719 L 117.179688 7.253906 L 117.269531 7.199219 L 117.375 7.136719 L 117.480469 7.078125 L 117.59375 7.023438 L 117.679688 6.984375 C 118.066406 6.8125 118.484375 6.703125 118.921875 6.667969 L 119.027344 6.660156 L 119.09375 6.660156 L 119.191406 6.65625 L 119.292969 6.65625 L 119.417969 6.660156 L 119.515625 6.667969 C 119.953125 6.703125 120.371094 6.8125 120.757812 6.984375 L 120.828125 7.015625 L 120.914062 7.058594 L 120.996094 7.097656 L 121.085938 7.148438 L 121.167969 7.199219 L 121.183594 7.207031 L 121.273438 7.261719 L 121.375 7.328125 L 121.472656 7.398438 L 121.574219 7.476562 L 121.628906 7.519531 C 121.765625 7.636719 121.898438 7.761719 122.019531 7.894531 L 229.996094 124.976562 C 230.476562 125.5 230.785156 126.125 230.917969 126.777344 C 231.011719 127.222656 231.027344 127.691406 230.949219 128.160156 C 230.882812 128.5625 230.75 128.960938 230.550781 129.332031 L 230.542969 129.34375 C 230.386719 129.636719 230.191406 129.902344 229.972656 130.140625 L 122.652344 246.511719 C 122 247.65625 120.769531 248.433594 119.359375 248.433594 C 119.335938 248.433594 119.3125 248.433594 119.285156 248.433594 C 119.265625 248.433594 119.242188 248.433594 119.21875 248.433594 C 118.160156 248.433594 117.152344 247.992188 116.433594 247.214844 L 8.441406 130.113281 C 7.105469 128.664062 7.105469 126.429688 8.441406 124.980469 Z M 116.417969 7.894531 " fill-opacity="1" fill-rule="evenodd"/><g clip-path="url(#c7e73a6388)"><path fill="#81b62a" d="M 14.933594 127.546875 L 119.21875 14.464844 L 223.503906 127.546875 L 119.21875 240.625 Z M 124.4375 1.570312 L 124.546875 1.632812 L 124.554688 1.636719 L 124.546875 1.632812 L 124.640625 1.6875 L 124.726562 1.742188 C 124.78125 1.777344 124.835938 1.8125 124.890625 1.847656 L 124.992188 1.917969 C 125.050781 1.953125 125.109375 1.996094 125.164062 2.035156 L 125.265625 2.105469 C 125.324219 2.148438 125.378906 2.191406 125.4375 2.234375 L 125.535156 2.308594 C 125.582031 2.34375 125.625 2.378906 125.667969 2.414062 L 125.722656 2.457031 C 125.738281 2.46875 125.753906 2.480469 125.769531 2.492188 C 126.140625 2.800781 234.785156 120.5625 234.785156 120.5625 C 236.09375 121.984375 236.929688 123.683594 237.296875 125.460938 C 237.546875 126.660156 237.585938 127.933594 237.375 129.214844 C 237.195312 130.316406 236.835938 131.394531 236.296875 132.402344 L 236.285156 132.421875 L 236.28125 132.429688 L 236.273438 132.4375 C 235.851562 133.226562 235.332031 133.945312 234.734375 134.582031 C 234.742188 134.574219 134.796875 242.949219 127.820312 250.511719 C 125.96875 253.1875 122.871094 254.945312 119.367188 254.949219 L 119.21875 254.949219 C 116.34375 254.949219 113.597656 253.746094 111.648438 251.632812 L 3.652344 134.527344 C 0.015625 130.585938 0.015625 124.507812 3.652344 120.5625 C 3.652344 120.5625 110.371094 4.84375 111.621094 3.492188 L 111.617188 3.492188 C 111.988281 3.089844 112.390625 2.714844 112.816406 2.375 L 112.871094 2.332031 L 112.941406 2.28125 L 113.054688 2.191406 L 113.125 2.140625 C 113.167969 2.105469 113.214844 2.074219 113.257812 2.042969 L 113.339844 1.984375 C 113.386719 1.953125 113.433594 1.921875 113.484375 1.890625 L 113.5625 1.835938 L 113.652344 1.777344 C 113.652344 1.777344 114.777344 1.078125 113.746094 1.71875 L 113.835938 1.664062 C 113.890625 1.628906 113.949219 1.59375 114.003906 1.5625 L 114.109375 1.5 C 114.167969 1.46875 114.230469 1.433594 114.292969 1.398438 L 114.398438 1.34375 C 114.460938 1.308594 114.523438 1.277344 114.589844 1.242188 L 114.703125 1.1875 C 114.761719 1.160156 114.816406 1.132812 114.871094 1.105469 L 114.957031 1.070312 C 114.980469 1.058594 115.003906 1.046875 115.027344 1.035156 C 116.085938 0.5625 117.226562 0.269531 118.40625 0.175781 C 118.4375 0.171875 118.46875 0.171875 118.496094 0.171875 L 118.605469 0.164062 C 118.660156 0.160156 118.707031 0.15625 118.757812 0.15625 L 118.824219 0.152344 C 118.871094 0.148438 118.917969 0.148438 118.964844 0.148438 L 119.058594 0.144531 C 119.117188 0.144531 119.171875 0.144531 119.230469 0.144531 L 119.332031 0.144531 C 119.398438 0.144531 119.460938 0.144531 119.527344 0.148438 L 119.652344 0.152344 C 119.714844 0.15625 119.777344 0.160156 119.84375 0.164062 L 119.945312 0.171875 C 119.972656 0.171875 120 0.171875 120.027344 0.175781 C 121.210938 0.269531 122.351562 0.5625 123.410156 1.035156 C 123.425781 1.042969 123.445312 1.050781 123.464844 1.0625 L 123.535156 1.09375 C 123.582031 1.113281 123.625 1.136719 123.671875 1.15625 L 123.757812 1.199219 C 123.804688 1.222656 123.855469 1.246094 123.902344 1.269531 L 123.984375 1.3125 C 124.03125 1.339844 124.082031 1.363281 124.132812 1.390625 L 124.21875 1.4375 C 124.269531 1.46875 124.320312 1.496094 124.367188 1.523438 L 124.453125 1.574219 Z M 124.4375 1.570312 " fill-opacity="1" fill-rule="evenodd"/></g><path fill="#81b62a" d="M 116.417969 7.894531 C 116.554688 7.742188 116.707031 7.605469 116.863281 7.476562 L 116.929688 7.425781 L 117 7.375 L 117.082031 7.316406 L 117.164062 7.261719 L 117.179688 7.253906 L 117.269531 7.199219 L 117.375 7.136719 L 117.480469 7.078125 L 117.59375 7.023438 L 117.679688 6.984375 C 118.066406 6.8125 118.484375 6.703125 118.921875 6.667969 L 119.027344 6.660156 L 119.09375 6.660156 L 119.191406 6.65625 L 119.292969 6.65625 L 119.417969 6.660156 L 119.515625 6.667969 C 119.953125 6.703125 120.371094 6.8125 120.757812 6.984375 L 120.828125 7.015625 L 120.914062 7.058594 L 120.996094 7.097656 L 121.085938 7.148438 L 121.167969 7.199219 L 121.183594 7.207031 L 121.273438 7.261719 L 121.375 7.328125 L 121.472656 7.398438 L 121.574219 7.476562 L 121.628906 7.519531 C 121.765625 7.636719 121.898438 7.761719 122.019531 7.894531 L 229.996094 124.976562 C 230.476562 125.5 230.785156 126.125 230.917969 126.777344 C 231.011719 127.222656 231.027344 127.691406 230.949219 128.160156 C 230.882812 128.5625 230.75 128.960938 230.550781 129.332031 L 230.542969 129.34375 C 230.386719 129.636719 230.191406 129.902344 229.972656 130.140625 L 122.652344 246.511719 C 122 247.65625 120.769531 248.433594 119.359375 248.433594 C 119.335938 248.433594 119.3125 248.433594 119.285156 248.433594 C 119.265625 248.433594 119.242188 248.433594 119.21875 248.433594 C 118.160156 248.433594 117.152344 247.992188 116.433594 247.214844 L 8.441406 130.113281 C 7.105469 128.664062 7.105469 126.429688 8.441406 124.980469 Z M 116.417969 7.894531 " fill-opacity="1" fill-rule="evenodd"/><path fill="#000000" d="M 126.90625 200.597656 L 126.167969 226.429688 L 213.070312 133.992188 L 130.105469 214.078125 Z M 111.847656 199.9375 L 110.828125 222.859375 L 25.503906 134.097656 L 107.007812 212.925781 Z M 111.847656 199.9375 " fill-opacity="1" fill-rule="evenodd"/><path fill="#000000" d="M 25.71875 131.613281 L 59.972656 123.617188 L 111.675781 149.058594 L 111.675781 196.855469 C 111.675781 196.855469 107.03125 135.683594 25.71875 131.613281 " fill-opacity="1" fill-rule="evenodd"/><path fill="#000000" d="M 185.097656 107.078125 L 204.632812 113.53125 L 155.65625 59.644531 Z M 185.097656 107.078125 " fill-opacity="1" fill-rule="evenodd"/><path fill="#000000" d="M 54.613281 107.078125 L 35.078125 113.53125 L 84.054688 59.644531 Z M 54.613281 107.078125 " fill-opacity="1" fill-rule="evenodd"/><path fill="#000000" d="M 212.355469 131.613281 L 178.097656 123.617188 L 126.398438 149.058594 L 126.398438 196.855469 C 126.398438 196.855469 131.042969 135.683594 212.355469 131.613281 " fill-opacity="1" fill-rule="evenodd"/><path fill="#000000" d="M 180.371094 119.136719 L 220.164062 129.605469 L 123.128906 234.824219 L 123.007812 146.121094 L 180.210938 119.214844 C 180.265625 119.191406 180.316406 119.164062 180.371094 119.136719 M 18.328125 129.664062 L 59.191406 118.914062 L 115.4375 146.097656 L 115.558594 235.09375 Z M 99.882812 36.992188 L 57.863281 111.433594 L 22.703125 120.683594 Z M 180.429688 111.324219 L 138.496094 36.929688 L 215.644531 120.585938 Z M 119.21875 18.148438 C 119.21875 18.148438 75.328125 95.898438 65.394531 113.5 C 65.394531 113.5 110.089844 135.101562 119.242188 139.523438 C 127.183594 135.789062 161.847656 119.484375 173.300781 114.097656 L 119.214844 18.148438 Z M 116.417969 7.894531 C 116.558594 7.742188 116.707031 7.605469 116.867188 7.476562 L 116.875 7.46875 L 116.902344 7.449219 L 116.949219 7.410156 L 116.976562 7.394531 L 117 7.375 C 117.019531 7.363281 117.03125 7.351562 117.050781 7.339844 L 117.066406 7.328125 L 117.085938 7.316406 L 117.101562 7.304688 C 117.117188 7.292969 117.136719 7.28125 117.152344 7.269531 L 117.164062 7.261719 L 117.179688 7.253906 C 117.207031 7.234375 117.230469 7.222656 117.257812 7.207031 L 117.269531 7.199219 L 117.285156 7.1875 C 117.300781 7.179688 117.320312 7.167969 117.335938 7.15625 L 117.355469 7.148438 L 117.394531 7.125 L 117.421875 7.109375 L 117.445312 7.097656 L 117.480469 7.078125 L 117.527344 7.054688 L 117.554688 7.042969 L 117.585938 7.027344 L 117.613281 7.015625 L 117.640625 7 L 117.667969 6.988281 L 117.679688 6.984375 C 118.066406 6.8125 118.488281 6.703125 118.921875 6.667969 L 118.933594 6.667969 L 118.996094 6.664062 L 119.0625 6.660156 L 119.09375 6.660156 L 119.125 6.65625 L 119.316406 6.65625 L 119.347656 6.660156 L 119.445312 6.664062 L 119.507812 6.667969 L 119.519531 6.667969 C 119.953125 6.703125 120.371094 6.8125 120.757812 6.984375 L 120.773438 6.988281 L 120.800781 7.003906 C 120.808594 7.007812 120.820312 7.011719 120.828125 7.015625 L 120.855469 7.027344 L 120.882812 7.042969 L 120.914062 7.058594 L 120.96875 7.082031 L 120.996094 7.101562 C 121.015625 7.109375 121.03125 7.117188 121.046875 7.128906 L 121.066406 7.136719 L 121.085938 7.148438 L 121.101562 7.160156 C 121.121094 7.167969 121.136719 7.179688 121.15625 7.1875 L 121.167969 7.199219 L 121.183594 7.207031 C 121.210938 7.222656 121.234375 7.238281 121.261719 7.253906 L 121.273438 7.261719 L 121.289062 7.273438 C 121.304688 7.28125 121.320312 7.292969 121.339844 7.304688 L 121.355469 7.316406 L 121.375 7.328125 L 121.390625 7.339844 L 121.417969 7.359375 L 121.441406 7.378906 L 121.464844 7.394531 L 121.492188 7.414062 L 121.515625 7.433594 L 121.539062 7.449219 L 121.566406 7.46875 L 121.589844 7.488281 C 121.597656 7.496094 121.605469 7.503906 121.613281 7.507812 L 121.628906 7.519531 C 121.765625 7.636719 121.898438 7.761719 122.019531 7.894531 L 229.996094 124.980469 C 230.476562 125.5 230.785156 126.125 230.921875 126.777344 C 231.011719 127.222656 231.027344 127.691406 230.949219 128.160156 C 230.882812 128.5625 230.75 128.960938 230.554688 129.332031 L 230.542969 129.347656 C 230.386719 129.636719 230.195312 129.902344 229.972656 130.140625 L 122.652344 246.511719 C 122.003906 247.65625 120.773438 248.433594 119.359375 248.433594 C 119.335938 248.433594 119.3125 248.433594 119.289062 248.433594 C 119.265625 248.433594 119.242188 248.433594 119.21875 248.433594 C 118.164062 248.433594 117.152344 247.992188 116.4375 247.214844 L 8.441406 130.113281 C 7.105469 128.664062 7.105469 126.429688 8.441406 124.980469 Z M 116.417969 7.894531 " fill-opacity="1" fill-rule="evenodd"/><path fill="#000000" d="M 68.757812 112.554688 L 119.34375 136.390625 L 168.835938 112.007812 L 119.34375 126.019531 Z M 68.757812 112.554688 " fill-opacity="1" fill-rule="evenodd"/><path fill="#000000" d="M 109.816406 105.617188 C 109.816406 101.234375 112 97.480469 116.367188 94.355469 C 120.746094 91.230469 122.945312 88.574219 122.964844 86.394531 L 122.964844 76.84375 C 122.964844 74.644531 121.953125 73.542969 119.9375 73.542969 L 119.886719 73.542969 C 117.855469 73.542969 116.835938 74.644531 116.835938 76.84375 L 116.835938 83.367188 L 109.816406 83.367188 L 109.816406 76.84375 C 109.816406 70.011719 113.171875 66.597656 119.886719 66.597656 C 126.617188 66.597656 129.984375 70.011719 129.984375 76.84375 L 129.984375 86.566406 C 129.984375 91.03125 127.792969 94.835938 123.410156 97.976562 C 119.027344 101.101562 116.835938 103.847656 116.835938 106.214844 L 116.835938 109.140625 L 129.984375 109.140625 L 129.984375 116.0625 L 109.816406 116.0625 Z M 109.816406 105.617188 " fill-opacity="1" fill-rule="nonzero"/><path fill="#000000" d="M 119.671875 25.539062 L 145.058594 72.929688 L 119.671875 35.882812 L 101.808594 55.441406 Z M 119.671875 25.539062 " fill-opacity="1" fill-rule="evenodd"/></svg>