<svg xmlns="http://www.w3.org/2000/svg" xmlns:xlink="http://www.w3.org/1999/xlink" width="318" zoomAndPan="magnify" viewBox="0 0 238.5 255.749992" height="341" preserveAspectRatio="xMidYMid meet" version="1.0"><defs><clipPath id="01b18b5c00"><path d="M 76 81.347656 L 161.792969 81.347656 L 161.792969 173.402344 L 76 173.402344 Z M 76 81.347656 " clip-rule="nonzero"/></clipPath><clipPath id="b54624a37e"><path d="M 0 0.144531 L 237.253906 0.144531 L 237.253906 254.609375 L 0 254.609375 Z M 0 0.144531 " clip-rule="nonzero"/></clipPath></defs><path fill="#bb1717" d="M 117.9375 84.15625 C 117.988281 84.101562 118.042969 84.050781 118.101562 84.003906 L 118.125 83.988281 L 118.152344 83.96875 L 118.179688 83.945312 L 118.210938 83.925781 L 118.214844 83.925781 L 118.246094 83.902344 L 118.285156 83.882812 L 118.324219 83.859375 L 118.367188 83.839844 L 118.394531 83.828125 C 118.535156 83.765625 118.6875 83.726562 118.847656 83.710938 L 118.886719 83.710938 L 118.910156 83.707031 L 118.980469 83.707031 L 119.027344 83.710938 L 119.0625 83.710938 C 119.21875 83.726562 119.371094 83.765625 119.511719 83.828125 L 119.539062 83.839844 L 119.570312 83.851562 L 119.597656 83.867188 L 119.632812 83.886719 L 119.660156 83.902344 L 119.667969 83.90625 L 119.699219 83.925781 L 119.734375 83.953125 L 119.773438 83.976562 L 119.808594 84.003906 L 119.828125 84.019531 C 119.878906 84.0625 119.925781 84.109375 119.96875 84.15625 L 159.125 126.613281 C 159.296875 126.804688 159.410156 127.027344 159.460938 127.265625 C 159.492188 127.425781 159.496094 127.597656 159.46875 127.765625 C 159.445312 127.914062 159.398438 128.058594 159.324219 128.191406 L 159.324219 128.195312 C 159.265625 128.304688 159.195312 128.398438 159.113281 128.484375 L 120.199219 170.683594 C 119.964844 171.097656 119.519531 171.378906 119.007812 171.378906 C 118.996094 171.378906 118.988281 171.378906 118.980469 171.378906 C 118.972656 171.378906 118.960938 171.378906 118.953125 171.378906 C 118.570312 171.378906 118.207031 171.21875 117.945312 170.9375 L 78.785156 128.476562 C 78.300781 127.949219 78.300781 127.140625 78.785156 126.613281 Z M 117.9375 84.15625 " fill-opacity="1" fill-rule="evenodd"/><g clip-path="url(#01b18b5c00)"><path fill="#bb1717" d="M 81.140625 127.542969 L 118.953125 86.539062 L 156.769531 127.542969 L 118.953125 168.546875 Z M 120.847656 81.863281 L 120.886719 81.886719 L 120.890625 81.886719 L 120.886719 81.886719 L 120.921875 81.90625 L 120.953125 81.925781 C 120.972656 81.9375 120.992188 81.953125 121.011719 81.964844 L 121.046875 81.988281 C 121.070312 82.003906 121.089844 82.015625 121.109375 82.03125 L 121.148438 82.058594 C 121.167969 82.074219 121.1875 82.089844 121.210938 82.105469 L 121.246094 82.132812 C 121.261719 82.144531 121.277344 82.15625 121.292969 82.167969 L 121.3125 82.183594 C 121.320312 82.191406 121.324219 82.195312 121.328125 82.199219 C 121.464844 82.308594 160.859375 125.011719 160.859375 125.011719 C 161.335938 125.527344 161.640625 126.144531 161.773438 126.789062 C 161.863281 127.222656 161.875 127.683594 161.800781 128.148438 C 161.734375 128.546875 161.605469 128.941406 161.410156 129.304688 L 161.402344 129.3125 L 161.402344 129.320312 C 161.246094 129.605469 161.058594 129.863281 160.84375 130.09375 C 160.84375 130.09375 124.601562 169.390625 122.074219 172.132812 C 121.402344 173.105469 120.277344 173.742188 119.007812 173.742188 L 118.953125 173.742188 C 117.910156 173.742188 116.917969 173.304688 116.210938 172.539062 L 77.050781 130.078125 C 75.730469 128.644531 75.730469 126.441406 77.050781 125.011719 C 77.050781 125.011719 115.746094 83.050781 116.199219 82.558594 L 116.199219 82.5625 C 116.332031 82.414062 116.476562 82.277344 116.632812 82.15625 L 116.652344 82.140625 L 116.679688 82.121094 L 116.71875 82.089844 L 116.746094 82.070312 C 116.761719 82.058594 116.777344 82.046875 116.792969 82.035156 L 116.824219 82.015625 C 116.839844 82.003906 116.855469 81.992188 116.875 81.980469 L 116.902344 81.960938 L 116.9375 81.9375 C 116.9375 81.9375 117.34375 81.683594 116.96875 81.917969 L 117.003906 81.898438 C 117.023438 81.886719 117.042969 81.871094 117.0625 81.859375 L 117.101562 81.839844 C 117.125 81.828125 117.144531 81.8125 117.167969 81.800781 L 117.207031 81.78125 C 117.230469 81.769531 117.253906 81.757812 117.277344 81.746094 L 117.316406 81.726562 C 117.339844 81.714844 117.359375 81.703125 117.378906 81.695312 L 117.410156 81.683594 C 117.417969 81.679688 117.425781 81.675781 117.433594 81.667969 C 117.820312 81.5 118.230469 81.390625 118.660156 81.359375 C 118.671875 81.355469 118.683594 81.355469 118.695312 81.355469 L 118.734375 81.351562 C 118.75 81.351562 118.769531 81.351562 118.789062 81.351562 L 118.8125 81.347656 C 118.828125 81.347656 118.84375 81.347656 118.863281 81.347656 L 118.898438 81.347656 C 118.917969 81.347656 118.9375 81.347656 118.957031 81.347656 L 118.996094 81.347656 C 119.019531 81.347656 119.042969 81.347656 119.066406 81.347656 L 119.113281 81.351562 C 119.132812 81.351562 119.15625 81.351562 119.179688 81.355469 L 119.21875 81.355469 C 119.226562 81.355469 119.238281 81.355469 119.246094 81.359375 C 119.675781 81.390625 120.089844 81.5 120.472656 81.667969 C 120.480469 81.671875 120.488281 81.675781 120.496094 81.679688 L 120.519531 81.691406 C 120.535156 81.699219 120.554688 81.707031 120.570312 81.714844 L 120.601562 81.730469 C 120.617188 81.738281 120.636719 81.746094 120.652344 81.753906 L 120.683594 81.769531 C 120.699219 81.78125 120.71875 81.789062 120.734375 81.796875 L 120.769531 81.816406 C 120.785156 81.828125 120.804688 81.835938 120.820312 81.847656 L 120.851562 81.863281 Z M 120.847656 81.863281 " fill-opacity="1" fill-rule="evenodd"/></g><path fill="#bb1717" d="M 117.9375 84.15625 C 117.988281 84.101562 118.042969 84.050781 118.101562 84.003906 L 118.125 83.988281 L 118.152344 83.96875 L 118.179688 83.945312 L 118.210938 83.925781 L 118.214844 83.925781 L 118.246094 83.902344 L 118.285156 83.882812 L 118.324219 83.859375 L 118.367188 83.839844 L 118.394531 83.828125 C 118.535156 83.765625 118.6875 83.726562 118.847656 83.710938 L 118.886719 83.710938 L 118.910156 83.707031 L 118.980469 83.707031 L 119.027344 83.710938 L 119.0625 83.710938 C 119.21875 83.726562 119.371094 83.765625 119.511719 83.828125 L 119.539062 83.839844 L 119.570312 83.851562 L 119.597656 83.867188 L 119.632812 83.886719 L 119.660156 83.902344 L 119.667969 83.90625 L 119.699219 83.925781 L 119.734375 83.953125 L 119.773438 83.976562 L 119.808594 84.003906 L 119.828125 84.019531 C 119.878906 84.0625 119.925781 84.109375 119.96875 84.15625 L 159.125 126.613281 C 159.296875 126.804688 159.410156 127.027344 159.460938 127.265625 C 159.492188 127.425781 159.496094 127.597656 159.46875 127.765625 C 159.445312 127.914062 159.398438 128.058594 159.324219 128.191406 L 159.324219 128.195312 C 159.265625 128.304688 159.195312 128.398438 159.113281 128.484375 L 120.199219 170.683594 C 119.964844 171.097656 119.519531 171.378906 119.007812 171.378906 C 118.996094 171.378906 118.988281 171.378906 118.980469 171.378906 C 118.972656 171.378906 118.960938 171.378906 118.953125 171.378906 C 118.570312 171.378906 118.207031 171.21875 117.945312 170.9375 L 78.785156 128.476562 C 78.300781 127.949219 78.300781 127.140625 78.785156 126.613281 Z M 117.9375 84.15625 " fill-opacity="1" fill-rule="evenodd"/><path fill="#000000" d="M 85.050781 129.019531 L 97.472656 126.121094 L 116.21875 135.34375 L 116.21875 152.675781 C 116.21875 152.675781 114.535156 130.496094 85.050781 129.019531 " fill-opacity="1" fill-rule="evenodd"/><path fill="#000000" d="M 142.84375 120.121094 L 149.925781 122.460938 L 132.167969 102.921875 Z M 142.84375 120.121094 " fill-opacity="1" fill-rule="evenodd"/><path fill="#000000" d="M 95.527344 120.121094 L 88.445312 122.460938 L 106.203125 102.921875 Z M 95.527344 120.121094 " fill-opacity="1" fill-rule="evenodd"/><path fill="#000000" d="M 152.726562 129.019531 L 140.304688 126.121094 L 121.558594 135.34375 L 121.558594 152.675781 C 121.558594 152.675781 123.242188 130.496094 152.726562 129.019531 " fill-opacity="1" fill-rule="evenodd"/><path fill="#000000" d="M 141.128906 124.496094 L 155.558594 128.292969 L 120.371094 166.445312 L 120.328125 134.28125 L 141.070312 124.523438 C 141.089844 124.515625 141.109375 124.503906 141.128906 124.496094 M 82.371094 128.3125 L 97.1875 124.414062 L 117.582031 134.269531 L 117.625 166.542969 Z M 111.945312 94.707031 L 96.707031 121.703125 L 83.957031 125.054688 Z M 141.148438 121.660156 L 125.945312 94.683594 L 153.921875 125.019531 Z M 118.953125 87.875 C 118.953125 87.875 103.039062 116.066406 99.4375 122.453125 C 99.4375 122.453125 115.644531 130.285156 118.964844 131.886719 C 121.84375 130.535156 134.414062 124.621094 138.566406 122.667969 Z M 117.941406 84.15625 C 117.988281 84.101562 118.042969 84.050781 118.101562 84.003906 L 118.105469 84.003906 L 118.113281 83.996094 L 118.125 83.988281 L 118.132812 83.980469 L 118.140625 83.976562 L 118.152344 83.96875 C 118.15625 83.964844 118.164062 83.960938 118.167969 83.957031 L 118.171875 83.953125 L 118.179688 83.949219 L 118.1875 83.941406 C 118.191406 83.9375 118.199219 83.933594 118.207031 83.929688 L 118.210938 83.925781 L 118.214844 83.925781 C 118.226562 83.917969 118.234375 83.914062 118.242188 83.90625 L 118.246094 83.90625 L 118.253906 83.902344 C 118.261719 83.898438 118.265625 83.894531 118.273438 83.890625 L 118.277344 83.886719 L 118.292969 83.878906 L 118.304688 83.871094 L 118.3125 83.867188 L 118.324219 83.859375 L 118.332031 83.855469 L 118.34375 83.851562 L 118.351562 83.847656 L 118.363281 83.84375 L 118.371094 83.839844 L 118.382812 83.832031 L 118.394531 83.828125 L 118.398438 83.828125 C 118.539062 83.765625 118.6875 83.726562 118.847656 83.710938 L 118.898438 83.710938 L 118.910156 83.707031 L 119 83.707031 L 119.035156 83.710938 L 119.0625 83.710938 C 119.21875 83.726562 119.371094 83.765625 119.511719 83.828125 L 119.519531 83.828125 L 119.527344 83.832031 C 119.53125 83.835938 119.535156 83.835938 119.539062 83.839844 L 119.550781 83.84375 L 119.558594 83.847656 L 119.570312 83.851562 L 119.578125 83.859375 L 119.601562 83.867188 C 119.605469 83.871094 119.613281 83.875 119.617188 83.878906 L 119.632812 83.886719 L 119.636719 83.890625 C 119.644531 83.894531 119.652344 83.898438 119.65625 83.902344 L 119.664062 83.90625 L 119.667969 83.90625 C 119.675781 83.914062 119.6875 83.917969 119.695312 83.925781 L 119.699219 83.925781 L 119.707031 83.929688 C 119.710938 83.933594 119.71875 83.9375 119.722656 83.941406 L 119.730469 83.949219 L 119.738281 83.953125 L 119.75 83.964844 L 119.761719 83.96875 L 119.769531 83.976562 L 119.78125 83.984375 L 119.789062 83.988281 L 119.8125 84.011719 C 119.816406 84.011719 119.820312 84.015625 119.824219 84.015625 L 119.828125 84.019531 C 119.878906 84.0625 119.925781 84.109375 119.972656 84.15625 L 159.125 126.613281 C 159.300781 126.804688 159.410156 127.027344 159.460938 127.265625 C 159.492188 127.425781 159.5 127.597656 159.46875 127.765625 C 159.445312 127.914062 159.398438 128.058594 159.324219 128.191406 L 159.324219 128.195312 C 159.265625 128.304688 159.195312 128.398438 159.117188 128.484375 L 120.199219 170.683594 C 119.964844 171.097656 119.519531 171.378906 119.007812 171.378906 C 118.996094 171.378906 118.988281 171.378906 118.980469 171.378906 C 118.972656 171.378906 118.964844 171.378906 118.953125 171.378906 C 118.570312 171.378906 118.207031 171.21875 117.945312 170.9375 L 78.785156 128.476562 C 78.300781 127.949219 78.300781 127.140625 78.785156 126.613281 Z M 117.941406 84.15625 " fill-opacity="1" fill-rule="evenodd"/><path fill="#000000" d="M 121.742188 154.035156 L 121.476562 163.398438 L 152.984375 129.882812 L 122.902344 158.921875 Z M 116.28125 153.792969 L 115.914062 162.105469 L 84.972656 129.917969 L 114.527344 158.503906 Z M 116.28125 153.792969 " fill-opacity="1" fill-rule="evenodd"/><path fill="#000000" d="M 100.65625 122.109375 L 119 130.75 L 136.949219 121.910156 L 119 126.992188 Z M 100.65625 122.109375 " fill-opacity="1" fill-rule="evenodd"/><path fill="#000000" d="M 120.3125 114.941406 C 120.3125 114.320312 120.179688 113.949219 119.917969 113.835938 C 119.773438 113.769531 119.542969 113.738281 119.222656 113.738281 C 119.144531 113.738281 119.066406 113.738281 118.980469 113.746094 C 118.464844 113.769531 118.179688 114 118.117188 114.4375 L 118.089844 115.148438 L 115.546875 115.148438 L 115.921875 105.730469 L 122.859375 105.730469 L 122.859375 108.242188 L 118.371094 108.242188 L 118.191406 112.035156 C 118.621094 111.539062 119.210938 111.289062 119.953125 111.289062 C 120.054688 111.289062 120.160156 111.296875 120.269531 111.308594 C 121.15625 111.386719 121.828125 111.742188 122.292969 112.378906 C 122.667969 112.894531 122.859375 113.75 122.859375 114.941406 L 122.859375 119.953125 C 122.859375 122.421875 121.636719 123.660156 119.199219 123.660156 C 116.761719 123.660156 115.546875 122.421875 115.546875 119.953125 L 115.546875 117.867188 L 118.089844 117.867188 L 118.089844 119.953125 C 118.089844 120.75 118.457031 121.148438 119.1875 121.148438 L 119.207031 121.148438 C 119.945312 121.144531 120.3125 120.742188 120.3125 119.953125 Z M 120.3125 114.941406 " fill-opacity="1" fill-rule="nonzero"/><path fill="#000000" d="M 119.121094 90.554688 L 128.324219 107.738281 L 119.121094 94.304688 L 112.640625 101.398438 Z M 119.121094 90.554688 " fill-opacity="1" fill-rule="evenodd"/><path fill="#bb1717" d="M 116.417969 7.894531 C 116.554688 7.742188 116.707031 7.605469 116.863281 7.476562 L 116.929688 7.425781 L 117 7.375 L 117.082031 7.316406 L 117.164062 7.261719 L 117.179688 7.253906 L 117.269531 7.199219 L 117.375 7.136719 L 117.480469 7.078125 L 117.59375 7.023438 L 117.679688 6.984375 C 118.066406 6.8125 118.484375 6.703125 118.921875 6.667969 L 119.027344 6.660156 L 119.09375 6.660156 L 119.191406 6.65625 L 119.292969 6.65625 L 119.417969 6.660156 L 119.515625 6.667969 C 119.953125 6.703125 120.371094 6.8125 120.757812 6.984375 L 120.828125 7.015625 L 120.914062 7.058594 L 120.996094 7.097656 L 121.085938 7.148438 L 121.167969 7.199219 L 121.183594 7.207031 L 121.273438 7.261719 L 121.375 7.328125 L 121.472656 7.398438 L 121.574219 7.476562 L 121.628906 7.519531 C 121.765625 7.636719 121.898438 7.761719 122.019531 7.894531 L 229.996094 124.976562 C 230.476562 125.5 230.785156 126.125 230.917969 126.777344 C 231.011719 127.222656 231.027344 127.691406 230.949219 128.160156 C 230.882812 128.5625 230.75 128.960938 230.550781 129.332031 L 230.542969 129.34375 C 230.386719 129.636719 230.191406 129.902344 229.972656 130.140625 L 122.652344 246.511719 C 122 247.65625 120.769531 248.433594 119.359375 248.433594 C 119.335938 248.433594 119.3125 248.433594 119.285156 248.433594 C 119.265625 248.433594 119.242188 248.433594 119.21875 248.433594 C 118.160156 248.433594 117.152344 247.992188 116.433594 247.214844 L 8.441406 130.113281 C 7.105469 128.664062 7.105469 126.429688 8.441406 124.980469 Z M 116.417969 7.894531 " fill-opacity="1" fill-rule="evenodd"/><g clip-path="url(#b54624a37e)"><path fill="#bb1717" d="M 14.933594 127.546875 L 119.21875 14.464844 L 223.503906 127.546875 L 119.21875 240.625 Z M 124.4375 1.570312 L 124.546875 1.632812 L 124.554688 1.636719 L 124.546875 1.632812 L 124.640625 1.6875 L 124.726562 1.742188 C 124.78125 1.777344 124.835938 1.8125 124.890625 1.847656 L 124.992188 1.917969 C 125.050781 1.953125 125.109375 1.996094 125.164062 2.035156 L 125.265625 2.105469 C 125.324219 2.148438 125.378906 2.191406 125.4375 2.234375 L 125.535156 2.308594 C 125.582031 2.34375 125.625 2.378906 125.667969 2.414062 L 125.722656 2.457031 C 125.738281 2.46875 125.753906 2.480469 125.769531 2.492188 C 126.140625 2.800781 234.785156 120.5625 234.785156 120.5625 C 236.09375 121.984375 236.929688 123.683594 237.296875 125.460938 C 237.546875 126.660156 237.585938 127.933594 237.375 129.214844 C 237.195312 130.316406 236.835938 131.394531 236.296875 132.402344 L 236.285156 132.421875 L 236.28125 132.429688 L 236.273438 132.4375 C 235.851562 133.226562 235.332031 133.945312 234.734375 134.582031 C 234.742188 134.574219 134.796875 242.949219 127.820312 250.511719 C 125.96875 253.1875 122.871094 254.945312 119.367188 254.949219 L 119.21875 254.949219 C 116.34375 254.949219 113.597656 253.746094 111.648438 251.632812 L 3.652344 134.527344 C 0.015625 130.585938 0.015625 124.507812 3.652344 120.5625 C 3.652344 120.5625 110.371094 4.84375 111.621094 3.492188 L 111.617188 3.492188 C 111.988281 3.089844 112.390625 2.714844 112.816406 2.375 L 112.871094 2.332031 L 112.941406 2.28125 L 113.054688 2.191406 L 113.125 2.140625 C 113.167969 2.105469 113.214844 2.074219 113.257812 2.042969 L 113.339844 1.984375 C 113.386719 1.953125 113.433594 1.921875 113.484375 1.890625 L 113.5625 1.835938 L 113.652344 1.777344 C 113.652344 1.777344 114.777344 1.078125 113.746094 1.71875 L 113.835938 1.664062 C 113.890625 1.628906 113.949219 1.59375 114.003906 1.5625 L 114.109375 1.5 C 114.167969 1.46875 114.230469 1.433594 114.292969 1.398438 L 114.398438 1.34375 C 114.460938 1.308594 114.523438 1.277344 114.589844 1.242188 L 114.703125 1.1875 C 114.761719 1.160156 114.816406 1.132812 114.871094 1.105469 L 114.957031 1.070312 C 114.980469 1.058594 115.003906 1.046875 115.027344 1.035156 C 116.085938 0.5625 117.226562 0.269531 118.40625 0.175781 C 118.4375 0.171875 118.46875 0.171875 118.496094 0.171875 L 118.605469 0.164062 C 118.660156 0.160156 118.707031 0.15625 118.757812 0.15625 L 118.824219 0.152344 C 118.871094 0.148438 118.917969 0.148438 118.964844 0.148438 L 119.058594 0.144531 C 119.117188 0.144531 119.171875 0.144531 119.230469 0.144531 L 119.332031 0.144531 C 119.398438 0.144531 119.460938 0.144531 119.527344 0.148438 L 119.652344 0.152344 C 119.714844 0.15625 119.777344 0.160156 119.84375 0.164062 L 119.945312 0.171875 C 119.972656 0.171875 120 0.171875 120.027344 0.175781 C 121.210938 0.269531 122.351562 0.5625 123.410156 1.035156 C 123.425781 1.042969 123.445312 1.050781 123.464844 1.0625 L 123.535156 1.09375 C 123.582031 1.113281 123.625 1.136719 123.671875 1.15625 L 123.757812 1.199219 C 123.804688 1.222656 123.855469 1.246094 123.902344 1.269531 L 123.984375 1.3125 C 124.03125 1.339844 124.082031 1.363281 124.132812 1.390625 L 124.21875 1.4375 C 124.269531 1.46875 124.320312 1.496094 124.367188 1.523438 L 124.453125 1.574219 Z M 124.4375 1.570312 " fill-opacity="1" fill-rule="evenodd"/></g><path fill="#bb1717" d="M 116.417969 7.894531 C 116.554688 7.742188 116.707031 7.605469 116.863281 7.476562 L 116.929688 7.425781 L 117 7.375 L 117.082031 7.316406 L 117.164062 7.261719 L 117.179688 7.253906 L 117.269531 7.199219 L 117.375 7.136719 L 117.480469 7.078125 L 117.59375 7.023438 L 117.679688 6.984375 C 118.066406 6.8125 118.484375 6.703125 118.921875 6.667969 L 119.027344 6.660156 L 119.09375 6.660156 L 119.191406 6.65625 L 119.292969 6.65625 L 119.417969 6.660156 L 119.515625 6.667969 C 119.953125 6.703125 120.371094 6.8125 120.757812 6.984375 L 120.828125 7.015625 L 120.914062 7.058594 L 120.996094 7.097656 L 121.085938 7.148438 L 121.167969 7.199219 L 121.183594 7.207031 L 121.273438 7.261719 L 121.375 7.328125 L 121.472656 7.398438 L 121.574219 7.476562 L 121.628906 7.519531 C 121.765625 7.636719 121.898438 7.761719 122.019531 7.894531 L 229.996094 124.976562 C 230.476562 125.5 230.785156 126.125 230.917969 126.777344 C 231.011719 127.222656 231.027344 127.691406 230.949219 128.160156 C 230.882812 128.5625 230.75 128.960938 230.550781 129.332031 L 230.542969 129.34375 C 230.386719 129.636719 230.191406 129.902344 229.972656 130.140625 L 122.652344 246.511719 C 122 247.65625 120.769531 248.433594 119.359375 248.433594 C 119.335938 248.433594 119.3125 248.433594 119.285156 248.433594 C 119.265625 248.433594 119.242188 248.433594 119.21875 248.433594 C 118.160156 248.433594 117.152344 247.992188 116.433594 247.214844 L 8.441406 130.113281 C 7.105469 128.664062 7.105469 126.429688 8.441406 124.980469 Z M 116.417969 7.894531 " fill-opacity="1" fill-rule="evenodd"/><path fill="#000000" d="M 25.71875 131.613281 L 59.972656 123.617188 L 111.675781 149.058594 L 111.675781 196.855469 C 111.675781 196.855469 107.03125 135.683594 25.71875 131.613281 " fill-opacity="1" fill-rule="evenodd"/><path fill="#000000" d="M 185.097656 107.078125 L 204.632812 113.53125 L 155.65625 59.644531 Z M 185.097656 107.078125 " fill-opacity="1" fill-rule="evenodd"/><path fill="#000000" d="M 54.613281 107.078125 L 35.078125 113.53125 L 84.054688 59.644531 Z M 54.613281 107.078125 " fill-opacity="1" fill-rule="evenodd"/><path fill="#000000" d="M 212.355469 131.613281 L 178.097656 123.617188 L 126.398438 149.058594 L 126.398438 196.855469 C 126.398438 196.855469 131.042969 135.683594 212.355469 131.613281 " fill-opacity="1" fill-rule="evenodd"/><path fill="#000000" d="M 180.371094 119.136719 L 220.164062 129.605469 L 123.128906 234.824219 L 123.007812 146.121094 L 180.210938 119.214844 C 180.265625 119.191406 180.316406 119.164062 180.371094 119.136719 M 18.328125 129.664062 L 59.191406 118.914062 L 115.4375 146.097656 L 115.558594 235.09375 Z M 99.882812 36.992188 L 57.863281 111.433594 L 22.703125 120.683594 Z M 180.429688 111.324219 L 138.496094 36.929688 L 215.644531 120.585938 Z M 119.21875 18.148438 C 119.21875 18.148438 75.328125 95.898438 65.394531 113.5 C 65.394531 113.5 110.089844 135.101562 119.242188 139.523438 C 127.183594 135.789062 161.847656 119.484375 173.300781 114.097656 L 119.214844 18.148438 Z M 116.417969 7.894531 C 116.558594 7.742188 116.707031 7.605469 116.867188 7.476562 L 116.875 7.46875 L 116.902344 7.449219 L 116.949219 7.410156 L 116.976562 7.394531 L 117 7.375 C 117.019531 7.363281 117.03125 7.351562 117.050781 7.339844 L 117.066406 7.328125 L 117.085938 7.316406 L 117.101562 7.304688 C 117.117188 7.292969 117.136719 7.28125 117.152344 7.269531 L 117.164062 7.261719 L 117.179688 7.253906 C 117.207031 7.234375 117.230469 7.222656 117.257812 7.207031 L 117.269531 7.199219 L 117.285156 7.1875 C 117.300781 7.179688 117.320312 7.167969 117.335938 7.15625 L 117.355469 7.148438 L 117.394531 7.125 L 117.421875 7.109375 L 117.445312 7.097656 L 117.480469 7.078125 L 117.527344 7.054688 L 117.554688 7.042969 L 117.585938 7.027344 L 117.613281 7.015625 L 117.640625 7 L 117.667969 6.988281 L 117.679688 6.984375 C 118.066406 6.8125 118.488281 6.703125 118.921875 6.667969 L 118.933594 6.667969 L 118.996094 6.664062 L 119.0625 6.660156 L 119.09375 6.660156 L 119.125 6.65625 L 119.316406 6.65625 L 119.347656 6.660156 L 119.445312 6.664062 L 119.507812 6.667969 L 119.519531 6.667969 C 119.953125 6.703125 120.371094 6.8125 120.757812 6.984375 L 120.773438 6.988281 L 120.800781 7.003906 C 120.808594 7.007812 120.820312 7.011719 120.828125 7.015625 L 120.855469 7.027344 L 120.882812 7.042969 L 120.914062 7.058594 L 120.96875 7.082031 L 120.996094 7.101562 C 121.015625 7.109375 121.03125 7.117188 121.046875 7.128906 L 121.066406 7.136719 L 121.085938 7.148438 L 121.101562 7.160156 C 121.121094 7.167969 121.136719 7.179688 121.15625 7.1875 L 121.167969 7.199219 L 121.183594 7.207031 C 121.210938 7.222656 121.234375 7.238281 121.261719 7.253906 L 121.273438 7.261719 L 121.289062 7.273438 C 121.304688 7.28125 121.320312 7.292969 121.339844 7.304688 L 121.355469 7.316406 L 121.375 7.328125 L 121.390625 7.339844 L 121.417969 7.359375 L 121.441406 7.378906 L 121.464844 7.394531 L 121.492188 7.414062 L 121.515625 7.433594 L 121.539062 7.449219 L 121.566406 7.46875 L 121.589844 7.488281 C 121.597656 7.496094 121.605469 7.503906 121.613281 7.507812 L 121.628906 7.519531 C 121.765625 7.636719 121.898438 7.761719 122.019531 7.894531 L 229.996094 124.980469 C 230.476562 125.5 230.785156 126.125 230.921875 126.777344 C 231.011719 127.222656 231.027344 127.691406 230.949219 128.160156 C 230.882812 128.5625 230.75 128.960938 230.554688 129.332031 L 230.542969 129.347656 C 230.386719 129.636719 230.195312 129.902344 229.972656 130.140625 L 122.652344 246.511719 C 122.003906 247.65625 120.773438 248.433594 119.359375 248.433594 C 119.335938 248.433594 119.3125 248.433594 119.289062 248.433594 C 119.265625 248.433594 119.242188 248.433594 119.21875 248.433594 C 118.164062 248.433594 117.152344 247.992188 116.4375 247.214844 L 8.441406 130.113281 C 7.105469 128.664062 7.105469 126.429688 8.441406 124.980469 Z M 116.417969 7.894531 " fill-opacity="1" fill-rule="evenodd"/><path fill="#000000" d="M 126.90625 200.597656 L 126.167969 226.429688 L 213.070312 133.992188 L 130.105469 214.078125 Z M 111.847656 199.9375 L 110.828125 222.859375 L 25.503906 134.097656 L 107.007812 212.925781 Z M 111.847656 199.9375 " fill-opacity="1" fill-rule="evenodd"/><path fill="#000000" d="M 68.757812 112.554688 L 119.34375 136.390625 L 168.835938 112.007812 L 119.34375 126.019531 Z M 68.757812 112.554688 " fill-opacity="1" fill-rule="evenodd"/><path fill="#000000" d="M 122.964844 92.792969 C 122.964844 91.074219 122.601562 90.054688 121.871094 89.742188 C 121.476562 89.558594 120.839844 89.46875 119.960938 89.46875 C 119.746094 89.46875 119.523438 89.476562 119.292969 89.492188 C 117.871094 89.558594 117.078125 90.195312 116.910156 91.402344 L 116.835938 93.363281 L 109.816406 93.363281 L 110.859375 67.390625 L 129.984375 67.390625 L 129.984375 74.3125 L 117.605469 74.3125 L 117.109375 84.78125 C 118.300781 83.40625 119.921875 82.722656 121.972656 82.722656 C 122.253906 82.722656 122.542969 82.738281 122.839844 82.769531 C 125.289062 82.984375 127.148438 83.96875 128.421875 85.722656 C 129.460938 87.144531 129.984375 89.503906 129.984375 92.792969 L 129.984375 106.609375 C 129.984375 113.421875 126.617188 116.832031 119.886719 116.832031 C 113.171875 116.832031 109.816406 113.421875 109.816406 106.609375 L 109.816406 100.855469 L 116.835938 100.855469 L 116.835938 106.609375 C 116.835938 108.808594 117.84375 109.910156 119.863281 109.910156 L 119.914062 109.910156 C 121.945312 109.894531 122.964844 108.792969 122.964844 106.609375 Z M 122.964844 92.792969 " fill-opacity="1" fill-rule="nonzero"/><path fill="#000000" d="M 119.671875 25.539062 L 145.058594 72.929688 L 119.671875 35.882812 L 101.808594 55.441406 Z M 119.671875 25.539062 " fill-opacity="1" fill-rule="evenodd"/></svg>